<?xml version="1.0" encoding="utf-8" standalone="no"?>
<!DOCTYPE svg PUBLIC "-//W3C//DTD SVG 1.1//EN"
  "http://www.w3.org/Graphics/SVG/1.1/DTD/svg11.dtd">
<svg xmlns:xlink="http://www.w3.org/1999/xlink" width="407.401609pt" height="325.941172pt" viewBox="0 0 407.401609 325.941172" xmlns="http://www.w3.org/2000/svg" version="1.1">
 <metadata>
  <rdf:RDF xmlns:dc="http://purl.org/dc/elements/1.1/" xmlns:cc="http://creativecommons.org/ns#" xmlns:rdf="http://www.w3.org/1999/02/22-rdf-syntax-ns#">
   <cc:Work>
    <dc:type rdf:resource="http://purl.org/dc/dcmitype/StillImage"/>
    <dc:date>2025-03-07T10:33:48.810598</dc:date>
    <dc:format>image/svg+xml</dc:format>
    <dc:creator>
     <cc:Agent>
      <dc:title>Matplotlib v3.10.0, https://matplotlib.org/</dc:title>
     </cc:Agent>
    </dc:creator>
   </cc:Work>
  </rdf:RDF>
 </metadata>
 <defs>
  <style type="text/css">*{stroke-linejoin: round; stroke-linecap: butt}</style>
 </defs>
 <g id="figure_1">
  <g id="patch_1">
   <path d="M 0 325.941172 
L 407.401609 325.941172 
L 407.401609 0 
L 0 0 
z
" style="fill: #ffffff"/>
  </g>
  <g id="axes_1">
   <g id="patch_2">
    <path d="M 43.081609 287.865876 
L 400.201609 287.865876 
L 400.201609 21.753876 
L 43.081609 21.753876 
z
" style="fill: #ffffff"/>
   </g>
   <g id="matplotlib.axis_1">
    <g id="xtick_1">
     <g id="line2d_1">
      <path d="M 57.2101 287.865876 
L 57.2101 21.753876 
" clip-path="url(#pc3f1a900c6)" style="fill: none; stroke: #b0b0b0; stroke-width: 0.8; stroke-linecap: square"/>
     </g>
     <g id="line2d_2">
      <defs>
       <path id="m8ebcc40d44" d="M 0 0 
L 0 3.5 
" style="stroke: #000000; stroke-width: 0.8"/>
      </defs>
      <g>
       <use xlink:href="#m8ebcc40d44" x="57.2101" y="287.865876" style="stroke: #000000; stroke-width: 0.8"/>
      </g>
     </g>
     <g id="text_1">
      <!-- $\mathdefault{0}$ -->
      <g transform="translate(54.71944 301.994113) scale(0.1 -0.1)">
       <defs>
        <path id="URWPalladioL-Roma-30" d="M 1683 4416 
C 691 4416 186 3628 186 2077 
C 186 1326 320 680 544 366 
C 768 51 1126 -128 1523 -128 
C 2490 -128 2976 705 2976 2346 
C 2976 3749 2560 4416 1683 4416 
z
M 1568 4192 
C 2189 4192 2438 3564 2438 2025 
C 2438 661 2195 96 1606 96 
C 986 96 723 744 723 2308 
C 723 3660 960 4192 1568 4192 
z
" transform="scale(0.015625)"/>
       </defs>
       <use xlink:href="#URWPalladioL-Roma-30" transform="scale(0.996264)"/>
      </g>
     </g>
    </g>
    <g id="xtick_2">
     <g id="line2d_3">
      <path d="M 102.404952 287.865876 
L 102.404952 21.753876 
" clip-path="url(#pc3f1a900c6)" style="fill: none; stroke: #b0b0b0; stroke-width: 0.8; stroke-linecap: square"/>
     </g>
     <g id="line2d_4">
      <g>
       <use xlink:href="#m8ebcc40d44" x="102.404952" y="287.865876" style="stroke: #000000; stroke-width: 0.8"/>
      </g>
     </g>
     <g id="text_2">
      <!-- $\mathdefault{10}$ -->
      <g transform="translate(97.423632 301.994113) scale(0.1 -0.1)">
       <defs>
        <path id="URWPalladioL-Roma-31" d="M 429 3584 
L 493 3584 
L 1318 3956 
C 1325 3962 1331 3962 1338 3962 
C 1376 3962 1389 3905 1389 3751 
L 1389 613 
C 1389 276 1318 205 973 205 
L 614 205 
L 614 0 
C 1600 0 1600 0 1670 0 
C 1754 0 1894 0 2112 0 
C 2189 0 2413 0 2675 0 
L 2675 205 
L 2342 205 
C 1990 205 1926 276 1926 612 
L 1926 4443 
L 1837 4475 
C 1421 4257 966 4065 384 3860 
L 429 3584 
z
" transform="scale(0.015625)"/>
       </defs>
       <use xlink:href="#URWPalladioL-Roma-31" transform="scale(0.996264)"/>
       <use xlink:href="#URWPalladioL-Roma-30" transform="translate(49.8132 0) scale(0.996264)"/>
      </g>
     </g>
    </g>
    <g id="xtick_3">
     <g id="line2d_5">
      <path d="M 147.599804 287.865876 
L 147.599804 21.753876 
" clip-path="url(#pc3f1a900c6)" style="fill: none; stroke: #b0b0b0; stroke-width: 0.8; stroke-linecap: square"/>
     </g>
     <g id="line2d_6">
      <g>
       <use xlink:href="#m8ebcc40d44" x="147.599804" y="287.865876" style="stroke: #000000; stroke-width: 0.8"/>
      </g>
     </g>
     <g id="text_3">
      <!-- $\mathdefault{20}$ -->
      <g transform="translate(142.618484 301.994113) scale(0.1 -0.1)">
       <defs>
        <path id="URWPalladioL-Roma-32" d="M 102 160 
L 102 0 
C 1299 0 1299 0 1530 0 
C 1760 0 1760 0 2995 0 
C 2982 125 2982 186 2982 269 
C 2982 348 2982 407 2995 539 
C 2259 539 1965 539 781 539 
L 1946 1761 
C 2566 2414 2758 2763 2758 3238 
C 2758 3966 2259 4416 1446 4416 
C 986 4416 672 4288 358 3969 
L 250 3099 
L 435 3099 
L 518 3393 
C 621 3763 851 3923 1280 3923 
C 1830 3923 2182 3577 2182 3035 
C 2182 2555 1914 2083 1190 1316 
L 102 160 
z
" transform="scale(0.015625)"/>
       </defs>
       <use xlink:href="#URWPalladioL-Roma-32" transform="scale(0.996264)"/>
       <use xlink:href="#URWPalladioL-Roma-30" transform="translate(49.8132 0) scale(0.996264)"/>
      </g>
     </g>
    </g>
    <g id="xtick_4">
     <g id="line2d_7">
      <path d="M 192.794656 287.865876 
L 192.794656 21.753876 
" clip-path="url(#pc3f1a900c6)" style="fill: none; stroke: #b0b0b0; stroke-width: 0.8; stroke-linecap: square"/>
     </g>
     <g id="line2d_8">
      <g>
       <use xlink:href="#m8ebcc40d44" x="192.794656" y="287.865876" style="stroke: #000000; stroke-width: 0.8"/>
      </g>
     </g>
     <g id="text_4">
      <!-- $\mathdefault{30}$ -->
      <g transform="translate(187.813336 301.994113) scale(0.1 -0.1)">
       <defs>
        <path id="URWPalladioL-Roma-33" d="M 275 3197 
L 474 3197 
L 589 3554 
C 659 3770 1062 3987 1395 3987 
C 1811 3987 2150 3649 2150 3248 
C 2150 2770 1773 2368 1318 2368 
C 1267 2368 1197 2368 1114 2381 
L 1018 2381 
L 941 2047 
L 986 2008 
C 1229 2118 1350 2150 1523 2150 
C 2054 2150 2362 1809 2362 1222 
C 2362 566 1971 135 1376 135 
C 1082 135 819 231 627 411 
C 474 553 390 701 269 1049 
L 96 985 
C 230 593 282 361 320 39 
C 659 -77 941 -128 1178 -128 
C 1690 -128 2278 161 2630 593 
C 2848 857 2957 1140 2957 1442 
C 2957 1751 2829 2022 2598 2182 
C 2438 2298 2291 2350 1971 2407 
C 2483 2803 2675 3096 2675 3472 
C 2675 4040 2202 4416 1491 4416 
C 1056 4416 768 4295 461 3989 
L 275 3197 
z
" transform="scale(0.015625)"/>
       </defs>
       <use xlink:href="#URWPalladioL-Roma-33" transform="scale(0.996264)"/>
       <use xlink:href="#URWPalladioL-Roma-30" transform="translate(49.8132 0) scale(0.996264)"/>
      </g>
     </g>
    </g>
    <g id="xtick_5">
     <g id="line2d_9">
      <path d="M 237.989509 287.865876 
L 237.989509 21.753876 
" clip-path="url(#pc3f1a900c6)" style="fill: none; stroke: #b0b0b0; stroke-width: 0.8; stroke-linecap: square"/>
     </g>
     <g id="line2d_10">
      <g>
       <use xlink:href="#m8ebcc40d44" x="237.989509" y="287.865876" style="stroke: #000000; stroke-width: 0.8"/>
      </g>
     </g>
     <g id="text_5">
      <!-- $\mathdefault{40}$ -->
      <g transform="translate(233.008189 301.994113) scale(0.1 -0.1)">
       <defs>
        <path id="URWPalladioL-Roma-34" d="M 1792 1152 
L 1792 673 
C 1792 289 1722 199 1408 199 
L 1011 199 
L 1011 0 
C 1862 0 1862 0 2016 0 
C 2170 0 2170 0 3021 0 
L 3021 199 
L 2714 199 
C 2400 199 2330 282 2330 669 
L 2330 1152 
C 2707 1152 2842 1152 3021 1133 
L 3021 1588 
C 2720 1563 2598 1563 2502 1563 
L 2483 1563 
L 2330 1563 
L 2330 2457 
C 2330 3600 2342 4152 2374 4416 
L 2298 4448 
L 1824 4275 
L 13 1299 
L 83 1152 
L 1792 1152 
z
M 1792 1563 
L 416 1563 
L 1792 3826 
L 1792 1563 
z
" transform="scale(0.015625)"/>
       </defs>
       <use xlink:href="#URWPalladioL-Roma-34" transform="scale(0.996264)"/>
       <use xlink:href="#URWPalladioL-Roma-30" transform="translate(49.8132 0) scale(0.996264)"/>
      </g>
     </g>
    </g>
    <g id="xtick_6">
     <g id="line2d_11">
      <path d="M 283.184361 287.865876 
L 283.184361 21.753876 
" clip-path="url(#pc3f1a900c6)" style="fill: none; stroke: #b0b0b0; stroke-width: 0.8; stroke-linecap: square"/>
     </g>
     <g id="line2d_12">
      <g>
       <use xlink:href="#m8ebcc40d44" x="283.184361" y="287.865876" style="stroke: #000000; stroke-width: 0.8"/>
      </g>
     </g>
     <g id="text_6">
      <!-- $\mathdefault{50}$ -->
      <g transform="translate(278.203041 301.994113) scale(0.1 -0.1)">
       <defs>
        <path id="URWPalladioL-Roma-35" d="M 813 3877 
C 1638 3877 1997 3877 2765 3877 
L 2797 3907 
C 2784 4016 2784 4064 2784 4144 
C 2784 4229 2784 4277 2797 4386 
L 2765 4416 
C 2285 4416 1997 4416 1651 4416 
C 1299 4416 1018 4416 538 4416 
L 506 4403 
C 512 4011 518 3729 518 3523 
C 518 2977 499 2360 480 2077 
L 608 2038 
C 909 2341 1082 2432 1395 2432 
C 2010 2432 2394 1993 2394 1296 
C 2394 580 1984 160 1286 160 
C 941 160 621 277 531 444 
L 237 973 
L 83 883 
C 230 516 307 310 397 27 
C 576 -71 832 -128 1107 -128 
C 1536 -128 1990 59 2342 368 
C 2733 716 2938 1154 2938 1630 
C 2938 2359 2419 2874 1690 2874 
C 1382 2874 1152 2791 755 2554 
L 813 3877 
z
" transform="scale(0.015625)"/>
       </defs>
       <use xlink:href="#URWPalladioL-Roma-35" transform="scale(0.996264)"/>
       <use xlink:href="#URWPalladioL-Roma-30" transform="translate(49.8132 0) scale(0.996264)"/>
      </g>
     </g>
    </g>
    <g id="xtick_7">
     <g id="line2d_13">
      <path d="M 328.379213 287.865876 
L 328.379213 21.753876 
" clip-path="url(#pc3f1a900c6)" style="fill: none; stroke: #b0b0b0; stroke-width: 0.8; stroke-linecap: square"/>
     </g>
     <g id="line2d_14">
      <g>
       <use xlink:href="#m8ebcc40d44" x="328.379213" y="287.865876" style="stroke: #000000; stroke-width: 0.8"/>
      </g>
     </g>
     <g id="text_7">
      <!-- $\mathdefault{60}$ -->
      <g transform="translate(323.397893 301.994113) scale(0.1 -0.1)">
       <defs>
        <path id="URWPalladioL-Roma-36" d="M 2662 4310 
L 2426 4419 
C 1811 4214 1549 4086 1222 3804 
C 563 3246 205 2464 205 1585 
C 205 526 717 -128 1542 -128 
C 2374 -128 2995 532 2995 1405 
C 2995 2143 2554 2624 1875 2624 
C 1555 2624 1363 2540 986 2239 
C 915 2181 909 2175 838 2124 
C 973 3284 1510 3913 2662 4259 
L 2662 4310 
z
M 1632 2239 
C 2118 2239 2445 1816 2445 1181 
C 2445 513 2118 83 1626 83 
C 1082 83 787 551 787 1412 
C 787 1636 813 1758 883 1867 
C 1024 2085 1325 2239 1632 2239 
z
" transform="scale(0.015625)"/>
       </defs>
       <use xlink:href="#URWPalladioL-Roma-36" transform="scale(0.996264)"/>
       <use xlink:href="#URWPalladioL-Roma-30" transform="translate(49.8132 0) scale(0.996264)"/>
      </g>
     </g>
    </g>
    <g id="xtick_8">
     <g id="line2d_15">
      <path d="M 373.574065 287.865876 
L 373.574065 21.753876 
" clip-path="url(#pc3f1a900c6)" style="fill: none; stroke: #b0b0b0; stroke-width: 0.8; stroke-linecap: square"/>
     </g>
     <g id="line2d_16">
      <g>
       <use xlink:href="#m8ebcc40d44" x="373.574065" y="287.865876" style="stroke: #000000; stroke-width: 0.8"/>
      </g>
     </g>
     <g id="text_8">
      <!-- $\mathdefault{70}$ -->
      <g transform="translate(368.592745 301.994113) scale(0.1 -0.1)">
       <defs>
        <path id="URWPalladioL-Roma-37" d="M 358 32 
L 416 -51 
C 666 -32 666 -32 710 -32 
C 755 -32 755 -32 1005 -51 
C 1274 649 1587 1317 2010 2087 
L 3181 4199 
L 3181 4372 
C 2490 4372 2266 4372 1747 4372 
C 1280 4372 966 4372 346 4372 
L 282 4359 
C 301 3750 301 3750 301 3685 
C 301 3614 301 3614 282 3031 
L 474 3031 
L 518 3390 
C 570 3789 614 3840 909 3840 
L 2618 3840 
C 2362 3313 2163 2941 1920 2549 
L 358 32 
z
" transform="scale(0.015625)"/>
       </defs>
       <use xlink:href="#URWPalladioL-Roma-37" transform="scale(0.996264)"/>
       <use xlink:href="#URWPalladioL-Roma-30" transform="translate(49.8132 0) scale(0.996264)"/>
      </g>
     </g>
    </g>
    <g id="text_9">
     <!-- thrust [oz] -->
     <g transform="translate(198.678009 315.931761) scale(0.1 -0.1)">
      <defs>
       <path id="URWPalladioL-Roma-74" d="M 627 2476 
L 627 619 
C 627 142 838 -64 1331 -64 
C 1478 -64 1632 -32 1670 13 
L 1978 353 
L 1894 463 
C 1734 372 1638 340 1517 340 
C 1267 340 1165 470 1165 788 
L 1165 2489 
L 1984 2489 
L 2042 2816 
L 1165 2816 
L 1165 3056 
C 1165 3321 1184 3547 1235 3951 
L 1158 4021 
C 1005 3925 813 3842 614 3778 
C 634 3585 640 3463 640 3271 
L 640 2822 
L 141 2598 
L 141 2476 
L 627 2476 
z
" transform="scale(0.015625)"/>
       <path id="URWPalladioL-Roma-68" d="M 45 4248 
L 403 4248 
C 518 4248 563 4177 563 3984 
L 563 643 
C 563 237 544 192 326 192 
L 38 192 
L 38 -7 
C 474 -7 646 -7 832 -7 
C 1018 -7 1190 -7 1626 -7 
L 1626 192 
L 1338 192 
C 1120 192 1101 237 1101 643 
L 1101 2011 
C 1101 2300 1523 2616 1914 2616 
C 2342 2616 2624 2297 2624 1806 
L 2624 -7 
C 3014 -7 3021 -7 3130 -7 
C 3219 -7 3219 -7 3661 -7 
L 3661 179 
L 3398 205 
C 3181 205 3162 244 3162 654 
L 3162 1892 
C 3162 2642 2810 3008 2093 3008 
C 1856 3008 1722 2963 1587 2847 
L 1101 2424 
L 1101 4613 
L 1043 4665 
C 762 4556 550 4504 45 4427 
L 45 4248 
z
" transform="scale(0.015625)"/>
       <path id="URWPalladioL-Roma-72" d="M 147 2565 
L 384 2565 
C 640 2565 666 2520 666 2094 
L 666 643 
C 666 237 646 192 429 192 
L 134 192 
L 134 -7 
C 595 -7 762 -7 922 -7 
C 1050 -7 1050 -7 1837 -7 
L 1837 192 
L 1504 192 
C 1216 192 1203 211 1203 638 
L 1203 1751 
C 1203 2139 1459 2463 1773 2463 
C 1965 2463 2099 2373 2202 2169 
L 2336 2169 
L 2394 2937 
C 2323 2982 2208 3008 2093 3008 
C 1901 3008 1696 2905 1562 2745 
L 1203 2322 
L 1203 2982 
L 1146 3008 
C 819 2873 486 2783 147 2745 
L 147 2565 
z
" transform="scale(0.015625)"/>
       <path id="URWPalladioL-Roma-75" d="M 3219 3009 
L 3162 3035 
C 2835 2900 2502 2810 2163 2772 
L 2163 2592 
L 2400 2592 
C 2656 2592 2682 2547 2682 2121 
L 2682 1070 
C 2682 928 2592 747 2445 599 
C 2266 418 2061 327 1811 327 
C 1587 327 1408 398 1306 521 
C 1216 624 1171 824 1171 1107 
L 1171 3009 
L 1114 3035 
C 787 2900 454 2810 115 2772 
L 115 2592 
L 352 2592 
C 608 2592 634 2547 634 2122 
L 634 1039 
C 634 587 672 387 787 227 
C 928 33 1171 -64 1536 -64 
C 1824 -64 2080 26 2253 186 
L 2682 585 
C 2682 401 2675 298 2656 0 
C 3085 0 3091 0 3187 0 
C 3277 0 3277 0 3718 0 
L 3718 186 
L 3456 212 
C 3238 212 3219 251 3219 664 
L 3219 3009 
z
" transform="scale(0.015625)"/>
       <path id="URWPalladioL-Roma-73" d="M 262 917 
C 262 475 243 282 192 26 
C 525 -83 774 -128 1069 -128 
C 1907 -128 2502 321 2502 949 
C 2502 1148 2445 1295 2323 1424 
C 2157 1584 1946 1661 1382 1770 
C 858 1873 685 2001 685 2296 
C 685 2616 909 2796 1299 2796 
C 1728 2796 2054 2572 2054 2270 
L 2054 2123 
L 2234 2123 
C 2240 2495 2246 2648 2266 2847 
C 1926 2963 1696 3008 1434 3008 
C 691 3008 237 2655 237 2078 
C 237 1770 378 1552 672 1417 
C 845 1340 1184 1238 1619 1141 
C 1907 1077 2029 943 2029 699 
C 2029 353 1709 109 1254 109 
C 787 109 454 333 454 654 
L 454 917 
L 262 917 
z
" transform="scale(0.015625)"/>
       <path id="URWPalladioL-Roma-5b" d="M 563 -1152 
C 1018 -1152 1030 -1152 1184 -1152 
C 1338 -1152 1370 -1152 1805 -1152 
L 1843 -1120 
L 1843 -953 
L 1818 -921 
L 1574 -921 
C 1402 -921 1261 -882 1184 -818 
C 1126 -760 1107 -671 1107 -459 
C 1107 -453 1107 -318 1101 -125 
L 1101 112 
L 1101 3409 
L 1101 3646 
C 1107 3826 1107 3967 1107 3973 
C 1107 4185 1126 4281 1184 4339 
C 1261 4403 1402 4441 1574 4441 
L 1818 4441 
L 1843 4473 
L 1843 4640 
L 1805 4672 
C 1357 4672 1338 4672 1184 4672 
C 1037 4672 1005 4672 563 4672 
L 506 4595 
C 544 4435 557 4223 557 3730 
C 557 3633 557 3556 563 3492 
L 563 3409 
L 563 112 
L 563 28 
C 557 -74 557 -81 557 -190 
L 557 -260 
C 557 -696 544 -876 506 -1075 
L 563 -1152 
z
" transform="scale(0.015625)"/>
       <path id="URWPalladioL-Roma-6f" d="M 1786 3008 
C 851 3008 205 2347 205 1392 
C 205 487 774 -128 1600 -128 
C 2586 -128 3290 558 3290 1520 
C 3290 2386 2662 3008 1786 3008 
z
M 1670 2796 
C 2259 2796 2694 2155 2694 1283 
C 2694 545 2368 83 1850 83 
C 1222 83 800 699 800 1610 
C 800 2379 1107 2796 1670 2796 
z
" transform="scale(0.015625)"/>
       <path id="URWPalladioL-Roma-7a" d="M 2912 2764 
L 2912 2944 
C 2464 2944 2272 2944 2029 2944 
L 442 2944 
C 429 2624 422 2549 384 2115 
L 576 2115 
L 653 2547 
C 678 2681 794 2713 1267 2713 
L 2182 2713 
C 2048 2503 1939 2357 1766 2141 
L 678 794 
C 525 609 435 501 102 127 
L 141 0 
C 806 0 845 0 1120 0 
L 2886 0 
C 2886 145 2899 297 2944 602 
L 2982 899 
L 2790 899 
L 2675 397 
C 2650 282 2381 237 1766 237 
L 902 237 
L 2912 2764 
z
" transform="scale(0.015625)"/>
       <path id="URWPalladioL-Roma-5d" d="M 1568 4672 
C 1114 4672 1094 4672 947 4672 
C 794 4672 762 4672 326 4672 
L 288 4640 
L 288 4473 
L 314 4441 
L 557 4441 
C 730 4441 864 4403 941 4339 
C 1005 4281 1024 4191 1024 3973 
C 1024 3954 1024 3826 1030 3646 
L 1030 3409 
L 1030 112 
L 1030 -125 
C 1024 -311 1024 -427 1024 -446 
C 1024 -664 1005 -760 941 -818 
C 864 -882 730 -921 557 -921 
L 314 -921 
L 288 -953 
L 288 -1120 
L 326 -1152 
C 774 -1152 787 -1152 947 -1152 
C 1094 -1152 1126 -1152 1568 -1152 
L 1626 -1075 
C 1587 -921 1581 -722 1574 -228 
C 1574 -138 1574 -55 1568 28 
L 1568 112 
L 1568 3409 
L 1568 3492 
C 1574 3563 1574 3646 1574 3736 
C 1574 4230 1587 4441 1626 4595 
L 1568 4672 
z
" transform="scale(0.015625)"/>
      </defs>
      <use xlink:href="#URWPalladioL-Roma-74" transform="scale(0.996264)"/>
      <use xlink:href="#URWPalladioL-Roma-68" transform="translate(32.477088 0) scale(0.996264)"/>
      <use xlink:href="#URWPalladioL-Roma-72" transform="translate(90.459149 0) scale(0.996264)"/>
      <use xlink:href="#URWPalladioL-Roma-75" transform="translate(129.014471 0) scale(0.996264)"/>
      <use xlink:href="#URWPalladioL-Roma-73" transform="translate(189.088206 0) scale(0.996264)"/>
      <use xlink:href="#URWPalladioL-Roma-74" transform="translate(231.329673 0) scale(0.996264)"/>
      <use xlink:href="#URWPalladioL-Roma-5b" transform="translate(288.713361 0) scale(0.996264)"/>
      <use xlink:href="#URWPalladioL-Roma-6f" transform="translate(321.88859 0) scale(0.996264)"/>
      <use xlink:href="#URWPalladioL-Roma-7a" transform="translate(376.284171 0) scale(0.996264)"/>
      <use xlink:href="#URWPalladioL-Roma-5d" transform="translate(426.097371 0) scale(0.996264)"/>
     </g>
    </g>
   </g>
   <g id="matplotlib.axis_2">
    <g id="ytick_1">
     <g id="line2d_17">
      <path d="M 43.081609 250.88162 
L 400.201609 250.88162 
" clip-path="url(#pc3f1a900c6)" style="fill: none; stroke: #b0b0b0; stroke-width: 0.8; stroke-linecap: square"/>
     </g>
     <g id="line2d_18">
      <defs>
       <path id="m51bd9c9c2a" d="M 0 0 
L -3.5 0 
" style="stroke: #000000; stroke-width: 0.8"/>
      </defs>
      <g>
       <use xlink:href="#m51bd9c9c2a" x="43.081609" y="250.88162" style="stroke: #000000; stroke-width: 0.8"/>
      </g>
     </g>
     <g id="text_10">
      <!-- $\mathdefault{100}$ -->
      <g transform="translate(21.137648 254.445739) scale(0.1 -0.1)">
       <use xlink:href="#URWPalladioL-Roma-31" transform="scale(0.996264)"/>
       <use xlink:href="#URWPalladioL-Roma-30" transform="translate(49.8132 0) scale(0.996264)"/>
       <use xlink:href="#URWPalladioL-Roma-30" transform="translate(99.626401 0) scale(0.996264)"/>
      </g>
     </g>
    </g>
    <g id="ytick_2">
     <g id="line2d_19">
      <path d="M 43.081609 212.414455 
L 400.201609 212.414455 
" clip-path="url(#pc3f1a900c6)" style="fill: none; stroke: #b0b0b0; stroke-width: 0.8; stroke-linecap: square"/>
     </g>
     <g id="line2d_20">
      <g>
       <use xlink:href="#m51bd9c9c2a" x="43.081609" y="212.414455" style="stroke: #000000; stroke-width: 0.8"/>
      </g>
     </g>
     <g id="text_11">
      <!-- $\mathdefault{200}$ -->
      <g transform="translate(21.137648 215.978574) scale(0.1 -0.1)">
       <use xlink:href="#URWPalladioL-Roma-32" transform="scale(0.996264)"/>
       <use xlink:href="#URWPalladioL-Roma-30" transform="translate(49.8132 0) scale(0.996264)"/>
       <use xlink:href="#URWPalladioL-Roma-30" transform="translate(99.626401 0) scale(0.996264)"/>
      </g>
     </g>
    </g>
    <g id="ytick_3">
     <g id="line2d_21">
      <path d="M 43.081609 173.94729 
L 400.201609 173.94729 
" clip-path="url(#pc3f1a900c6)" style="fill: none; stroke: #b0b0b0; stroke-width: 0.8; stroke-linecap: square"/>
     </g>
     <g id="line2d_22">
      <g>
       <use xlink:href="#m51bd9c9c2a" x="43.081609" y="173.94729" style="stroke: #000000; stroke-width: 0.8"/>
      </g>
     </g>
     <g id="text_12">
      <!-- $\mathdefault{300}$ -->
      <g transform="translate(21.137648 177.511409) scale(0.1 -0.1)">
       <use xlink:href="#URWPalladioL-Roma-33" transform="scale(0.996264)"/>
       <use xlink:href="#URWPalladioL-Roma-30" transform="translate(49.8132 0) scale(0.996264)"/>
       <use xlink:href="#URWPalladioL-Roma-30" transform="translate(99.626401 0) scale(0.996264)"/>
      </g>
     </g>
    </g>
    <g id="ytick_4">
     <g id="line2d_23">
      <path d="M 43.081609 135.480125 
L 400.201609 135.480125 
" clip-path="url(#pc3f1a900c6)" style="fill: none; stroke: #b0b0b0; stroke-width: 0.8; stroke-linecap: square"/>
     </g>
     <g id="line2d_24">
      <g>
       <use xlink:href="#m51bd9c9c2a" x="43.081609" y="135.480125" style="stroke: #000000; stroke-width: 0.8"/>
      </g>
     </g>
     <g id="text_13">
      <!-- $\mathdefault{400}$ -->
      <g transform="translate(21.137648 139.044244) scale(0.1 -0.1)">
       <use xlink:href="#URWPalladioL-Roma-34" transform="scale(0.996264)"/>
       <use xlink:href="#URWPalladioL-Roma-30" transform="translate(49.8132 0) scale(0.996264)"/>
       <use xlink:href="#URWPalladioL-Roma-30" transform="translate(99.626401 0) scale(0.996264)"/>
      </g>
     </g>
    </g>
    <g id="ytick_5">
     <g id="line2d_25">
      <path d="M 43.081609 97.01296 
L 400.201609 97.01296 
" clip-path="url(#pc3f1a900c6)" style="fill: none; stroke: #b0b0b0; stroke-width: 0.8; stroke-linecap: square"/>
     </g>
     <g id="line2d_26">
      <g>
       <use xlink:href="#m51bd9c9c2a" x="43.081609" y="97.01296" style="stroke: #000000; stroke-width: 0.8"/>
      </g>
     </g>
     <g id="text_14">
      <!-- $\mathdefault{500}$ -->
      <g transform="translate(21.137648 100.577079) scale(0.1 -0.1)">
       <use xlink:href="#URWPalladioL-Roma-35" transform="scale(0.996264)"/>
       <use xlink:href="#URWPalladioL-Roma-30" transform="translate(49.8132 0) scale(0.996264)"/>
       <use xlink:href="#URWPalladioL-Roma-30" transform="translate(99.626401 0) scale(0.996264)"/>
      </g>
     </g>
    </g>
    <g id="ytick_6">
     <g id="line2d_27">
      <path d="M 43.081609 58.545796 
L 400.201609 58.545796 
" clip-path="url(#pc3f1a900c6)" style="fill: none; stroke: #b0b0b0; stroke-width: 0.8; stroke-linecap: square"/>
     </g>
     <g id="line2d_28">
      <g>
       <use xlink:href="#m51bd9c9c2a" x="43.081609" y="58.545796" style="stroke: #000000; stroke-width: 0.8"/>
      </g>
     </g>
     <g id="text_15">
      <!-- $\mathdefault{600}$ -->
      <g transform="translate(21.137648 62.109914) scale(0.1 -0.1)">
       <use xlink:href="#URWPalladioL-Roma-36" transform="scale(0.996264)"/>
       <use xlink:href="#URWPalladioL-Roma-30" transform="translate(49.8132 0) scale(0.996264)"/>
       <use xlink:href="#URWPalladioL-Roma-30" transform="translate(99.626401 0) scale(0.996264)"/>
      </g>
     </g>
    </g>
    <g id="text_16">
     <!-- power [W] -->
     <g transform="translate(14.328237 178.575537) rotate(-90) scale(0.1 -0.1)">
      <defs>
       <path id="URWPalladioL-Roma-70" d="M 64 2565 
L 301 2565 
C 557 2565 582 2520 582 2095 
L 582 -1142 
C 582 -1548 563 -1593 346 -1593 
L 51 -1593 
L 51 -1792 
C 691 -1792 691 -1792 851 -1792 
C 1011 -1792 1011 -1792 1651 -1792 
L 1651 -1593 
L 1357 -1593 
C 1139 -1593 1120 -1547 1120 -1138 
L 1120 89 
C 1312 -26 1517 -71 1805 -71 
C 1990 -71 2157 -32 2259 32 
L 2989 505 
C 3245 672 3546 1330 3546 1740 
C 3546 2451 2957 3008 2214 3008 
C 1978 3008 1747 2943 1645 2847 
L 1120 2367 
L 1120 2982 
L 1062 3008 
C 736 2873 403 2783 64 2745 
L 64 2565 
z
M 1120 1964 
C 1120 2053 1152 2124 1235 2233 
C 1421 2469 1683 2591 2003 2591 
C 2605 2591 2989 2169 2989 1504 
C 2989 787 2560 256 1984 256 
C 1632 256 1370 372 1120 633 
L 1120 1964 
z
" transform="scale(0.015625)"/>
       <path id="URWPalladioL-Roma-77" d="M 2643 3008 
C 2118 1788 2022 1571 1626 677 
L 1088 2444 
C 1069 2502 1062 2553 1062 2604 
C 1062 2700 1146 2752 1306 2752 
L 1562 2752 
L 1562 2932 
C 928 2932 928 2932 800 2932 
C 672 2932 672 2932 38 2932 
L 38 2765 
L 218 2752 
C 397 2739 480 2612 640 2114 
L 1293 -32 
L 1594 -32 
L 2221 1437 
C 2253 1514 2323 1667 2426 1884 
L 2554 2152 
L 3424 -32 
L 3718 -32 
C 3763 102 3814 249 3866 389 
C 3994 767 4134 1162 4160 1201 
L 4595 2196 
C 4787 2625 4864 2733 5005 2752 
L 5171 2765 
L 5171 2932 
C 4646 2932 4646 2932 4544 2932 
C 4442 2932 4442 2932 3917 2932 
L 3917 2752 
L 4134 2752 
C 4294 2752 4384 2675 4384 2559 
C 4384 2489 4371 2412 4339 2329 
L 4019 1433 
C 3968 1292 3917 1163 3712 638 
L 2976 2490 
C 2886 2707 2842 2835 2790 3008 
L 2643 3008 
z
" transform="scale(0.015625)"/>
       <path id="URWPalladioL-Roma-65" d="M 2797 447 
L 2714 511 
C 2304 269 2157 212 1882 212 
C 1466 212 1120 398 941 711 
C 819 921 774 1101 762 1472 
L 1696 1472 
C 2138 1472 2413 1472 2854 1544 
C 2861 1634 2867 1693 2867 1771 
C 2867 2520 2394 3008 1677 3008 
C 1440 3008 1165 2924 902 2770 
C 378 2469 166 2071 166 1404 
C 166 1000 262 654 435 410 
C 691 71 1120 -128 1600 -128 
C 1837 -128 2074 -77 2336 37 
C 2509 108 2643 191 2669 230 
L 2797 447 
z
M 2298 1690 
C 1965 1690 1811 1690 1581 1690 
C 1286 1690 1120 1690 774 1722 
C 774 2027 800 2169 883 2337 
C 1018 2622 1293 2796 1600 2796 
C 1811 2796 1978 2711 2093 2534 
C 2234 2319 2278 2129 2298 1690 
z
" transform="scale(0.015625)"/>
       <path id="URWPalladioL-Roma-57" d="M 4698 -64 
C 4723 32 4742 122 4749 154 
C 4768 218 4819 411 4870 584 
L 5850 4032 
C 5888 4147 5952 4205 6093 4218 
L 6298 4237 
L 6298 4416 
L 5626 4416 
C 5562 4416 5562 4416 4954 4416 
L 4954 4237 
L 5210 4218 
C 5434 4199 5504 4167 5510 4063 
C 5510 4044 5510 4025 5504 4005 
L 4659 872 
L 3610 3826 
C 3469 4211 3450 4262 3398 4480 
L 3194 4480 
C 3059 4082 2950 3795 2618 2935 
L 1824 917 
L 1184 3795 
C 1165 3872 1158 3942 1158 4006 
C 1158 4147 1222 4205 1395 4218 
L 1664 4237 
L 1664 4416 
L 858 4416 
C 813 4416 544 4416 51 4416 
L 51 4237 
L 230 4218 
C 416 4199 493 4128 550 3897 
L 1312 597 
C 1395 231 1395 225 1459 -64 
L 1779 -64 
C 1837 141 1888 295 2010 597 
L 3123 3429 
L 3923 1256 
C 4134 687 4154 635 4378 -64 
L 4698 -64 
z
" transform="scale(0.015625)"/>
      </defs>
      <use xlink:href="#URWPalladioL-Roma-70" transform="scale(0.996264)"/>
      <use xlink:href="#URWPalladioL-Roma-6f" transform="translate(59.874394 0) scale(0.996264)"/>
      <use xlink:href="#URWPalladioL-Roma-77" transform="translate(114.269974 0) scale(0.996264)"/>
      <use xlink:href="#URWPalladioL-Roma-65" transform="translate(197.358067 0) scale(0.996264)"/>
      <use xlink:href="#URWPalladioL-Roma-72" transform="translate(245.078362 0) scale(0.996264)"/>
      <use xlink:href="#URWPalladioL-Roma-5b" transform="translate(309.336859 0) scale(0.996264)"/>
      <use xlink:href="#URWPalladioL-Roma-57" transform="translate(342.512088 0) scale(0.996264)"/>
      <use xlink:href="#URWPalladioL-Roma-5d" transform="translate(442.138489 0) scale(0.996264)"/>
     </g>
    </g>
   </g>
   <g id="line2d_29">
    <path d="M 59.833435 267.635625 
L 59.835642 267.629267 
L 60.001489 267.865918 
L 59.762988 267.640181 
L 59.935116 267.747137 
L 59.793543 267.829729 
L 59.394968 267.635688 
L 59.314336 268.041749 
L 59.76876 267.727345 
L 59.875194 267.748324 
L 59.504118 267.576679 
L 59.736337 267.838071 
L 59.731075 267.663971 
L 59.803559 267.770998 
L 59.868743 267.834819 
L 59.831398 267.77538 
L 59.536031 267.739812 
L 59.723097 267.838555 
L 59.649255 267.609143 
L 59.774362 267.940953 
L 59.493593 267.636274 
L 59.764346 267.777832 
L 59.737695 267.55767 
L 59.539426 267.148004 
L 59.364582 267.912167 
L 59.841753 267.818122 
L 59.739732 267.788936 
L 59.689995 267.66117 
L 59.565678 267.794483 
L 59.668437 267.781991 
L 59.658931 267.961715 
L 59.62566 267.267973 
L 59.592898 267.870075 
L 59.712233 267.764339 
L 59.414489 267.829733 
L 59.70748 267.752128 
L 59.885039 267.29219 
L 59.654857 267.863153 
L 59.745334 267.736014 
L 59.456248 267.708315 
L 59.499195 267.574174 
L 59.572697 267.739107 
L 59.458624 267.653655 
L 59.615984 267.206186 
L 59.527543 267.801488 
L 59.588314 267.805981 
L 60.026103 267.791645 
L 60.010995 267.864015 
L 59.880117 267.660632 
L 59.715967 267.858296 
L 59.89794 267.85222 
L 59.792525 267.891728 
L 59.545876 267.698946 
L 59.626678 267.739806 
L 59.593237 267.492731 
L 59.739902 267.761478 
L 59.970254 267.27406 
L 59.86382 267.685935 
L 60.021969 268.126791 
L 59.888434 267.985113 
L 60.030516 267.631983 
L 59.787602 267.837516 
L 59.643424 267.748552 
L 59.640088 267.594822 
L 59.826416 267.812041 
L 59.652709 267.700091 
L 59.595274 267.742595 
L 59.729208 267.682297 
L 59.774192 267.894672 
L 59.819176 267.669146 
L 60.073013 267.776539 
L 59.78879 267.90171 
L 59.862522 267.67736 
L 59.455739 267.834966 
L 59.353379 267.80028 
L 59.514982 267.509612 
L 59.47543 267.859685 
L 59.945471 267.776183 
L 59.727171 267.249079 
L 59.806954 268.088277 
L 59.908465 267.219522 
L 59.373409 267.858822 
L 59.76893 267.539603 
L 59.770457 267.669302 
L 60.143401 267.767207 
L 59.595444 267.635572 
L 59.936813 267.660971 
L 59.722418 267.771692 
L 60.023896 267.562464 
L 59.783299 267.679218 
L 59.536031 267.447237 
L 59.859237 267.636186 
L 60.084667 267.672644 
L 59.909484 267.191615 
L 60.017955 267.03395 
L 60.054451 267.155426 
L 60.267828 266.922195 
L 60.427564 266.479581 
L 60.714104 266.618033 
L 61.007095 266.575838 
L 60.994194 266.384568 
L 61.110304 266.24608 
L 61.386659 266.53653 
L 61.343313 266.071125 
L 61.828122 265.963145 
L 61.98622 265.273778 
L 62.102669 265.379985 
L 62.535704 265.482871 
L 62.667151 265.707376 
L 63.00269 265.311878 
L 63.244586 265.28909 
L 63.308921 264.718899 
L 63.515678 264.867125 
L 63.845675 264.012184 
L 64.338293 264.567852 
L 65.125599 264.401291 
L 65.011526 264.365158 
L 65.33643 264.446241 
L 65.433867 264.028896 
L 65.681135 263.942457 
L 66.063814 263.688605 
L 66.147391 263.956543 
L 66.355276 263.320595 
L 66.744516 263.063383 
L 66.992522 262.727084 
L 67.415882 262.93427 
L 67.506359 263.715427 
L 67.677978 263.116434 
L 67.979456 263.105873 
L 67.884735 263.162134 
L 68.333217 262.645011 
L 68.098621 262.407866 
L 68.424034 262.510225 
L 68.608045 262.363998 
L 68.990044 262.369192 
L 69.089629 261.960359 
L 69.359533 261.940136 
L 70.110173 262.019228 
L 70.16721 262.139752 
L 70.47395 261.370462 
L 70.57597 261.753271 
L 70.721956 261.677873 
L 71.31292 260.184186 
L 71.630635 260.499538 
L 71.87949 260.309859 
L 72.116123 261.61601 
L 72.178082 260.754638 
L 72.721795 260.720278 
L 72.852674 260.413616 
L 73.044492 260.579884 
L 73.286727 259.826325 
L 73.349875 260.232508 
L 73.538638 259.602994 
L 73.83791 260.337948 
L 74.027012 259.504956 
L 74.29488 259.280361 
L 74.732668 259.922303 
L 74.893083 259.25548 
L 75.275872 259.523156 
L 75.526085 259.389188 
L 75.927377 258.649333 
L 75.954707 259.506056 
L 76.292962 258.089934 
L 76.461584 259.02726 
L 76.945885 258.573378 
L 77.148058 258.84472 
L 77.386279 258.724935 
L 77.580924 257.962791 
L 77.706709 258.166503 
L 78.419495 257.856023 
L 78.811111 257.52028 
L 79.032297 256.417124 
L 79.512353 257.452698 
L 79.882071 256.550301 
L 80.122439 256.715376 
L 80.153334 256.476454 
L 80.491648 257.102994 
L 80.693482 257.043621 
L 80.910424 255.39622 
L 81.108863 256.120601 
L 81.303398 255.498745 
L 81.480279 255.392597 
L 81.61608 257.145513 
L 81.795337 255.761396 
L 82.018051 255.499738 
L 82.252248 255.778422 
L 82.555992 255.542736 
L 82.671992 255.723446 
L 82.924013 254.756125 
L 83.237713 254.873899 
L 83.334301 255.37526 
L 83.675671 254.929022 
L 84.861383 254.053019 
L 84.939978 254.635223 
L 85.101072 254.032597 
L 85.435652 253.373024 
L 86.007374 254.323505 
L 86.122126 254.276619 
L 86.420718 254.624476 
L 86.775837 253.031133 
L 86.948814 253.558773 
L 86.957641 252.968441 
L 87.369967 253.121027 
L 87.697926 252.312048 
L 88.133567 252.68436 
L 88.482177 252.519789 
L 88.601851 252.243384 
L 88.814889 252.369881 
L 89.208712 251.591631 
L 89.333649 252.204826 
L 89.486085 252.221696 
L 89.920479 251.532646 
L 90.089211 251.627198 
L 90.406137 250.752339 
L 90.620193 251.254876 
L 90.6426 251.049628 
L 91.203119 251.240821 
L 91.301574 250.36245 
L 91.797587 249.7765 
L 91.835272 250.82771 
L 92.099405 250.883625 
L 92.53929 249.965046 
L 92.900631 250.171643 
L 93.145412 250.061585 
L 93.343851 249.31732 
L 93.384252 249.66965 
L 94.06105 248.806779 
L 94.399534 249.043092 
L 95.154587 249.319093 
L 95.595261 248.549821 
L 95.46693 247.205139 
L 95.496636 248.162443 
L 95.818994 247.577525 
L 96.569124 246.827776 
L 96.912361 247.341112 
L 97.408094 247.118707 
L 97.798293 246.148202 
L 98.029494 246.364912 
L 98.466208 247.304565 
L 98.680999 246.449808 
L 99.180067 245.724692 
L 99.289727 245.096903 
L 100.94548 244.267153 
L 101.275646 243.33838 
L 101.590365 244.023729 
L 102.145961 244.513837 
L 102.346776 244.884703 
L 102.697877 243.600273 
L 102.995565 243.868835 
L 103.740149 243.730512 
L 104.284486 243.492978 
L 105.287152 240.506937 
L 105.573237 242.620683 
L 106.31522 242.318936 
L 106.79307 241.689437 
L 106.82668 242.007974 
L 107.036493 240.229415 
L 107.896622 239.056418 
L 108.211681 241.342279 
L 108.400444 239.859555 
L 108.91496 240.352362 
L 109.496188 239.230163 
L 110.075549 239.196426 
L 110.447983 239.725566 
L 110.988416 239.928405 
L 111.328936 238.717285 
L 112.284521 238.613522 
L 112.548994 237.091074 
L 113.89229 237.170674 
L 114.507413 236.079412 
L 114.952501 236.293452 
L 115.566152 235.654859 
L 115.86412 236.488375 
L 116.467361 235.128184 
L 117.151288 235.062817 
L 117.385206 235.544253 
L 117.653073 233.957419 
L 118.83573 234.08291 
L 119.210031 234.167384 
L 119.664285 234.127962 
L 119.96463 233.435964 
L 120.648673 232.812329 
L 121.139253 231.928764 
L 121.499975 235.011115 
L 121.985463 235.846001 
L 122.51622 230.675393 
L 123.235681 231.232089 
L 123.605229 230.363441 
L 124.059484 231.859106 
L 124.380992 230.942376 
L 124.503553 229.531955 
L 125.289161 231.948179 
L 125.753715 229.261759 
L 126.303425 229.976102 
L 126.719315 229.67915 
L 127.320404 229.100091 
L 128.03319 230.307821 
L 128.847147 224.442641 
L 129.092721 230.140556 
L 130.165095 225.746992 
L 130.090744 227.427345 
L 130.692342 224.679708 
L 131.83658 226.375302 
L 132.654157 227.214348 
L 133.089229 225.821689 
L 133.410908 225.491481 
L 133.669778 224.784404 
L 134.100607 224.519824 
L 134.984671 225.385953 
L 135.079562 222.857639 
L 135.993842 223.169856 
L 137.102827 219.629844 
L 137.562683 224.54009 
L 138.21249 221.76537 
L 138.654465 222.955916 
L 139.216569 221.780808 
L 139.794063 222.328653 
L 140.121455 220.875099 
L 140.531235 221.009642 
L 141.407548 220.389626 
L 141.926477 219.205304 
L 142.19774 220.685676 
L 142.626871 217.794853 
L 143.250706 217.897281 
L 143.752151 217.08806 
L 144.122549 219.343589 
L 144.707511 217.758416 
L 145.270406 215.204436 
L 146.053638 215.922394 
L 146.815821 218.078024 
L 147.503935 212.397025 
L 148.258367 216.712498 
L 149.22544 216.484937 
L 149.750877 213.916388 
L 149.87321 214.392782 
L 150.483126 214.253419 
L 150.892566 214.438675 
L 151.306589 210.811945 
L 151.729949 213.669162 
L 152.830446 215.084665 
L 153.601626 210.539386 
L 154.156373 210.581423 
L 154.456493 212.677274 
L 155.08627 210.690259 
L 155.244987 211.208905 
L 156.006321 211.399148 
L 156.142462 210.722394 
L 156.694267 208.879964 
L 156.752887 209.771176 
L 157.525425 208.780071 
L 158.118875 207.50607 
L 158.557512 208.046704 
L 159.443783 207.684949 
L 160.259098 208.235966 
L 160.762241 208.361475 
L 161.061512 207.817137 
L 161.49302 205.751248 
L 162.050653 205.694626 
L 163.413415 204.666253 
L 164.246894 205.146 
L 164.758467 203.741804 
L 165.274907 204.289858 
L 166.083941 196.715643 
L 166.546004 205.596966 
L 168.165374 201.454332 
L 168.528189 203.927471 
L 168.754298 202.208368 
L 169.429907 202.104913 
L 169.675028 201.025614 
L 170.350468 199.606735 
L 170.96129 200.807627 
L 171.979571 200.403219 
L 172.269506 199.8341 
L 172.733096 197.816031 
L 173.825106 199.249915 
L 174.787425 194.731953 
L 175.366956 198.959417 
L 176.560137 197.813284 
L 176.630075 196.230094 
L 177.191951 196.259469 
L 177.202985 193.30868 
L 177.353894 195.687513 
L 178.10046 198.135071 
L 178.926808 197.766744 
L 179.383948 193.179251 
L 179.66947 193.524542 
L 180.399909 191.929356 
L 181.166506 193.642169 
L 182.217436 193.017813 
L 182.967057 195.730936 
L 183.479196 191.971187 
L 183.591232 192.93106 
L 183.806816 192.115583 
L 184.476315 190.850129 
L 184.987775 189.111216 
L 185.50314 192.215912 
L 185.958073 184.280156 
L 186.685966 183.435824 
L 188.605116 191.037943 
L 190.041608 191.775067 
L 190.055358 189.285792 
L 190.184709 187.481596 
L 190.567101 184.774862 
L 191.323739 188.600493 
L 191.809907 186.468712 
L 192.396567 185.762087 
L 192.981699 184.417623 
L 193.315091 186.470089 
L 193.941473 183.455916 
L 194.697375 182.828686 
L 195.514727 182.794859 
L 196.228021 183.265366 
L 197.050239 178.343434 
L 198.181518 182.134757 
L 199.283883 183.459771 
L 199.177279 181.295857 
L 199.247386 182.30461 
L 199.591642 179.026424 
L 200.649361 179.522365 
L 201.463431 179.515728 
L 202.527828 180.490015 
L 202.740978 181.100252 
L 203.607446 178.861902 
L 204.127846 177.141498 
L 204.952499 177.802933 
L 205.506962 174.583536 
L 206.194509 175.523137 
L 206.899601 173.154152 
L 207.726968 174.770735 
L 208.465331 173.096782 
L 209.163573 172.20265 
L 210.24319 174.032457 
L 210.805067 170.69808 
L 211.427375 170.671982 
L 211.866012 172.052414 
L 212.779159 172.493433 
L 213.381211 170.431612 
L 213.915418 171.936114 
L 214.550797 170.858026 
L 215.013199 165.926025 
L 215.989099 163.86158 
L 216.40482 164.5309 
L 216.733912 169.275406 
L 217.375572 166.092895 
L 218.49276 169.158081 
L 219.183647 165.510993 
L 219.57051 165.319319 
L 220.611594 167.174 
L 221.260723 167.335983 
L 221.823957 166.386867 
L 222.305202 163.89311 
L 222.953142 164.024777 
L 223.273747 162.50226 
L 224.29893 163.185906 
L 224.717536 161.165625 
L 225.050758 162.552199 
L 225.418269 158.501758 
L 225.787987 163.081366 
L 226.906987 158.58411 
L 227.258372 161.805324 
L 228.220013 152.032074 
L 229.563933 155.949312 
L 230.949897 161.550238 
L 232.206111 154.364902 
L 232.744222 155.853143 
L 233.48926 156.061418 
L 233.871031 152.032172 
L 234.625121 156.532548 
L 236.73015 153.650491 
L 236.925025 155.386308 
L 237.067785 151.805576 
L 237.368924 150.824667 
L 238.051324 154.001619 
L 239.108704 153.963268 
L 239.726034 151.055614 
L 239.973247 148.911749 
L 240.130267 150.820791 
L 241.16541 151.738565 
L 242.138763 150.406275 
L 242.733572 150.243733 
L 242.894496 145.764339 
L 243.62188 144.393558 
L 244.473352 154.088296 
L 245.973214 152.277244 
L 244.932418 148.273725 
L 245.345194 151.104428 
L 245.968351 142.045845 
L 246.191573 145.094141 
L 247.952912 145.032922 
L 249.185586 145.371066 
L 249.786904 144.343947 
L 250.113505 144.975304 
L 251.088276 140.263682 
L 253.073287 142.062734 
L 253.703234 139.792106 
L 254.505818 141.731964 
L 255.018976 138.098871 
L 255.693397 138.559685 
L 256.593927 137.205607 
L 257.149014 136.643356 
L 257.830056 137.733394 
L 258.544199 134.684342 
L 259.284484 141.821335 
L 260.40592 132.293206 
L 260.979959 136.346194 
L 261.75029 134.091573 
L 262.485992 133.660555 
L 263.250152 132.351644 
L 264.162625 133.962251 
L 264.768636 135.300746 
L 265.530819 131.398391 
L 266.306582 130.970186 
L 266.704819 132.241933 
L 267.143626 128.603983 
L 267.994928 129.924821 
L 268.376978 127.294505 
L 269.260763 129.217645 
L 269.967267 128.551961 
L 270.685824 126.343492 
L 271.579394 127.54246 
L 271.859823 125.89958 
L 272.449709 126.6293 
L 273.987315 125.013704 
L 274.555303 125.734774 
L 275.132516 124.950528 
L 276.431393 121.821094 
L 276.861882 124.137289 
L 277.53851 122.577445 
L 278.183395 121.494812 
L 279.161502 121.848762 
L 279.538689 120.348376 
L 280.027742 119.154651 
L 281.578759 116.915333 
L 283.062724 119.346664 
L 284.164579 119.264003 
L 283.893597 119.93388 
L 283.991433 117.708734 
L 284.477261 116.014316 
L 285.4058 116.140227 
L 286.302086 117.756995 
L 286.718995 115.563939 
L 287.326365 114.384432 
L 287.777903 114.62115 
L 288.730607 114.278324 
L 289.06292 113.456477 
L 290.999841 112.982376 
L 291.523803 111.226122 
L 292.363732 110.111133 
L 293.084666 110.389452 
L 293.769722 109.527186 
L 294.709584 107.913486 
L 295.598401 107.881074 
L 296.091129 105.516484 
L 296.82038 106.313493 
L 297.841264 105.864663 
L 298.644417 97.310773 
L 301.225424 104.733671 
L 302.723199 104.412474 
L 303.078853 103.282156 
L 303.352407 101.714211 
L 303.506651 102.5522 
L 304.00538 95.206892 
L 305.32237 96.305782 
L 307.337597 97.578062 
L 309.503851 97.724863 
L 309.872721 98.948928 
L 309.96897 98.42285 
L 310.294383 98.892901 
L 310.393458 98.118003 
L 310.493951 98.386512 
L 310.683622 98.294271 
L 310.647635 98.877145 
L 310.001901 98.599216 
L 310.463964 98.248301 
L 310.430863 98.40032 
L 310.4531 98.111206 
L 310.632018 98.423358 
L 310.551895 98.697942 
L 310.198134 98.36472 
L 310.110542 99.075435 
L 310.382034 98.115769 
L 310.164633 98.805604 
L 310.088984 98.347221 
L 310.165202 98.742785 
L 310.205603 97.750813 
L 310.193041 99.114487 
L 310.230726 98.261079 
L 310.415186 98.511822 
L 310.259414 97.819509 
L 310.034264 98.691865 
L 310.076083 99.318307 
L 310.612496 98.356556 
L 310.290139 99.056602 
L 310.029401 98.435445 
L 309.91414 98.642479 
L 310.075684 98.724595 
L 310.440878 99.436443 
L 310.326695 98.89725 
L 309.862026 98.776489 
L 310.003599 99.056354 
L 309.805329 98.702444 
L 309.877813 98.874367 
L 310.059617 98.295747 
L 309.840069 98.752088 
L 310.284877 98.237845 
L 310.21443 99.112567 
L 309.969649 98.870342 
L 310.113148 98.063365 
L 310.335802 99.043631 
L 310.088305 98.480552 
L 310.300833 99.220989 
L 310.361434 98.840638 
L 309.63422 98.766391 
L 310.122085 98.530388 
L 309.619112 99.092869 
L 309.793786 97.998075 
L 309.827397 98.814532 
L 309.795255 98.260047 
L 310.126159 98.867236 
L 310.204754 97.951413 
L 310.170294 98.355195 
L 310.018707 98.27809 
L 309.923137 98.011538 
L 310.123893 98.854854 
L 310.106638 98.988841 
L 310.180649 99.565953 
L 310.131761 98.699377 
L 310.311018 97.819936 
L 310.147039 98.667505 
L 309.870743 97.981083 
L 309.762892 98.205492 
L 309.861517 99.212144 
L 309.820777 98.339054 
L 310.234571 98.619616 
L 310.205263 98.955453 
L 310.131023 98.796086 
L 309.929248 98.792687 
L 309.707442 98.383107 
L 309.782812 99.284978 
L 310.068613 98.588445 
L 309.922118 99.089837 
L 309.766456 99.029554 
L 309.645084 98.108752 
L 309.926871 98.513594 
L 309.890205 97.873881 
L 309.903106 98.801807 
L 309.748293 98.044066 
L 309.869495 98.934566 
L 310.11869 98.397343 
L 309.80516 98.871167 
L 309.725037 98.259553 
L 309.835206 98.069515 
L 309.753046 99.188006 
L 310.024308 97.890645 
L 310.202887 98.565206 
L 309.888847 99.382598 
L 310.208149 98.952082 
L 310.292346 98.257618 
L 310.492482 98.724266 
L 310.146869 97.681048 
L 309.847767 99.424688 
L 309.833169 98.497879 
L 310.039926 98.228425 
L 310.15253 98.936485 
L 310.50097 98.61544 
L 309.90673 98.764154 
L 309.70246 99.363449 
L 310.018876 98.267673 
L 309.828246 98.563978 
L 309.41592 98.855262 
L 309.707553 98.350827 
L 309.705346 98.711758 
L 309.500117 98.575763 
L 309.929587 98.421896 
L 309.960652 98.567621 
L 309.497061 98.205553 
L 309.630825 98.30004 
L 309.813647 99.14595 
L 309.944186 99.080304 
L 309.594838 99.036576 
L 309.616057 98.876444 
L 309.926192 98.013845 
L 309.994432 99.359706 
L 309.756101 98.557225 
L 309.877474 98.884691 
L 309.682769 99.058933 
L 309.91397 98.253993 
L 309.80482 99.029165 
L 309.510302 98.716138 
L 309.696858 98.554529 
L 309.504191 98.577081 
L 309.788804 98.745381 
L 309.986624 99.192029 
L 309.657646 98.56817 
L 309.916007 99.188297 
L 310.174139 98.263287 
L 309.569265 99.045792 
L 310.025836 99.167923 
L 310.013614 98.659971 
L 309.926362 99.404729 
L 309.894279 98.594891 
L 309.6377 98.861646 
L 309.832829 98.910878 
L 309.958105 98.393843 
L 309.882566 99.303086 
L 309.617754 98.339099 
L 309.617754 98.540843 
L 309.447154 98.945274 
L 309.575376 98.668442 
L 309.953013 98.984513 
L 309.447044 98.754961 
L 309.793447 97.888011 
L 309.744109 98.657514 
L 309.775114 98.406617 
L 309.523203 99.159623 
L 309.870005 98.328763 
L 309.614189 98.938372 
L 309.874138 98.828568 
L 309.7432 98.7843 
L 309.705745 99.242077 
L 309.520147 98.405765 
L 309.605702 99.032748 
L 309.88647 99.170366 
L 309.741673 98.996726 
L 309.707553 99.484035 
L 309.766796 98.298179 
L 309.635239 99.262209 
L 309.306091 99.235007 
L 309.453265 99.064734 
L 309.492648 99.468215 
L 309.413544 98.469599 
L 309.638294 98.376042 
L 309.688371 98.123309 
L 309.70925 99.785236 
L 309.457849 98.799482 
L 309.457849 98.34936 
L 309.343606 98.638097 
L 309.733015 98.755276 
L 309.746256 99.103996 
L 309.572431 98.647225 
L 309.57311 99.26568 
L 309.707383 99.131099 
L 309.637046 98.691562 
L 309.260088 98.833993 
L 309.565471 98.615719 
L 309.743879 99.583504 
L 309.919232 99.484562 
L 309.53169 98.274837 
L 309.732336 99.221214 
L 309.812119 98.727799 
L 309.793107 99.431775 
L 309.656967 99.093763 
L 309.426784 98.911645 
L 309.643217 99.169428 
L 309.717738 98.618372 
L 309.894618 99.704079 
L 309.809743 98.577935 
L 310.227331 99.319969 
L 310.004957 98.5421 
L 310.07116 98.665668 
L 310.338857 98.073891 
L 310.467189 99.10975 
L 310.467189 99.10975 
" clip-path="url(#pc3f1a900c6)" style="fill: none; stroke: #e0e0e0; stroke-width: 1.5; stroke-linecap: square"/>
   </g>
   <g id="line2d_30">
    <path d="M 59.731324 267.734412 
L 59.637663 267.758221 
L 59.689497 267.691185 
L 59.628417 267.72423 
L 59.590917 267.747705 
L 59.802883 267.738902 
L 59.808976 267.785987 
L 59.718664 267.766046 
L 59.645339 267.712452 
L 59.79721 267.661653 
L 59.828972 267.672691 
L 59.888034 267.480946 
L 60.261434 267.02961 
L 60.599978 266.750592 
L 61.229793 266.262966 
L 63.510635 264.910194 
L 64.165757 264.662258 
L 65.730943 263.856042 
L 66.566232 263.534393 
L 73.05186 260.265101 
L 73.459568 260.156327 
L 74.31121 259.690746 
L 74.946234 259.410975 
L 78.941657 257.448663 
L 79.412136 257.099805 
L 80.82482 256.29012 
L 81.270376 256.116544 
L 82.733013 255.348953 
L 83.397634 255.012602 
L 84.583855 254.500901 
L 86.071329 253.718501 
L 88.111806 252.64426 
L 88.843151 252.138929 
L 91.937523 250.404744 
L 92.746354 249.962472 
L 93.339962 249.667703 
L 95.642422 248.026366 
L 96.927639 247.344031 
L 98.240955 246.299907 
L 99.010981 245.741383 
L 100.444201 245.036839 
L 101.538278 244.399278 
L 102.773587 243.583854 
L 104.392361 242.879962 
L 107.551435 240.652461 
L 109.06104 239.964993 
L 113.90758 237.158161 
L 115.353438 236.067767 
L 117.798274 234.582608 
L 118.733309 234.481558 
L 120.163942 233.481525 
L 121.090874 232.961152 
L 121.547573 232.666121 
L 122.035891 232.530998 
L 123.930703 231.344523 
L 124.423004 231.177556 
L 124.912487 230.865879 
L 125.402299 230.161314 
L 126.386041 229.452391 
L 127.315519 228.819826 
L 127.833992 228.454239 
L 128.957915 227.958352 
L 130.027103 227.229416 
L 133.781211 224.664222 
L 136.485219 223.215032 
L 139.65894 221.089791 
L 140.176161 220.684338 
L 141.205634 220.361226 
L 141.719482 219.738849 
L 145.689047 216.858777 
L 146.839145 216.112185 
L 147.417793 215.646658 
L 147.983076 215.364783 
L 148.588295 215.231224 
L 150.384546 213.997506 
L 150.944736 213.781164 
L 151.4961 213.288647 
L 152.01217 213.209439 
L 154.380859 211.462287 
L 154.862613 211.000114 
L 155.346008 210.815764 
L 156.853908 209.672344 
L 157.351234 209.490861 
L 158.346621 208.70334 
L 161.111197 206.700662 
L 161.733267 205.830293 
L 162.334639 205.618086 
L 163.669117 204.940021 
L 164.901205 204.166179 
L 166.114655 203.129762 
L 168.029151 202.101927 
L 170.630411 200.296154 
L 171.328824 200.36933 
L 172.001095 199.744872 
L 172.602867 199.398547 
L 173.181187 198.690628 
L 173.754493 198.255904 
L 175.551547 197.345491 
L 177.286582 195.882233 
L 178.528334 195.327753 
L 179.107786 195.143702 
L 181.181987 193.52675 
L 181.735331 193.453899 
L 182.308943 192.693408 
L 182.88131 191.713459 
L 183.526531 191.264872 
L 184.237041 191.17126 
L 185.581754 190.592159 
L 186.20846 190.001005 
L 186.816237 189.693648 
L 189.127411 187.860324 
L 190.313576 187.191302 
L 190.926525 186.565487 
L 192.199772 186.455103 
L 193.305441 184.966115 
L 194.520181 184.165331 
L 195.098866 184.000648 
L 196.255031 182.764588 
L 197.448785 181.885074 
L 198.713586 181.265245 
L 200.615867 180.247036 
L 201.234463 179.668247 
L 201.844081 179.480228 
L 204.268442 177.082183 
L 204.978545 176.749251 
L 209.163648 173.372768 
L 209.858511 172.95387 
L 211.228034 171.447279 
L 211.908721 170.714463 
L 212.564342 170.45588 
L 213.207582 169.877357 
L 213.876078 169.614777 
L 214.544082 169.168667 
L 215.165904 168.587791 
L 216.475229 168.130452 
L 217.139092 167.752749 
L 219.036179 166.123348 
L 219.686054 165.611874 
L 220.33301 165.294513 
L 220.937121 165.207221 
L 222.77705 163.891757 
L 223.361424 163.401573 
L 223.963849 162.502978 
L 224.630077 161.878311 
L 225.319297 161.503394 
L 227.415294 159.426042 
L 228.117702 158.895151 
L 228.824188 158.197145 
L 231.881694 156.328441 
L 232.653756 155.511327 
L 233.396712 155.205828 
L 234.186734 154.683024 
L 234.953802 154.617927 
L 235.647756 154.148756 
L 236.259781 153.43346 
L 238.206975 152.495653 
L 238.83399 151.809181 
L 239.484047 151.29994 
L 240.7568 151.04544 
L 241.290626 150.571268 
L 241.842453 150.524525 
L 243.548045 148.750082 
L 245.498475 147.676893 
L 246.809377 146.286806 
L 247.498692 145.741406 
L 248.219274 145.343257 
L 248.94487 145.165818 
L 250.295924 143.185352 
L 251.073358 142.447477 
L 251.860279 141.483406 
L 252.65106 141.195909 
L 253.474568 140.501923 
L 254.230006 140.287817 
L 254.942671 139.726451 
L 255.650605 138.923068 
L 256.375036 138.347794 
L 257.792941 137.445033 
L 258.471398 136.797627 
L 260.553669 135.533524 
L 261.261214 135.027557 
L 261.935274 134.696645 
L 263.934758 133.14746 
L 264.599843 132.307214 
L 265.272624 131.747306 
L 265.957951 131.350659 
L 268.002796 129.74886 
L 268.673634 129.303939 
L 271.296159 127.029841 
L 271.973296 126.489531 
L 272.666289 126.087762 
L 273.34552 125.525761 
L 274.064488 125.162712 
L 276.093366 123.388932 
L 276.75999 122.680456 
L 279.660174 120.882647 
L 281.006524 119.647264 
L 281.66457 119.376324 
L 283.613868 117.800322 
L 284.886757 116.836166 
L 286.143165 116.123328 
L 286.771237 115.861131 
L 289.828698 112.987784 
L 290.508205 112.437173 
L 291.160808 111.621139 
L 292.535227 110.436458 
L 293.259661 109.282433 
L 297.622242 105.916572 
L 298.454347 104.848623 
L 300.268452 103.074174 
L 302.278612 101.605728 
L 304.155422 100.537343 
L 305.890502 99.526193 
L 306.680471 99.597909 
L 309.218619 97.998356 
L 310.383158 98.507645 
L 310.183666 98.571945 
L 310.184251 98.739952 
L 310.158404 98.712483 
L 310.06629 98.791404 
L 310.045822 98.71668 
L 310.071635 98.472318 
L 310.018035 98.724755 
L 309.94697 98.661069 
L 309.91019 98.882322 
L 309.855614 98.613633 
L 309.87779 98.451517 
L 309.947852 98.51421 
L 310.07196 98.593934 
L 310.121821 98.555763 
L 309.86999 98.676353 
L 309.83312 98.581888 
L 309.804145 98.652644 
L 309.761643 98.792664 
L 309.864001 98.86924 
L 309.725507 98.731666 
L 309.700774 98.651812 
L 309.662795 99.005016 
L 309.648588 99.020092 
L 309.627483 98.908118 
L 309.601662 98.925881 
L 309.558613 98.829487 
L 309.73185 99.00675 
L 309.892766 98.864907 
L 309.940444 98.880839 
L 309.940444 98.880839 
" clip-path="url(#pc3f1a900c6)" style="fill: none; stroke: #1f77b4; stroke-width: 1.5; stroke-linecap: square"/>
   </g>
   <g id="line2d_31">
    <path d="M 67.152967 275.769876 
L 96.077673 258.651987 
L 134.041349 234.802345 
L 165.677745 213.799273 
L 205.901164 185.179702 
L 238.893406 160.445315 
L 279.568773 127.82516 
L 312.561015 100.090334 
L 352.784433 63.854264 
L 383.968881 33.849876 
" clip-path="url(#pc3f1a900c6)" style="fill: none; stroke: #ff7f0e; stroke-width: 1.5; stroke-linecap: square"/>
   </g>
   <g id="patch_3">
    <path d="M 43.081609 287.865876 
L 43.081609 21.753876 
" style="fill: none; stroke: #000000; stroke-width: 0.8; stroke-linejoin: miter; stroke-linecap: square"/>
   </g>
   <g id="patch_4">
    <path d="M 400.201609 287.865876 
L 400.201609 21.753876 
" style="fill: none; stroke: #000000; stroke-width: 0.8; stroke-linejoin: miter; stroke-linecap: square"/>
   </g>
   <g id="patch_5">
    <path d="M 43.081609 287.865876 
L 400.201609 287.865876 
" style="fill: none; stroke: #000000; stroke-width: 0.8; stroke-linejoin: miter; stroke-linecap: square"/>
   </g>
   <g id="patch_6">
    <path d="M 43.081609 21.753876 
L 400.201609 21.753876 
" style="fill: none; stroke: #000000; stroke-width: 0.8; stroke-linejoin: miter; stroke-linecap: square"/>
   </g>
   <g id="text_17">
    <!-- Power vs. Thrust at 30 MPH -->
    <g transform="translate(146.623625 15.753876) scale(0.12 -0.12)">
     <defs>
      <path id="URWPalladioL-Roma-50" d="M 1382 4116 
C 1606 4166 1792 4192 2010 4192 
C 2701 4192 3072 3875 3072 3273 
C 3072 2703 2682 2304 2125 2304 
C 1990 2304 1894 2317 1728 2367 
L 1792 2137 
C 1946 2105 2035 2099 2163 2099 
C 3040 2099 3712 2692 3712 3459 
C 3712 4071 3213 4448 2400 4448 
C 2368 4448 2304 4448 2221 4423 
C 1984 4423 1498 4423 1312 4423 
C 1171 4423 1171 4423 147 4423 
L 147 4224 
L 435 4224 
C 723 4224 774 4140 774 3663 
L 774 766 
C 774 256 742 205 448 205 
L 141 205 
L 141 0 
C 518 0 742 0 1075 0 
C 1408 0 1638 0 2016 0 
L 2016 205 
L 1709 205 
C 1414 205 1382 256 1382 764 
L 1382 4116 
z
" transform="scale(0.015625)"/>
      <path id="URWPalladioL-Roma-76" d="M 3450 2752 
L 3450 2932 
C 3066 2932 2950 2932 2848 2932 
C 2746 2932 2630 2932 2246 2932 
L 2246 2752 
L 2509 2752 
C 2611 2752 2662 2694 2662 2591 
C 2662 2489 2618 2317 2541 2124 
L 2272 1445 
C 2195 1259 2118 1080 1875 549 
L 1114 2393 
C 1075 2482 1056 2566 1056 2636 
C 1056 2707 1114 2752 1216 2752 
L 1530 2752 
L 1530 2932 
C 902 2932 902 2932 781 2932 
C 659 2932 352 2932 38 2932 
L 38 2752 
L 256 2752 
C 352 2739 384 2701 454 2541 
L 1555 -32 
L 1875 -32 
C 1914 77 1978 243 1978 256 
C 2048 447 2131 664 2138 664 
L 2893 2324 
C 3034 2625 3123 2739 3251 2752 
L 3450 2752 
z
" transform="scale(0.015625)"/>
      <path id="URWPalladioL-Roma-2e" d="M 794 744 
C 602 744 429 564 429 372 
C 429 179 602 0 787 0 
C 992 0 1171 173 1171 372 
C 1171 564 992 744 794 744 
z
" transform="scale(0.015625)"/>
      <path id="URWPalladioL-Roma-54" d="M 1632 4114 
C 1651 3896 1658 3749 1658 3473 
L 1658 763 
C 1658 256 1626 205 1331 205 
L 1024 205 
L 1024 0 
C 1402 0 1626 0 1958 0 
C 2291 0 2522 0 2899 0 
L 2899 205 
L 2592 205 
C 2298 205 2266 256 2266 763 
L 2266 3473 
C 2266 3762 2272 3903 2291 4114 
L 3283 4114 
C 3462 4114 3533 4057 3539 3904 
L 3565 3400 
L 3763 3400 
C 3763 3810 3776 4056 3808 4416 
C 3347 4416 3136 4416 2957 4416 
C 2707 4416 2522 4416 2426 4416 
L 1414 4416 
C 1350 4416 1005 4416 550 4416 
L 115 4416 
C 147 4056 160 3810 160 3400 
L 358 3400 
L 384 3904 
C 390 4057 461 4114 640 4114 
L 1632 4114 
z
" transform="scale(0.015625)"/>
      <path id="URWPalladioL-Roma-61" d="M 2074 538 
L 2042 -1 
C 2458 -1 2458 -1 2541 -1 
C 2573 -1 2733 -1 3014 -1 
L 3014 192 
L 2765 192 
C 2611 192 2586 244 2586 558 
L 2586 1731 
C 2586 2668 2317 3008 1574 3008 
C 1299 3008 1043 2937 800 2791 
L 461 2585 
L 461 2171 
L 627 2126 
L 710 2323 
C 845 2623 909 2668 1203 2668 
C 1805 2668 2054 2431 2074 1852 
L 1440 1736 
C 570 1577 205 1277 205 722 
C 205 224 506 -64 1011 -64 
C 1126 -64 1235 -45 1280 -13 
L 2074 538 
z
M 2074 806 
C 1888 544 1485 302 1235 302 
C 979 302 755 538 755 812 
C 755 1048 883 1271 1075 1392 
C 1235 1488 1587 1577 2074 1648 
L 2074 806 
z
" transform="scale(0.015625)"/>
      <path id="URWPalladioL-Roma-4d" d="M 4685 783 
C 4685 276 4659 231 4358 205 
L 4141 186 
L 4141 0 
C 4435 0 4627 0 4960 0 
C 5318 0 5549 0 5926 0 
L 5926 205 
L 5619 205 
C 5325 205 5293 256 5293 766 
L 5293 3663 
C 5293 4166 5325 4224 5619 4224 
L 5888 4256 
L 5888 4436 
C 5402 4436 5402 4436 5293 4436 
C 5197 4436 5197 4436 4685 4436 
L 3008 884 
L 1318 4436 
C 806 4436 806 4436 710 4436 
C 614 4436 614 4436 102 4436 
L 102 4237 
L 384 4237 
C 678 4237 710 4178 710 3674 
L 710 768 
C 710 263 678 205 384 205 
L 102 205 
L 102 0 
C 736 0 736 0 845 0 
C 941 0 941 0 1613 0 
L 1613 205 
L 1331 205 
C 1037 205 1005 262 1005 766 
L 1005 3718 
L 2790 -64 
L 2918 -64 
C 2963 32 3002 134 3040 230 
C 3142 480 3219 658 3264 748 
L 4403 3167 
C 4493 3353 4570 3500 4685 3718 
L 4685 783 
z
" transform="scale(0.015625)"/>
      <path id="URWPalladioL-Roma-48" d="M 3942 773 
C 3942 257 3910 205 3616 205 
L 3309 205 
L 3309 0 
C 3686 0 3910 0 4243 0 
C 4576 0 4806 0 5184 0 
L 5184 205 
L 4877 205 
C 4582 205 4550 256 4550 766 
L 4550 3663 
C 4550 4172 4582 4224 4877 4224 
L 5184 4224 
L 5184 4423 
C 4717 4423 4576 4423 4243 4423 
C 3923 4423 3770 4423 3309 4423 
L 3309 4224 
L 3616 4224 
C 3910 4224 3942 4172 3942 3668 
L 3942 2529 
C 3808 2529 3674 2529 3411 2529 
L 1914 2529 
C 1651 2529 1510 2529 1382 2529 
L 1382 3668 
C 1382 4172 1414 4224 1709 4224 
L 2016 4224 
L 2016 4423 
C 1549 4423 1408 4423 1075 4423 
C 755 4423 602 4423 141 4423 
L 141 4224 
L 448 4224 
C 742 4224 774 4172 774 3663 
L 774 766 
C 774 256 742 205 448 205 
L 141 205 
L 141 0 
C 518 0 742 0 1075 0 
C 1408 0 1638 0 2016 0 
L 2016 205 
L 1709 205 
C 1414 205 1382 257 1382 773 
L 1382 2227 
C 1555 2240 1658 2240 1914 2240 
L 3411 2240 
C 3667 2240 3770 2240 3942 2227 
L 3942 773 
z
" transform="scale(0.015625)"/>
     </defs>
     <use xlink:href="#URWPalladioL-Roma-50" transform="scale(0.996264)"/>
     <use xlink:href="#URWPalladioL-Roma-6f" transform="translate(60.173595 0) scale(0.996264)"/>
     <use xlink:href="#URWPalladioL-Roma-77" transform="translate(114.569175 0) scale(0.996264)"/>
     <use xlink:href="#URWPalladioL-Roma-65" transform="translate(197.657269 0) scale(0.996264)"/>
     <use xlink:href="#URWPalladioL-Roma-72" transform="translate(245.377564 0) scale(0.996264)"/>
     <use xlink:href="#URWPalladioL-Roma-76" transform="translate(309.63606 0) scale(0.996264)"/>
     <use xlink:href="#URWPalladioL-Roma-73" transform="translate(365.923973 0) scale(0.996264)"/>
     <use xlink:href="#URWPalladioL-Roma-2e" transform="translate(408.16544 0) scale(0.996264)"/>
     <use xlink:href="#URWPalladioL-Roma-54" transform="translate(463.956072 0) scale(0.996264)"/>
     <use xlink:href="#URWPalladioL-Roma-68" transform="translate(525.025904 0) scale(0.996264)"/>
     <use xlink:href="#URWPalladioL-Roma-72" transform="translate(583.007965 0) scale(0.996264)"/>
     <use xlink:href="#URWPalladioL-Roma-75" transform="translate(621.563287 0) scale(0.996264)"/>
     <use xlink:href="#URWPalladioL-Roma-73" transform="translate(681.637022 0) scale(0.996264)"/>
     <use xlink:href="#URWPalladioL-Roma-74" transform="translate(723.878489 0) scale(0.996264)"/>
     <use xlink:href="#URWPalladioL-Roma-61" transform="translate(781.262177 0) scale(0.996264)"/>
     <use xlink:href="#URWPalladioL-Roma-74" transform="translate(831.075377 0) scale(0.996264)"/>
     <use xlink:href="#URWPalladioL-Roma-33" transform="translate(888.459065 0) scale(0.996264)"/>
     <use xlink:href="#URWPalladioL-Roma-30" transform="translate(938.272266 0) scale(0.996264)"/>
     <use xlink:href="#URWPalladioL-Roma-4d" transform="translate(1012.992066 0) scale(0.996264)"/>
     <use xlink:href="#URWPalladioL-Roma-50" transform="translate(1107.238268 0) scale(0.996264)"/>
     <use xlink:href="#URWPalladioL-Roma-48" transform="translate(1167.411863 0) scale(0.996264)"/>
    </g>
   </g>
   <g id="legend_1">
    <g id="patch_7">
     <path d="M 50.081609 59.629172 
L 140.083173 59.629172 
Q 142.083173 59.629172 142.083173 57.629172 
L 142.083173 28.753876 
Q 142.083173 26.753876 140.083173 26.753876 
L 50.081609 26.753876 
Q 48.081609 26.753876 48.081609 28.753876 
L 48.081609 57.629172 
Q 48.081609 59.629172 50.081609 59.629172 
z
" style="fill: #ffffff; opacity: 0.8; stroke: #cccccc; stroke-linejoin: miter"/>
    </g>
    <g id="line2d_32">
     <path d="M 52.081609 34.382113 
L 62.081609 34.382113 
L 72.081609 34.382113 
" style="fill: none; stroke: #1f77b4; stroke-width: 1.5; stroke-linecap: square"/>
    </g>
    <g id="text_18">
     <!-- experimental -->
     <g transform="translate(80.081609 37.882113) scale(0.1 -0.1)">
      <defs>
       <path id="URWPalladioL-Roma-78" d="M 1843 1630 
L 2752 2694 
C 2790 2739 2861 2765 2970 2765 
L 3059 2765 
L 3059 2944 
L 2534 2944 
L 1741 1822 
L 1254 2566 
C 1158 2707 1088 2791 870 3009 
L 128 2880 
L 160 2708 
L 294 2694 
C 410 2694 550 2605 614 2515 
L 1382 1398 
L 429 269 
C 384 212 301 173 237 173 
L 128 173 
L 128 0 
L 678 0 
C 723 71 736 96 813 212 
C 915 391 1018 551 1062 603 
L 1536 1231 
L 2221 208 
L 2227 196 
C 2285 107 2336 44 2387 0 
C 2720 0 2720 0 2778 0 
C 2842 0 2842 0 3174 0 
L 3174 173 
L 3014 192 
C 2938 199 2861 250 2790 346 
L 1843 1630 
z
" transform="scale(0.015625)"/>
       <path id="URWPalladioL-Roma-69" d="M 1203 2993 
L 1146 3019 
C 819 2884 486 2793 147 2755 
L 147 2576 
L 384 2576 
C 640 2576 666 2531 666 2105 
L 666 651 
C 666 244 646 199 429 199 
L 134 199 
L 134 0 
C 774 0 774 0 934 0 
C 1094 0 1094 0 1734 0 
L 1734 199 
L 1440 199 
C 1222 199 1203 244 1203 651 
L 1203 2993 
z
M 909 4416 
C 717 4416 550 4249 550 4056 
C 550 3870 717 3704 902 3704 
C 1088 3704 1261 3870 1261 4056 
C 1261 4236 1088 4416 909 4416 
z
" transform="scale(0.015625)"/>
       <path id="URWPalladioL-Roma-6d" d="M 115 2565 
L 352 2565 
C 608 2565 634 2520 634 2094 
L 634 643 
C 634 237 614 192 397 192 
L 102 192 
L 102 -7 
C 717 -7 736 -7 915 -7 
C 1094 -7 1261 -7 1677 -7 
L 1677 179 
L 1408 205 
C 1190 205 1171 250 1171 654 
L 1171 2014 
C 1171 2302 1594 2616 1978 2616 
C 2323 2616 2560 2287 2560 1798 
L 2560 643 
C 2560 237 2541 192 2323 192 
L 2029 192 
L 2029 -7 
C 2669 -7 2669 -7 2829 -7 
C 2989 -7 2989 -7 3629 -7 
L 3629 192 
L 3334 192 
C 3117 192 3098 237 3098 643 
L 3098 2011 
C 3098 2300 3520 2616 3904 2616 
C 4250 2616 4486 2291 4486 1806 
L 4486 -7 
C 4877 -7 4883 -7 4992 -7 
C 5075 -7 5075 -7 5562 -7 
L 5562 192 
L 5261 192 
C 5043 192 5024 237 5024 643 
L 5024 1970 
C 5024 2608 4653 3008 4064 3008 
C 3840 3008 3654 2950 3539 2847 
L 3053 2412 
C 2848 2834 2586 3008 2144 3008 
C 1907 3008 1728 2950 1613 2847 
L 1171 2437 
L 1171 2982 
L 1114 3008 
C 787 2873 454 2783 115 2745 
L 115 2565 
z
" transform="scale(0.015625)"/>
       <path id="URWPalladioL-Roma-6e" d="M 2624 -7 
C 3014 -7 3021 -7 3130 -7 
C 3219 -7 3219 -7 3661 -7 
L 3661 179 
L 3398 205 
C 3181 205 3162 244 3162 654 
L 3162 1892 
C 3162 2642 2810 3008 2093 3008 
C 1856 3008 1722 2963 1587 2847 
L 1101 2424 
L 1101 2982 
L 1043 3008 
C 717 2873 384 2783 45 2745 
L 45 2565 
L 282 2565 
C 538 2565 563 2520 563 2094 
L 563 643 
C 563 237 544 192 326 192 
L 38 192 
L 38 -7 
C 474 -7 646 -7 832 -7 
C 1018 -7 1190 -7 1626 -7 
L 1626 192 
L 1338 192 
C 1120 192 1101 237 1101 643 
L 1101 2011 
C 1101 2300 1523 2616 1914 2616 
C 2342 2616 2624 2297 2624 1806 
L 2624 -7 
z
" transform="scale(0.015625)"/>
       <path id="URWPalladioL-Roma-6c" d="M 147 4256 
L 506 4256 
C 621 4256 666 4185 666 3992 
L 666 651 
C 666 244 646 199 429 199 
L 134 199 
L 134 0 
C 774 0 774 0 934 0 
C 1094 0 1094 0 1734 0 
L 1734 199 
L 1440 199 
C 1222 199 1203 244 1203 650 
L 1203 4621 
L 1146 4673 
C 864 4564 653 4512 147 4435 
L 147 4256 
z
" transform="scale(0.015625)"/>
      </defs>
      <use xlink:href="#URWPalladioL-Roma-65" transform="scale(0.996264)"/>
      <use xlink:href="#URWPalladioL-Roma-78" transform="translate(47.720295 0) scale(0.996264)"/>
      <use xlink:href="#URWPalladioL-Roma-70" transform="translate(99.126642 0) scale(0.996264)"/>
      <use xlink:href="#URWPalladioL-Roma-65" transform="translate(159.001036 0) scale(0.996264)"/>
      <use xlink:href="#URWPalladioL-Roma-72" transform="translate(206.721331 0) scale(0.996264)"/>
      <use xlink:href="#URWPalladioL-Roma-69" transform="translate(246.073228 0) scale(0.996264)"/>
      <use xlink:href="#URWPalladioL-Roma-6d" transform="translate(275.063589 0) scale(0.996264)"/>
      <use xlink:href="#URWPalladioL-Roma-65" transform="translate(363.033263 0) scale(0.996264)"/>
      <use xlink:href="#URWPalladioL-Roma-6e" transform="translate(410.753558 0) scale(0.996264)"/>
      <use xlink:href="#URWPalladioL-Roma-74" transform="translate(468.735619 0) scale(0.996264)"/>
      <use xlink:href="#URWPalladioL-Roma-61" transform="translate(501.212707 0) scale(0.996264)"/>
      <use xlink:href="#URWPalladioL-Roma-6c" transform="translate(551.025907 0) scale(0.996264)"/>
     </g>
    </g>
    <g id="line2d_33">
     <path d="M 52.081609 49.319761 
L 62.081609 49.319761 
L 72.081609 49.319761 
" style="fill: none; stroke: #ff7f0e; stroke-width: 1.5; stroke-linecap: square"/>
    </g>
    <g id="text_19">
     <!-- MotoCalc -->
     <g transform="translate(80.081609 52.819761) scale(0.1 -0.1)">
      <defs>
       <path id="URWPalladioL-Roma-43" d="M 4288 539 
L 4230 603 
C 3834 346 3392 218 2906 218 
C 1658 218 826 1051 826 2313 
C 826 3493 1555 4274 2656 4274 
C 3283 4274 3930 4018 3930 3769 
L 3930 3307 
L 4128 3307 
C 4134 3627 4160 3857 4250 4280 
C 3706 4460 3238 4544 2771 4544 
C 2214 4544 1683 4409 1254 4159 
C 525 3730 141 3057 141 2192 
C 141 807 1152 -128 2656 -128 
C 3187 -128 3667 -13 4109 218 
L 4288 539 
z
" transform="scale(0.015625)"/>
       <path id="URWPalladioL-Roma-63" d="M 2554 1994 
C 2554 2289 2586 2552 2643 2783 
C 2387 2937 2163 3008 1901 3008 
C 1594 3008 1235 2886 851 2642 
C 403 2360 166 1911 166 1347 
C 166 481 774 -128 1632 -128 
C 1965 -128 2445 -6 2509 90 
L 2643 295 
L 2579 391 
C 2342 263 2138 205 1907 205 
C 1197 205 730 757 730 1603 
C 730 2289 1050 2674 1626 2674 
C 1907 2674 2214 2546 2330 2386 
L 2374 1994 
L 2554 1994 
z
" transform="scale(0.015625)"/>
      </defs>
      <use xlink:href="#URWPalladioL-Roma-4d" transform="scale(0.996264)"/>
      <use xlink:href="#URWPalladioL-Roma-6f" transform="translate(94.246201 0) scale(0.996264)"/>
      <use xlink:href="#URWPalladioL-Roma-74" transform="translate(148.641782 0) scale(0.996264)"/>
      <use xlink:href="#URWPalladioL-Roma-6f" transform="translate(181.118869 0) scale(0.996264)"/>
      <use xlink:href="#URWPalladioL-Roma-43" transform="translate(235.51445 0) scale(0.996264)"/>
      <use xlink:href="#URWPalladioL-Roma-61" transform="translate(306.149243 0) scale(0.996264)"/>
      <use xlink:href="#URWPalladioL-Roma-6c" transform="translate(355.962443 0) scale(0.996264)"/>
      <use xlink:href="#URWPalladioL-Roma-63" transform="translate(384.952805 0) scale(0.996264)"/>
     </g>
    </g>
   </g>
  </g>
 </g>
 <defs>
  <clipPath id="pc3f1a900c6">
   <rect x="43.081609" y="21.753876" width="357.12" height="266.112"/>
  </clipPath>
 </defs>
</svg>
