<?xml version="1.0" encoding="utf-8" standalone="no"?>
<!DOCTYPE svg PUBLIC "-//W3C//DTD SVG 1.1//EN"
  "http://www.w3.org/Graphics/SVG/1.1/DTD/svg11.dtd">
<svg xmlns:xlink="http://www.w3.org/1999/xlink" width="407.401609pt" height="325.941172pt" viewBox="0 0 407.401609 325.941172" xmlns="http://www.w3.org/2000/svg" version="1.1">
 <metadata>
  <rdf:RDF xmlns:dc="http://purl.org/dc/elements/1.1/" xmlns:cc="http://creativecommons.org/ns#" xmlns:rdf="http://www.w3.org/1999/02/22-rdf-syntax-ns#">
   <cc:Work>
    <dc:type rdf:resource="http://purl.org/dc/dcmitype/StillImage"/>
    <dc:date>2025-03-07T10:33:48.739818</dc:date>
    <dc:format>image/svg+xml</dc:format>
    <dc:creator>
     <cc:Agent>
      <dc:title>Matplotlib v3.10.0, https://matplotlib.org/</dc:title>
     </cc:Agent>
    </dc:creator>
   </cc:Work>
  </rdf:RDF>
 </metadata>
 <defs>
  <style type="text/css">*{stroke-linejoin: round; stroke-linecap: butt}</style>
 </defs>
 <g id="figure_1">
  <g id="patch_1">
   <path d="M 0 325.941172 
L 407.401609 325.941172 
L 407.401609 0 
L 0 0 
z
" style="fill: #ffffff"/>
  </g>
  <g id="axes_1">
   <g id="patch_2">
    <path d="M 43.081609 287.865876 
L 400.201609 287.865876 
L 400.201609 21.753876 
L 43.081609 21.753876 
z
" style="fill: #ffffff"/>
   </g>
   <g id="matplotlib.axis_1">
    <g id="xtick_1">
     <g id="line2d_1">
      <path d="M 57.339147 287.865876 
L 57.339147 21.753876 
" clip-path="url(#pf24875ce9b)" style="fill: none; stroke: #b0b0b0; stroke-width: 0.8; stroke-linecap: square"/>
     </g>
     <g id="line2d_2">
      <defs>
       <path id="m465c4a4cfb" d="M 0 0 
L 0 3.5 
" style="stroke: #000000; stroke-width: 0.8"/>
      </defs>
      <g>
       <use xlink:href="#m465c4a4cfb" x="57.339147" y="287.865876" style="stroke: #000000; stroke-width: 0.8"/>
      </g>
     </g>
     <g id="text_1">
      <!-- $\mathdefault{0}$ -->
      <g transform="translate(54.848487 301.994113) scale(0.1 -0.1)">
       <defs>
        <path id="URWPalladioL-Roma-30" d="M 1683 4416 
C 691 4416 186 3628 186 2077 
C 186 1326 320 680 544 366 
C 768 51 1126 -128 1523 -128 
C 2490 -128 2976 705 2976 2346 
C 2976 3749 2560 4416 1683 4416 
z
M 1568 4192 
C 2189 4192 2438 3564 2438 2025 
C 2438 661 2195 96 1606 96 
C 986 96 723 744 723 2308 
C 723 3660 960 4192 1568 4192 
z
" transform="scale(0.015625)"/>
       </defs>
       <use xlink:href="#URWPalladioL-Roma-30" transform="scale(0.996264)"/>
      </g>
     </g>
    </g>
    <g id="xtick_2">
     <g id="line2d_3">
      <path d="M 133.387979 287.865876 
L 133.387979 21.753876 
" clip-path="url(#pf24875ce9b)" style="fill: none; stroke: #b0b0b0; stroke-width: 0.8; stroke-linecap: square"/>
     </g>
     <g id="line2d_4">
      <g>
       <use xlink:href="#m465c4a4cfb" x="133.387979" y="287.865876" style="stroke: #000000; stroke-width: 0.8"/>
      </g>
     </g>
     <g id="text_2">
      <!-- $\mathdefault{20}$ -->
      <g transform="translate(128.406659 301.994113) scale(0.1 -0.1)">
       <defs>
        <path id="URWPalladioL-Roma-32" d="M 102 160 
L 102 0 
C 1299 0 1299 0 1530 0 
C 1760 0 1760 0 2995 0 
C 2982 125 2982 186 2982 269 
C 2982 348 2982 407 2995 539 
C 2259 539 1965 539 781 539 
L 1946 1761 
C 2566 2414 2758 2763 2758 3238 
C 2758 3966 2259 4416 1446 4416 
C 986 4416 672 4288 358 3969 
L 250 3099 
L 435 3099 
L 518 3393 
C 621 3763 851 3923 1280 3923 
C 1830 3923 2182 3577 2182 3035 
C 2182 2555 1914 2083 1190 1316 
L 102 160 
z
" transform="scale(0.015625)"/>
       </defs>
       <use xlink:href="#URWPalladioL-Roma-32" transform="scale(0.996264)"/>
       <use xlink:href="#URWPalladioL-Roma-30" transform="translate(49.8132 0) scale(0.996264)"/>
      </g>
     </g>
    </g>
    <g id="xtick_3">
     <g id="line2d_5">
      <path d="M 209.436811 287.865876 
L 209.436811 21.753876 
" clip-path="url(#pf24875ce9b)" style="fill: none; stroke: #b0b0b0; stroke-width: 0.8; stroke-linecap: square"/>
     </g>
     <g id="line2d_6">
      <g>
       <use xlink:href="#m465c4a4cfb" x="209.436811" y="287.865876" style="stroke: #000000; stroke-width: 0.8"/>
      </g>
     </g>
     <g id="text_3">
      <!-- $\mathdefault{40}$ -->
      <g transform="translate(204.455491 301.994113) scale(0.1 -0.1)">
       <defs>
        <path id="URWPalladioL-Roma-34" d="M 1792 1152 
L 1792 673 
C 1792 289 1722 199 1408 199 
L 1011 199 
L 1011 0 
C 1862 0 1862 0 2016 0 
C 2170 0 2170 0 3021 0 
L 3021 199 
L 2714 199 
C 2400 199 2330 282 2330 669 
L 2330 1152 
C 2707 1152 2842 1152 3021 1133 
L 3021 1588 
C 2720 1563 2598 1563 2502 1563 
L 2483 1563 
L 2330 1563 
L 2330 2457 
C 2330 3600 2342 4152 2374 4416 
L 2298 4448 
L 1824 4275 
L 13 1299 
L 83 1152 
L 1792 1152 
z
M 1792 1563 
L 416 1563 
L 1792 3826 
L 1792 1563 
z
" transform="scale(0.015625)"/>
       </defs>
       <use xlink:href="#URWPalladioL-Roma-34" transform="scale(0.996264)"/>
       <use xlink:href="#URWPalladioL-Roma-30" transform="translate(49.8132 0) scale(0.996264)"/>
      </g>
     </g>
    </g>
    <g id="xtick_4">
     <g id="line2d_7">
      <path d="M 285.485644 287.865876 
L 285.485644 21.753876 
" clip-path="url(#pf24875ce9b)" style="fill: none; stroke: #b0b0b0; stroke-width: 0.8; stroke-linecap: square"/>
     </g>
     <g id="line2d_8">
      <g>
       <use xlink:href="#m465c4a4cfb" x="285.485644" y="287.865876" style="stroke: #000000; stroke-width: 0.8"/>
      </g>
     </g>
     <g id="text_4">
      <!-- $\mathdefault{60}$ -->
      <g transform="translate(280.504323 301.994113) scale(0.1 -0.1)">
       <defs>
        <path id="URWPalladioL-Roma-36" d="M 2662 4310 
L 2426 4419 
C 1811 4214 1549 4086 1222 3804 
C 563 3246 205 2464 205 1585 
C 205 526 717 -128 1542 -128 
C 2374 -128 2995 532 2995 1405 
C 2995 2143 2554 2624 1875 2624 
C 1555 2624 1363 2540 986 2239 
C 915 2181 909 2175 838 2124 
C 973 3284 1510 3913 2662 4259 
L 2662 4310 
z
M 1632 2239 
C 2118 2239 2445 1816 2445 1181 
C 2445 513 2118 83 1626 83 
C 1082 83 787 551 787 1412 
C 787 1636 813 1758 883 1867 
C 1024 2085 1325 2239 1632 2239 
z
" transform="scale(0.015625)"/>
       </defs>
       <use xlink:href="#URWPalladioL-Roma-36" transform="scale(0.996264)"/>
       <use xlink:href="#URWPalladioL-Roma-30" transform="translate(49.8132 0) scale(0.996264)"/>
      </g>
     </g>
    </g>
    <g id="xtick_5">
     <g id="line2d_9">
      <path d="M 361.534476 287.865876 
L 361.534476 21.753876 
" clip-path="url(#pf24875ce9b)" style="fill: none; stroke: #b0b0b0; stroke-width: 0.8; stroke-linecap: square"/>
     </g>
     <g id="line2d_10">
      <g>
       <use xlink:href="#m465c4a4cfb" x="361.534476" y="287.865876" style="stroke: #000000; stroke-width: 0.8"/>
      </g>
     </g>
     <g id="text_5">
      <!-- $\mathdefault{80}$ -->
      <g transform="translate(356.553156 301.994113) scale(0.1 -0.1)">
       <defs>
        <path id="URWPalladioL-Roma-38" d="M 1075 2211 
C 813 2090 704 2019 563 1884 
C 320 1641 192 1352 192 1019 
C 192 359 723 -128 1446 -128 
C 2278 -128 2970 526 2970 1320 
C 2970 1833 2733 2109 2003 2442 
C 2586 2840 2790 3109 2790 3493 
C 2790 4044 2336 4416 1658 4416 
C 896 4416 339 3929 339 3257 
C 339 2821 512 2577 1075 2211 
z
M 1818 1891 
C 2221 1711 2464 1397 2464 1052 
C 2464 513 2061 90 1542 90 
C 998 90 646 475 646 1071 
C 646 1538 832 1833 1306 2122 
L 1818 1891 
z
M 1427 2712 
C 1024 2910 819 3167 819 3487 
C 819 3910 1126 4198 1581 4198 
C 2048 4198 2355 3891 2355 3422 
C 2355 3058 2195 2808 1779 2538 
L 1427 2712 
z
" transform="scale(0.015625)"/>
       </defs>
       <use xlink:href="#URWPalladioL-Roma-38" transform="scale(0.996264)"/>
       <use xlink:href="#URWPalladioL-Roma-30" transform="translate(49.8132 0) scale(0.996264)"/>
      </g>
     </g>
    </g>
    <g id="text_6">
     <!-- thrust [oz] -->
     <g transform="translate(198.678009 315.931761) scale(0.1 -0.1)">
      <defs>
       <path id="URWPalladioL-Roma-74" d="M 627 2476 
L 627 619 
C 627 142 838 -64 1331 -64 
C 1478 -64 1632 -32 1670 13 
L 1978 353 
L 1894 463 
C 1734 372 1638 340 1517 340 
C 1267 340 1165 470 1165 788 
L 1165 2489 
L 1984 2489 
L 2042 2816 
L 1165 2816 
L 1165 3056 
C 1165 3321 1184 3547 1235 3951 
L 1158 4021 
C 1005 3925 813 3842 614 3778 
C 634 3585 640 3463 640 3271 
L 640 2822 
L 141 2598 
L 141 2476 
L 627 2476 
z
" transform="scale(0.015625)"/>
       <path id="URWPalladioL-Roma-68" d="M 45 4248 
L 403 4248 
C 518 4248 563 4177 563 3984 
L 563 643 
C 563 237 544 192 326 192 
L 38 192 
L 38 -7 
C 474 -7 646 -7 832 -7 
C 1018 -7 1190 -7 1626 -7 
L 1626 192 
L 1338 192 
C 1120 192 1101 237 1101 643 
L 1101 2011 
C 1101 2300 1523 2616 1914 2616 
C 2342 2616 2624 2297 2624 1806 
L 2624 -7 
C 3014 -7 3021 -7 3130 -7 
C 3219 -7 3219 -7 3661 -7 
L 3661 179 
L 3398 205 
C 3181 205 3162 244 3162 654 
L 3162 1892 
C 3162 2642 2810 3008 2093 3008 
C 1856 3008 1722 2963 1587 2847 
L 1101 2424 
L 1101 4613 
L 1043 4665 
C 762 4556 550 4504 45 4427 
L 45 4248 
z
" transform="scale(0.015625)"/>
       <path id="URWPalladioL-Roma-72" d="M 147 2565 
L 384 2565 
C 640 2565 666 2520 666 2094 
L 666 643 
C 666 237 646 192 429 192 
L 134 192 
L 134 -7 
C 595 -7 762 -7 922 -7 
C 1050 -7 1050 -7 1837 -7 
L 1837 192 
L 1504 192 
C 1216 192 1203 211 1203 638 
L 1203 1751 
C 1203 2139 1459 2463 1773 2463 
C 1965 2463 2099 2373 2202 2169 
L 2336 2169 
L 2394 2937 
C 2323 2982 2208 3008 2093 3008 
C 1901 3008 1696 2905 1562 2745 
L 1203 2322 
L 1203 2982 
L 1146 3008 
C 819 2873 486 2783 147 2745 
L 147 2565 
z
" transform="scale(0.015625)"/>
       <path id="URWPalladioL-Roma-75" d="M 3219 3009 
L 3162 3035 
C 2835 2900 2502 2810 2163 2772 
L 2163 2592 
L 2400 2592 
C 2656 2592 2682 2547 2682 2121 
L 2682 1070 
C 2682 928 2592 747 2445 599 
C 2266 418 2061 327 1811 327 
C 1587 327 1408 398 1306 521 
C 1216 624 1171 824 1171 1107 
L 1171 3009 
L 1114 3035 
C 787 2900 454 2810 115 2772 
L 115 2592 
L 352 2592 
C 608 2592 634 2547 634 2122 
L 634 1039 
C 634 587 672 387 787 227 
C 928 33 1171 -64 1536 -64 
C 1824 -64 2080 26 2253 186 
L 2682 585 
C 2682 401 2675 298 2656 0 
C 3085 0 3091 0 3187 0 
C 3277 0 3277 0 3718 0 
L 3718 186 
L 3456 212 
C 3238 212 3219 251 3219 664 
L 3219 3009 
z
" transform="scale(0.015625)"/>
       <path id="URWPalladioL-Roma-73" d="M 262 917 
C 262 475 243 282 192 26 
C 525 -83 774 -128 1069 -128 
C 1907 -128 2502 321 2502 949 
C 2502 1148 2445 1295 2323 1424 
C 2157 1584 1946 1661 1382 1770 
C 858 1873 685 2001 685 2296 
C 685 2616 909 2796 1299 2796 
C 1728 2796 2054 2572 2054 2270 
L 2054 2123 
L 2234 2123 
C 2240 2495 2246 2648 2266 2847 
C 1926 2963 1696 3008 1434 3008 
C 691 3008 237 2655 237 2078 
C 237 1770 378 1552 672 1417 
C 845 1340 1184 1238 1619 1141 
C 1907 1077 2029 943 2029 699 
C 2029 353 1709 109 1254 109 
C 787 109 454 333 454 654 
L 454 917 
L 262 917 
z
" transform="scale(0.015625)"/>
       <path id="URWPalladioL-Roma-5b" d="M 563 -1152 
C 1018 -1152 1030 -1152 1184 -1152 
C 1338 -1152 1370 -1152 1805 -1152 
L 1843 -1120 
L 1843 -953 
L 1818 -921 
L 1574 -921 
C 1402 -921 1261 -882 1184 -818 
C 1126 -760 1107 -671 1107 -459 
C 1107 -453 1107 -318 1101 -125 
L 1101 112 
L 1101 3409 
L 1101 3646 
C 1107 3826 1107 3967 1107 3973 
C 1107 4185 1126 4281 1184 4339 
C 1261 4403 1402 4441 1574 4441 
L 1818 4441 
L 1843 4473 
L 1843 4640 
L 1805 4672 
C 1357 4672 1338 4672 1184 4672 
C 1037 4672 1005 4672 563 4672 
L 506 4595 
C 544 4435 557 4223 557 3730 
C 557 3633 557 3556 563 3492 
L 563 3409 
L 563 112 
L 563 28 
C 557 -74 557 -81 557 -190 
L 557 -260 
C 557 -696 544 -876 506 -1075 
L 563 -1152 
z
" transform="scale(0.015625)"/>
       <path id="URWPalladioL-Roma-6f" d="M 1786 3008 
C 851 3008 205 2347 205 1392 
C 205 487 774 -128 1600 -128 
C 2586 -128 3290 558 3290 1520 
C 3290 2386 2662 3008 1786 3008 
z
M 1670 2796 
C 2259 2796 2694 2155 2694 1283 
C 2694 545 2368 83 1850 83 
C 1222 83 800 699 800 1610 
C 800 2379 1107 2796 1670 2796 
z
" transform="scale(0.015625)"/>
       <path id="URWPalladioL-Roma-7a" d="M 2912 2764 
L 2912 2944 
C 2464 2944 2272 2944 2029 2944 
L 442 2944 
C 429 2624 422 2549 384 2115 
L 576 2115 
L 653 2547 
C 678 2681 794 2713 1267 2713 
L 2182 2713 
C 2048 2503 1939 2357 1766 2141 
L 678 794 
C 525 609 435 501 102 127 
L 141 0 
C 806 0 845 0 1120 0 
L 2886 0 
C 2886 145 2899 297 2944 602 
L 2982 899 
L 2790 899 
L 2675 397 
C 2650 282 2381 237 1766 237 
L 902 237 
L 2912 2764 
z
" transform="scale(0.015625)"/>
       <path id="URWPalladioL-Roma-5d" d="M 1568 4672 
C 1114 4672 1094 4672 947 4672 
C 794 4672 762 4672 326 4672 
L 288 4640 
L 288 4473 
L 314 4441 
L 557 4441 
C 730 4441 864 4403 941 4339 
C 1005 4281 1024 4191 1024 3973 
C 1024 3954 1024 3826 1030 3646 
L 1030 3409 
L 1030 112 
L 1030 -125 
C 1024 -311 1024 -427 1024 -446 
C 1024 -664 1005 -760 941 -818 
C 864 -882 730 -921 557 -921 
L 314 -921 
L 288 -953 
L 288 -1120 
L 326 -1152 
C 774 -1152 787 -1152 947 -1152 
C 1094 -1152 1126 -1152 1568 -1152 
L 1626 -1075 
C 1587 -921 1581 -722 1574 -228 
C 1574 -138 1574 -55 1568 28 
L 1568 112 
L 1568 3409 
L 1568 3492 
C 1574 3563 1574 3646 1574 3736 
C 1574 4230 1587 4441 1626 4595 
L 1568 4672 
z
" transform="scale(0.015625)"/>
      </defs>
      <use xlink:href="#URWPalladioL-Roma-74" transform="scale(0.996264)"/>
      <use xlink:href="#URWPalladioL-Roma-68" transform="translate(32.477088 0) scale(0.996264)"/>
      <use xlink:href="#URWPalladioL-Roma-72" transform="translate(90.459149 0) scale(0.996264)"/>
      <use xlink:href="#URWPalladioL-Roma-75" transform="translate(129.014471 0) scale(0.996264)"/>
      <use xlink:href="#URWPalladioL-Roma-73" transform="translate(189.088206 0) scale(0.996264)"/>
      <use xlink:href="#URWPalladioL-Roma-74" transform="translate(231.329673 0) scale(0.996264)"/>
      <use xlink:href="#URWPalladioL-Roma-5b" transform="translate(288.713361 0) scale(0.996264)"/>
      <use xlink:href="#URWPalladioL-Roma-6f" transform="translate(321.88859 0) scale(0.996264)"/>
      <use xlink:href="#URWPalladioL-Roma-7a" transform="translate(376.284171 0) scale(0.996264)"/>
      <use xlink:href="#URWPalladioL-Roma-5d" transform="translate(426.097371 0) scale(0.996264)"/>
     </g>
    </g>
   </g>
   <g id="matplotlib.axis_2">
    <g id="ytick_1">
     <g id="line2d_11">
      <path d="M 43.081609 286.637107 
L 400.201609 286.637107 
" clip-path="url(#pf24875ce9b)" style="fill: none; stroke: #b0b0b0; stroke-width: 0.8; stroke-linecap: square"/>
     </g>
     <g id="line2d_12">
      <defs>
       <path id="m7a440b8469" d="M 0 0 
L -3.5 0 
" style="stroke: #000000; stroke-width: 0.8"/>
      </defs>
      <g>
       <use xlink:href="#m7a440b8469" x="43.081609" y="286.637107" style="stroke: #000000; stroke-width: 0.8"/>
      </g>
     </g>
     <g id="text_7">
      <!-- $\mathdefault{0}$ -->
      <g transform="translate(31.100288 290.201226) scale(0.1 -0.1)">
       <use xlink:href="#URWPalladioL-Roma-30" transform="scale(0.996264)"/>
      </g>
     </g>
    </g>
    <g id="ytick_2">
     <g id="line2d_13">
      <path d="M 43.081609 251.942181 
L 400.201609 251.942181 
" clip-path="url(#pf24875ce9b)" style="fill: none; stroke: #b0b0b0; stroke-width: 0.8; stroke-linecap: square"/>
     </g>
     <g id="line2d_14">
      <g>
       <use xlink:href="#m7a440b8469" x="43.081609" y="251.942181" style="stroke: #000000; stroke-width: 0.8"/>
      </g>
     </g>
     <g id="text_8">
      <!-- $\mathdefault{100}$ -->
      <g transform="translate(21.137648 255.5063) scale(0.1 -0.1)">
       <defs>
        <path id="URWPalladioL-Roma-31" d="M 429 3584 
L 493 3584 
L 1318 3956 
C 1325 3962 1331 3962 1338 3962 
C 1376 3962 1389 3905 1389 3751 
L 1389 613 
C 1389 276 1318 205 973 205 
L 614 205 
L 614 0 
C 1600 0 1600 0 1670 0 
C 1754 0 1894 0 2112 0 
C 2189 0 2413 0 2675 0 
L 2675 205 
L 2342 205 
C 1990 205 1926 276 1926 612 
L 1926 4443 
L 1837 4475 
C 1421 4257 966 4065 384 3860 
L 429 3584 
z
" transform="scale(0.015625)"/>
       </defs>
       <use xlink:href="#URWPalladioL-Roma-31" transform="scale(0.996264)"/>
       <use xlink:href="#URWPalladioL-Roma-30" transform="translate(49.8132 0) scale(0.996264)"/>
       <use xlink:href="#URWPalladioL-Roma-30" transform="translate(99.626401 0) scale(0.996264)"/>
      </g>
     </g>
    </g>
    <g id="ytick_3">
     <g id="line2d_15">
      <path d="M 43.081609 217.247255 
L 400.201609 217.247255 
" clip-path="url(#pf24875ce9b)" style="fill: none; stroke: #b0b0b0; stroke-width: 0.8; stroke-linecap: square"/>
     </g>
     <g id="line2d_16">
      <g>
       <use xlink:href="#m7a440b8469" x="43.081609" y="217.247255" style="stroke: #000000; stroke-width: 0.8"/>
      </g>
     </g>
     <g id="text_9">
      <!-- $\mathdefault{200}$ -->
      <g transform="translate(21.137648 220.811374) scale(0.1 -0.1)">
       <use xlink:href="#URWPalladioL-Roma-32" transform="scale(0.996264)"/>
       <use xlink:href="#URWPalladioL-Roma-30" transform="translate(49.8132 0) scale(0.996264)"/>
       <use xlink:href="#URWPalladioL-Roma-30" transform="translate(99.626401 0) scale(0.996264)"/>
      </g>
     </g>
    </g>
    <g id="ytick_4">
     <g id="line2d_17">
      <path d="M 43.081609 182.552329 
L 400.201609 182.552329 
" clip-path="url(#pf24875ce9b)" style="fill: none; stroke: #b0b0b0; stroke-width: 0.8; stroke-linecap: square"/>
     </g>
     <g id="line2d_18">
      <g>
       <use xlink:href="#m7a440b8469" x="43.081609" y="182.552329" style="stroke: #000000; stroke-width: 0.8"/>
      </g>
     </g>
     <g id="text_10">
      <!-- $\mathdefault{300}$ -->
      <g transform="translate(21.137648 186.116447) scale(0.1 -0.1)">
       <defs>
        <path id="URWPalladioL-Roma-33" d="M 275 3197 
L 474 3197 
L 589 3554 
C 659 3770 1062 3987 1395 3987 
C 1811 3987 2150 3649 2150 3248 
C 2150 2770 1773 2368 1318 2368 
C 1267 2368 1197 2368 1114 2381 
L 1018 2381 
L 941 2047 
L 986 2008 
C 1229 2118 1350 2150 1523 2150 
C 2054 2150 2362 1809 2362 1222 
C 2362 566 1971 135 1376 135 
C 1082 135 819 231 627 411 
C 474 553 390 701 269 1049 
L 96 985 
C 230 593 282 361 320 39 
C 659 -77 941 -128 1178 -128 
C 1690 -128 2278 161 2630 593 
C 2848 857 2957 1140 2957 1442 
C 2957 1751 2829 2022 2598 2182 
C 2438 2298 2291 2350 1971 2407 
C 2483 2803 2675 3096 2675 3472 
C 2675 4040 2202 4416 1491 4416 
C 1056 4416 768 4295 461 3989 
L 275 3197 
z
" transform="scale(0.015625)"/>
       </defs>
       <use xlink:href="#URWPalladioL-Roma-33" transform="scale(0.996264)"/>
       <use xlink:href="#URWPalladioL-Roma-30" transform="translate(49.8132 0) scale(0.996264)"/>
       <use xlink:href="#URWPalladioL-Roma-30" transform="translate(99.626401 0) scale(0.996264)"/>
      </g>
     </g>
    </g>
    <g id="ytick_5">
     <g id="line2d_19">
      <path d="M 43.081609 147.857403 
L 400.201609 147.857403 
" clip-path="url(#pf24875ce9b)" style="fill: none; stroke: #b0b0b0; stroke-width: 0.8; stroke-linecap: square"/>
     </g>
     <g id="line2d_20">
      <g>
       <use xlink:href="#m7a440b8469" x="43.081609" y="147.857403" style="stroke: #000000; stroke-width: 0.8"/>
      </g>
     </g>
     <g id="text_11">
      <!-- $\mathdefault{400}$ -->
      <g transform="translate(21.137648 151.421521) scale(0.1 -0.1)">
       <use xlink:href="#URWPalladioL-Roma-34" transform="scale(0.996264)"/>
       <use xlink:href="#URWPalladioL-Roma-30" transform="translate(49.8132 0) scale(0.996264)"/>
       <use xlink:href="#URWPalladioL-Roma-30" transform="translate(99.626401 0) scale(0.996264)"/>
      </g>
     </g>
    </g>
    <g id="ytick_6">
     <g id="line2d_21">
      <path d="M 43.081609 113.162477 
L 400.201609 113.162477 
" clip-path="url(#pf24875ce9b)" style="fill: none; stroke: #b0b0b0; stroke-width: 0.8; stroke-linecap: square"/>
     </g>
     <g id="line2d_22">
      <g>
       <use xlink:href="#m7a440b8469" x="43.081609" y="113.162477" style="stroke: #000000; stroke-width: 0.8"/>
      </g>
     </g>
     <g id="text_12">
      <!-- $\mathdefault{500}$ -->
      <g transform="translate(21.137648 116.726595) scale(0.1 -0.1)">
       <defs>
        <path id="URWPalladioL-Roma-35" d="M 813 3877 
C 1638 3877 1997 3877 2765 3877 
L 2797 3907 
C 2784 4016 2784 4064 2784 4144 
C 2784 4229 2784 4277 2797 4386 
L 2765 4416 
C 2285 4416 1997 4416 1651 4416 
C 1299 4416 1018 4416 538 4416 
L 506 4403 
C 512 4011 518 3729 518 3523 
C 518 2977 499 2360 480 2077 
L 608 2038 
C 909 2341 1082 2432 1395 2432 
C 2010 2432 2394 1993 2394 1296 
C 2394 580 1984 160 1286 160 
C 941 160 621 277 531 444 
L 237 973 
L 83 883 
C 230 516 307 310 397 27 
C 576 -71 832 -128 1107 -128 
C 1536 -128 1990 59 2342 368 
C 2733 716 2938 1154 2938 1630 
C 2938 2359 2419 2874 1690 2874 
C 1382 2874 1152 2791 755 2554 
L 813 3877 
z
" transform="scale(0.015625)"/>
       </defs>
       <use xlink:href="#URWPalladioL-Roma-35" transform="scale(0.996264)"/>
       <use xlink:href="#URWPalladioL-Roma-30" transform="translate(49.8132 0) scale(0.996264)"/>
       <use xlink:href="#URWPalladioL-Roma-30" transform="translate(99.626401 0) scale(0.996264)"/>
      </g>
     </g>
    </g>
    <g id="ytick_7">
     <g id="line2d_23">
      <path d="M 43.081609 78.467551 
L 400.201609 78.467551 
" clip-path="url(#pf24875ce9b)" style="fill: none; stroke: #b0b0b0; stroke-width: 0.8; stroke-linecap: square"/>
     </g>
     <g id="line2d_24">
      <g>
       <use xlink:href="#m7a440b8469" x="43.081609" y="78.467551" style="stroke: #000000; stroke-width: 0.8"/>
      </g>
     </g>
     <g id="text_13">
      <!-- $\mathdefault{600}$ -->
      <g transform="translate(21.137648 82.031669) scale(0.1 -0.1)">
       <use xlink:href="#URWPalladioL-Roma-36" transform="scale(0.996264)"/>
       <use xlink:href="#URWPalladioL-Roma-30" transform="translate(49.8132 0) scale(0.996264)"/>
       <use xlink:href="#URWPalladioL-Roma-30" transform="translate(99.626401 0) scale(0.996264)"/>
      </g>
     </g>
    </g>
    <g id="ytick_8">
     <g id="line2d_25">
      <path d="M 43.081609 43.772625 
L 400.201609 43.772625 
" clip-path="url(#pf24875ce9b)" style="fill: none; stroke: #b0b0b0; stroke-width: 0.8; stroke-linecap: square"/>
     </g>
     <g id="line2d_26">
      <g>
       <use xlink:href="#m7a440b8469" x="43.081609" y="43.772625" style="stroke: #000000; stroke-width: 0.8"/>
      </g>
     </g>
     <g id="text_14">
      <!-- $\mathdefault{700}$ -->
      <g transform="translate(21.137648 47.336743) scale(0.1 -0.1)">
       <defs>
        <path id="URWPalladioL-Roma-37" d="M 358 32 
L 416 -51 
C 666 -32 666 -32 710 -32 
C 755 -32 755 -32 1005 -51 
C 1274 649 1587 1317 2010 2087 
L 3181 4199 
L 3181 4372 
C 2490 4372 2266 4372 1747 4372 
C 1280 4372 966 4372 346 4372 
L 282 4359 
C 301 3750 301 3750 301 3685 
C 301 3614 301 3614 282 3031 
L 474 3031 
L 518 3390 
C 570 3789 614 3840 909 3840 
L 2618 3840 
C 2362 3313 2163 2941 1920 2549 
L 358 32 
z
" transform="scale(0.015625)"/>
       </defs>
       <use xlink:href="#URWPalladioL-Roma-37" transform="scale(0.996264)"/>
       <use xlink:href="#URWPalladioL-Roma-30" transform="translate(49.8132 0) scale(0.996264)"/>
       <use xlink:href="#URWPalladioL-Roma-30" transform="translate(99.626401 0) scale(0.996264)"/>
      </g>
     </g>
    </g>
    <g id="text_15">
     <!-- power [W] -->
     <g transform="translate(14.328237 178.575537) rotate(-90) scale(0.1 -0.1)">
      <defs>
       <path id="URWPalladioL-Roma-70" d="M 64 2565 
L 301 2565 
C 557 2565 582 2520 582 2095 
L 582 -1142 
C 582 -1548 563 -1593 346 -1593 
L 51 -1593 
L 51 -1792 
C 691 -1792 691 -1792 851 -1792 
C 1011 -1792 1011 -1792 1651 -1792 
L 1651 -1593 
L 1357 -1593 
C 1139 -1593 1120 -1547 1120 -1138 
L 1120 89 
C 1312 -26 1517 -71 1805 -71 
C 1990 -71 2157 -32 2259 32 
L 2989 505 
C 3245 672 3546 1330 3546 1740 
C 3546 2451 2957 3008 2214 3008 
C 1978 3008 1747 2943 1645 2847 
L 1120 2367 
L 1120 2982 
L 1062 3008 
C 736 2873 403 2783 64 2745 
L 64 2565 
z
M 1120 1964 
C 1120 2053 1152 2124 1235 2233 
C 1421 2469 1683 2591 2003 2591 
C 2605 2591 2989 2169 2989 1504 
C 2989 787 2560 256 1984 256 
C 1632 256 1370 372 1120 633 
L 1120 1964 
z
" transform="scale(0.015625)"/>
       <path id="URWPalladioL-Roma-77" d="M 2643 3008 
C 2118 1788 2022 1571 1626 677 
L 1088 2444 
C 1069 2502 1062 2553 1062 2604 
C 1062 2700 1146 2752 1306 2752 
L 1562 2752 
L 1562 2932 
C 928 2932 928 2932 800 2932 
C 672 2932 672 2932 38 2932 
L 38 2765 
L 218 2752 
C 397 2739 480 2612 640 2114 
L 1293 -32 
L 1594 -32 
L 2221 1437 
C 2253 1514 2323 1667 2426 1884 
L 2554 2152 
L 3424 -32 
L 3718 -32 
C 3763 102 3814 249 3866 389 
C 3994 767 4134 1162 4160 1201 
L 4595 2196 
C 4787 2625 4864 2733 5005 2752 
L 5171 2765 
L 5171 2932 
C 4646 2932 4646 2932 4544 2932 
C 4442 2932 4442 2932 3917 2932 
L 3917 2752 
L 4134 2752 
C 4294 2752 4384 2675 4384 2559 
C 4384 2489 4371 2412 4339 2329 
L 4019 1433 
C 3968 1292 3917 1163 3712 638 
L 2976 2490 
C 2886 2707 2842 2835 2790 3008 
L 2643 3008 
z
" transform="scale(0.015625)"/>
       <path id="URWPalladioL-Roma-65" d="M 2797 447 
L 2714 511 
C 2304 269 2157 212 1882 212 
C 1466 212 1120 398 941 711 
C 819 921 774 1101 762 1472 
L 1696 1472 
C 2138 1472 2413 1472 2854 1544 
C 2861 1634 2867 1693 2867 1771 
C 2867 2520 2394 3008 1677 3008 
C 1440 3008 1165 2924 902 2770 
C 378 2469 166 2071 166 1404 
C 166 1000 262 654 435 410 
C 691 71 1120 -128 1600 -128 
C 1837 -128 2074 -77 2336 37 
C 2509 108 2643 191 2669 230 
L 2797 447 
z
M 2298 1690 
C 1965 1690 1811 1690 1581 1690 
C 1286 1690 1120 1690 774 1722 
C 774 2027 800 2169 883 2337 
C 1018 2622 1293 2796 1600 2796 
C 1811 2796 1978 2711 2093 2534 
C 2234 2319 2278 2129 2298 1690 
z
" transform="scale(0.015625)"/>
       <path id="URWPalladioL-Roma-57" d="M 4698 -64 
C 4723 32 4742 122 4749 154 
C 4768 218 4819 411 4870 584 
L 5850 4032 
C 5888 4147 5952 4205 6093 4218 
L 6298 4237 
L 6298 4416 
L 5626 4416 
C 5562 4416 5562 4416 4954 4416 
L 4954 4237 
L 5210 4218 
C 5434 4199 5504 4167 5510 4063 
C 5510 4044 5510 4025 5504 4005 
L 4659 872 
L 3610 3826 
C 3469 4211 3450 4262 3398 4480 
L 3194 4480 
C 3059 4082 2950 3795 2618 2935 
L 1824 917 
L 1184 3795 
C 1165 3872 1158 3942 1158 4006 
C 1158 4147 1222 4205 1395 4218 
L 1664 4237 
L 1664 4416 
L 858 4416 
C 813 4416 544 4416 51 4416 
L 51 4237 
L 230 4218 
C 416 4199 493 4128 550 3897 
L 1312 597 
C 1395 231 1395 225 1459 -64 
L 1779 -64 
C 1837 141 1888 295 2010 597 
L 3123 3429 
L 3923 1256 
C 4134 687 4154 635 4378 -64 
L 4698 -64 
z
" transform="scale(0.015625)"/>
      </defs>
      <use xlink:href="#URWPalladioL-Roma-70" transform="scale(0.996264)"/>
      <use xlink:href="#URWPalladioL-Roma-6f" transform="translate(59.874394 0) scale(0.996264)"/>
      <use xlink:href="#URWPalladioL-Roma-77" transform="translate(114.269974 0) scale(0.996264)"/>
      <use xlink:href="#URWPalladioL-Roma-65" transform="translate(197.358067 0) scale(0.996264)"/>
      <use xlink:href="#URWPalladioL-Roma-72" transform="translate(245.078362 0) scale(0.996264)"/>
      <use xlink:href="#URWPalladioL-Roma-5b" transform="translate(309.336859 0) scale(0.996264)"/>
      <use xlink:href="#URWPalladioL-Roma-57" transform="translate(342.512088 0) scale(0.996264)"/>
      <use xlink:href="#URWPalladioL-Roma-5d" transform="translate(442.138489 0) scale(0.996264)"/>
     </g>
    </g>
   </g>
   <g id="line2d_27">
    <path d="M 59.508141 275.252876 
L 59.634679 275.368728 
L 59.474008 275.462495 
L 59.451728 275.394439 
L 59.426734 275.269703 
L 59.465917 275.405544 
L 59.575695 275.282872 
L 59.547417 275.424836 
L 59.58912 275.472327 
L 59.534849 275.48776 
L 59.446301 275.546958 
L 59.600831 275.391382 
L 59.59012 275.633384 
L 59.514283 275.324043 
L 59.640678 275.565659 
L 59.757932 275.453807 
L 59.445158 275.307022 
L 59.515425 275.461777 
L 59.624682 275.6177 
L 59.513283 275.461778 
L 59.432304 275.552546 
L 59.686808 275.447114 
L 59.600831 275.384186 
L 59.612685 275.186296 
L 59.482434 275.542326 
L 59.437589 275.552903 
L 59.544367 275.587117 
L 59.510855 275.394477 
L 59.487004 275.676627 
L 59.609971 274.962185 
L 59.787353 275.443749 
L 59.87133 275.346171 
L 59.671384 275.666158 
L 59.644962 275.502006 
L 59.53642 275.333725 
L 59.481291 275.42736 
L 59.613828 275.737209 
L 59.535991 275.384503 
L 59.577123 275.308439 
L 59.430019 275.54139 
L 59.569125 275.033932 
L 59.544703 275.232024 
L 59.587406 275.596421 
L 59.672383 275.403593 
L 59.726226 275.409817 
L 59.474293 275.447833 
L 59.589548 275.496206 
L 59.59369 275.591257 
L 59.589834 275.56207 
L 59.369178 275.446033 
L 59.636821 275.636752 
L 59.506999 275.600425 
L 59.570553 275.702388 
L 59.463153 275.497537 
L 59.441352 275.58797 
L 59.629966 275.566323 
L 59.543132 275.531279 
L 59.590834 275.444594 
L 59.496859 275.496564 
L 59.314336 275.394115 
L 59.370607 275.579602 
L 59.476436 275.435436 
L 59.514711 275.649377 
L 59.476293 275.350551 
L 59.537991 275.410582 
L 59.425021 275.600779 
L 59.58155 275.249219 
L 59.613256 275.439862 
L 59.701661 275.769876 
L 59.558364 275.145345 
L 59.656245 275.533145 
L 59.464153 275.4519 
L 59.501143 275.677331 
L 59.518139 275.218651 
L 59.521709 275.284338 
L 59.657387 275.287996 
L 59.489861 275.629556 
L 59.531849 275.377616 
L 59.692235 275.472374 
L 59.622968 275.291529 
L 59.622968 275.357869 
L 59.458869 275.526559 
L 59.645391 275.360791 
L 59.555036 275.372179 
L 59.648533 275.15559 
L 59.449636 275.587263 
L 59.557985 275.471656 
L 59.567269 275.663807 
L 59.591976 275.269419 
L 59.504714 275.335101 
L 59.388316 275.358226 
L 59.417023 275.521402 
L 59.617398 275.413474 
L 59.600403 275.586188 
L 59.590262 275.506014 
L 59.482484 275.52049 
L 59.579694 275.381957 
L 59.593262 275.662865 
L 59.629966 275.079448 
L 59.563127 275.515532 
L 59.442109 275.357584 
L 59.846766 275.468424 
L 59.520424 275.645106 
L 59.72137 275.188485 
L 59.675954 275.598346 
L 59.668527 275.220323 
L 59.493431 275.607719 
L 59.602259 275.275191 
L 59.645819 275.62241 
L 59.485862 274.676537 
L 59.664671 275.471613 
L 59.748649 275.3575 
L 59.714229 275.537508 
L 59.639963 275.468362 
L 59.619969 275.221623 
L 59.550559 275.518185 
L 59.583407 275.380557 
L 59.505999 275.2821 
L 59.603309 275.447635 
L 59.713515 275.283074 
L 59.592405 275.513417 
L 59.703518 275.424836 
L 59.830199 275.387779 
L 59.708802 275.441301 
L 59.638678 275.267143 
L 59.745364 275.56207 
L 59.749077 275.493546 
L 59.873708 274.92381 
L 59.717943 275.589481 
L 59.671955 275.129956 
L 59.577409 275.405079 
L 59.687665 275.275926 
L 59.837054 275.372512 
L 59.705089 275.2302 
L 59.751505 275.34812 
L 59.797921 274.666466 
L 59.815631 275.160697 
L 60.000061 275.380798 
L 59.937884 274.872384 
L 59.995298 275.145058 
L 60.108982 275.090076 
L 60.000153 275.19691 
L 60.051568 274.926299 
L 60.085559 274.951504 
L 60.213811 275.03787 
L 60.076419 275.140944 
L 60.080989 275.127036 
L 60.108839 274.946048 
L 60.468457 274.929819 
L 60.429325 275.162882 
L 60.439179 274.919712 
L 60.299788 275.067401 
L 60.561861 274.844467 
L 60.44075 274.90854 
L 60.566146 274.964294 
L 60.59266 274.604826 
L 60.842501 274.846927 
L 60.661692 275.010995 
L 60.692112 274.492226 
L 60.7381 274.434552 
L 60.817507 274.602106 
L 61.040305 274.3648 
L 61.04459 274.071066 
L 61.212974 273.667409 
L 61.298379 274.320957 
L 61.458337 273.730306 
L 61.4879 273.817381 
L 62.239272 273.326504 
L 62.424651 273.515821 
L 62.620456 273.409894 
L 62.587608 273.273885 
L 62.710004 273.14736 
L 63.223675 273.06274 
L 63.378255 272.426129 
L 63.744015 272.701965 
L 64.126627 272.550804 
L 64.153049 272.399549 
L 64.284728 272.506754 
L 64.558748 272.176453 
L 64.766171 272.264737 
L 65.231619 272.043964 
L 65.679357 271.408989 
L 65.898727 271.775891 
L 66.689088 271.204993 
L 66.936594 271.3245 
L 66.921741 270.948217 
L 67.095409 270.707197 
L 67.185385 270.896139 
L 67.742858 270.864014 
L 68.05244 270.971726 
L 68.426626 270.676618 
L 68.506605 270.269412 
L 68.668562 270.444791 
L 68.919067 270.240711 
L 69.187424 269.865643 
L 69.17914 270.018581 
L 69.535189 270.036779 
L 70.080758 269.633697 
L 70.314696 269.611247 
L 70.660368 269.639903 
L 70.885544 269.541374 
L 70.994229 269.045787 
L 71.292435 269.384135 
L 71.591784 268.883771 
L 71.713988 268.75295 
L 71.907129 268.78856 
L 72.254465 268.638997 
L 72.562241 268.262221 
L 72.728482 268.325221 
L 72.898151 268.043006 
L 73.261197 268.145647 
L 73.408587 267.968479 
L 73.690033 267.883278 
L 73.887459 268.021124 
L 74.070982 267.76732 
L 74.147533 267.861514 
L 74.136393 267.504211 
L 74.528003 267.794177 
L 74.628834 267.538059 
L 74.89562 267.3328 
L 75.02887 267.548102 
L 75.171546 267.223613 
L 75.42148 267.009001 
L 75.584865 267.287336 
L 75.747393 266.953591 
L 76.16114 266.830667 
L 76.236499 266.558497 
L 76.499001 266.778803 
L 76.827106 266.199511 
L 77.135167 266.058638 
L 77.386957 266.393142 
L 77.580477 266.203594 
L 77.70573 265.391277 
L 78.023788 265.901293 
L 78.247964 264.861419 
L 78.500754 265.485599 
L 78.83143 265.913928 
L 78.967822 265.167995 
L 79.194619 265.341173 
L 79.563664 265.342663 
L 79.901003 264.768261 
L 80.340743 264.857912 
L 80.406583 264.855339 
L 80.48042 264.591577 
L 80.663657 264.801924 
L 80.894738 264.468495 
L 81.049269 264.585734 
L 81.352617 264.183741 
L 81.51186 264.249256 
L 82.008157 264.212206 
L 82.191394 264.009436 
L 82.173113 263.793846 
L 82.309505 263.968312 
L 82.436186 263.221029 
L 82.736249 263.910019 
L 82.943336 263.174979 
L 83.141334 263.550321 
L 83.311381 263.015801 
L 83.643722 262.697108 
L 83.809677 263.171285 
L 84.05047 262.736037 
L 84.478878 262.596753 
L 84.714722 262.671603 
L 85.071627 262.128353 
L 85.172743 262.324765 
L 85.201307 261.882768 
L 85.427961 262.356713 
L 85.557927 261.902895 
L 85.862274 262.17212 
L 86.306585 261.590369 
L 86.539237 261.782857 
L 86.661776 260.805432 
L 86.752609 261.360255 
L 87.12451 261.167751 
L 87.371873 261.211892 
L 87.570677 261.066189 
L 87.738632 261.123779 
L 87.804043 260.876775 
L 88.085826 260.697889 
L 88.340994 260.273399 
L 88.715515 260.556107 
L 88.925124 260.185376 
L 89.307358 259.946018 
L 89.506498 259.680678 
L 89.766521 259.977192 
L 89.847928 259.581422 
L 90.007315 260.07289 
L 90.117 259.47003 
L 90.485045 259.551581 
L 90.672995 258.909506 
L 90.970344 258.961606 
L 91.171576 258.260602 
L 91.350386 259.088728 
L 91.70753 258.706067 
L 91.964508 258.611266 
L 91.937373 258.571136 
L 92.38254 258.163926 
L 92.617335 258.416217 
L 92.781719 258.119076 
L 92.8537 257.495974 
L 93.225887 257.791424 
L 93.64906 256.985751 
L 93.787309 258.408111 
L 94.049382 257.544451 
L 94.273037 257.311314 
L 94.354587 256.915419 
L 94.492122 256.996706 
L 94.773093 256.571383 
L 95.224927 257.249726 
L 95.343135 256.601341 
L 95.60654 256.584839 
L 95.973631 256.357715 
L 96.023714 256.79176 
L 96.176674 256.366843 
L 96.453886 256.216418 
L 96.56 255.774614 
L 96.926521 256.200412 
L 97.299089 255.447134 
L 97.606865 255.379527 
L 97.829091 254.277231 
L 98.085452 255.256989 
L 98.228414 254.321967 
L 98.25988 255.057951 
L 98.847106 254.585828 
L 99.206582 255.219707 
L 99.654463 254.463599 
L 99.799378 254.484377 
L 100.143476 254.174966 
L 100.189463 253.606576 
L 100.462962 253.399819 
L 100.745316 253.814998 
L 100.9107 253.084533 
L 101.483833 253.446398 
L 101.573238 252.989181 
L 101.839167 254.656096 
L 102.043256 252.433443 
L 102.249201 253.349688 
L 102.396733 252.21543 
L 103.037945 252.636741 
L 103.300921 252.156998 
L 103.873769 251.680659 
L 103.994023 250.988088 
L 104.47618 251.161913 
L 104.739492 250.45463 
L 104.940343 251.191046 
L 105.529757 249.822639 
L 105.848672 251.682981 
L 106.229428 249.470505 
L 106.502259 252.045739 
L 106.740721 249.407414 
L 106.753289 250.351176 
L 107.346274 250.318632 
L 107.633055 250.141066 
L 107.886702 247.837558 
L 108.549954 248.730755 
L 108.862585 248.613035 
L 109.213063 248.331568 
L 109.52598 248.502404 
L 109.92216 246.00624 
L 110.491295 248.158062 
L 110.759652 246.255483 
L 110.980593 247.793723 
L 111.110844 247.754586 
L 111.658316 246.974885 
L 111.934197 246.007385 
L 112.439633 247.4191 
L 112.731938 247.396225 
L 113.092031 247.06194 
L 113.341679 245.549452 
L 113.514348 246.532685 
L 113.867254 244.551325 
L 114.289902 246.064654 
L 114.877128 245.766629 
L 114.986527 243.445127 
L 115.437026 245.195576 
L 115.817021 245.806445 
L 116.392296 241.057722 
L 116.794286 245.003105 
L 117.748793 244.508217 
L 117.718229 242.519568 
L 117.837198 242.26537 
L 118.617704 243.177702 
L 119.021597 244.328094 
L 119.276101 244.02111 
L 119.250536 243.811462 
L 119.33837 241.528039 
L 119.631006 241.024879 
L 119.967774 242.713873 
L 120.310872 241.906364 
L 121.067767 241.812926 
L 121.319272 241.192485 
L 122.026369 238.504593 
L 122.473964 242.129537 
L 123.159068 238.914417 
L 123.47527 239.081596 
L 123.939289 237.09837 
L 124.588259 240.780884 
L 125.123497 240.08949 
L 125.530152 240.086143 
L 125.448745 239.454812 
L 125.641408 238.851383 
L 125.863206 239.141564 
L 126.222396 237.617963 
L 126.537169 238.349655 
L 127.428504 237.245445 
L 127.635686 238.09391 
L 128.124319 237.402715 
L 128.400531 237.447231 
L 128.88545 235.074835 
L 129.212458 236.117506 
L 129.87371 236.376481 
L 130.08851 237.353639 
L 130.458983 236.423443 
L 130.628081 235.47241 
L 130.943997 236.124532 
L 131.096528 236.07518 
L 131.60525 234.117255 
L 132.205424 232.568733 
L 133.103708 236.296761 
L 133.732447 234.227385 
L 133.74211 233.361759 
L 133.938486 234.411601 
L 134.48277 234.475586 
L 134.724135 233.595788 
L 135.114888 234.543035 
L 135.415665 232.748694 
L 135.740721 231.600245 
L 136.192744 232.735081 
L 136.590067 232.058055 
L 136.980677 230.397512 
L 137.790224 231.151178 
L 138.337459 232.469109 
L 138.677893 230.513658 
L 138.958723 231.246398 
L 139.552993 229.163951 
L 139.961932 230.094795 
L 140.356636 229.015862 
L 141.009653 228.860659 
L 141.533323 230.033247 
L 141.706706 228.494254 
L 142.581759 226.990826 
L 143.277002 229.4519 
L 143.763016 225.979257 
L 144.065507 226.515116 
L 144.367855 227.291119 
L 145.231102 226.349688 
L 145.830895 224.854716 
L 146.191941 224.780344 
L 146.725847 225.023263 
L 147.509305 222.911342 
L 148.054303 223.838949 
L 148.942496 223.937684 
L 149.537909 223.719705 
L 149.817691 225.03898 
L 150.103758 222.637878 
L 150.44938 222.586345 
L 151.294917 225.03208 
L 151.853864 222.947438 
L 152.088801 222.5382 
L 152.597523 222.071232 
L 152.909583 220.748673 
L 153.518564 219.861297 
L 154.148396 221.869655 
L 154.468026 218.500803 
L 154.797224 221.163725 
L 155.448194 215.979603 
L 156.123585 222.251985 
L 157.37311 219.254474 
L 157.17183 217.846772 
L 157.092185 218.548318 
L 157.863456 218.537497 
L 158.14162 216.968894 
L 158.65834 214.847749 
L 158.799159 216.987051 
L 159.415281 218.112212 
L 160.138517 217.345872 
L 160.599109 217.79358 
L 160.820193 217.10214 
L 161.060844 217.683424 
L 161.386043 213.750582 
L 162.275996 215.48989 
L 162.744967 213.990423 
L 163.258545 213.963977 
L 163.777835 215.448408 
L 164.267705 214.618847 
L 165.426682 213.689733 
L 166.193193 213.356034 
L 166.898957 213.804274 
L 167.15865 212.917013 
L 167.461427 212.96443 
L 168.125107 212.0292 
L 168.654966 211.849163 
L 169.191204 211.453592 
L 169.494457 209.862464 
L 170.752837 208.663032 
L 171.618844 209.068555 
L 172.403969 208.605626 
L 172.803006 208.08915 
L 173.303016 203.025139 
L 174.198492 207.48558 
L 175.621685 208.722767 
L 176.060425 209.419981 
L 175.998585 208.539177 
L 176.195104 206.179618 
L 176.813796 204.85471 
L 177.062873 205.026092 
L 178.070367 205.292638 
L 178.586753 206.387718 
L 179.756728 203.839464 
L 180.406603 203.087525 
L 180.942698 201.793295 
L 181.456561 201.271068 
L 182.399693 201.209901 
L 182.960447 202.262986 
L 183.610274 202.761183 
L 184.064486 201.148397 
L 184.667422 199.820508 
L 185.251552 194.949197 
L 185.83154 200.860754 
L 186.897257 200.162542 
L 186.985662 199.931688 
L 187.19832 200.121804 
L 187.507666 199.075133 
L 187.965116 198.315563 
L 188.563528 197.696212 
L 189.280337 198.461862 
L 189.917454 198.852395 
L 190.427032 194.9659 
L 191.264856 197.004705 
L 191.733542 196.467043 
L 192.290965 196.683592 
L 192.723993 193.21537 
L 193.165447 195.002446 
L 193.836126 194.849323 
L 194.512471 194.11831 
L 195.266888 195.108429 
L 195.926141 193.664479 
L 196.258338 193.961282 
L 196.564543 192.150992 
L 197.346574 190.567986 
L 198.10399 193.233088 
L 199.309955 190.498818 
L 199.41407 189.57183 
L 200.006531 187.858866 
L 201.40954 191.70398 
L 201.922118 190.882641 
L 202.434267 187.117593 
L 203.274187 188.953556 
L 203.573393 186.439883 
L 204.967736 188.579107 
L 205.586572 188.685068 
L 206.171844 184.091158 
L 206.793536 184.978456 
L 207.548478 182.511904 
L 208.74416 186.779409 
L 209.537235 184.846877 
L 209.495246 184.014951 
L 210.128317 182.648513 
L 211.457488 183.389101 
L 211.906798 181.904382 
L 212.690253 181.639736 
L 213.039303 180.407795 
L 213.781677 182.262308 
L 214.423507 179.986798 
L 214.987357 174.733362 
L 215.854505 179.935985 
L 216.90756 177.974598 
L 217.15578 176.188079 
L 218.054255 177.957449 
L 218.896031 178.403155 
L 219.051419 177.806159 
L 219.40756 177.863407 
L 219.878391 175.849432 
L 220.252528 175.458808 
L 220.738634 173.569503 
L 221.991208 174.340091 
L 222.67674 173.496898 
L 222.956666 173.741332 
L 223.592782 173.679325 
L 224.297973 172.349158 
L 225.240344 172.582118 
L 225.785627 173.857566 
L 226.260787 175.794967 
L 226.485584 168.964304 
L 226.927088 169.626389 
L 227.57458 171.087918 
L 228.197129 169.235009 
L 229.221713 169.723782 
L 229.538201 169.051613 
L 230.284574 170.871072 
L 230.851187 169.273288 
L 232.20392 168.486812 
L 232.581962 167.169232 
L 232.737635 165.81975 
L 233.555511 167.370312 
L 234.683261 166.104942 
L 235.049449 166.049025 
L 235.439917 164.844774 
L 236.162917 164.168059 
L 236.843829 165.712929 
L 237.228155 165.102294 
L 237.846991 159.768182 
L 238.313152 158.766743 
L 239.043672 161.98194 
L 239.557107 162.600332 
L 239.89159 163.751284 
L 240.439729 162.647971 
L 240.830197 159.681441 
L 241.48031 159.912796 
L 242.04216 161.963061 
L 243.032804 159.437731 
L 244.504648 157.181137 
L 244.909541 154.453921 
L 245.436829 159.205339 
L 246.677499 159.91763 
L 246.978704 157.070883 
L 246.822746 158.190873 
L 247.250061 157.391972 
L 247.857185 151.396558 
L 248.479591 155.613377 
L 249.91783 158.284552 
L 250.459636 152.99876 
L 250.752986 156.6678 
L 251.32969 153.412024 
L 251.76486 156.684213 
L 252.348562 152.331486 
L 253.22033 150.674179 
L 253.859017 149.838109 
L 254.616387 149.566587 
L 255.654825 148.768818 
L 256.410674 150.903074 
L 256.856506 146.985351 
L 257.123006 149.731635 
L 259.228018 146.97144 
L 259.728028 148.394551 
L 259.375407 148.325713 
L 260.061653 146.133515 
L 260.606701 148.666311 
L 261.066957 145.519751 
L 261.258335 146.560965 
L 262.669959 144.537556 
L 263.276462 141.783107 
L 264.031454 145.887698 
L 264.704654 141.754 
L 264.899509 142.446021 
L 266.086051 148.737357 
L 266.14275 145.999262 
L 265.340585 141.448938 
L 265.263698 136.894728 
L 266.351123 139.729007 
L 268.382868 140.702168 
L 269.201222 142.398411 
L 269.434731 140.265294 
L 270.340683 137.538405 
L 270.867779 139.661223 
L 271.753257 139.518714 
L 272.206423 136.072637 
L 272.727427 137.923037 
L 273.59034 134.284313 
L 274.208462 128.520311 
L 274.971687 136.363407 
L 277.259507 135.858171 
L 277.415566 135.651535 
L 277.52158 132.465367 
L 278.02916 131.944001 
L 278.531883 136.748998 
L 278.66042 135.454043 
L 278.938346 135.410452 
L 279.287439 131.300846 
L 279.993923 130.960986 
L 280.360825 130.453584 
L 281.189033 130.903004 
L 281.785589 130.359937 
L 282.435559 128.751691 
L 282.711486 129.637364 
L 283.052681 129.449831 
L 283.663661 126.409638 
L 284.50825 126.808853 
L 285.650518 126.983942 
L 286.459917 126.391019 
L 286.790401 126.379033 
L 288.216693 123.974251 
L 289.078221 125.229306 
L 289.552237 123.64399 
L 289.904144 123.950769 
L 290.391586 123.416729 
L 290.968004 121.748736 
L 291.451875 122.481324 
L 292.332069 121.911095 
L 292.852502 120.60563 
L 293.588307 121.485874 
L 294.074606 115.194983 
L 294.344534 120.475083 
L 296.415369 120.145171 
L 297.189777 119.80733 
L 296.867434 118.642594 
L 297.358875 118.043547 
L 297.697071 115.810712 
L 298.098964 116.038225 
L 299.752096 116.508311 
L 300.0593 115.584592 
L 300.438056 115.061309 
L 300.731164 112.965525 
L 301.725999 114.57215 
L 302.259429 114.226868 
L 303.177899 113.465706 
L 303.33043 112.573631 
L 303.666626 112.79829 
L 304.29503 110.832236 
L 304.759807 110.411296 
L 305.575261 111.805917 
L 306.261936 109.843276 
L 306.608701 110.669195 
L 307.280379 107.824401 
L 307.741256 103.997146 
L 308.646159 107.809996 
L 310.286437 102.601413 
L 311.37529 104.522269 
L 312.599678 104.54068 
L 313.430172 105.477476 
L 314.167547 105.759565 
L 314.539734 105.430121 
L 314.6687 105.552744 
L 314.415338 105.629065 
L 314.690022 105.499738 
L 314.676412 105.23569 
L 314.761818 105.409087 
L 314.448087 105.910609 
L 314.529308 105.146478 
L 314.342686 105.541209 
L 314.527309 105.994027 
L 314.369779 105.476125 
L 314.488605 105.624016 
L 314.486362 106.356158 
L 314.210964 105.609669 
L 314.220533 106.109036 
L 314.582722 105.24597 
L 314.294942 106.149391 
L 314.210107 105.118328 
L 314.324077 105.720457 
L 314.38049 105.804739 
L 314.407055 105.123106 
L 314.479321 105.933982 
L 314.385204 105.627483 
L 314.325177 105.81377 
L 314.449901 105.581156 
L 314.408483 106.421105 
L 314.339359 104.90888 
L 314.289657 105.632462 
L 314.206351 105.812361 
L 314.015159 105.886659 
L 314.131799 105.230842 
L 314.470752 106.148696 
L 314.325505 105.611367 
L 314.043152 105.79767 
L 314.247383 105.823564 
L 314.075857 106.274542 
L 313.928896 106.0096 
L 314.216677 105.818191 
L 314.241813 104.932097 
L 314.217962 105.911134 
L 314.208722 106.33238 
L 314.25381 105.154934 
L 314.0213 105.415449 
L 314.024585 105.357644 
L 314.110848 105.236424 
L 314.06486 105.970144 
L 313.901047 105.447269 
L 314.236629 106.257767 
L 314.013588 105.417016 
L 314.058576 105.595532 
L 314.192683 105.598523 
L 314.062575 106.576031 
L 314.011446 105.782118 
L 313.668965 106.17559 
L 313.914614 106.152541 
L 313.92404 105.429541 
L 313.859915 105.63661 
L 313.741375 105.767591 
L 313.723522 105.701792 
L 313.91033 105.781301 
L 313.878338 106.415971 
L 313.894805 105.711254 
L 313.842205 105.96412 
L 314.005733 106.522433 
L 314.002691 105.866426 
L 313.820211 105.685855 
L 313.824067 106.231652 
L 314.029584 106.151812 
L 314.066003 105.295214 
L 313.916185 105.277927 
L 313.929896 106.633093 
L 313.791647 105.80276 
L 313.698386 106.259144 
L 313.800359 105.521954 
L 314.042866 106.83765 
L 313.966029 105.912829 
L 313.918042 105.371602 
L 313.860343 106.054729 
L 313.837778 105.393981 
L 313.69353 105.302022 
L 313.699629 106.521347 
L 313.685247 105.492397 
L 313.988023 106.042086 
L 313.649256 105.596938 
L 313.640402 106.674582 
L 313.581846 106.099566 
L 313.815784 105.596385 
L 313.970028 106.609643 
L 313.688774 105.446181 
L 313.596699 105.911786 
L 313.941036 105.727922 
L 313.788748 106.178368 
L 313.690817 105.524956 
L 313.684676 106.68026 
L 313.74466 105.545317 
L 313.871197 106.730614 
L 313.804929 105.550169 
L 313.822068 106.014534 
L 313.569992 105.734499 
L 313.818783 105.537095 
L 313.74266 105.930713 
L 313.895905 106.167624 
L 313.63169 105.929403 
L 313.661724 105.924268 
L 313.748659 105.383061 
L 313.781221 105.648905 
L 313.757899 107.084899 
L 313.626263 105.64978 
L 313.579275 105.761231 
L 314.060004 105.583622 
L 313.932752 106.069056 
L 313.680777 105.897385 
L 313.536286 106.322724 
L 313.83435 106.26738 
L 313.361233 105.687425 
L 313.81664 106.652076 
L 313.691674 105.657509 
L 313.66868 106.679466 
L 313.732763 105.149752 
L 313.800073 106.372573 
L 313.840206 104.977269 
L 313.777794 106.352357 
L 313.508151 105.678419 
L 313.756942 106.425569 
L 313.772509 106.29918 
" clip-path="url(#pf24875ce9b)" style="fill: none; stroke: #e0e0e0; stroke-width: 1.5; stroke-linecap: square"/>
   </g>
   <g id="line2d_28">
    <path d="M 59.513848 275.421409 
L 59.567078 275.502996 
L 59.632502 275.440813 
L 59.662548 275.423964 
L 59.535125 275.426135 
L 59.530412 275.534531 
L 59.547236 275.554222 
L 59.490368 275.501286 
L 59.587085 275.448184 
L 59.555837 275.484145 
L 59.754742 275.387242 
L 59.756002 275.418658 
L 59.725356 275.255054 
L 59.743111 275.251117 
L 59.872708 275.162606 
L 60.273877 275.031462 
L 60.461352 274.937101 
L 61.330387 274.001037 
L 62.524038 273.269968 
L 64.417553 272.316872 
L 64.943111 272.082672 
L 68.242688 270.541751 
L 69.506812 269.989476 
L 70.539515 269.482432 
L 72.022768 268.693663 
L 72.980853 268.217165 
L 75.03755 267.341047 
L 76.543661 266.526877 
L 77.170478 266.176277 
L 79.070516 265.301475 
L 79.652437 265.059197 
L 80.029315 264.954028 
L 80.973781 264.490011 
L 81.842648 264.062276 
L 88.452382 260.478737 
L 89.021869 260.188648 
L 90.82028 259.133308 
L 91.794674 258.546935 
L 92.223693 258.316199 
L 93.090615 257.886028 
L 93.722015 257.561597 
L 99.16386 254.519553 
L 99.836576 254.175755 
L 100.725889 253.815646 
L 101.386329 253.327518 
L 105.269798 250.876776 
L 105.558607 250.742381 
L 106.156229 250.255989 
L 107.356332 249.614795 
L 107.666906 249.321787 
L 107.997675 249.210815 
L 108.325074 248.848982 
L 108.641818 248.737196 
L 109.276897 248.288951 
L 109.961848 247.806063 
L 110.301774 247.623073 
L 110.648796 247.571366 
L 112.671689 246.448751 
L 113.001405 246.251252 
L 113.338562 246.221316 
L 113.699343 245.772249 
L 114.869873 245.191851 
L 115.622095 244.567035 
L 117.160181 243.899921 
L 117.855631 243.360419 
L 118.210587 243.257835 
L 118.90917 242.771457 
L 119.237635 242.780441 
L 119.58644 242.347207 
L 120.640046 241.736033 
L 120.994818 241.330744 
L 122.581755 240.445586 
L 123.375477 240.062532 
L 124.585104 239.235889 
L 125.006199 239.029318 
L 125.412729 238.955859 
L 126.189592 238.387733 
L 126.572071 238.190127 
L 126.967699 238.142001 
L 128.759969 236.954434 
L 129.54164 236.282865 
L 130.399672 235.944801 
L 131.194378 235.429917 
L 131.989107 235.133204 
L 132.382602 235.028239 
L 132.752066 234.786387 
L 133.51113 234.156936 
L 133.908596 233.929313 
L 134.757288 233.219244 
L 135.6376 232.972363 
L 137.258502 231.720596 
L 138.138956 231.081271 
L 144.301574 226.644997 
L 145.800004 225.537629 
L 146.302452 225.370889 
L 146.803918 225.080692 
L 147.282077 224.622988 
L 147.784204 224.559843 
L 148.818157 224.005137 
L 151.677885 222.435609 
L 152.131755 221.908886 
L 152.610494 221.796506 
L 153.132841 221.498824 
L 153.623117 221.019344 
L 154.583284 220.476783 
L 155.94072 219.029182 
L 156.877166 218.538394 
L 157.349202 218.400546 
L 157.793989 218.082712 
L 158.23351 218.02822 
L 158.672764 217.53401 
L 159.127951 217.501363 
L 159.961739 216.597892 
L 160.880507 216.176036 
L 161.829214 215.66888 
L 162.871524 215.357247 
L 168.740026 211.319244 
L 169.306295 210.573633 
L 170.519648 209.851138 
L 171.719742 209.266996 
L 174.475853 207.241454 
L 175.607174 206.798188 
L 177.225855 205.661985 
L 177.769425 205.545047 
L 179.308745 204.252096 
L 181.019617 202.57054 
L 182.276426 201.980039 
L 183.995794 200.819696 
L 185.086815 200.092015 
L 186.206717 199.708675 
L 187.837051 198.522247 
L 188.385483 198.224593 
L 188.922588 197.784251 
L 189.450181 197.787801 
L 191.625437 196.232051 
L 192.782111 195.480156 
L 194.546943 194.187986 
L 195.139138 193.890181 
L 196.233951 192.820777 
L 196.841856 192.488803 
L 197.455065 192.333288 
L 198.050592 191.956282 
L 198.623801 191.440833 
L 199.207916 191.096516 
L 200.300825 190.079551 
L 200.881452 189.720739 
L 202.049972 189.206926 
L 203.121849 188.140904 
L 203.671084 187.608443 
L 204.92847 187.221483 
L 206.606097 185.748503 
L 207.207645 185.499937 
L 207.783153 185.029992 
L 208.390943 184.709982 
L 210.169404 183.264261 
L 210.778404 182.491371 
L 211.423914 182.21436 
L 212.738669 181.325848 
L 213.359342 180.737717 
L 216.419128 178.558097 
L 217.627981 177.515795 
L 219.493428 176.066506 
L 220.114135 175.907559 
L 220.739858 175.417301 
L 221.331729 175.142832 
L 221.93873 175.116624 
L 223.604433 173.484081 
L 224.190404 172.908854 
L 225.432337 172.073331 
L 226.068733 171.893436 
L 228.469707 170.458533 
L 230.179871 169.158944 
L 230.765782 168.509214 
L 231.97846 167.87069 
L 233.741162 166.836418 
L 234.295082 166.217523 
L 234.83032 165.410568 
L 235.907297 164.510849 
L 237.483164 163.484509 
L 238.011483 162.987341 
L 238.502077 162.711216 
L 240.140742 161.371171 
L 240.678456 160.62057 
L 241.225701 160.22744 
L 242.455517 159.794302 
L 243.022823 159.75591 
L 243.569916 159.449912 
L 244.123254 158.702994 
L 244.695788 158.160467 
L 245.327661 157.869572 
L 245.969624 157.42406 
L 246.587802 157.207727 
L 247.206971 156.637658 
L 247.789108 156.45409 
L 249.543702 155.31185 
L 252.051876 152.767791 
L 252.710072 152.257101 
L 253.468128 151.962094 
L 254.218024 151.480839 
L 254.848529 150.816916 
L 256.794729 149.299649 
L 257.427627 148.624766 
L 259.357739 147.180837 
L 259.98541 146.935577 
L 261.154654 145.904119 
L 261.769957 146.02092 
L 262.371273 145.772095 
L 262.778778 145.403928 
L 263.147823 144.637273 
L 263.61287 144.06416 
L 265.298438 142.933913 
L 265.903928 142.332409 
L 267.667119 141.270258 
L 268.83923 140.241301 
L 270.052202 138.48799 
L 270.793319 137.811918 
L 273.870647 136.347588 
L 274.50126 135.88463 
L 275.731285 135.145137 
L 276.913533 133.960779 
L 277.512373 133.616137 
L 278.705932 132.743089 
L 279.2728 132.817559 
L 279.811533 132.356654 
L 280.711322 131.13724 
L 281.815302 130.401612 
L 283.575107 128.267556 
L 284.865047 127.374987 
L 286.114772 126.442381 
L 287.32802 125.450277 
L 291.165412 122.392756 
L 293.091303 121.118811 
L 294.235675 119.983853 
L 295.461365 119.012249 
L 296.66653 118.106639 
L 297.226469 117.510267 
L 298.396111 116.624102 
L 299.002997 116.508816 
L 300.085474 115.492261 
L 301.085315 114.345168 
L 303.328141 112.609514 
L 303.860751 111.775436 
L 304.433209 111.257129 
L 305.089767 110.42647 
L 308.748934 107.621552 
L 310.157093 106.791637 
L 310.819107 106.4642 
L 311.992509 105.730572 
L 312.998397 105.234805 
L 313.438492 105.337743 
L 313.830569 105.216678 
L 314.48675 105.645745 
L 314.323802 105.657012 
L 314.228906 105.837834 
L 314.14274 105.623135 
L 314.152814 105.541812 
L 314.005778 105.795194 
L 313.874308 105.994661 
L 313.896864 105.989814 
L 313.918829 106.016276 
L 313.759072 105.881181 
L 313.760129 105.939947 
L 313.702116 106.04814 
L 313.752584 105.768078 
L 313.690874 106.045564 
" clip-path="url(#pf24875ce9b)" style="fill: none; stroke: #1f77b4; stroke-width: 1.5; stroke-linecap: square"/>
   </g>
   <g id="line2d_29">
    <path d="M 82.435262 268.83861 
L 115.136259 251.109503 
L 144.034816 233.935514 
L 180.158011 210.551134 
L 210.957788 188.797415 
L 248.221716 160.243491 
L 279.401737 134.326382 
L 317.426153 100.776388 
L 348.606174 70.869362 
L 383.968881 33.849876 
" clip-path="url(#pf24875ce9b)" style="fill: none; stroke: #ff7f0e; stroke-width: 1.5; stroke-linecap: square"/>
   </g>
   <g id="patch_3">
    <path d="M 43.081609 287.865876 
L 43.081609 21.753876 
" style="fill: none; stroke: #000000; stroke-width: 0.8; stroke-linejoin: miter; stroke-linecap: square"/>
   </g>
   <g id="patch_4">
    <path d="M 400.201609 287.865876 
L 400.201609 21.753876 
" style="fill: none; stroke: #000000; stroke-width: 0.8; stroke-linejoin: miter; stroke-linecap: square"/>
   </g>
   <g id="patch_5">
    <path d="M 43.081609 287.865876 
L 400.201609 287.865876 
" style="fill: none; stroke: #000000; stroke-width: 0.8; stroke-linejoin: miter; stroke-linecap: square"/>
   </g>
   <g id="patch_6">
    <path d="M 43.081609 21.753876 
L 400.201609 21.753876 
" style="fill: none; stroke: #000000; stroke-width: 0.8; stroke-linejoin: miter; stroke-linecap: square"/>
   </g>
   <g id="text_16">
    <!-- Power vs. Thrust at 23 MPH -->
    <g transform="translate(146.623625 15.753876) scale(0.12 -0.12)">
     <defs>
      <path id="URWPalladioL-Roma-50" d="M 1382 4116 
C 1606 4166 1792 4192 2010 4192 
C 2701 4192 3072 3875 3072 3273 
C 3072 2703 2682 2304 2125 2304 
C 1990 2304 1894 2317 1728 2367 
L 1792 2137 
C 1946 2105 2035 2099 2163 2099 
C 3040 2099 3712 2692 3712 3459 
C 3712 4071 3213 4448 2400 4448 
C 2368 4448 2304 4448 2221 4423 
C 1984 4423 1498 4423 1312 4423 
C 1171 4423 1171 4423 147 4423 
L 147 4224 
L 435 4224 
C 723 4224 774 4140 774 3663 
L 774 766 
C 774 256 742 205 448 205 
L 141 205 
L 141 0 
C 518 0 742 0 1075 0 
C 1408 0 1638 0 2016 0 
L 2016 205 
L 1709 205 
C 1414 205 1382 256 1382 764 
L 1382 4116 
z
" transform="scale(0.015625)"/>
      <path id="URWPalladioL-Roma-76" d="M 3450 2752 
L 3450 2932 
C 3066 2932 2950 2932 2848 2932 
C 2746 2932 2630 2932 2246 2932 
L 2246 2752 
L 2509 2752 
C 2611 2752 2662 2694 2662 2591 
C 2662 2489 2618 2317 2541 2124 
L 2272 1445 
C 2195 1259 2118 1080 1875 549 
L 1114 2393 
C 1075 2482 1056 2566 1056 2636 
C 1056 2707 1114 2752 1216 2752 
L 1530 2752 
L 1530 2932 
C 902 2932 902 2932 781 2932 
C 659 2932 352 2932 38 2932 
L 38 2752 
L 256 2752 
C 352 2739 384 2701 454 2541 
L 1555 -32 
L 1875 -32 
C 1914 77 1978 243 1978 256 
C 2048 447 2131 664 2138 664 
L 2893 2324 
C 3034 2625 3123 2739 3251 2752 
L 3450 2752 
z
" transform="scale(0.015625)"/>
      <path id="URWPalladioL-Roma-2e" d="M 794 744 
C 602 744 429 564 429 372 
C 429 179 602 0 787 0 
C 992 0 1171 173 1171 372 
C 1171 564 992 744 794 744 
z
" transform="scale(0.015625)"/>
      <path id="URWPalladioL-Roma-54" d="M 1632 4114 
C 1651 3896 1658 3749 1658 3473 
L 1658 763 
C 1658 256 1626 205 1331 205 
L 1024 205 
L 1024 0 
C 1402 0 1626 0 1958 0 
C 2291 0 2522 0 2899 0 
L 2899 205 
L 2592 205 
C 2298 205 2266 256 2266 763 
L 2266 3473 
C 2266 3762 2272 3903 2291 4114 
L 3283 4114 
C 3462 4114 3533 4057 3539 3904 
L 3565 3400 
L 3763 3400 
C 3763 3810 3776 4056 3808 4416 
C 3347 4416 3136 4416 2957 4416 
C 2707 4416 2522 4416 2426 4416 
L 1414 4416 
C 1350 4416 1005 4416 550 4416 
L 115 4416 
C 147 4056 160 3810 160 3400 
L 358 3400 
L 384 3904 
C 390 4057 461 4114 640 4114 
L 1632 4114 
z
" transform="scale(0.015625)"/>
      <path id="URWPalladioL-Roma-61" d="M 2074 538 
L 2042 -1 
C 2458 -1 2458 -1 2541 -1 
C 2573 -1 2733 -1 3014 -1 
L 3014 192 
L 2765 192 
C 2611 192 2586 244 2586 558 
L 2586 1731 
C 2586 2668 2317 3008 1574 3008 
C 1299 3008 1043 2937 800 2791 
L 461 2585 
L 461 2171 
L 627 2126 
L 710 2323 
C 845 2623 909 2668 1203 2668 
C 1805 2668 2054 2431 2074 1852 
L 1440 1736 
C 570 1577 205 1277 205 722 
C 205 224 506 -64 1011 -64 
C 1126 -64 1235 -45 1280 -13 
L 2074 538 
z
M 2074 806 
C 1888 544 1485 302 1235 302 
C 979 302 755 538 755 812 
C 755 1048 883 1271 1075 1392 
C 1235 1488 1587 1577 2074 1648 
L 2074 806 
z
" transform="scale(0.015625)"/>
      <path id="URWPalladioL-Roma-4d" d="M 4685 783 
C 4685 276 4659 231 4358 205 
L 4141 186 
L 4141 0 
C 4435 0 4627 0 4960 0 
C 5318 0 5549 0 5926 0 
L 5926 205 
L 5619 205 
C 5325 205 5293 256 5293 766 
L 5293 3663 
C 5293 4166 5325 4224 5619 4224 
L 5888 4256 
L 5888 4436 
C 5402 4436 5402 4436 5293 4436 
C 5197 4436 5197 4436 4685 4436 
L 3008 884 
L 1318 4436 
C 806 4436 806 4436 710 4436 
C 614 4436 614 4436 102 4436 
L 102 4237 
L 384 4237 
C 678 4237 710 4178 710 3674 
L 710 768 
C 710 263 678 205 384 205 
L 102 205 
L 102 0 
C 736 0 736 0 845 0 
C 941 0 941 0 1613 0 
L 1613 205 
L 1331 205 
C 1037 205 1005 262 1005 766 
L 1005 3718 
L 2790 -64 
L 2918 -64 
C 2963 32 3002 134 3040 230 
C 3142 480 3219 658 3264 748 
L 4403 3167 
C 4493 3353 4570 3500 4685 3718 
L 4685 783 
z
" transform="scale(0.015625)"/>
      <path id="URWPalladioL-Roma-48" d="M 3942 773 
C 3942 257 3910 205 3616 205 
L 3309 205 
L 3309 0 
C 3686 0 3910 0 4243 0 
C 4576 0 4806 0 5184 0 
L 5184 205 
L 4877 205 
C 4582 205 4550 256 4550 766 
L 4550 3663 
C 4550 4172 4582 4224 4877 4224 
L 5184 4224 
L 5184 4423 
C 4717 4423 4576 4423 4243 4423 
C 3923 4423 3770 4423 3309 4423 
L 3309 4224 
L 3616 4224 
C 3910 4224 3942 4172 3942 3668 
L 3942 2529 
C 3808 2529 3674 2529 3411 2529 
L 1914 2529 
C 1651 2529 1510 2529 1382 2529 
L 1382 3668 
C 1382 4172 1414 4224 1709 4224 
L 2016 4224 
L 2016 4423 
C 1549 4423 1408 4423 1075 4423 
C 755 4423 602 4423 141 4423 
L 141 4224 
L 448 4224 
C 742 4224 774 4172 774 3663 
L 774 766 
C 774 256 742 205 448 205 
L 141 205 
L 141 0 
C 518 0 742 0 1075 0 
C 1408 0 1638 0 2016 0 
L 2016 205 
L 1709 205 
C 1414 205 1382 257 1382 773 
L 1382 2227 
C 1555 2240 1658 2240 1914 2240 
L 3411 2240 
C 3667 2240 3770 2240 3942 2227 
L 3942 773 
z
" transform="scale(0.015625)"/>
     </defs>
     <use xlink:href="#URWPalladioL-Roma-50" transform="scale(0.996264)"/>
     <use xlink:href="#URWPalladioL-Roma-6f" transform="translate(60.173595 0) scale(0.996264)"/>
     <use xlink:href="#URWPalladioL-Roma-77" transform="translate(114.569175 0) scale(0.996264)"/>
     <use xlink:href="#URWPalladioL-Roma-65" transform="translate(197.657269 0) scale(0.996264)"/>
     <use xlink:href="#URWPalladioL-Roma-72" transform="translate(245.377564 0) scale(0.996264)"/>
     <use xlink:href="#URWPalladioL-Roma-76" transform="translate(309.63606 0) scale(0.996264)"/>
     <use xlink:href="#URWPalladioL-Roma-73" transform="translate(365.923973 0) scale(0.996264)"/>
     <use xlink:href="#URWPalladioL-Roma-2e" transform="translate(408.16544 0) scale(0.996264)"/>
     <use xlink:href="#URWPalladioL-Roma-54" transform="translate(463.956072 0) scale(0.996264)"/>
     <use xlink:href="#URWPalladioL-Roma-68" transform="translate(525.025904 0) scale(0.996264)"/>
     <use xlink:href="#URWPalladioL-Roma-72" transform="translate(583.007965 0) scale(0.996264)"/>
     <use xlink:href="#URWPalladioL-Roma-75" transform="translate(621.563287 0) scale(0.996264)"/>
     <use xlink:href="#URWPalladioL-Roma-73" transform="translate(681.637022 0) scale(0.996264)"/>
     <use xlink:href="#URWPalladioL-Roma-74" transform="translate(723.878489 0) scale(0.996264)"/>
     <use xlink:href="#URWPalladioL-Roma-61" transform="translate(781.262177 0) scale(0.996264)"/>
     <use xlink:href="#URWPalladioL-Roma-74" transform="translate(831.075377 0) scale(0.996264)"/>
     <use xlink:href="#URWPalladioL-Roma-32" transform="translate(888.459065 0) scale(0.996264)"/>
     <use xlink:href="#URWPalladioL-Roma-33" transform="translate(938.272266 0) scale(0.996264)"/>
     <use xlink:href="#URWPalladioL-Roma-4d" transform="translate(1012.992066 0) scale(0.996264)"/>
     <use xlink:href="#URWPalladioL-Roma-50" transform="translate(1107.238268 0) scale(0.996264)"/>
     <use xlink:href="#URWPalladioL-Roma-48" transform="translate(1167.411863 0) scale(0.996264)"/>
    </g>
   </g>
   <g id="legend_1">
    <g id="patch_7">
     <path d="M 50.081609 59.629172 
L 140.083173 59.629172 
Q 142.083173 59.629172 142.083173 57.629172 
L 142.083173 28.753876 
Q 142.083173 26.753876 140.083173 26.753876 
L 50.081609 26.753876 
Q 48.081609 26.753876 48.081609 28.753876 
L 48.081609 57.629172 
Q 48.081609 59.629172 50.081609 59.629172 
z
" style="fill: #ffffff; opacity: 0.8; stroke: #cccccc; stroke-linejoin: miter"/>
    </g>
    <g id="line2d_30">
     <path d="M 52.081609 34.382113 
L 62.081609 34.382113 
L 72.081609 34.382113 
" style="fill: none; stroke: #1f77b4; stroke-width: 1.5; stroke-linecap: square"/>
    </g>
    <g id="text_17">
     <!-- experimental -->
     <g transform="translate(80.081609 37.882113) scale(0.1 -0.1)">
      <defs>
       <path id="URWPalladioL-Roma-78" d="M 1843 1630 
L 2752 2694 
C 2790 2739 2861 2765 2970 2765 
L 3059 2765 
L 3059 2944 
L 2534 2944 
L 1741 1822 
L 1254 2566 
C 1158 2707 1088 2791 870 3009 
L 128 2880 
L 160 2708 
L 294 2694 
C 410 2694 550 2605 614 2515 
L 1382 1398 
L 429 269 
C 384 212 301 173 237 173 
L 128 173 
L 128 0 
L 678 0 
C 723 71 736 96 813 212 
C 915 391 1018 551 1062 603 
L 1536 1231 
L 2221 208 
L 2227 196 
C 2285 107 2336 44 2387 0 
C 2720 0 2720 0 2778 0 
C 2842 0 2842 0 3174 0 
L 3174 173 
L 3014 192 
C 2938 199 2861 250 2790 346 
L 1843 1630 
z
" transform="scale(0.015625)"/>
       <path id="URWPalladioL-Roma-69" d="M 1203 2993 
L 1146 3019 
C 819 2884 486 2793 147 2755 
L 147 2576 
L 384 2576 
C 640 2576 666 2531 666 2105 
L 666 651 
C 666 244 646 199 429 199 
L 134 199 
L 134 0 
C 774 0 774 0 934 0 
C 1094 0 1094 0 1734 0 
L 1734 199 
L 1440 199 
C 1222 199 1203 244 1203 651 
L 1203 2993 
z
M 909 4416 
C 717 4416 550 4249 550 4056 
C 550 3870 717 3704 902 3704 
C 1088 3704 1261 3870 1261 4056 
C 1261 4236 1088 4416 909 4416 
z
" transform="scale(0.015625)"/>
       <path id="URWPalladioL-Roma-6d" d="M 115 2565 
L 352 2565 
C 608 2565 634 2520 634 2094 
L 634 643 
C 634 237 614 192 397 192 
L 102 192 
L 102 -7 
C 717 -7 736 -7 915 -7 
C 1094 -7 1261 -7 1677 -7 
L 1677 179 
L 1408 205 
C 1190 205 1171 250 1171 654 
L 1171 2014 
C 1171 2302 1594 2616 1978 2616 
C 2323 2616 2560 2287 2560 1798 
L 2560 643 
C 2560 237 2541 192 2323 192 
L 2029 192 
L 2029 -7 
C 2669 -7 2669 -7 2829 -7 
C 2989 -7 2989 -7 3629 -7 
L 3629 192 
L 3334 192 
C 3117 192 3098 237 3098 643 
L 3098 2011 
C 3098 2300 3520 2616 3904 2616 
C 4250 2616 4486 2291 4486 1806 
L 4486 -7 
C 4877 -7 4883 -7 4992 -7 
C 5075 -7 5075 -7 5562 -7 
L 5562 192 
L 5261 192 
C 5043 192 5024 237 5024 643 
L 5024 1970 
C 5024 2608 4653 3008 4064 3008 
C 3840 3008 3654 2950 3539 2847 
L 3053 2412 
C 2848 2834 2586 3008 2144 3008 
C 1907 3008 1728 2950 1613 2847 
L 1171 2437 
L 1171 2982 
L 1114 3008 
C 787 2873 454 2783 115 2745 
L 115 2565 
z
" transform="scale(0.015625)"/>
       <path id="URWPalladioL-Roma-6e" d="M 2624 -7 
C 3014 -7 3021 -7 3130 -7 
C 3219 -7 3219 -7 3661 -7 
L 3661 179 
L 3398 205 
C 3181 205 3162 244 3162 654 
L 3162 1892 
C 3162 2642 2810 3008 2093 3008 
C 1856 3008 1722 2963 1587 2847 
L 1101 2424 
L 1101 2982 
L 1043 3008 
C 717 2873 384 2783 45 2745 
L 45 2565 
L 282 2565 
C 538 2565 563 2520 563 2094 
L 563 643 
C 563 237 544 192 326 192 
L 38 192 
L 38 -7 
C 474 -7 646 -7 832 -7 
C 1018 -7 1190 -7 1626 -7 
L 1626 192 
L 1338 192 
C 1120 192 1101 237 1101 643 
L 1101 2011 
C 1101 2300 1523 2616 1914 2616 
C 2342 2616 2624 2297 2624 1806 
L 2624 -7 
z
" transform="scale(0.015625)"/>
       <path id="URWPalladioL-Roma-6c" d="M 147 4256 
L 506 4256 
C 621 4256 666 4185 666 3992 
L 666 651 
C 666 244 646 199 429 199 
L 134 199 
L 134 0 
C 774 0 774 0 934 0 
C 1094 0 1094 0 1734 0 
L 1734 199 
L 1440 199 
C 1222 199 1203 244 1203 650 
L 1203 4621 
L 1146 4673 
C 864 4564 653 4512 147 4435 
L 147 4256 
z
" transform="scale(0.015625)"/>
      </defs>
      <use xlink:href="#URWPalladioL-Roma-65" transform="scale(0.996264)"/>
      <use xlink:href="#URWPalladioL-Roma-78" transform="translate(47.720295 0) scale(0.996264)"/>
      <use xlink:href="#URWPalladioL-Roma-70" transform="translate(99.126642 0) scale(0.996264)"/>
      <use xlink:href="#URWPalladioL-Roma-65" transform="translate(159.001036 0) scale(0.996264)"/>
      <use xlink:href="#URWPalladioL-Roma-72" transform="translate(206.721331 0) scale(0.996264)"/>
      <use xlink:href="#URWPalladioL-Roma-69" transform="translate(246.073228 0) scale(0.996264)"/>
      <use xlink:href="#URWPalladioL-Roma-6d" transform="translate(275.063589 0) scale(0.996264)"/>
      <use xlink:href="#URWPalladioL-Roma-65" transform="translate(363.033263 0) scale(0.996264)"/>
      <use xlink:href="#URWPalladioL-Roma-6e" transform="translate(410.753558 0) scale(0.996264)"/>
      <use xlink:href="#URWPalladioL-Roma-74" transform="translate(468.735619 0) scale(0.996264)"/>
      <use xlink:href="#URWPalladioL-Roma-61" transform="translate(501.212707 0) scale(0.996264)"/>
      <use xlink:href="#URWPalladioL-Roma-6c" transform="translate(551.025907 0) scale(0.996264)"/>
     </g>
    </g>
    <g id="line2d_31">
     <path d="M 52.081609 49.319761 
L 62.081609 49.319761 
L 72.081609 49.319761 
" style="fill: none; stroke: #ff7f0e; stroke-width: 1.5; stroke-linecap: square"/>
    </g>
    <g id="text_18">
     <!-- MotoCalc -->
     <g transform="translate(80.081609 52.819761) scale(0.1 -0.1)">
      <defs>
       <path id="URWPalladioL-Roma-43" d="M 4288 539 
L 4230 603 
C 3834 346 3392 218 2906 218 
C 1658 218 826 1051 826 2313 
C 826 3493 1555 4274 2656 4274 
C 3283 4274 3930 4018 3930 3769 
L 3930 3307 
L 4128 3307 
C 4134 3627 4160 3857 4250 4280 
C 3706 4460 3238 4544 2771 4544 
C 2214 4544 1683 4409 1254 4159 
C 525 3730 141 3057 141 2192 
C 141 807 1152 -128 2656 -128 
C 3187 -128 3667 -13 4109 218 
L 4288 539 
z
" transform="scale(0.015625)"/>
       <path id="URWPalladioL-Roma-63" d="M 2554 1994 
C 2554 2289 2586 2552 2643 2783 
C 2387 2937 2163 3008 1901 3008 
C 1594 3008 1235 2886 851 2642 
C 403 2360 166 1911 166 1347 
C 166 481 774 -128 1632 -128 
C 1965 -128 2445 -6 2509 90 
L 2643 295 
L 2579 391 
C 2342 263 2138 205 1907 205 
C 1197 205 730 757 730 1603 
C 730 2289 1050 2674 1626 2674 
C 1907 2674 2214 2546 2330 2386 
L 2374 1994 
L 2554 1994 
z
" transform="scale(0.015625)"/>
      </defs>
      <use xlink:href="#URWPalladioL-Roma-4d" transform="scale(0.996264)"/>
      <use xlink:href="#URWPalladioL-Roma-6f" transform="translate(94.246201 0) scale(0.996264)"/>
      <use xlink:href="#URWPalladioL-Roma-74" transform="translate(148.641782 0) scale(0.996264)"/>
      <use xlink:href="#URWPalladioL-Roma-6f" transform="translate(181.118869 0) scale(0.996264)"/>
      <use xlink:href="#URWPalladioL-Roma-43" transform="translate(235.51445 0) scale(0.996264)"/>
      <use xlink:href="#URWPalladioL-Roma-61" transform="translate(306.149243 0) scale(0.996264)"/>
      <use xlink:href="#URWPalladioL-Roma-6c" transform="translate(355.962443 0) scale(0.996264)"/>
      <use xlink:href="#URWPalladioL-Roma-63" transform="translate(384.952805 0) scale(0.996264)"/>
     </g>
    </g>
   </g>
  </g>
 </g>
 <defs>
  <clipPath id="pf24875ce9b">
   <rect x="43.081609" y="21.753876" width="357.12" height="266.112"/>
  </clipPath>
 </defs>
</svg>
