<?xml version="1.0" encoding="utf-8" standalone="no"?>
<!DOCTYPE svg PUBLIC "-//W3C//DTD SVG 1.1//EN"
  "http://www.w3.org/Graphics/SVG/1.1/DTD/svg11.dtd">
<svg xmlns:xlink="http://www.w3.org/1999/xlink" width="407.401609pt" height="325.941172pt" viewBox="0 0 407.401609 325.941172" xmlns="http://www.w3.org/2000/svg" version="1.1">
 <metadata>
  <rdf:RDF xmlns:dc="http://purl.org/dc/elements/1.1/" xmlns:cc="http://creativecommons.org/ns#" xmlns:rdf="http://www.w3.org/1999/02/22-rdf-syntax-ns#">
   <cc:Work>
    <dc:type rdf:resource="http://purl.org/dc/dcmitype/StillImage"/>
    <dc:date>2025-03-07T10:33:48.951866</dc:date>
    <dc:format>image/svg+xml</dc:format>
    <dc:creator>
     <cc:Agent>
      <dc:title>Matplotlib v3.10.0, https://matplotlib.org/</dc:title>
     </cc:Agent>
    </dc:creator>
   </cc:Work>
  </rdf:RDF>
 </metadata>
 <defs>
  <style type="text/css">*{stroke-linejoin: round; stroke-linecap: butt}</style>
 </defs>
 <g id="figure_1">
  <g id="patch_1">
   <path d="M 0 325.941172 
L 407.401609 325.941172 
L 407.401609 0 
L 0 0 
z
" style="fill: #ffffff"/>
  </g>
  <g id="axes_1">
   <g id="patch_2">
    <path d="M 43.081609 287.865876 
L 400.201609 287.865876 
L 400.201609 21.753876 
L 43.081609 21.753876 
z
" style="fill: #ffffff"/>
   </g>
   <g id="matplotlib.axis_1">
    <g id="xtick_1">
     <g id="line2d_1">
      <path d="M 57.230594 287.865876 
L 57.230594 21.753876 
" clip-path="url(#p3b412ff6c9)" style="fill: none; stroke: #b0b0b0; stroke-width: 0.8; stroke-linecap: square"/>
     </g>
     <g id="line2d_2">
      <defs>
       <path id="mc812b7283d" d="M 0 0 
L 0 3.5 
" style="stroke: #000000; stroke-width: 0.8"/>
      </defs>
      <g>
       <use xlink:href="#mc812b7283d" x="57.230594" y="287.865876" style="stroke: #000000; stroke-width: 0.8"/>
      </g>
     </g>
     <g id="text_1">
      <!-- $\mathdefault{0}$ -->
      <g transform="translate(54.739934 301.994113) scale(0.1 -0.1)">
       <defs>
        <path id="URWPalladioL-Roma-30" d="M 1683 4416 
C 691 4416 186 3628 186 2077 
C 186 1326 320 680 544 366 
C 768 51 1126 -128 1523 -128 
C 2490 -128 2976 705 2976 2346 
C 2976 3749 2560 4416 1683 4416 
z
M 1568 4192 
C 2189 4192 2438 3564 2438 2025 
C 2438 661 2195 96 1606 96 
C 986 96 723 744 723 2308 
C 723 3660 960 4192 1568 4192 
z
" transform="scale(0.015625)"/>
       </defs>
       <use xlink:href="#URWPalladioL-Roma-30" transform="scale(0.996264)"/>
      </g>
     </g>
    </g>
    <g id="xtick_2">
     <g id="line2d_3">
      <path d="M 132.342844 287.865876 
L 132.342844 21.753876 
" clip-path="url(#p3b412ff6c9)" style="fill: none; stroke: #b0b0b0; stroke-width: 0.8; stroke-linecap: square"/>
     </g>
     <g id="line2d_4">
      <g>
       <use xlink:href="#mc812b7283d" x="132.342844" y="287.865876" style="stroke: #000000; stroke-width: 0.8"/>
      </g>
     </g>
     <g id="text_2">
      <!-- $\mathdefault{10}$ -->
      <g transform="translate(127.361524 301.994113) scale(0.1 -0.1)">
       <defs>
        <path id="URWPalladioL-Roma-31" d="M 429 3584 
L 493 3584 
L 1318 3956 
C 1325 3962 1331 3962 1338 3962 
C 1376 3962 1389 3905 1389 3751 
L 1389 613 
C 1389 276 1318 205 973 205 
L 614 205 
L 614 0 
C 1600 0 1600 0 1670 0 
C 1754 0 1894 0 2112 0 
C 2189 0 2413 0 2675 0 
L 2675 205 
L 2342 205 
C 1990 205 1926 276 1926 612 
L 1926 4443 
L 1837 4475 
C 1421 4257 966 4065 384 3860 
L 429 3584 
z
" transform="scale(0.015625)"/>
       </defs>
       <use xlink:href="#URWPalladioL-Roma-31" transform="scale(0.996264)"/>
       <use xlink:href="#URWPalladioL-Roma-30" transform="translate(49.8132 0) scale(0.996264)"/>
      </g>
     </g>
    </g>
    <g id="xtick_3">
     <g id="line2d_5">
      <path d="M 207.455094 287.865876 
L 207.455094 21.753876 
" clip-path="url(#p3b412ff6c9)" style="fill: none; stroke: #b0b0b0; stroke-width: 0.8; stroke-linecap: square"/>
     </g>
     <g id="line2d_6">
      <g>
       <use xlink:href="#mc812b7283d" x="207.455094" y="287.865876" style="stroke: #000000; stroke-width: 0.8"/>
      </g>
     </g>
     <g id="text_3">
      <!-- $\mathdefault{20}$ -->
      <g transform="translate(202.473774 301.994113) scale(0.1 -0.1)">
       <defs>
        <path id="URWPalladioL-Roma-32" d="M 102 160 
L 102 0 
C 1299 0 1299 0 1530 0 
C 1760 0 1760 0 2995 0 
C 2982 125 2982 186 2982 269 
C 2982 348 2982 407 2995 539 
C 2259 539 1965 539 781 539 
L 1946 1761 
C 2566 2414 2758 2763 2758 3238 
C 2758 3966 2259 4416 1446 4416 
C 986 4416 672 4288 358 3969 
L 250 3099 
L 435 3099 
L 518 3393 
C 621 3763 851 3923 1280 3923 
C 1830 3923 2182 3577 2182 3035 
C 2182 2555 1914 2083 1190 1316 
L 102 160 
z
" transform="scale(0.015625)"/>
       </defs>
       <use xlink:href="#URWPalladioL-Roma-32" transform="scale(0.996264)"/>
       <use xlink:href="#URWPalladioL-Roma-30" transform="translate(49.8132 0) scale(0.996264)"/>
      </g>
     </g>
    </g>
    <g id="xtick_4">
     <g id="line2d_7">
      <path d="M 282.567344 287.865876 
L 282.567344 21.753876 
" clip-path="url(#p3b412ff6c9)" style="fill: none; stroke: #b0b0b0; stroke-width: 0.8; stroke-linecap: square"/>
     </g>
     <g id="line2d_8">
      <g>
       <use xlink:href="#mc812b7283d" x="282.567344" y="287.865876" style="stroke: #000000; stroke-width: 0.8"/>
      </g>
     </g>
     <g id="text_4">
      <!-- $\mathdefault{30}$ -->
      <g transform="translate(277.586024 301.994113) scale(0.1 -0.1)">
       <defs>
        <path id="URWPalladioL-Roma-33" d="M 275 3197 
L 474 3197 
L 589 3554 
C 659 3770 1062 3987 1395 3987 
C 1811 3987 2150 3649 2150 3248 
C 2150 2770 1773 2368 1318 2368 
C 1267 2368 1197 2368 1114 2381 
L 1018 2381 
L 941 2047 
L 986 2008 
C 1229 2118 1350 2150 1523 2150 
C 2054 2150 2362 1809 2362 1222 
C 2362 566 1971 135 1376 135 
C 1082 135 819 231 627 411 
C 474 553 390 701 269 1049 
L 96 985 
C 230 593 282 361 320 39 
C 659 -77 941 -128 1178 -128 
C 1690 -128 2278 161 2630 593 
C 2848 857 2957 1140 2957 1442 
C 2957 1751 2829 2022 2598 2182 
C 2438 2298 2291 2350 1971 2407 
C 2483 2803 2675 3096 2675 3472 
C 2675 4040 2202 4416 1491 4416 
C 1056 4416 768 4295 461 3989 
L 275 3197 
z
" transform="scale(0.015625)"/>
       </defs>
       <use xlink:href="#URWPalladioL-Roma-33" transform="scale(0.996264)"/>
       <use xlink:href="#URWPalladioL-Roma-30" transform="translate(49.8132 0) scale(0.996264)"/>
      </g>
     </g>
    </g>
    <g id="xtick_5">
     <g id="line2d_9">
      <path d="M 357.679594 287.865876 
L 357.679594 21.753876 
" clip-path="url(#p3b412ff6c9)" style="fill: none; stroke: #b0b0b0; stroke-width: 0.8; stroke-linecap: square"/>
     </g>
     <g id="line2d_10">
      <g>
       <use xlink:href="#mc812b7283d" x="357.679594" y="287.865876" style="stroke: #000000; stroke-width: 0.8"/>
      </g>
     </g>
     <g id="text_5">
      <!-- $\mathdefault{40}$ -->
      <g transform="translate(352.698274 301.994113) scale(0.1 -0.1)">
       <defs>
        <path id="URWPalladioL-Roma-34" d="M 1792 1152 
L 1792 673 
C 1792 289 1722 199 1408 199 
L 1011 199 
L 1011 0 
C 1862 0 1862 0 2016 0 
C 2170 0 2170 0 3021 0 
L 3021 199 
L 2714 199 
C 2400 199 2330 282 2330 669 
L 2330 1152 
C 2707 1152 2842 1152 3021 1133 
L 3021 1588 
C 2720 1563 2598 1563 2502 1563 
L 2483 1563 
L 2330 1563 
L 2330 2457 
C 2330 3600 2342 4152 2374 4416 
L 2298 4448 
L 1824 4275 
L 13 1299 
L 83 1152 
L 1792 1152 
z
M 1792 1563 
L 416 1563 
L 1792 3826 
L 1792 1563 
z
" transform="scale(0.015625)"/>
       </defs>
       <use xlink:href="#URWPalladioL-Roma-34" transform="scale(0.996264)"/>
       <use xlink:href="#URWPalladioL-Roma-30" transform="translate(49.8132 0) scale(0.996264)"/>
      </g>
     </g>
    </g>
    <g id="text_6">
     <!-- thrust [oz] -->
     <g transform="translate(198.678009 315.931761) scale(0.1 -0.1)">
      <defs>
       <path id="URWPalladioL-Roma-74" d="M 627 2476 
L 627 619 
C 627 142 838 -64 1331 -64 
C 1478 -64 1632 -32 1670 13 
L 1978 353 
L 1894 463 
C 1734 372 1638 340 1517 340 
C 1267 340 1165 470 1165 788 
L 1165 2489 
L 1984 2489 
L 2042 2816 
L 1165 2816 
L 1165 3056 
C 1165 3321 1184 3547 1235 3951 
L 1158 4021 
C 1005 3925 813 3842 614 3778 
C 634 3585 640 3463 640 3271 
L 640 2822 
L 141 2598 
L 141 2476 
L 627 2476 
z
" transform="scale(0.015625)"/>
       <path id="URWPalladioL-Roma-68" d="M 45 4248 
L 403 4248 
C 518 4248 563 4177 563 3984 
L 563 643 
C 563 237 544 192 326 192 
L 38 192 
L 38 -7 
C 474 -7 646 -7 832 -7 
C 1018 -7 1190 -7 1626 -7 
L 1626 192 
L 1338 192 
C 1120 192 1101 237 1101 643 
L 1101 2011 
C 1101 2300 1523 2616 1914 2616 
C 2342 2616 2624 2297 2624 1806 
L 2624 -7 
C 3014 -7 3021 -7 3130 -7 
C 3219 -7 3219 -7 3661 -7 
L 3661 179 
L 3398 205 
C 3181 205 3162 244 3162 654 
L 3162 1892 
C 3162 2642 2810 3008 2093 3008 
C 1856 3008 1722 2963 1587 2847 
L 1101 2424 
L 1101 4613 
L 1043 4665 
C 762 4556 550 4504 45 4427 
L 45 4248 
z
" transform="scale(0.015625)"/>
       <path id="URWPalladioL-Roma-72" d="M 147 2565 
L 384 2565 
C 640 2565 666 2520 666 2094 
L 666 643 
C 666 237 646 192 429 192 
L 134 192 
L 134 -7 
C 595 -7 762 -7 922 -7 
C 1050 -7 1050 -7 1837 -7 
L 1837 192 
L 1504 192 
C 1216 192 1203 211 1203 638 
L 1203 1751 
C 1203 2139 1459 2463 1773 2463 
C 1965 2463 2099 2373 2202 2169 
L 2336 2169 
L 2394 2937 
C 2323 2982 2208 3008 2093 3008 
C 1901 3008 1696 2905 1562 2745 
L 1203 2322 
L 1203 2982 
L 1146 3008 
C 819 2873 486 2783 147 2745 
L 147 2565 
z
" transform="scale(0.015625)"/>
       <path id="URWPalladioL-Roma-75" d="M 3219 3009 
L 3162 3035 
C 2835 2900 2502 2810 2163 2772 
L 2163 2592 
L 2400 2592 
C 2656 2592 2682 2547 2682 2121 
L 2682 1070 
C 2682 928 2592 747 2445 599 
C 2266 418 2061 327 1811 327 
C 1587 327 1408 398 1306 521 
C 1216 624 1171 824 1171 1107 
L 1171 3009 
L 1114 3035 
C 787 2900 454 2810 115 2772 
L 115 2592 
L 352 2592 
C 608 2592 634 2547 634 2122 
L 634 1039 
C 634 587 672 387 787 227 
C 928 33 1171 -64 1536 -64 
C 1824 -64 2080 26 2253 186 
L 2682 585 
C 2682 401 2675 298 2656 0 
C 3085 0 3091 0 3187 0 
C 3277 0 3277 0 3718 0 
L 3718 186 
L 3456 212 
C 3238 212 3219 251 3219 664 
L 3219 3009 
z
" transform="scale(0.015625)"/>
       <path id="URWPalladioL-Roma-73" d="M 262 917 
C 262 475 243 282 192 26 
C 525 -83 774 -128 1069 -128 
C 1907 -128 2502 321 2502 949 
C 2502 1148 2445 1295 2323 1424 
C 2157 1584 1946 1661 1382 1770 
C 858 1873 685 2001 685 2296 
C 685 2616 909 2796 1299 2796 
C 1728 2796 2054 2572 2054 2270 
L 2054 2123 
L 2234 2123 
C 2240 2495 2246 2648 2266 2847 
C 1926 2963 1696 3008 1434 3008 
C 691 3008 237 2655 237 2078 
C 237 1770 378 1552 672 1417 
C 845 1340 1184 1238 1619 1141 
C 1907 1077 2029 943 2029 699 
C 2029 353 1709 109 1254 109 
C 787 109 454 333 454 654 
L 454 917 
L 262 917 
z
" transform="scale(0.015625)"/>
       <path id="URWPalladioL-Roma-5b" d="M 563 -1152 
C 1018 -1152 1030 -1152 1184 -1152 
C 1338 -1152 1370 -1152 1805 -1152 
L 1843 -1120 
L 1843 -953 
L 1818 -921 
L 1574 -921 
C 1402 -921 1261 -882 1184 -818 
C 1126 -760 1107 -671 1107 -459 
C 1107 -453 1107 -318 1101 -125 
L 1101 112 
L 1101 3409 
L 1101 3646 
C 1107 3826 1107 3967 1107 3973 
C 1107 4185 1126 4281 1184 4339 
C 1261 4403 1402 4441 1574 4441 
L 1818 4441 
L 1843 4473 
L 1843 4640 
L 1805 4672 
C 1357 4672 1338 4672 1184 4672 
C 1037 4672 1005 4672 563 4672 
L 506 4595 
C 544 4435 557 4223 557 3730 
C 557 3633 557 3556 563 3492 
L 563 3409 
L 563 112 
L 563 28 
C 557 -74 557 -81 557 -190 
L 557 -260 
C 557 -696 544 -876 506 -1075 
L 563 -1152 
z
" transform="scale(0.015625)"/>
       <path id="URWPalladioL-Roma-6f" d="M 1786 3008 
C 851 3008 205 2347 205 1392 
C 205 487 774 -128 1600 -128 
C 2586 -128 3290 558 3290 1520 
C 3290 2386 2662 3008 1786 3008 
z
M 1670 2796 
C 2259 2796 2694 2155 2694 1283 
C 2694 545 2368 83 1850 83 
C 1222 83 800 699 800 1610 
C 800 2379 1107 2796 1670 2796 
z
" transform="scale(0.015625)"/>
       <path id="URWPalladioL-Roma-7a" d="M 2912 2764 
L 2912 2944 
C 2464 2944 2272 2944 2029 2944 
L 442 2944 
C 429 2624 422 2549 384 2115 
L 576 2115 
L 653 2547 
C 678 2681 794 2713 1267 2713 
L 2182 2713 
C 2048 2503 1939 2357 1766 2141 
L 678 794 
C 525 609 435 501 102 127 
L 141 0 
C 806 0 845 0 1120 0 
L 2886 0 
C 2886 145 2899 297 2944 602 
L 2982 899 
L 2790 899 
L 2675 397 
C 2650 282 2381 237 1766 237 
L 902 237 
L 2912 2764 
z
" transform="scale(0.015625)"/>
       <path id="URWPalladioL-Roma-5d" d="M 1568 4672 
C 1114 4672 1094 4672 947 4672 
C 794 4672 762 4672 326 4672 
L 288 4640 
L 288 4473 
L 314 4441 
L 557 4441 
C 730 4441 864 4403 941 4339 
C 1005 4281 1024 4191 1024 3973 
C 1024 3954 1024 3826 1030 3646 
L 1030 3409 
L 1030 112 
L 1030 -125 
C 1024 -311 1024 -427 1024 -446 
C 1024 -664 1005 -760 941 -818 
C 864 -882 730 -921 557 -921 
L 314 -921 
L 288 -953 
L 288 -1120 
L 326 -1152 
C 774 -1152 787 -1152 947 -1152 
C 1094 -1152 1126 -1152 1568 -1152 
L 1626 -1075 
C 1587 -921 1581 -722 1574 -228 
C 1574 -138 1574 -55 1568 28 
L 1568 112 
L 1568 3409 
L 1568 3492 
C 1574 3563 1574 3646 1574 3736 
C 1574 4230 1587 4441 1626 4595 
L 1568 4672 
z
" transform="scale(0.015625)"/>
      </defs>
      <use xlink:href="#URWPalladioL-Roma-74" transform="scale(0.996264)"/>
      <use xlink:href="#URWPalladioL-Roma-68" transform="translate(32.477088 0) scale(0.996264)"/>
      <use xlink:href="#URWPalladioL-Roma-72" transform="translate(90.459149 0) scale(0.996264)"/>
      <use xlink:href="#URWPalladioL-Roma-75" transform="translate(129.014471 0) scale(0.996264)"/>
      <use xlink:href="#URWPalladioL-Roma-73" transform="translate(189.088206 0) scale(0.996264)"/>
      <use xlink:href="#URWPalladioL-Roma-74" transform="translate(231.329673 0) scale(0.996264)"/>
      <use xlink:href="#URWPalladioL-Roma-5b" transform="translate(288.713361 0) scale(0.996264)"/>
      <use xlink:href="#URWPalladioL-Roma-6f" transform="translate(321.88859 0) scale(0.996264)"/>
      <use xlink:href="#URWPalladioL-Roma-7a" transform="translate(376.284171 0) scale(0.996264)"/>
      <use xlink:href="#URWPalladioL-Roma-5d" transform="translate(426.097371 0) scale(0.996264)"/>
     </g>
    </g>
   </g>
   <g id="matplotlib.axis_2">
    <g id="ytick_1">
     <g id="line2d_11">
      <path d="M 43.081609 283.006013 
L 400.201609 283.006013 
" clip-path="url(#p3b412ff6c9)" style="fill: none; stroke: #b0b0b0; stroke-width: 0.8; stroke-linecap: square"/>
     </g>
     <g id="line2d_12">
      <defs>
       <path id="m8810c20053" d="M 0 0 
L -3.5 0 
" style="stroke: #000000; stroke-width: 0.8"/>
      </defs>
      <g>
       <use xlink:href="#m8810c20053" x="43.081609" y="283.006013" style="stroke: #000000; stroke-width: 0.8"/>
      </g>
     </g>
     <g id="text_7">
      <!-- $\mathdefault{50}$ -->
      <g transform="translate(26.118968 286.570131) scale(0.1 -0.1)">
       <defs>
        <path id="URWPalladioL-Roma-35" d="M 813 3877 
C 1638 3877 1997 3877 2765 3877 
L 2797 3907 
C 2784 4016 2784 4064 2784 4144 
C 2784 4229 2784 4277 2797 4386 
L 2765 4416 
C 2285 4416 1997 4416 1651 4416 
C 1299 4416 1018 4416 538 4416 
L 506 4403 
C 512 4011 518 3729 518 3523 
C 518 2977 499 2360 480 2077 
L 608 2038 
C 909 2341 1082 2432 1395 2432 
C 2010 2432 2394 1993 2394 1296 
C 2394 580 1984 160 1286 160 
C 941 160 621 277 531 444 
L 237 973 
L 83 883 
C 230 516 307 310 397 27 
C 576 -71 832 -128 1107 -128 
C 1536 -128 1990 59 2342 368 
C 2733 716 2938 1154 2938 1630 
C 2938 2359 2419 2874 1690 2874 
C 1382 2874 1152 2791 755 2554 
L 813 3877 
z
" transform="scale(0.015625)"/>
       </defs>
       <use xlink:href="#URWPalladioL-Roma-35" transform="scale(0.996264)"/>
       <use xlink:href="#URWPalladioL-Roma-30" transform="translate(49.8132 0) scale(0.996264)"/>
      </g>
     </g>
    </g>
    <g id="ytick_2">
     <g id="line2d_13">
      <path d="M 43.081609 252.344416 
L 400.201609 252.344416 
" clip-path="url(#p3b412ff6c9)" style="fill: none; stroke: #b0b0b0; stroke-width: 0.8; stroke-linecap: square"/>
     </g>
     <g id="line2d_14">
      <g>
       <use xlink:href="#m8810c20053" x="43.081609" y="252.344416" style="stroke: #000000; stroke-width: 0.8"/>
      </g>
     </g>
     <g id="text_8">
      <!-- $\mathdefault{100}$ -->
      <g transform="translate(21.137648 255.908534) scale(0.1 -0.1)">
       <use xlink:href="#URWPalladioL-Roma-31" transform="scale(0.996264)"/>
       <use xlink:href="#URWPalladioL-Roma-30" transform="translate(49.8132 0) scale(0.996264)"/>
       <use xlink:href="#URWPalladioL-Roma-30" transform="translate(99.626401 0) scale(0.996264)"/>
      </g>
     </g>
    </g>
    <g id="ytick_3">
     <g id="line2d_15">
      <path d="M 43.081609 221.682819 
L 400.201609 221.682819 
" clip-path="url(#p3b412ff6c9)" style="fill: none; stroke: #b0b0b0; stroke-width: 0.8; stroke-linecap: square"/>
     </g>
     <g id="line2d_16">
      <g>
       <use xlink:href="#m8810c20053" x="43.081609" y="221.682819" style="stroke: #000000; stroke-width: 0.8"/>
      </g>
     </g>
     <g id="text_9">
      <!-- $\mathdefault{150}$ -->
      <g transform="translate(21.137648 225.246937) scale(0.1 -0.1)">
       <use xlink:href="#URWPalladioL-Roma-31" transform="scale(0.996264)"/>
       <use xlink:href="#URWPalladioL-Roma-35" transform="translate(49.8132 0) scale(0.996264)"/>
       <use xlink:href="#URWPalladioL-Roma-30" transform="translate(99.626401 0) scale(0.996264)"/>
      </g>
     </g>
    </g>
    <g id="ytick_4">
     <g id="line2d_17">
      <path d="M 43.081609 191.021222 
L 400.201609 191.021222 
" clip-path="url(#p3b412ff6c9)" style="fill: none; stroke: #b0b0b0; stroke-width: 0.8; stroke-linecap: square"/>
     </g>
     <g id="line2d_18">
      <g>
       <use xlink:href="#m8810c20053" x="43.081609" y="191.021222" style="stroke: #000000; stroke-width: 0.8"/>
      </g>
     </g>
     <g id="text_10">
      <!-- $\mathdefault{200}$ -->
      <g transform="translate(21.137648 194.58534) scale(0.1 -0.1)">
       <use xlink:href="#URWPalladioL-Roma-32" transform="scale(0.996264)"/>
       <use xlink:href="#URWPalladioL-Roma-30" transform="translate(49.8132 0) scale(0.996264)"/>
       <use xlink:href="#URWPalladioL-Roma-30" transform="translate(99.626401 0) scale(0.996264)"/>
      </g>
     </g>
    </g>
    <g id="ytick_5">
     <g id="line2d_19">
      <path d="M 43.081609 160.359625 
L 400.201609 160.359625 
" clip-path="url(#p3b412ff6c9)" style="fill: none; stroke: #b0b0b0; stroke-width: 0.8; stroke-linecap: square"/>
     </g>
     <g id="line2d_20">
      <g>
       <use xlink:href="#m8810c20053" x="43.081609" y="160.359625" style="stroke: #000000; stroke-width: 0.8"/>
      </g>
     </g>
     <g id="text_11">
      <!-- $\mathdefault{250}$ -->
      <g transform="translate(21.137648 163.923743) scale(0.1 -0.1)">
       <use xlink:href="#URWPalladioL-Roma-32" transform="scale(0.996264)"/>
       <use xlink:href="#URWPalladioL-Roma-35" transform="translate(49.8132 0) scale(0.996264)"/>
       <use xlink:href="#URWPalladioL-Roma-30" transform="translate(99.626401 0) scale(0.996264)"/>
      </g>
     </g>
    </g>
    <g id="ytick_6">
     <g id="line2d_21">
      <path d="M 43.081609 129.698028 
L 400.201609 129.698028 
" clip-path="url(#p3b412ff6c9)" style="fill: none; stroke: #b0b0b0; stroke-width: 0.8; stroke-linecap: square"/>
     </g>
     <g id="line2d_22">
      <g>
       <use xlink:href="#m8810c20053" x="43.081609" y="129.698028" style="stroke: #000000; stroke-width: 0.8"/>
      </g>
     </g>
     <g id="text_12">
      <!-- $\mathdefault{300}$ -->
      <g transform="translate(21.137648 133.262147) scale(0.1 -0.1)">
       <use xlink:href="#URWPalladioL-Roma-33" transform="scale(0.996264)"/>
       <use xlink:href="#URWPalladioL-Roma-30" transform="translate(49.8132 0) scale(0.996264)"/>
       <use xlink:href="#URWPalladioL-Roma-30" transform="translate(99.626401 0) scale(0.996264)"/>
      </g>
     </g>
    </g>
    <g id="ytick_7">
     <g id="line2d_23">
      <path d="M 43.081609 99.036431 
L 400.201609 99.036431 
" clip-path="url(#p3b412ff6c9)" style="fill: none; stroke: #b0b0b0; stroke-width: 0.8; stroke-linecap: square"/>
     </g>
     <g id="line2d_24">
      <g>
       <use xlink:href="#m8810c20053" x="43.081609" y="99.036431" style="stroke: #000000; stroke-width: 0.8"/>
      </g>
     </g>
     <g id="text_13">
      <!-- $\mathdefault{350}$ -->
      <g transform="translate(21.137648 102.60055) scale(0.1 -0.1)">
       <use xlink:href="#URWPalladioL-Roma-33" transform="scale(0.996264)"/>
       <use xlink:href="#URWPalladioL-Roma-35" transform="translate(49.8132 0) scale(0.996264)"/>
       <use xlink:href="#URWPalladioL-Roma-30" transform="translate(99.626401 0) scale(0.996264)"/>
      </g>
     </g>
    </g>
    <g id="ytick_8">
     <g id="line2d_25">
      <path d="M 43.081609 68.374834 
L 400.201609 68.374834 
" clip-path="url(#p3b412ff6c9)" style="fill: none; stroke: #b0b0b0; stroke-width: 0.8; stroke-linecap: square"/>
     </g>
     <g id="line2d_26">
      <g>
       <use xlink:href="#m8810c20053" x="43.081609" y="68.374834" style="stroke: #000000; stroke-width: 0.8"/>
      </g>
     </g>
     <g id="text_14">
      <!-- $\mathdefault{400}$ -->
      <g transform="translate(21.137648 71.938953) scale(0.1 -0.1)">
       <use xlink:href="#URWPalladioL-Roma-34" transform="scale(0.996264)"/>
       <use xlink:href="#URWPalladioL-Roma-30" transform="translate(49.8132 0) scale(0.996264)"/>
       <use xlink:href="#URWPalladioL-Roma-30" transform="translate(99.626401 0) scale(0.996264)"/>
      </g>
     </g>
    </g>
    <g id="ytick_9">
     <g id="line2d_27">
      <path d="M 43.081609 37.713237 
L 400.201609 37.713237 
" clip-path="url(#p3b412ff6c9)" style="fill: none; stroke: #b0b0b0; stroke-width: 0.8; stroke-linecap: square"/>
     </g>
     <g id="line2d_28">
      <g>
       <use xlink:href="#m8810c20053" x="43.081609" y="37.713237" style="stroke: #000000; stroke-width: 0.8"/>
      </g>
     </g>
     <g id="text_15">
      <!-- $\mathdefault{450}$ -->
      <g transform="translate(21.137648 41.277356) scale(0.1 -0.1)">
       <use xlink:href="#URWPalladioL-Roma-34" transform="scale(0.996264)"/>
       <use xlink:href="#URWPalladioL-Roma-35" transform="translate(49.8132 0) scale(0.996264)"/>
       <use xlink:href="#URWPalladioL-Roma-30" transform="translate(99.626401 0) scale(0.996264)"/>
      </g>
     </g>
    </g>
    <g id="text_16">
     <!-- power [W] -->
     <g transform="translate(14.328237 178.575537) rotate(-90) scale(0.1 -0.1)">
      <defs>
       <path id="URWPalladioL-Roma-70" d="M 64 2565 
L 301 2565 
C 557 2565 582 2520 582 2095 
L 582 -1142 
C 582 -1548 563 -1593 346 -1593 
L 51 -1593 
L 51 -1792 
C 691 -1792 691 -1792 851 -1792 
C 1011 -1792 1011 -1792 1651 -1792 
L 1651 -1593 
L 1357 -1593 
C 1139 -1593 1120 -1547 1120 -1138 
L 1120 89 
C 1312 -26 1517 -71 1805 -71 
C 1990 -71 2157 -32 2259 32 
L 2989 505 
C 3245 672 3546 1330 3546 1740 
C 3546 2451 2957 3008 2214 3008 
C 1978 3008 1747 2943 1645 2847 
L 1120 2367 
L 1120 2982 
L 1062 3008 
C 736 2873 403 2783 64 2745 
L 64 2565 
z
M 1120 1964 
C 1120 2053 1152 2124 1235 2233 
C 1421 2469 1683 2591 2003 2591 
C 2605 2591 2989 2169 2989 1504 
C 2989 787 2560 256 1984 256 
C 1632 256 1370 372 1120 633 
L 1120 1964 
z
" transform="scale(0.015625)"/>
       <path id="URWPalladioL-Roma-77" d="M 2643 3008 
C 2118 1788 2022 1571 1626 677 
L 1088 2444 
C 1069 2502 1062 2553 1062 2604 
C 1062 2700 1146 2752 1306 2752 
L 1562 2752 
L 1562 2932 
C 928 2932 928 2932 800 2932 
C 672 2932 672 2932 38 2932 
L 38 2765 
L 218 2752 
C 397 2739 480 2612 640 2114 
L 1293 -32 
L 1594 -32 
L 2221 1437 
C 2253 1514 2323 1667 2426 1884 
L 2554 2152 
L 3424 -32 
L 3718 -32 
C 3763 102 3814 249 3866 389 
C 3994 767 4134 1162 4160 1201 
L 4595 2196 
C 4787 2625 4864 2733 5005 2752 
L 5171 2765 
L 5171 2932 
C 4646 2932 4646 2932 4544 2932 
C 4442 2932 4442 2932 3917 2932 
L 3917 2752 
L 4134 2752 
C 4294 2752 4384 2675 4384 2559 
C 4384 2489 4371 2412 4339 2329 
L 4019 1433 
C 3968 1292 3917 1163 3712 638 
L 2976 2490 
C 2886 2707 2842 2835 2790 3008 
L 2643 3008 
z
" transform="scale(0.015625)"/>
       <path id="URWPalladioL-Roma-65" d="M 2797 447 
L 2714 511 
C 2304 269 2157 212 1882 212 
C 1466 212 1120 398 941 711 
C 819 921 774 1101 762 1472 
L 1696 1472 
C 2138 1472 2413 1472 2854 1544 
C 2861 1634 2867 1693 2867 1771 
C 2867 2520 2394 3008 1677 3008 
C 1440 3008 1165 2924 902 2770 
C 378 2469 166 2071 166 1404 
C 166 1000 262 654 435 410 
C 691 71 1120 -128 1600 -128 
C 1837 -128 2074 -77 2336 37 
C 2509 108 2643 191 2669 230 
L 2797 447 
z
M 2298 1690 
C 1965 1690 1811 1690 1581 1690 
C 1286 1690 1120 1690 774 1722 
C 774 2027 800 2169 883 2337 
C 1018 2622 1293 2796 1600 2796 
C 1811 2796 1978 2711 2093 2534 
C 2234 2319 2278 2129 2298 1690 
z
" transform="scale(0.015625)"/>
       <path id="URWPalladioL-Roma-57" d="M 4698 -64 
C 4723 32 4742 122 4749 154 
C 4768 218 4819 411 4870 584 
L 5850 4032 
C 5888 4147 5952 4205 6093 4218 
L 6298 4237 
L 6298 4416 
L 5626 4416 
C 5562 4416 5562 4416 4954 4416 
L 4954 4237 
L 5210 4218 
C 5434 4199 5504 4167 5510 4063 
C 5510 4044 5510 4025 5504 4005 
L 4659 872 
L 3610 3826 
C 3469 4211 3450 4262 3398 4480 
L 3194 4480 
C 3059 4082 2950 3795 2618 2935 
L 1824 917 
L 1184 3795 
C 1165 3872 1158 3942 1158 4006 
C 1158 4147 1222 4205 1395 4218 
L 1664 4237 
L 1664 4416 
L 858 4416 
C 813 4416 544 4416 51 4416 
L 51 4237 
L 230 4218 
C 416 4199 493 4128 550 3897 
L 1312 597 
C 1395 231 1395 225 1459 -64 
L 1779 -64 
C 1837 141 1888 295 2010 597 
L 3123 3429 
L 3923 1256 
C 4134 687 4154 635 4378 -64 
L 4698 -64 
z
" transform="scale(0.015625)"/>
      </defs>
      <use xlink:href="#URWPalladioL-Roma-70" transform="scale(0.996264)"/>
      <use xlink:href="#URWPalladioL-Roma-6f" transform="translate(59.874394 0) scale(0.996264)"/>
      <use xlink:href="#URWPalladioL-Roma-77" transform="translate(114.269974 0) scale(0.996264)"/>
      <use xlink:href="#URWPalladioL-Roma-65" transform="translate(197.358067 0) scale(0.996264)"/>
      <use xlink:href="#URWPalladioL-Roma-72" transform="translate(245.078362 0) scale(0.996264)"/>
      <use xlink:href="#URWPalladioL-Roma-5b" transform="translate(309.336859 0) scale(0.996264)"/>
      <use xlink:href="#URWPalladioL-Roma-57" transform="translate(342.512088 0) scale(0.996264)"/>
      <use xlink:href="#URWPalladioL-Roma-5d" transform="translate(442.138489 0) scale(0.996264)"/>
     </g>
    </g>
   </g>
   <g id="line2d_29">
    <path d="M 60.586981 247.136772 
L 60.232074 250.828348 
L 60.428331 249.928869 
L 60.386394 247.82228 
L 59.906225 248.453435 
L 60.201041 250.608399 
L 61.291436 251.675478 
L 60.872586 248.003077 
L 60.406424 247.065531 
L 60.647073 249.774046 
L 60.695316 251.851973 
L 60.423352 250.196607 
L 60.420812 247.402626 
L 60.831016 247.981915 
L 61.258428 250.683691 
L 61.231909 250.432719 
L 60.711397 248.212396 
L 60.069008 247.820921 
L 60.53761 249.585173 
L 61.115675 250.575527 
L 61.034707 248.226482 
L 61.108058 249.177828 
L 61.233602 249.520818 
L 61.105801 249.482176 
L 61.293693 249.189724 
L 61.380022 247.516182 
L 61.66581 250.862681 
L 61.136453 248.364994 
L 60.469901 248.43429 
L 60.68657 250.754925 
L 61.111726 249.87704 
L 60.223709 248.131406 
L 60.348308 248.989154 
L 61.005084 250.427972 
L 61.033014 248.95809 
L 60.651869 248.134375 
L 60.784184 250.210177 
L 61.069972 248.224399 
L 60.836277 248.990069 
L 60.61745 250.646518 
L 60.77036 248.801804 
L 60.612654 247.941272 
L 60.212608 249.773162 
L 60.981851 250.67659 
L 60.591213 248.333524 
L 61.064611 247.951013 
L 60.798572 250.468517 
L 60.05462 250.527435 
L 60.342947 246.180354 
L 60.53761 251.303602 
L 60.699548 250.939926 
L 60.343229 246.948088 
L 59.912431 247.63466 
L 60.546638 251.300028 
L 60.858946 250.518947 
L 59.843312 247.680022 
L 59.314336 248.818114 
L 60.86882 250.844863 
L 61.049941 249.97269 
L 60.840044 247.108027 
L 60.303831 251.051311 
L 60.609551 249.87697 
L 61.018344 247.616765 
L 60.820295 250.00675 
L 60.472723 250.732558 
L 60.707447 248.38378 
L 60.862232 248.957524 
L 59.794505 249.783327 
L 60.46708 249.305792 
L 59.997914 249.115641 
L 60.581903 249.442408 
L 59.982397 249.382302 
L 60.47498 248.584439 
L 60.643688 251.096506 
L 60.395422 249.425993 
L 60.295551 247.798878 
L 60.307682 249.823475 
L 60.661363 250.793715 
L 60.964741 249.37022 
L 60.249001 247.613924 
L 60.107659 249.983727 
L 60.730962 249.933723 
L 59.883091 248.557196 
L 59.987094 249.015044 
L 61.145679 249.93473 
L 60.152516 248.942185 
L 59.818767 248.99051 
L 60.456924 250.395424 
L 59.897479 249.54389 
L 59.458782 248.489685 
L 59.582632 248.821177 
L 59.978165 250.259023 
L 60.407271 250.3918 
L 61.247708 248.49231 
L 61.080692 247.985753 
L 60.815499 250.263582 
L 60.879823 249.255685 
L 60.733966 248.604357 
L 61.058969 250.208114 
L 61.047966 249.132103 
L 60.730397 248.702197 
L 60.930886 249.814823 
L 60.285112 249.020941 
L 60.069572 249.747754 
L 60.101452 250.351523 
L 59.962931 248.981667 
L 60.322635 246.910157 
L 60.289626 249.379978 
L 61.003673 251.19464 
L 61.134295 248.915615 
L 60.765183 248.007867 
L 60.871359 249.368359 
L 60.324891 250.896349 
L 60.364106 248.896217 
L 59.884219 248.821371 
L 60.338715 250.217196 
L 60.776665 249.049927 
L 60.356489 248.833259 
L 60.722117 249.314996 
L 61.121981 250.06825 
L 59.538057 249.646348 
L 59.907635 248.707914 
L 60.233484 249.324184 
L 60.065905 250.536893 
L 60.064494 249.268224 
L 60.267621 247.298015 
L 60.549177 250.841239 
L 60.400881 248.69495 
L 59.456525 248.621062 
L 59.826949 250.189977 
L 60.829323 249.790265 
L 60.124022 248.752522 
L 60.777131 249.174823 
L 60.821141 250.113103 
L 59.881017 249.437157 
L 60.487111 248.881376 
L 59.329852 249.805375 
L 59.629747 249.622264 
L 59.903121 249.638037 
L 60.490214 249.091967 
L 60.579646 249.215956 
L 60.417709 249.557482 
L 60.652151 249.508291 
L 60.899007 249.157347 
L 60.556795 249.187195 
L 60.103427 249.807459 
L 60.306836 249.772766 
L 60.157312 248.752151 
L 59.990579 249.020386 
L 60.423352 249.808579 
L 60.309657 249.859894 
L 60.620554 248.852377 
L 60.657046 249.712629 
L 60.364953 249.506205 
L 60.482131 248.821365 
L 60.406142 249.610857 
L 60.404167 249.242617 
L 60.150541 249.039187 
L 60.071829 249.684064 
L 60.825373 249.496784 
L 60.758511 249.75636 
L 59.540879 249.396373 
L 60.529429 248.552957 
L 60.811549 249.901011 
L 60.658358 249.820087 
L 60.413477 248.967242 
L 60.548049 248.794627 
L 60.061391 249.173134 
L 60.043617 249.454832 
L 60.371724 249.183002 
L 60.387706 249.217114 
L 60.169161 249.642857 
L 60.309939 249.792164 
L 60.330534 248.510573 
L 60.497267 248.973732 
L 61.035271 247.518425 
L 61.013548 244.04235 
L 61.292565 244.364084 
L 61.925925 245.372417 
L 63.225373 244.141954 
L 63.545297 244.606775 
L 65.30178 244.207891 
L 65.805365 244.272713 
L 66.372709 243.700307 
L 66.640441 241.722306 
L 67.087137 243.623565 
L 68.24204 243.042753 
L 69.680572 241.934851 
L 69.919528 242.043553 
L 69.698346 239.90907 
L 70.508878 240.013068 
L 71.59184 243.58353 
L 72.281723 239.169199 
L 73.593584 240.07995 
L 73.94172 239.419521 
L 74.004069 238.772627 
L 74.878544 238.478419 
L 75.578019 238.904475 
L 75.689175 239.342395 
L 76.750794 238.153021 
L 77.849372 229.85922 
L 78.852592 239.250043 
L 80.989091 237.532823 
L 80.345673 235.743009 
L 81.301398 235.523107 
L 81.847302 237.131058 
L 82.385306 235.155124 
L 82.582889 235.004275 
L 84.605312 232.448185 
L 85.101562 236.520877 
L 86.140612 231.562769 
L 85.983753 230.755418 
L 86.711906 225.075749 
L 87.610742 234.348375 
L 88.87041 233.089935 
L 89.556527 230.385422 
L 90.140799 230.121947 
L 91.916747 231.114575 
L 92.600325 229.404371 
L 92.5754 228.480657 
L 93.620191 228.366131 
L 93.329325 226.854615 
L 93.976608 226.513607 
L 95.454539 226.223737 
L 95.778131 228.781721 
L 96.591668 229.274772 
L 97.361955 228.155045 
L 98.15415 224.512801 
L 99.113642 224.195811 
L 99.906118 225.559562 
L 100.328453 224.399599 
L 101.709997 220.104712 
L 102.420658 221.266324 
L 103.682301 224.268596 
L 104.938584 222.719747 
L 105.635986 221.61708 
L 106.182736 220.427253 
L 106.536797 218.761906 
L 107.347329 220.285537 
L 108.92561 215.573737 
L 110.018446 214.109975 
L 111.954075 220.023303 
L 113.042496 221.24897 
L 113.176785 218.326046 
L 113.528025 220.918063 
L 113.687988 217.332053 
L 113.988347 215.995164 
L 114.912955 214.375603 
L 116.009092 217.009371 
L 117.378688 213.112312 
L 118.781956 211.968576 
L 119.550452 210.559006 
L 120.303714 202.568884 
L 121.200293 213.879696 
L 123.811883 212.971876 
L 124.208826 210.076492 
L 124.537214 210.462879 
L 124.906792 209.970162 
L 125.928915 206.820725 
L 127.244253 204.100812 
L 128.546711 209.748881 
L 129.463039 207.697761 
L 130.786466 205.800988 
L 130.872513 204.746939 
L 131.483022 203.145893 
L 132.319509 202.853198 
L 133.656478 208.663264 
L 134.486103 205.00953 
L 135.147485 205.842927 
L 136.34819 206.558583 
L 137.655536 198.907764 
L 138.855395 200.219288 
L 140.314805 197.29633 
L 140.960296 199.298012 
L 142.387826 196.716176 
L 144.338407 199.641059 
L 145.085462 196.270629 
L 146.28391 195.354758 
L 146.810256 194.665807 
L 147.855322 194.307635 
L 149.578232 192.609895 
L 150.892913 195.1062 
L 152.017164 195.463098 
L 152.62739 193.057924 
L 152.933491 190.545047 
L 154.090277 192.080437 
L 154.608441 191.826144 
L 155.399506 189.31862 
L 156.722087 191.115674 
L 157.131444 189.0998 
L 158.080498 186.452238 
L 159.130459 185.843727 
L 160.57529 187.904247 
L 160.956152 183.490881 
L 161.223602 184.927566 
L 162.17322 179.970632 
L 163.405241 181.53868 
L 166.014383 183.213607 
L 167.240669 181.684719 
L 167.541127 182.097567 
L 168.156623 181.834944 
L 169.241186 177.545593 
L 169.782293 183.771159 
L 170.424399 181.433873 
L 170.731064 183.60157 
L 171.493918 176.693511 
L 172.848943 177.30369 
L 173.142348 174.722418 
L 174.778083 177.052227 
L 175.687639 177.155919 
L 177.196702 172.277291 
L 177.821881 174.469565 
L 178.344368 175.635929 
L 178.711125 173.413909 
L 180.446166 172.091646 
L 181.828931 170.095543 
L 182.555581 176.121346 
L 183.707197 168.77178 
L 184.753018 169.636613 
L 186.098169 168.585848 
L 187.019856 166.698879 
L 187.806408 172.457314 
L 189.044071 167.650765 
L 189.865888 170.451023 
L 190.485425 162.107531 
L 191.913237 163.794544 
L 193.283214 161.915701 
L 193.616398 166.621317 
L 194.309569 163.782526 
L 195.544315 157.199432 
L 196.642141 164.27998 
L 198.417621 162.991056 
L 199.242728 161.237024 
L 199.13129 159.827658 
L 199.019853 161.019039 
L 199.779321 156.458059 
L 201.022344 159.197957 
L 201.813692 158.050722 
L 202.893932 153.865695 
L 203.324448 153.794987 
L 204.83746 154.443083 
L 208.145323 148.713949 
L 208.479636 156.338184 
L 209.415052 143.502467 
L 210.78315 151.516506 
L 211.081916 151.776703 
L 211.893012 148.086677 
L 213.515487 149.129497 
L 214.077189 147.863391 
L 215.264541 153.035448 
L 216.423868 146.946949 
L 216.643357 150.852976 
L 217.083183 148.4822 
L 217.995843 135.349671 
L 218.194456 137.39444 
L 220.081278 139.679254 
L 223.275729 147.008289 
L 225.027415 136.625882 
L 226.103423 143.403625 
L 226.707161 134.309008 
L 226.533092 144.342562 
L 227.46945 130.315645 
L 228.212838 136.850526 
L 229.612438 146.571978 
L 230.626943 148.458552 
L 230.098813 131.670372 
L 229.66115 134.797521 
L 231.131657 131.466623 
L 233.238627 131.694923 
L 234.260655 130.150545 
L 235.417067 123.703211 
L 236.847418 136.085982 
L 239.054071 138.256111 
L 239.361112 133.583573 
L 239.938895 128.751042 
L 241.225929 129.326878 
L 241.437049 126.128475 
L 242.387795 131.146566 
L 243.854164 124.292702 
L 244.740868 126.019584 
L 245.967246 126.103356 
L 246.267516 124.285123 
L 248.765224 118.870971 
L 248.239727 117.213112 
L 250.759063 119.230252 
L 252.531157 120.347258 
L 253.864646 117.431858 
L 254.326572 121.240106 
L 255.165504 117.798931 
L 256.43561 114.058907 
L 258.468571 113.461382 
L 260.193738 111.763901 
L 259.981019 110.172769 
L 260.551184 111.729236 
L 262.841439 110.489489 
L 265.20448 108.493323 
L 265.746998 110.997806 
L 266.632856 111.459478 
L 266.901717 109.301254 
L 267.648208 107.066731 
L 268.080888 106.667318 
L 269.522335 104.619591 
L 270.786423 107.169754 
L 272.393757 108.121985 
L 273.094263 103.125178 
L 274.975911 101.359316 
L 276.043268 103.359477 
L 277.600196 99.736781 
L 277.855611 100.014466 
L 278.97309 97.587227 
L 279.878133 96.754217 
L 281.02326 89.000147 
L 281.611763 98.117021 
L 284.031416 98.505211 
L 284.718757 92.99668 
L 284.898185 95.721622 
L 287.216747 91.115355 
L 287.757477 92.507826 
L 289.401393 91.445281 
L 290.378376 89.710002 
L 290.320824 87.977798 
L 292.671452 82.644286 
L 293.941135 87.638137 
L 295.199252 83.902067 
L 295.794244 86.517308 
L 297.068018 85.593488 
L 297.543486 84.722882 
L 298.562693 72.87815 
L 298.958225 83.16334 
L 301.88438 84.904966 
L 303.307678 83.013543 
L 303.17104 79.415692 
L 303.464254 80.134383 
L 304.111439 79.281161 
L 304.513461 76.292702 
L 305.399883 76.270782 
L 307.349809 78.068423 
L 308.092442 73.331156 
L 308.510072 74.022313 
L 310.061643 69.223039 
L 311.895426 72.30427 
L 311.997836 71.198378 
L 312.410487 71.197675 
L 314.138284 69.687094 
L 315.759441 70.446158 
L 316.794167 70.595896 
L 317.504638 67.333155 
L 319.042385 66.868249 
L 319.588853 65.052848 
L 320.302526 63.763586 
L 322.342349 63.105593 
L 322.477485 61.116239 
L 323.12749 59.069752 
L 325.221579 60.35248 
L 326.730452 59.978228 
L 327.476378 58.481631 
L 328.256724 60.001103 
L 329.52805 55.616177 
L 330.695846 57.243935 
L 332.375683 54.026437 
L 333.134023 54.277657 
L 334.69556 52.933975 
L 335.349233 52.04517 
L 335.370957 49.923648 
L 336.542131 51.46762 
L 338.508419 52.450365 
L 339.470168 48.452849 
L 340.529813 47.27913 
L 341.210097 44.72973 
L 342.662453 41.067329 
L 345.664688 46.923443 
L 346.191125 37.407105 
L 346.948901 38.597387 
L 348.450346 39.924922 
L 351.079709 41.058434 
L 352.438966 40.379609 
L 352.589336 42.551088 
L 353.436826 40.937024 
L 353.381249 41.505358 
L 353.462499 40.937604 
L 353.374196 41.059072 
L 353.176429 41.621369 
L 353.463346 41.627609 
L 354.09586 42.06698 
L 353.344855 41.767291 
L 353.53858 41.790382 
L 353.733617 42.191339 
L 352.929947 41.096291 
L 353.204077 41.387305 
L 353.276018 41.286106 
L 353.457421 42.173905 
L 353.488736 41.205625 
L 353.837437 41.151257 
L 353.654997 41.315956 
L 353.993168 40.998969 
L 354.293062 42.579854 
L 353.527669 41.905827 
L 353.551649 42.053643 
L 353.57563 40.487812 
L 354.026176 42.036185 
L 353.719229 41.46541 
L 353.075148 42.184563 
L 353.364886 42.085093 
L 353.866496 42.587508 
L 354.084575 41.700655 
L 353.288713 42.168575 
L 353.045243 41.168141 
L 353.012517 42.261403 
L 353.431748 41.356319 
L 353.221286 42.147077 
L 352.828574 41.370214 
L 353.203231 42.150824 
L 353.825588 41.280923 
L 354.396036 41.356686 
L 353.698916 42.138286 
L 353.438519 41.669628 
L 353.717254 41.67346 
L 352.580308 41.896005 
L 353.227775 42.887457 
L 353.769164 41.431319 
L 353.493815 41.356361 
L 354.538225 41.723316 
L 353.415103 41.968707 
L 353.31495 40.661522 
L 353.953107 40.832754 
L 353.742081 42.386622 
L 353.524566 41.167543 
L 353.412564 41.672757 
L 353.532465 42.47683 
L 353.905993 42.307767 
L 353.804429 42.300386 
L 353.793144 42.003041 
L 353.994296 41.295883 
L 352.818228 41.585387 
L 353.001606 42.38616 
L 353.382377 41.670163 
L 353.681143 41.823686 
L 353.34288 42.095484 
L 353.236239 41.680447 
L 353.500776 41.890655 
L 353.456011 41.388778 
L 353.54911 41.438552 
L 353.067248 42.40509 
L 353.507356 41.805112 
L 353.263322 41.782328 
L 352.897976 41.049577 
L 352.824343 41.978432 
L 353.444726 42.165904 
L 353.780449 41.282738 
L 353.327928 41.6385 
L 353.458458 41.575128 
L 353.456575 42.58677 
L 353.525412 42.558764 
L 353.039036 41.719999 
L 352.914057 42.501729 
L 353.379274 41.690866 
L 353.217146 41.435334 
L 353.456857 41.160087 
L 353.595096 42.578378 
L 353.900823 41.989613 
L 353.560395 41.989423 
L 353.652084 41.789701 
L 352.751647 43.120185 
L 352.98092 42.405862 
L 353.089818 41.654378 
L 353.96947 42.257776 
L 353.410497 41.331293 
L 353.00095 41.318982 
L 353.00095 42.604146 
L 352.600621 40.31572 
L 352.457586 42.446756 
L 353.50134 42.923079 
L 352.971045 41.773953 
L 352.91453 41.235169 
L 353.486479 42.064218 
L 353.486479 42.383182 
L 353.396575 42.156292 
L 353.730514 42.589778 
L 353.814586 41.882471 
L 353.437955 42.069965 
L 352.754095 42.159892 
L 353.228812 42.526763 
L 353.639389 42.562094 
L 353.604688 41.611802 
L 353.432503 42.153452 
L 352.944808 41.978055 
L 353.12734 41.789495 
L 353.789759 41.712955 
L 353.728539 42.153177 
L 353.119159 42.016772 
L 353.118876 41.32311 
L 353.090947 42.680859 
L 353.45855 41.627675 
L 353.852672 42.55669 
L 353.491276 41.47118 
L 353.094332 42.328971 
L 354.269646 40.054115 
L 353.10994 42.290601 
L 353.425824 41.32198 
L 353.336391 41.684411 
L 353.257962 42.453979 
L 352.761994 42.289929 
L 353.268492 42.397426 
L 353.814586 41.379289 
L 353.335263 42.072194 
L 353.274325 41.755996 
L 352.74817 42.029726 
L 352.581437 41.752702 
L 353.270657 42.085982 
L 353.611931 42.042094 
L 354.165544 41.370186 
L 354.053824 42.116978 
L 353.346548 42.040134 
L 353.287867 41.31733 
L 353.038472 42.058632 
L 352.915468 41.675691 
L 353.926023 42.075835 
L 353.488736 41.924033 
L 353.654059 42.192992 
L 353.358397 42.258456 
L 352.837884 41.124928 
L 352.706698 42.7961 
L 352.767919 41.806556 
L 352.97716 41.586219 
L 353.900068 42.115992 
L 353.626976 41.374688 
L 353.583529 42.721799 
L 353.753556 41.908778 
L 352.445829 42.651359 
L 352.81729 42.696483 
L 352.395237 40.787376 
L 353.458267 42.418912 
L 353.117656 41.820759 
L 354.36331 41.377173 
L 353.428363 42.238677 
L 353.877499 41.996333 
L 353.125365 41.41737 
L 352.927035 41.512361 
L 353.075522 41.742837 
L 353.03819 43.091951 
L 353.870163 40.826521 
L 353.45065 41.955745 
L 353.433815 42.401955 
L 353.336391 41.273855 
L 353.391405 42.544903 
L 353.224672 41.756323 
L 352.759737 42.736382 
L 352.664945 41.603063 
L 353.19251 42.598066 
L 353.393098 42.507909 
L 353.074019 41.890677 
L 352.926752 42.29462 
L 353.418488 42.160281 
L 353.854929 41.737542 
L 353.134111 42.899861 
L 353.113516 41.423864 
L 352.92769 42.034774 
L 353.132136 42.231576 
L 353.2684 41.825101 
L 353.2684 41.825101 
" clip-path="url(#p3b412ff6c9)" style="fill: none; stroke: #e0e0e0; stroke-width: 1.5; stroke-linecap: square"/>
   </g>
   <g id="line2d_30">
    <path d="M 60.572499 249.294203 
L 60.615494 249.513933 
L 60.623494 249.199006 
L 60.714206 249.458005 
L 60.773451 249.391 
L 60.762204 249.215531 
L 60.858889 249.354363 
L 61.008225 249.136821 
L 61.072805 249.34764 
L 61.004946 249.041064 
L 60.937977 249.219975 
L 60.905627 249.18208 
L 60.824295 249.377459 
L 60.674219 249.101 
L 60.664965 249.397891 
L 60.635568 249.180418 
L 60.558399 249.141102 
L 60.544318 249.355731 
L 60.433144 249.274644 
L 60.408236 249.377794 
L 60.445232 249.33443 
L 60.581584 249.513813 
L 60.362595 249.267984 
L 60.366357 249.456159 
L 60.274486 249.279088 
L 60.20499 249.376278 
L 60.313588 249.335204 
L 60.544519 249.366057 
L 60.64234 249.337878 
L 60.738111 249.441234 
L 60.480051 249.333938 
L 60.297809 249.386132 
L 60.549259 249.257056 
L 60.315213 249.36904 
L 60.175337 249.381098 
L 60.151037 249.537099 
L 60.272693 249.379533 
L 60.249283 249.385394 
L 60.411333 249.371755 
L 60.388018 249.313311 
L 60.377266 249.411615 
L 60.357216 249.344985 
L 60.30681 249.227062 
L 60.406437 249.101865 
L 60.775036 247.8099 
L 61.30074 247.21342 
L 62.105611 246.50309 
L 62.970154 245.632807 
L 66.0173 243.133177 
L 66.72252 243.102589 
L 70.2831 241.317695 
L 71.555708 240.669285 
L 72.229731 240.431333 
L 72.947214 239.51371 
L 76.526182 238.128005 
L 77.20988 237.69784 
L 78.482739 237.091856 
L 79.88358 236.21602 
L 80.565115 236.085517 
L 81.955593 235.023605 
L 82.619667 234.151787 
L 83.270425 234.451064 
L 83.938279 234.04039 
L 85.169152 233.031445 
L 86.693819 232.314967 
L 87.409026 231.738273 
L 90.239296 229.921212 
L 90.951068 229.405269 
L 92.406351 229.079377 
L 93.138059 229.18652 
L 94.523835 227.937874 
L 95.892985 227.23466 
L 96.545868 226.500669 
L 97.200557 225.958133 
L 98.695577 225.300903 
L 100.329763 224.545977 
L 101.83986 223.482109 
L 103.505889 221.632369 
L 104.456992 221.188396 
L 105.449549 220.970807 
L 109.837231 219.065535 
L 110.659017 218.581587 
L 113.255936 216.639975 
L 114.173731 215.56044 
L 115.097262 215.133384 
L 117.035705 214.691028 
L 117.874581 214.053666 
L 119.515676 212.534724 
L 120.430091 211.413574 
L 123.510553 209.783228 
L 125.441737 208.301305 
L 126.34424 207.693613 
L 127.284642 207.56723 
L 128.195195 207.87372 
L 129.836623 206.807113 
L 130.645914 206.572586 
L 131.485185 205.98021 
L 132.335101 205.242717 
L 134.016984 204.445015 
L 134.801524 203.614845 
L 137.151206 201.973134 
L 138.008231 201.739479 
L 138.859295 201.300641 
L 140.557673 199.580045 
L 142.368673 198.026901 
L 143.250676 197.096988 
L 144.168452 196.665585 
L 145.125894 196.435941 
L 150.545742 193.640706 
L 153.121383 191.649327 
L 154.039052 191.198556 
L 156.570796 189.080149 
L 157.404951 188.175648 
L 159.312317 186.600801 
L 160.28616 186.037636 
L 161.223916 185.354603 
L 162.199432 184.402566 
L 163.158285 184.032736 
L 164.071772 183.387282 
L 164.978414 183.020734 
L 166.787207 181.800816 
L 167.625011 180.922027 
L 170.512308 179.461784 
L 172.295416 178.485332 
L 173.920449 177.266883 
L 174.831936 176.484256 
L 175.719563 176.389306 
L 178.439738 173.766638 
L 179.413354 173.226127 
L 180.358082 172.51914 
L 181.335686 172.368133 
L 182.286752 171.741369 
L 183.231968 171.294376 
L 185.057307 169.904724 
L 186.05323 168.990042 
L 187.046915 168.537202 
L 187.971142 167.983261 
L 189.824605 166.334096 
L 192.828022 164.64004 
L 193.689468 164.135586 
L 194.540099 163.452865 
L 195.421161 162.568907 
L 196.272469 161.928905 
L 197.141005 160.823216 
L 198.858555 159.645616 
L 199.736458 158.954595 
L 200.705053 157.76077 
L 201.649724 157.264481 
L 203.517174 155.500452 
L 207.167581 152.285884 
L 208.199929 152.05771 
L 209.226697 151.240976 
L 211.161292 150.402227 
L 213.029851 148.035963 
L 213.938486 147.244554 
L 214.94718 147.130843 
L 215.982524 146.217976 
L 218.0447 145.218679 
L 219.086383 144.054166 
L 220.062389 143.804558 
L 220.992653 142.550301 
L 221.935029 141.81611 
L 222.891556 141.385212 
L 223.838427 141.485986 
L 224.735458 140.207145 
L 225.573989 139.294834 
L 227.452655 138.655996 
L 228.397946 138.020749 
L 229.207369 136.467077 
L 230.06321 136.029797 
L 230.99832 136.138479 
L 231.882166 135.483809 
L 232.764282 135.113278 
L 233.743804 134.112232 
L 235.619975 133.452823 
L 236.559775 132.00372 
L 237.441589 130.392663 
L 238.417726 130.015944 
L 240.513857 128.957566 
L 242.480901 127.24014 
L 243.482661 126.931732 
L 246.275479 123.537312 
L 247.234657 123.036583 
L 249.122413 121.57906 
L 250.058934 120.439883 
L 252.132182 118.84636 
L 254.120454 116.831631 
L 255.225382 115.911922 
L 256.321333 115.220079 
L 257.488484 114.805725 
L 258.567777 114.297885 
L 259.643954 113.635951 
L 263.653952 110.216301 
L 264.703553 109.672388 
L 265.76743 109.276593 
L 268.659309 107.366825 
L 269.692115 106.808841 
L 271.519441 105.526736 
L 273.284199 103.652347 
L 274.225635 102.29894 
L 275.156539 101.702293 
L 276.219907 101.158152 
L 278.173786 99.620083 
L 279.102414 98.750926 
L 280.090613 97.61715 
L 283.124995 95.411256 
L 285.081582 93.246311 
L 288.296769 90.826418 
L 289.366419 90.599307 
L 290.428534 89.706365 
L 291.397286 87.997894 
L 296.777763 84.244088 
L 299.706043 81.758193 
L 300.6846 81.453135 
L 301.62802 80.499336 
L 302.515408 79.840686 
L 303.466568 78.687735 
L 305.418685 76.900153 
L 306.341872 76.788122 
L 308.27888 74.925785 
L 311.05934 72.480238 
L 316.011778 68.257724 
L 316.986272 67.260886 
L 317.996935 66.669516 
L 323.096 62.435349 
L 324.134767 61.330718 
L 329.554929 56.642643 
L 332.814098 54.547415 
L 333.834647 53.675858 
L 335.812362 51.498338 
L 336.972893 50.626494 
L 339.167302 48.169453 
L 340.238946 47.229352 
L 342.618219 45.511112 
L 346.094558 43.614914 
L 348.059358 42.187339 
L 349.835344 41.355139 
L 350.694395 41.177622 
L 351.406555 41.224286 
L 351.930942 40.891464 
L 352.873087 41.423279 
L 353.706069 41.723357 
L 353.59709 41.851709 
L 353.415686 41.897807 
L 353.301446 41.899103 
L 353.358434 41.812437 
L 353.390352 41.698392 
L 353.495507 41.758781 
L 353.627653 41.629031 
L 353.586087 41.795976 
L 353.718044 41.697007 
L 353.543047 41.767541 
L 353.579836 41.836309 
L 353.503845 41.92162 
L 353.486598 41.801082 
L 353.283259 41.850894 
L 353.368867 41.923631 
L 353.431761 41.899284 
L 353.363174 42.02178 
L 353.315464 42.078221 
L 353.365581 41.949929 
L 353.334717 41.9533 
L 353.293616 41.878659 
L 353.226998 41.964437 
L 353.158762 41.973039 
L 353.115704 41.922756 
L 353.323772 42.169258 
L 353.396063 42.102634 
L 353.373149 41.970136 
L 353.324906 42.023362 
L 353.435572 41.795975 
L 353.481677 41.839011 
L 353.218233 41.916519 
L 353.286312 41.984554 
L 353.136174 42.039216 
L 353.073067 41.977118 
L 353.174762 41.993934 
L 353.323044 41.770736 
L 353.060032 42.163687 
L 353.093943 42.102935 
" clip-path="url(#p3b412ff6c9)" style="fill: none; stroke: #1f77b4; stroke-width: 1.5; stroke-linecap: square"/>
   </g>
   <g id="line2d_31">
    <path d="M 86.524371 275.769876 
L 115.067026 254.797343 
L 144.360804 233.088933 
L 187.925909 198.993237 
L 217.970809 175.383807 
L 248.015709 151.038499 
L 278.060609 125.957313 
L 323.879081 87.139731 
L 354.675104 60.464142 
L 383.968881 33.849876 
" clip-path="url(#p3b412ff6c9)" style="fill: none; stroke: #ff7f0e; stroke-width: 1.5; stroke-linecap: square"/>
   </g>
   <g id="patch_3">
    <path d="M 43.081609 287.865876 
L 43.081609 21.753876 
" style="fill: none; stroke: #000000; stroke-width: 0.8; stroke-linejoin: miter; stroke-linecap: square"/>
   </g>
   <g id="patch_4">
    <path d="M 400.201609 287.865876 
L 400.201609 21.753876 
" style="fill: none; stroke: #000000; stroke-width: 0.8; stroke-linejoin: miter; stroke-linecap: square"/>
   </g>
   <g id="patch_5">
    <path d="M 43.081609 287.865876 
L 400.201609 287.865876 
" style="fill: none; stroke: #000000; stroke-width: 0.8; stroke-linejoin: miter; stroke-linecap: square"/>
   </g>
   <g id="patch_6">
    <path d="M 43.081609 21.753876 
L 400.201609 21.753876 
" style="fill: none; stroke: #000000; stroke-width: 0.8; stroke-linejoin: miter; stroke-linecap: square"/>
   </g>
   <g id="text_17">
    <!-- Power vs. Thrust at 40 MPH -->
    <g transform="translate(146.623625 15.753876) scale(0.12 -0.12)">
     <defs>
      <path id="URWPalladioL-Roma-50" d="M 1382 4116 
C 1606 4166 1792 4192 2010 4192 
C 2701 4192 3072 3875 3072 3273 
C 3072 2703 2682 2304 2125 2304 
C 1990 2304 1894 2317 1728 2367 
L 1792 2137 
C 1946 2105 2035 2099 2163 2099 
C 3040 2099 3712 2692 3712 3459 
C 3712 4071 3213 4448 2400 4448 
C 2368 4448 2304 4448 2221 4423 
C 1984 4423 1498 4423 1312 4423 
C 1171 4423 1171 4423 147 4423 
L 147 4224 
L 435 4224 
C 723 4224 774 4140 774 3663 
L 774 766 
C 774 256 742 205 448 205 
L 141 205 
L 141 0 
C 518 0 742 0 1075 0 
C 1408 0 1638 0 2016 0 
L 2016 205 
L 1709 205 
C 1414 205 1382 256 1382 764 
L 1382 4116 
z
" transform="scale(0.015625)"/>
      <path id="URWPalladioL-Roma-76" d="M 3450 2752 
L 3450 2932 
C 3066 2932 2950 2932 2848 2932 
C 2746 2932 2630 2932 2246 2932 
L 2246 2752 
L 2509 2752 
C 2611 2752 2662 2694 2662 2591 
C 2662 2489 2618 2317 2541 2124 
L 2272 1445 
C 2195 1259 2118 1080 1875 549 
L 1114 2393 
C 1075 2482 1056 2566 1056 2636 
C 1056 2707 1114 2752 1216 2752 
L 1530 2752 
L 1530 2932 
C 902 2932 902 2932 781 2932 
C 659 2932 352 2932 38 2932 
L 38 2752 
L 256 2752 
C 352 2739 384 2701 454 2541 
L 1555 -32 
L 1875 -32 
C 1914 77 1978 243 1978 256 
C 2048 447 2131 664 2138 664 
L 2893 2324 
C 3034 2625 3123 2739 3251 2752 
L 3450 2752 
z
" transform="scale(0.015625)"/>
      <path id="URWPalladioL-Roma-2e" d="M 794 744 
C 602 744 429 564 429 372 
C 429 179 602 0 787 0 
C 992 0 1171 173 1171 372 
C 1171 564 992 744 794 744 
z
" transform="scale(0.015625)"/>
      <path id="URWPalladioL-Roma-54" d="M 1632 4114 
C 1651 3896 1658 3749 1658 3473 
L 1658 763 
C 1658 256 1626 205 1331 205 
L 1024 205 
L 1024 0 
C 1402 0 1626 0 1958 0 
C 2291 0 2522 0 2899 0 
L 2899 205 
L 2592 205 
C 2298 205 2266 256 2266 763 
L 2266 3473 
C 2266 3762 2272 3903 2291 4114 
L 3283 4114 
C 3462 4114 3533 4057 3539 3904 
L 3565 3400 
L 3763 3400 
C 3763 3810 3776 4056 3808 4416 
C 3347 4416 3136 4416 2957 4416 
C 2707 4416 2522 4416 2426 4416 
L 1414 4416 
C 1350 4416 1005 4416 550 4416 
L 115 4416 
C 147 4056 160 3810 160 3400 
L 358 3400 
L 384 3904 
C 390 4057 461 4114 640 4114 
L 1632 4114 
z
" transform="scale(0.015625)"/>
      <path id="URWPalladioL-Roma-61" d="M 2074 538 
L 2042 -1 
C 2458 -1 2458 -1 2541 -1 
C 2573 -1 2733 -1 3014 -1 
L 3014 192 
L 2765 192 
C 2611 192 2586 244 2586 558 
L 2586 1731 
C 2586 2668 2317 3008 1574 3008 
C 1299 3008 1043 2937 800 2791 
L 461 2585 
L 461 2171 
L 627 2126 
L 710 2323 
C 845 2623 909 2668 1203 2668 
C 1805 2668 2054 2431 2074 1852 
L 1440 1736 
C 570 1577 205 1277 205 722 
C 205 224 506 -64 1011 -64 
C 1126 -64 1235 -45 1280 -13 
L 2074 538 
z
M 2074 806 
C 1888 544 1485 302 1235 302 
C 979 302 755 538 755 812 
C 755 1048 883 1271 1075 1392 
C 1235 1488 1587 1577 2074 1648 
L 2074 806 
z
" transform="scale(0.015625)"/>
      <path id="URWPalladioL-Roma-4d" d="M 4685 783 
C 4685 276 4659 231 4358 205 
L 4141 186 
L 4141 0 
C 4435 0 4627 0 4960 0 
C 5318 0 5549 0 5926 0 
L 5926 205 
L 5619 205 
C 5325 205 5293 256 5293 766 
L 5293 3663 
C 5293 4166 5325 4224 5619 4224 
L 5888 4256 
L 5888 4436 
C 5402 4436 5402 4436 5293 4436 
C 5197 4436 5197 4436 4685 4436 
L 3008 884 
L 1318 4436 
C 806 4436 806 4436 710 4436 
C 614 4436 614 4436 102 4436 
L 102 4237 
L 384 4237 
C 678 4237 710 4178 710 3674 
L 710 768 
C 710 263 678 205 384 205 
L 102 205 
L 102 0 
C 736 0 736 0 845 0 
C 941 0 941 0 1613 0 
L 1613 205 
L 1331 205 
C 1037 205 1005 262 1005 766 
L 1005 3718 
L 2790 -64 
L 2918 -64 
C 2963 32 3002 134 3040 230 
C 3142 480 3219 658 3264 748 
L 4403 3167 
C 4493 3353 4570 3500 4685 3718 
L 4685 783 
z
" transform="scale(0.015625)"/>
      <path id="URWPalladioL-Roma-48" d="M 3942 773 
C 3942 257 3910 205 3616 205 
L 3309 205 
L 3309 0 
C 3686 0 3910 0 4243 0 
C 4576 0 4806 0 5184 0 
L 5184 205 
L 4877 205 
C 4582 205 4550 256 4550 766 
L 4550 3663 
C 4550 4172 4582 4224 4877 4224 
L 5184 4224 
L 5184 4423 
C 4717 4423 4576 4423 4243 4423 
C 3923 4423 3770 4423 3309 4423 
L 3309 4224 
L 3616 4224 
C 3910 4224 3942 4172 3942 3668 
L 3942 2529 
C 3808 2529 3674 2529 3411 2529 
L 1914 2529 
C 1651 2529 1510 2529 1382 2529 
L 1382 3668 
C 1382 4172 1414 4224 1709 4224 
L 2016 4224 
L 2016 4423 
C 1549 4423 1408 4423 1075 4423 
C 755 4423 602 4423 141 4423 
L 141 4224 
L 448 4224 
C 742 4224 774 4172 774 3663 
L 774 766 
C 774 256 742 205 448 205 
L 141 205 
L 141 0 
C 518 0 742 0 1075 0 
C 1408 0 1638 0 2016 0 
L 2016 205 
L 1709 205 
C 1414 205 1382 257 1382 773 
L 1382 2227 
C 1555 2240 1658 2240 1914 2240 
L 3411 2240 
C 3667 2240 3770 2240 3942 2227 
L 3942 773 
z
" transform="scale(0.015625)"/>
     </defs>
     <use xlink:href="#URWPalladioL-Roma-50" transform="scale(0.996264)"/>
     <use xlink:href="#URWPalladioL-Roma-6f" transform="translate(60.173595 0) scale(0.996264)"/>
     <use xlink:href="#URWPalladioL-Roma-77" transform="translate(114.569175 0) scale(0.996264)"/>
     <use xlink:href="#URWPalladioL-Roma-65" transform="translate(197.657269 0) scale(0.996264)"/>
     <use xlink:href="#URWPalladioL-Roma-72" transform="translate(245.377564 0) scale(0.996264)"/>
     <use xlink:href="#URWPalladioL-Roma-76" transform="translate(309.63606 0) scale(0.996264)"/>
     <use xlink:href="#URWPalladioL-Roma-73" transform="translate(365.923973 0) scale(0.996264)"/>
     <use xlink:href="#URWPalladioL-Roma-2e" transform="translate(408.16544 0) scale(0.996264)"/>
     <use xlink:href="#URWPalladioL-Roma-54" transform="translate(463.956072 0) scale(0.996264)"/>
     <use xlink:href="#URWPalladioL-Roma-68" transform="translate(525.025904 0) scale(0.996264)"/>
     <use xlink:href="#URWPalladioL-Roma-72" transform="translate(583.007965 0) scale(0.996264)"/>
     <use xlink:href="#URWPalladioL-Roma-75" transform="translate(621.563287 0) scale(0.996264)"/>
     <use xlink:href="#URWPalladioL-Roma-73" transform="translate(681.637022 0) scale(0.996264)"/>
     <use xlink:href="#URWPalladioL-Roma-74" transform="translate(723.878489 0) scale(0.996264)"/>
     <use xlink:href="#URWPalladioL-Roma-61" transform="translate(781.262177 0) scale(0.996264)"/>
     <use xlink:href="#URWPalladioL-Roma-74" transform="translate(831.075377 0) scale(0.996264)"/>
     <use xlink:href="#URWPalladioL-Roma-34" transform="translate(888.459065 0) scale(0.996264)"/>
     <use xlink:href="#URWPalladioL-Roma-30" transform="translate(938.272266 0) scale(0.996264)"/>
     <use xlink:href="#URWPalladioL-Roma-4d" transform="translate(1012.992066 0) scale(0.996264)"/>
     <use xlink:href="#URWPalladioL-Roma-50" transform="translate(1107.238268 0) scale(0.996264)"/>
     <use xlink:href="#URWPalladioL-Roma-48" transform="translate(1167.411863 0) scale(0.996264)"/>
    </g>
   </g>
   <g id="legend_1">
    <g id="patch_7">
     <path d="M 50.081609 59.629172 
L 140.083173 59.629172 
Q 142.083173 59.629172 142.083173 57.629172 
L 142.083173 28.753876 
Q 142.083173 26.753876 140.083173 26.753876 
L 50.081609 26.753876 
Q 48.081609 26.753876 48.081609 28.753876 
L 48.081609 57.629172 
Q 48.081609 59.629172 50.081609 59.629172 
z
" style="fill: #ffffff; opacity: 0.8; stroke: #cccccc; stroke-linejoin: miter"/>
    </g>
    <g id="line2d_32">
     <path d="M 52.081609 34.382113 
L 62.081609 34.382113 
L 72.081609 34.382113 
" style="fill: none; stroke: #1f77b4; stroke-width: 1.5; stroke-linecap: square"/>
    </g>
    <g id="text_18">
     <!-- experimental -->
     <g transform="translate(80.081609 37.882113) scale(0.1 -0.1)">
      <defs>
       <path id="URWPalladioL-Roma-78" d="M 1843 1630 
L 2752 2694 
C 2790 2739 2861 2765 2970 2765 
L 3059 2765 
L 3059 2944 
L 2534 2944 
L 1741 1822 
L 1254 2566 
C 1158 2707 1088 2791 870 3009 
L 128 2880 
L 160 2708 
L 294 2694 
C 410 2694 550 2605 614 2515 
L 1382 1398 
L 429 269 
C 384 212 301 173 237 173 
L 128 173 
L 128 0 
L 678 0 
C 723 71 736 96 813 212 
C 915 391 1018 551 1062 603 
L 1536 1231 
L 2221 208 
L 2227 196 
C 2285 107 2336 44 2387 0 
C 2720 0 2720 0 2778 0 
C 2842 0 2842 0 3174 0 
L 3174 173 
L 3014 192 
C 2938 199 2861 250 2790 346 
L 1843 1630 
z
" transform="scale(0.015625)"/>
       <path id="URWPalladioL-Roma-69" d="M 1203 2993 
L 1146 3019 
C 819 2884 486 2793 147 2755 
L 147 2576 
L 384 2576 
C 640 2576 666 2531 666 2105 
L 666 651 
C 666 244 646 199 429 199 
L 134 199 
L 134 0 
C 774 0 774 0 934 0 
C 1094 0 1094 0 1734 0 
L 1734 199 
L 1440 199 
C 1222 199 1203 244 1203 651 
L 1203 2993 
z
M 909 4416 
C 717 4416 550 4249 550 4056 
C 550 3870 717 3704 902 3704 
C 1088 3704 1261 3870 1261 4056 
C 1261 4236 1088 4416 909 4416 
z
" transform="scale(0.015625)"/>
       <path id="URWPalladioL-Roma-6d" d="M 115 2565 
L 352 2565 
C 608 2565 634 2520 634 2094 
L 634 643 
C 634 237 614 192 397 192 
L 102 192 
L 102 -7 
C 717 -7 736 -7 915 -7 
C 1094 -7 1261 -7 1677 -7 
L 1677 179 
L 1408 205 
C 1190 205 1171 250 1171 654 
L 1171 2014 
C 1171 2302 1594 2616 1978 2616 
C 2323 2616 2560 2287 2560 1798 
L 2560 643 
C 2560 237 2541 192 2323 192 
L 2029 192 
L 2029 -7 
C 2669 -7 2669 -7 2829 -7 
C 2989 -7 2989 -7 3629 -7 
L 3629 192 
L 3334 192 
C 3117 192 3098 237 3098 643 
L 3098 2011 
C 3098 2300 3520 2616 3904 2616 
C 4250 2616 4486 2291 4486 1806 
L 4486 -7 
C 4877 -7 4883 -7 4992 -7 
C 5075 -7 5075 -7 5562 -7 
L 5562 192 
L 5261 192 
C 5043 192 5024 237 5024 643 
L 5024 1970 
C 5024 2608 4653 3008 4064 3008 
C 3840 3008 3654 2950 3539 2847 
L 3053 2412 
C 2848 2834 2586 3008 2144 3008 
C 1907 3008 1728 2950 1613 2847 
L 1171 2437 
L 1171 2982 
L 1114 3008 
C 787 2873 454 2783 115 2745 
L 115 2565 
z
" transform="scale(0.015625)"/>
       <path id="URWPalladioL-Roma-6e" d="M 2624 -7 
C 3014 -7 3021 -7 3130 -7 
C 3219 -7 3219 -7 3661 -7 
L 3661 179 
L 3398 205 
C 3181 205 3162 244 3162 654 
L 3162 1892 
C 3162 2642 2810 3008 2093 3008 
C 1856 3008 1722 2963 1587 2847 
L 1101 2424 
L 1101 2982 
L 1043 3008 
C 717 2873 384 2783 45 2745 
L 45 2565 
L 282 2565 
C 538 2565 563 2520 563 2094 
L 563 643 
C 563 237 544 192 326 192 
L 38 192 
L 38 -7 
C 474 -7 646 -7 832 -7 
C 1018 -7 1190 -7 1626 -7 
L 1626 192 
L 1338 192 
C 1120 192 1101 237 1101 643 
L 1101 2011 
C 1101 2300 1523 2616 1914 2616 
C 2342 2616 2624 2297 2624 1806 
L 2624 -7 
z
" transform="scale(0.015625)"/>
       <path id="URWPalladioL-Roma-6c" d="M 147 4256 
L 506 4256 
C 621 4256 666 4185 666 3992 
L 666 651 
C 666 244 646 199 429 199 
L 134 199 
L 134 0 
C 774 0 774 0 934 0 
C 1094 0 1094 0 1734 0 
L 1734 199 
L 1440 199 
C 1222 199 1203 244 1203 650 
L 1203 4621 
L 1146 4673 
C 864 4564 653 4512 147 4435 
L 147 4256 
z
" transform="scale(0.015625)"/>
      </defs>
      <use xlink:href="#URWPalladioL-Roma-65" transform="scale(0.996264)"/>
      <use xlink:href="#URWPalladioL-Roma-78" transform="translate(47.720295 0) scale(0.996264)"/>
      <use xlink:href="#URWPalladioL-Roma-70" transform="translate(99.126642 0) scale(0.996264)"/>
      <use xlink:href="#URWPalladioL-Roma-65" transform="translate(159.001036 0) scale(0.996264)"/>
      <use xlink:href="#URWPalladioL-Roma-72" transform="translate(206.721331 0) scale(0.996264)"/>
      <use xlink:href="#URWPalladioL-Roma-69" transform="translate(246.073228 0) scale(0.996264)"/>
      <use xlink:href="#URWPalladioL-Roma-6d" transform="translate(275.063589 0) scale(0.996264)"/>
      <use xlink:href="#URWPalladioL-Roma-65" transform="translate(363.033263 0) scale(0.996264)"/>
      <use xlink:href="#URWPalladioL-Roma-6e" transform="translate(410.753558 0) scale(0.996264)"/>
      <use xlink:href="#URWPalladioL-Roma-74" transform="translate(468.735619 0) scale(0.996264)"/>
      <use xlink:href="#URWPalladioL-Roma-61" transform="translate(501.212707 0) scale(0.996264)"/>
      <use xlink:href="#URWPalladioL-Roma-6c" transform="translate(551.025907 0) scale(0.996264)"/>
     </g>
    </g>
    <g id="line2d_33">
     <path d="M 52.081609 49.319761 
L 62.081609 49.319761 
L 72.081609 49.319761 
" style="fill: none; stroke: #ff7f0e; stroke-width: 1.5; stroke-linecap: square"/>
    </g>
    <g id="text_19">
     <!-- MotoCalc -->
     <g transform="translate(80.081609 52.819761) scale(0.1 -0.1)">
      <defs>
       <path id="URWPalladioL-Roma-43" d="M 4288 539 
L 4230 603 
C 3834 346 3392 218 2906 218 
C 1658 218 826 1051 826 2313 
C 826 3493 1555 4274 2656 4274 
C 3283 4274 3930 4018 3930 3769 
L 3930 3307 
L 4128 3307 
C 4134 3627 4160 3857 4250 4280 
C 3706 4460 3238 4544 2771 4544 
C 2214 4544 1683 4409 1254 4159 
C 525 3730 141 3057 141 2192 
C 141 807 1152 -128 2656 -128 
C 3187 -128 3667 -13 4109 218 
L 4288 539 
z
" transform="scale(0.015625)"/>
       <path id="URWPalladioL-Roma-63" d="M 2554 1994 
C 2554 2289 2586 2552 2643 2783 
C 2387 2937 2163 3008 1901 3008 
C 1594 3008 1235 2886 851 2642 
C 403 2360 166 1911 166 1347 
C 166 481 774 -128 1632 -128 
C 1965 -128 2445 -6 2509 90 
L 2643 295 
L 2579 391 
C 2342 263 2138 205 1907 205 
C 1197 205 730 757 730 1603 
C 730 2289 1050 2674 1626 2674 
C 1907 2674 2214 2546 2330 2386 
L 2374 1994 
L 2554 1994 
z
" transform="scale(0.015625)"/>
      </defs>
      <use xlink:href="#URWPalladioL-Roma-4d" transform="scale(0.996264)"/>
      <use xlink:href="#URWPalladioL-Roma-6f" transform="translate(94.246201 0) scale(0.996264)"/>
      <use xlink:href="#URWPalladioL-Roma-74" transform="translate(148.641782 0) scale(0.996264)"/>
      <use xlink:href="#URWPalladioL-Roma-6f" transform="translate(181.118869 0) scale(0.996264)"/>
      <use xlink:href="#URWPalladioL-Roma-43" transform="translate(235.51445 0) scale(0.996264)"/>
      <use xlink:href="#URWPalladioL-Roma-61" transform="translate(306.149243 0) scale(0.996264)"/>
      <use xlink:href="#URWPalladioL-Roma-6c" transform="translate(355.962443 0) scale(0.996264)"/>
      <use xlink:href="#URWPalladioL-Roma-63" transform="translate(384.952805 0) scale(0.996264)"/>
     </g>
    </g>
   </g>
  </g>
 </g>
 <defs>
  <clipPath id="p3b412ff6c9">
   <rect x="43.081609" y="21.753876" width="357.12" height="266.112"/>
  </clipPath>
 </defs>
</svg>
