<?xml version="1.0" encoding="utf-8" standalone="no"?>
<!DOCTYPE svg PUBLIC "-//W3C//DTD SVG 1.1//EN"
  "http://www.w3.org/Graphics/SVG/1.1/DTD/svg11.dtd">
<svg xmlns:xlink="http://www.w3.org/1999/xlink" width="407.401609pt" height="325.941172pt" viewBox="0 0 407.401609 325.941172" xmlns="http://www.w3.org/2000/svg" version="1.1">
 <metadata>
  <rdf:RDF xmlns:dc="http://purl.org/dc/elements/1.1/" xmlns:cc="http://creativecommons.org/ns#" xmlns:rdf="http://www.w3.org/1999/02/22-rdf-syntax-ns#">
   <cc:Work>
    <dc:type rdf:resource="http://purl.org/dc/dcmitype/StillImage"/>
    <dc:date>2025-03-07T10:33:48.880335</dc:date>
    <dc:format>image/svg+xml</dc:format>
    <dc:creator>
     <cc:Agent>
      <dc:title>Matplotlib v3.10.0, https://matplotlib.org/</dc:title>
     </cc:Agent>
    </dc:creator>
   </cc:Work>
  </rdf:RDF>
 </metadata>
 <defs>
  <style type="text/css">*{stroke-linejoin: round; stroke-linecap: butt}</style>
 </defs>
 <g id="figure_1">
  <g id="patch_1">
   <path d="M 0 325.941172 
L 407.401609 325.941172 
L 407.401609 0 
L 0 0 
z
" style="fill: #ffffff"/>
  </g>
  <g id="axes_1">
   <g id="patch_2">
    <path d="M 43.081609 287.865876 
L 400.201609 287.865876 
L 400.201609 21.753876 
L 43.081609 21.753876 
z
" style="fill: #ffffff"/>
   </g>
   <g id="matplotlib.axis_1">
    <g id="xtick_1">
     <g id="line2d_1">
      <path d="M 57.276852 287.865876 
L 57.276852 21.753876 
" clip-path="url(#p88e6e68436)" style="fill: none; stroke: #b0b0b0; stroke-width: 0.8; stroke-linecap: square"/>
     </g>
     <g id="line2d_2">
      <defs>
       <path id="m45517c407e" d="M 0 0 
L 0 3.5 
" style="stroke: #000000; stroke-width: 0.8"/>
      </defs>
      <g>
       <use xlink:href="#m45517c407e" x="57.276852" y="287.865876" style="stroke: #000000; stroke-width: 0.8"/>
      </g>
     </g>
     <g id="text_1">
      <!-- $\mathdefault{0}$ -->
      <g transform="translate(54.786192 301.994113) scale(0.1 -0.1)">
       <defs>
        <path id="URWPalladioL-Roma-30" d="M 1683 4416 
C 691 4416 186 3628 186 2077 
C 186 1326 320 680 544 366 
C 768 51 1126 -128 1523 -128 
C 2490 -128 2976 705 2976 2346 
C 2976 3749 2560 4416 1683 4416 
z
M 1568 4192 
C 2189 4192 2438 3564 2438 2025 
C 2438 661 2195 96 1606 96 
C 986 96 723 744 723 2308 
C 723 3660 960 4192 1568 4192 
z
" transform="scale(0.015625)"/>
       </defs>
       <use xlink:href="#URWPalladioL-Roma-30" transform="scale(0.996264)"/>
      </g>
     </g>
    </g>
    <g id="xtick_2">
     <g id="line2d_3">
      <path d="M 112.461316 287.865876 
L 112.461316 21.753876 
" clip-path="url(#p88e6e68436)" style="fill: none; stroke: #b0b0b0; stroke-width: 0.8; stroke-linecap: square"/>
     </g>
     <g id="line2d_4">
      <g>
       <use xlink:href="#m45517c407e" x="112.461316" y="287.865876" style="stroke: #000000; stroke-width: 0.8"/>
      </g>
     </g>
     <g id="text_2">
      <!-- $\mathdefault{10}$ -->
      <g transform="translate(107.479996 301.994113) scale(0.1 -0.1)">
       <defs>
        <path id="URWPalladioL-Roma-31" d="M 429 3584 
L 493 3584 
L 1318 3956 
C 1325 3962 1331 3962 1338 3962 
C 1376 3962 1389 3905 1389 3751 
L 1389 613 
C 1389 276 1318 205 973 205 
L 614 205 
L 614 0 
C 1600 0 1600 0 1670 0 
C 1754 0 1894 0 2112 0 
C 2189 0 2413 0 2675 0 
L 2675 205 
L 2342 205 
C 1990 205 1926 276 1926 612 
L 1926 4443 
L 1837 4475 
C 1421 4257 966 4065 384 3860 
L 429 3584 
z
" transform="scale(0.015625)"/>
       </defs>
       <use xlink:href="#URWPalladioL-Roma-31" transform="scale(0.996264)"/>
       <use xlink:href="#URWPalladioL-Roma-30" transform="translate(49.8132 0) scale(0.996264)"/>
      </g>
     </g>
    </g>
    <g id="xtick_3">
     <g id="line2d_5">
      <path d="M 167.645781 287.865876 
L 167.645781 21.753876 
" clip-path="url(#p88e6e68436)" style="fill: none; stroke: #b0b0b0; stroke-width: 0.8; stroke-linecap: square"/>
     </g>
     <g id="line2d_6">
      <g>
       <use xlink:href="#m45517c407e" x="167.645781" y="287.865876" style="stroke: #000000; stroke-width: 0.8"/>
      </g>
     </g>
     <g id="text_3">
      <!-- $\mathdefault{20}$ -->
      <g transform="translate(162.66446 301.994113) scale(0.1 -0.1)">
       <defs>
        <path id="URWPalladioL-Roma-32" d="M 102 160 
L 102 0 
C 1299 0 1299 0 1530 0 
C 1760 0 1760 0 2995 0 
C 2982 125 2982 186 2982 269 
C 2982 348 2982 407 2995 539 
C 2259 539 1965 539 781 539 
L 1946 1761 
C 2566 2414 2758 2763 2758 3238 
C 2758 3966 2259 4416 1446 4416 
C 986 4416 672 4288 358 3969 
L 250 3099 
L 435 3099 
L 518 3393 
C 621 3763 851 3923 1280 3923 
C 1830 3923 2182 3577 2182 3035 
C 2182 2555 1914 2083 1190 1316 
L 102 160 
z
" transform="scale(0.015625)"/>
       </defs>
       <use xlink:href="#URWPalladioL-Roma-32" transform="scale(0.996264)"/>
       <use xlink:href="#URWPalladioL-Roma-30" transform="translate(49.8132 0) scale(0.996264)"/>
      </g>
     </g>
    </g>
    <g id="xtick_4">
     <g id="line2d_7">
      <path d="M 222.830245 287.865876 
L 222.830245 21.753876 
" clip-path="url(#p88e6e68436)" style="fill: none; stroke: #b0b0b0; stroke-width: 0.8; stroke-linecap: square"/>
     </g>
     <g id="line2d_8">
      <g>
       <use xlink:href="#m45517c407e" x="222.830245" y="287.865876" style="stroke: #000000; stroke-width: 0.8"/>
      </g>
     </g>
     <g id="text_4">
      <!-- $\mathdefault{30}$ -->
      <g transform="translate(217.848925 301.994113) scale(0.1 -0.1)">
       <defs>
        <path id="URWPalladioL-Roma-33" d="M 275 3197 
L 474 3197 
L 589 3554 
C 659 3770 1062 3987 1395 3987 
C 1811 3987 2150 3649 2150 3248 
C 2150 2770 1773 2368 1318 2368 
C 1267 2368 1197 2368 1114 2381 
L 1018 2381 
L 941 2047 
L 986 2008 
C 1229 2118 1350 2150 1523 2150 
C 2054 2150 2362 1809 2362 1222 
C 2362 566 1971 135 1376 135 
C 1082 135 819 231 627 411 
C 474 553 390 701 269 1049 
L 96 985 
C 230 593 282 361 320 39 
C 659 -77 941 -128 1178 -128 
C 1690 -128 2278 161 2630 593 
C 2848 857 2957 1140 2957 1442 
C 2957 1751 2829 2022 2598 2182 
C 2438 2298 2291 2350 1971 2407 
C 2483 2803 2675 3096 2675 3472 
C 2675 4040 2202 4416 1491 4416 
C 1056 4416 768 4295 461 3989 
L 275 3197 
z
" transform="scale(0.015625)"/>
       </defs>
       <use xlink:href="#URWPalladioL-Roma-33" transform="scale(0.996264)"/>
       <use xlink:href="#URWPalladioL-Roma-30" transform="translate(49.8132 0) scale(0.996264)"/>
      </g>
     </g>
    </g>
    <g id="xtick_5">
     <g id="line2d_9">
      <path d="M 278.014709 287.865876 
L 278.014709 21.753876 
" clip-path="url(#p88e6e68436)" style="fill: none; stroke: #b0b0b0; stroke-width: 0.8; stroke-linecap: square"/>
     </g>
     <g id="line2d_10">
      <g>
       <use xlink:href="#m45517c407e" x="278.014709" y="287.865876" style="stroke: #000000; stroke-width: 0.8"/>
      </g>
     </g>
     <g id="text_5">
      <!-- $\mathdefault{40}$ -->
      <g transform="translate(273.033389 301.994113) scale(0.1 -0.1)">
       <defs>
        <path id="URWPalladioL-Roma-34" d="M 1792 1152 
L 1792 673 
C 1792 289 1722 199 1408 199 
L 1011 199 
L 1011 0 
C 1862 0 1862 0 2016 0 
C 2170 0 2170 0 3021 0 
L 3021 199 
L 2714 199 
C 2400 199 2330 282 2330 669 
L 2330 1152 
C 2707 1152 2842 1152 3021 1133 
L 3021 1588 
C 2720 1563 2598 1563 2502 1563 
L 2483 1563 
L 2330 1563 
L 2330 2457 
C 2330 3600 2342 4152 2374 4416 
L 2298 4448 
L 1824 4275 
L 13 1299 
L 83 1152 
L 1792 1152 
z
M 1792 1563 
L 416 1563 
L 1792 3826 
L 1792 1563 
z
" transform="scale(0.015625)"/>
       </defs>
       <use xlink:href="#URWPalladioL-Roma-34" transform="scale(0.996264)"/>
       <use xlink:href="#URWPalladioL-Roma-30" transform="translate(49.8132 0) scale(0.996264)"/>
      </g>
     </g>
    </g>
    <g id="xtick_6">
     <g id="line2d_11">
      <path d="M 333.199174 287.865876 
L 333.199174 21.753876 
" clip-path="url(#p88e6e68436)" style="fill: none; stroke: #b0b0b0; stroke-width: 0.8; stroke-linecap: square"/>
     </g>
     <g id="line2d_12">
      <g>
       <use xlink:href="#m45517c407e" x="333.199174" y="287.865876" style="stroke: #000000; stroke-width: 0.8"/>
      </g>
     </g>
     <g id="text_6">
      <!-- $\mathdefault{50}$ -->
      <g transform="translate(328.217854 301.994113) scale(0.1 -0.1)">
       <defs>
        <path id="URWPalladioL-Roma-35" d="M 813 3877 
C 1638 3877 1997 3877 2765 3877 
L 2797 3907 
C 2784 4016 2784 4064 2784 4144 
C 2784 4229 2784 4277 2797 4386 
L 2765 4416 
C 2285 4416 1997 4416 1651 4416 
C 1299 4416 1018 4416 538 4416 
L 506 4403 
C 512 4011 518 3729 518 3523 
C 518 2977 499 2360 480 2077 
L 608 2038 
C 909 2341 1082 2432 1395 2432 
C 2010 2432 2394 1993 2394 1296 
C 2394 580 1984 160 1286 160 
C 941 160 621 277 531 444 
L 237 973 
L 83 883 
C 230 516 307 310 397 27 
C 576 -71 832 -128 1107 -128 
C 1536 -128 1990 59 2342 368 
C 2733 716 2938 1154 2938 1630 
C 2938 2359 2419 2874 1690 2874 
C 1382 2874 1152 2791 755 2554 
L 813 3877 
z
" transform="scale(0.015625)"/>
       </defs>
       <use xlink:href="#URWPalladioL-Roma-35" transform="scale(0.996264)"/>
       <use xlink:href="#URWPalladioL-Roma-30" transform="translate(49.8132 0) scale(0.996264)"/>
      </g>
     </g>
    </g>
    <g id="xtick_7">
     <g id="line2d_13">
      <path d="M 388.383638 287.865876 
L 388.383638 21.753876 
" clip-path="url(#p88e6e68436)" style="fill: none; stroke: #b0b0b0; stroke-width: 0.8; stroke-linecap: square"/>
     </g>
     <g id="line2d_14">
      <g>
       <use xlink:href="#m45517c407e" x="388.383638" y="287.865876" style="stroke: #000000; stroke-width: 0.8"/>
      </g>
     </g>
     <g id="text_7">
      <!-- $\mathdefault{60}$ -->
      <g transform="translate(383.402318 301.994113) scale(0.1 -0.1)">
       <defs>
        <path id="URWPalladioL-Roma-36" d="M 2662 4310 
L 2426 4419 
C 1811 4214 1549 4086 1222 3804 
C 563 3246 205 2464 205 1585 
C 205 526 717 -128 1542 -128 
C 2374 -128 2995 532 2995 1405 
C 2995 2143 2554 2624 1875 2624 
C 1555 2624 1363 2540 986 2239 
C 915 2181 909 2175 838 2124 
C 973 3284 1510 3913 2662 4259 
L 2662 4310 
z
M 1632 2239 
C 2118 2239 2445 1816 2445 1181 
C 2445 513 2118 83 1626 83 
C 1082 83 787 551 787 1412 
C 787 1636 813 1758 883 1867 
C 1024 2085 1325 2239 1632 2239 
z
" transform="scale(0.015625)"/>
       </defs>
       <use xlink:href="#URWPalladioL-Roma-36" transform="scale(0.996264)"/>
       <use xlink:href="#URWPalladioL-Roma-30" transform="translate(49.8132 0) scale(0.996264)"/>
      </g>
     </g>
    </g>
    <g id="text_8">
     <!-- thrust [oz] -->
     <g transform="translate(198.678009 315.931761) scale(0.1 -0.1)">
      <defs>
       <path id="URWPalladioL-Roma-74" d="M 627 2476 
L 627 619 
C 627 142 838 -64 1331 -64 
C 1478 -64 1632 -32 1670 13 
L 1978 353 
L 1894 463 
C 1734 372 1638 340 1517 340 
C 1267 340 1165 470 1165 788 
L 1165 2489 
L 1984 2489 
L 2042 2816 
L 1165 2816 
L 1165 3056 
C 1165 3321 1184 3547 1235 3951 
L 1158 4021 
C 1005 3925 813 3842 614 3778 
C 634 3585 640 3463 640 3271 
L 640 2822 
L 141 2598 
L 141 2476 
L 627 2476 
z
" transform="scale(0.015625)"/>
       <path id="URWPalladioL-Roma-68" d="M 45 4248 
L 403 4248 
C 518 4248 563 4177 563 3984 
L 563 643 
C 563 237 544 192 326 192 
L 38 192 
L 38 -7 
C 474 -7 646 -7 832 -7 
C 1018 -7 1190 -7 1626 -7 
L 1626 192 
L 1338 192 
C 1120 192 1101 237 1101 643 
L 1101 2011 
C 1101 2300 1523 2616 1914 2616 
C 2342 2616 2624 2297 2624 1806 
L 2624 -7 
C 3014 -7 3021 -7 3130 -7 
C 3219 -7 3219 -7 3661 -7 
L 3661 179 
L 3398 205 
C 3181 205 3162 244 3162 654 
L 3162 1892 
C 3162 2642 2810 3008 2093 3008 
C 1856 3008 1722 2963 1587 2847 
L 1101 2424 
L 1101 4613 
L 1043 4665 
C 762 4556 550 4504 45 4427 
L 45 4248 
z
" transform="scale(0.015625)"/>
       <path id="URWPalladioL-Roma-72" d="M 147 2565 
L 384 2565 
C 640 2565 666 2520 666 2094 
L 666 643 
C 666 237 646 192 429 192 
L 134 192 
L 134 -7 
C 595 -7 762 -7 922 -7 
C 1050 -7 1050 -7 1837 -7 
L 1837 192 
L 1504 192 
C 1216 192 1203 211 1203 638 
L 1203 1751 
C 1203 2139 1459 2463 1773 2463 
C 1965 2463 2099 2373 2202 2169 
L 2336 2169 
L 2394 2937 
C 2323 2982 2208 3008 2093 3008 
C 1901 3008 1696 2905 1562 2745 
L 1203 2322 
L 1203 2982 
L 1146 3008 
C 819 2873 486 2783 147 2745 
L 147 2565 
z
" transform="scale(0.015625)"/>
       <path id="URWPalladioL-Roma-75" d="M 3219 3009 
L 3162 3035 
C 2835 2900 2502 2810 2163 2772 
L 2163 2592 
L 2400 2592 
C 2656 2592 2682 2547 2682 2121 
L 2682 1070 
C 2682 928 2592 747 2445 599 
C 2266 418 2061 327 1811 327 
C 1587 327 1408 398 1306 521 
C 1216 624 1171 824 1171 1107 
L 1171 3009 
L 1114 3035 
C 787 2900 454 2810 115 2772 
L 115 2592 
L 352 2592 
C 608 2592 634 2547 634 2122 
L 634 1039 
C 634 587 672 387 787 227 
C 928 33 1171 -64 1536 -64 
C 1824 -64 2080 26 2253 186 
L 2682 585 
C 2682 401 2675 298 2656 0 
C 3085 0 3091 0 3187 0 
C 3277 0 3277 0 3718 0 
L 3718 186 
L 3456 212 
C 3238 212 3219 251 3219 664 
L 3219 3009 
z
" transform="scale(0.015625)"/>
       <path id="URWPalladioL-Roma-73" d="M 262 917 
C 262 475 243 282 192 26 
C 525 -83 774 -128 1069 -128 
C 1907 -128 2502 321 2502 949 
C 2502 1148 2445 1295 2323 1424 
C 2157 1584 1946 1661 1382 1770 
C 858 1873 685 2001 685 2296 
C 685 2616 909 2796 1299 2796 
C 1728 2796 2054 2572 2054 2270 
L 2054 2123 
L 2234 2123 
C 2240 2495 2246 2648 2266 2847 
C 1926 2963 1696 3008 1434 3008 
C 691 3008 237 2655 237 2078 
C 237 1770 378 1552 672 1417 
C 845 1340 1184 1238 1619 1141 
C 1907 1077 2029 943 2029 699 
C 2029 353 1709 109 1254 109 
C 787 109 454 333 454 654 
L 454 917 
L 262 917 
z
" transform="scale(0.015625)"/>
       <path id="URWPalladioL-Roma-5b" d="M 563 -1152 
C 1018 -1152 1030 -1152 1184 -1152 
C 1338 -1152 1370 -1152 1805 -1152 
L 1843 -1120 
L 1843 -953 
L 1818 -921 
L 1574 -921 
C 1402 -921 1261 -882 1184 -818 
C 1126 -760 1107 -671 1107 -459 
C 1107 -453 1107 -318 1101 -125 
L 1101 112 
L 1101 3409 
L 1101 3646 
C 1107 3826 1107 3967 1107 3973 
C 1107 4185 1126 4281 1184 4339 
C 1261 4403 1402 4441 1574 4441 
L 1818 4441 
L 1843 4473 
L 1843 4640 
L 1805 4672 
C 1357 4672 1338 4672 1184 4672 
C 1037 4672 1005 4672 563 4672 
L 506 4595 
C 544 4435 557 4223 557 3730 
C 557 3633 557 3556 563 3492 
L 563 3409 
L 563 112 
L 563 28 
C 557 -74 557 -81 557 -190 
L 557 -260 
C 557 -696 544 -876 506 -1075 
L 563 -1152 
z
" transform="scale(0.015625)"/>
       <path id="URWPalladioL-Roma-6f" d="M 1786 3008 
C 851 3008 205 2347 205 1392 
C 205 487 774 -128 1600 -128 
C 2586 -128 3290 558 3290 1520 
C 3290 2386 2662 3008 1786 3008 
z
M 1670 2796 
C 2259 2796 2694 2155 2694 1283 
C 2694 545 2368 83 1850 83 
C 1222 83 800 699 800 1610 
C 800 2379 1107 2796 1670 2796 
z
" transform="scale(0.015625)"/>
       <path id="URWPalladioL-Roma-7a" d="M 2912 2764 
L 2912 2944 
C 2464 2944 2272 2944 2029 2944 
L 442 2944 
C 429 2624 422 2549 384 2115 
L 576 2115 
L 653 2547 
C 678 2681 794 2713 1267 2713 
L 2182 2713 
C 2048 2503 1939 2357 1766 2141 
L 678 794 
C 525 609 435 501 102 127 
L 141 0 
C 806 0 845 0 1120 0 
L 2886 0 
C 2886 145 2899 297 2944 602 
L 2982 899 
L 2790 899 
L 2675 397 
C 2650 282 2381 237 1766 237 
L 902 237 
L 2912 2764 
z
" transform="scale(0.015625)"/>
       <path id="URWPalladioL-Roma-5d" d="M 1568 4672 
C 1114 4672 1094 4672 947 4672 
C 794 4672 762 4672 326 4672 
L 288 4640 
L 288 4473 
L 314 4441 
L 557 4441 
C 730 4441 864 4403 941 4339 
C 1005 4281 1024 4191 1024 3973 
C 1024 3954 1024 3826 1030 3646 
L 1030 3409 
L 1030 112 
L 1030 -125 
C 1024 -311 1024 -427 1024 -446 
C 1024 -664 1005 -760 941 -818 
C 864 -882 730 -921 557 -921 
L 314 -921 
L 288 -953 
L 288 -1120 
L 326 -1152 
C 774 -1152 787 -1152 947 -1152 
C 1094 -1152 1126 -1152 1568 -1152 
L 1626 -1075 
C 1587 -921 1581 -722 1574 -228 
C 1574 -138 1574 -55 1568 28 
L 1568 112 
L 1568 3409 
L 1568 3492 
C 1574 3563 1574 3646 1574 3736 
C 1574 4230 1587 4441 1626 4595 
L 1568 4672 
z
" transform="scale(0.015625)"/>
      </defs>
      <use xlink:href="#URWPalladioL-Roma-74" transform="scale(0.996264)"/>
      <use xlink:href="#URWPalladioL-Roma-68" transform="translate(32.477088 0) scale(0.996264)"/>
      <use xlink:href="#URWPalladioL-Roma-72" transform="translate(90.459149 0) scale(0.996264)"/>
      <use xlink:href="#URWPalladioL-Roma-75" transform="translate(129.014471 0) scale(0.996264)"/>
      <use xlink:href="#URWPalladioL-Roma-73" transform="translate(189.088206 0) scale(0.996264)"/>
      <use xlink:href="#URWPalladioL-Roma-74" transform="translate(231.329673 0) scale(0.996264)"/>
      <use xlink:href="#URWPalladioL-Roma-5b" transform="translate(288.713361 0) scale(0.996264)"/>
      <use xlink:href="#URWPalladioL-Roma-6f" transform="translate(321.88859 0) scale(0.996264)"/>
      <use xlink:href="#URWPalladioL-Roma-7a" transform="translate(376.284171 0) scale(0.996264)"/>
      <use xlink:href="#URWPalladioL-Roma-5d" transform="translate(426.097371 0) scale(0.996264)"/>
     </g>
    </g>
   </g>
   <g id="matplotlib.axis_2">
    <g id="ytick_1">
     <g id="line2d_15">
      <path d="M 43.081609 251.810185 
L 400.201609 251.810185 
" clip-path="url(#p88e6e68436)" style="fill: none; stroke: #b0b0b0; stroke-width: 0.8; stroke-linecap: square"/>
     </g>
     <g id="line2d_16">
      <defs>
       <path id="m28d995a046" d="M 0 0 
L -3.5 0 
" style="stroke: #000000; stroke-width: 0.8"/>
      </defs>
      <g>
       <use xlink:href="#m28d995a046" x="43.081609" y="251.810185" style="stroke: #000000; stroke-width: 0.8"/>
      </g>
     </g>
     <g id="text_9">
      <!-- $\mathdefault{100}$ -->
      <g transform="translate(21.137648 255.374303) scale(0.1 -0.1)">
       <use xlink:href="#URWPalladioL-Roma-31" transform="scale(0.996264)"/>
       <use xlink:href="#URWPalladioL-Roma-30" transform="translate(49.8132 0) scale(0.996264)"/>
       <use xlink:href="#URWPalladioL-Roma-30" transform="translate(99.626401 0) scale(0.996264)"/>
      </g>
     </g>
    </g>
    <g id="ytick_2">
     <g id="line2d_17">
      <path d="M 43.081609 206.259441 
L 400.201609 206.259441 
" clip-path="url(#p88e6e68436)" style="fill: none; stroke: #b0b0b0; stroke-width: 0.8; stroke-linecap: square"/>
     </g>
     <g id="line2d_18">
      <g>
       <use xlink:href="#m28d995a046" x="43.081609" y="206.259441" style="stroke: #000000; stroke-width: 0.8"/>
      </g>
     </g>
     <g id="text_10">
      <!-- $\mathdefault{200}$ -->
      <g transform="translate(21.137648 209.823559) scale(0.1 -0.1)">
       <use xlink:href="#URWPalladioL-Roma-32" transform="scale(0.996264)"/>
       <use xlink:href="#URWPalladioL-Roma-30" transform="translate(49.8132 0) scale(0.996264)"/>
       <use xlink:href="#URWPalladioL-Roma-30" transform="translate(99.626401 0) scale(0.996264)"/>
      </g>
     </g>
    </g>
    <g id="ytick_3">
     <g id="line2d_19">
      <path d="M 43.081609 160.708697 
L 400.201609 160.708697 
" clip-path="url(#p88e6e68436)" style="fill: none; stroke: #b0b0b0; stroke-width: 0.8; stroke-linecap: square"/>
     </g>
     <g id="line2d_20">
      <g>
       <use xlink:href="#m28d995a046" x="43.081609" y="160.708697" style="stroke: #000000; stroke-width: 0.8"/>
      </g>
     </g>
     <g id="text_11">
      <!-- $\mathdefault{300}$ -->
      <g transform="translate(21.137648 164.272816) scale(0.1 -0.1)">
       <use xlink:href="#URWPalladioL-Roma-33" transform="scale(0.996264)"/>
       <use xlink:href="#URWPalladioL-Roma-30" transform="translate(49.8132 0) scale(0.996264)"/>
       <use xlink:href="#URWPalladioL-Roma-30" transform="translate(99.626401 0) scale(0.996264)"/>
      </g>
     </g>
    </g>
    <g id="ytick_4">
     <g id="line2d_21">
      <path d="M 43.081609 115.157953 
L 400.201609 115.157953 
" clip-path="url(#p88e6e68436)" style="fill: none; stroke: #b0b0b0; stroke-width: 0.8; stroke-linecap: square"/>
     </g>
     <g id="line2d_22">
      <g>
       <use xlink:href="#m28d995a046" x="43.081609" y="115.157953" style="stroke: #000000; stroke-width: 0.8"/>
      </g>
     </g>
     <g id="text_12">
      <!-- $\mathdefault{400}$ -->
      <g transform="translate(21.137648 118.722072) scale(0.1 -0.1)">
       <use xlink:href="#URWPalladioL-Roma-34" transform="scale(0.996264)"/>
       <use xlink:href="#URWPalladioL-Roma-30" transform="translate(49.8132 0) scale(0.996264)"/>
       <use xlink:href="#URWPalladioL-Roma-30" transform="translate(99.626401 0) scale(0.996264)"/>
      </g>
     </g>
    </g>
    <g id="ytick_5">
     <g id="line2d_23">
      <path d="M 43.081609 69.60721 
L 400.201609 69.60721 
" clip-path="url(#p88e6e68436)" style="fill: none; stroke: #b0b0b0; stroke-width: 0.8; stroke-linecap: square"/>
     </g>
     <g id="line2d_24">
      <g>
       <use xlink:href="#m28d995a046" x="43.081609" y="69.60721" style="stroke: #000000; stroke-width: 0.8"/>
      </g>
     </g>
     <g id="text_13">
      <!-- $\mathdefault{500}$ -->
      <g transform="translate(21.137648 73.171328) scale(0.1 -0.1)">
       <use xlink:href="#URWPalladioL-Roma-35" transform="scale(0.996264)"/>
       <use xlink:href="#URWPalladioL-Roma-30" transform="translate(49.8132 0) scale(0.996264)"/>
       <use xlink:href="#URWPalladioL-Roma-30" transform="translate(99.626401 0) scale(0.996264)"/>
      </g>
     </g>
    </g>
    <g id="ytick_6">
     <g id="line2d_25">
      <path d="M 43.081609 24.056466 
L 400.201609 24.056466 
" clip-path="url(#p88e6e68436)" style="fill: none; stroke: #b0b0b0; stroke-width: 0.8; stroke-linecap: square"/>
     </g>
     <g id="line2d_26">
      <g>
       <use xlink:href="#m28d995a046" x="43.081609" y="24.056466" style="stroke: #000000; stroke-width: 0.8"/>
      </g>
     </g>
     <g id="text_14">
      <!-- $\mathdefault{600}$ -->
      <g transform="translate(21.137648 27.620585) scale(0.1 -0.1)">
       <use xlink:href="#URWPalladioL-Roma-36" transform="scale(0.996264)"/>
       <use xlink:href="#URWPalladioL-Roma-30" transform="translate(49.8132 0) scale(0.996264)"/>
       <use xlink:href="#URWPalladioL-Roma-30" transform="translate(99.626401 0) scale(0.996264)"/>
      </g>
     </g>
    </g>
    <g id="text_15">
     <!-- power [W] -->
     <g transform="translate(14.328237 178.575537) rotate(-90) scale(0.1 -0.1)">
      <defs>
       <path id="URWPalladioL-Roma-70" d="M 64 2565 
L 301 2565 
C 557 2565 582 2520 582 2095 
L 582 -1142 
C 582 -1548 563 -1593 346 -1593 
L 51 -1593 
L 51 -1792 
C 691 -1792 691 -1792 851 -1792 
C 1011 -1792 1011 -1792 1651 -1792 
L 1651 -1593 
L 1357 -1593 
C 1139 -1593 1120 -1547 1120 -1138 
L 1120 89 
C 1312 -26 1517 -71 1805 -71 
C 1990 -71 2157 -32 2259 32 
L 2989 505 
C 3245 672 3546 1330 3546 1740 
C 3546 2451 2957 3008 2214 3008 
C 1978 3008 1747 2943 1645 2847 
L 1120 2367 
L 1120 2982 
L 1062 3008 
C 736 2873 403 2783 64 2745 
L 64 2565 
z
M 1120 1964 
C 1120 2053 1152 2124 1235 2233 
C 1421 2469 1683 2591 2003 2591 
C 2605 2591 2989 2169 2989 1504 
C 2989 787 2560 256 1984 256 
C 1632 256 1370 372 1120 633 
L 1120 1964 
z
" transform="scale(0.015625)"/>
       <path id="URWPalladioL-Roma-77" d="M 2643 3008 
C 2118 1788 2022 1571 1626 677 
L 1088 2444 
C 1069 2502 1062 2553 1062 2604 
C 1062 2700 1146 2752 1306 2752 
L 1562 2752 
L 1562 2932 
C 928 2932 928 2932 800 2932 
C 672 2932 672 2932 38 2932 
L 38 2765 
L 218 2752 
C 397 2739 480 2612 640 2114 
L 1293 -32 
L 1594 -32 
L 2221 1437 
C 2253 1514 2323 1667 2426 1884 
L 2554 2152 
L 3424 -32 
L 3718 -32 
C 3763 102 3814 249 3866 389 
C 3994 767 4134 1162 4160 1201 
L 4595 2196 
C 4787 2625 4864 2733 5005 2752 
L 5171 2765 
L 5171 2932 
C 4646 2932 4646 2932 4544 2932 
C 4442 2932 4442 2932 3917 2932 
L 3917 2752 
L 4134 2752 
C 4294 2752 4384 2675 4384 2559 
C 4384 2489 4371 2412 4339 2329 
L 4019 1433 
C 3968 1292 3917 1163 3712 638 
L 2976 2490 
C 2886 2707 2842 2835 2790 3008 
L 2643 3008 
z
" transform="scale(0.015625)"/>
       <path id="URWPalladioL-Roma-65" d="M 2797 447 
L 2714 511 
C 2304 269 2157 212 1882 212 
C 1466 212 1120 398 941 711 
C 819 921 774 1101 762 1472 
L 1696 1472 
C 2138 1472 2413 1472 2854 1544 
C 2861 1634 2867 1693 2867 1771 
C 2867 2520 2394 3008 1677 3008 
C 1440 3008 1165 2924 902 2770 
C 378 2469 166 2071 166 1404 
C 166 1000 262 654 435 410 
C 691 71 1120 -128 1600 -128 
C 1837 -128 2074 -77 2336 37 
C 2509 108 2643 191 2669 230 
L 2797 447 
z
M 2298 1690 
C 1965 1690 1811 1690 1581 1690 
C 1286 1690 1120 1690 774 1722 
C 774 2027 800 2169 883 2337 
C 1018 2622 1293 2796 1600 2796 
C 1811 2796 1978 2711 2093 2534 
C 2234 2319 2278 2129 2298 1690 
z
" transform="scale(0.015625)"/>
       <path id="URWPalladioL-Roma-57" d="M 4698 -64 
C 4723 32 4742 122 4749 154 
C 4768 218 4819 411 4870 584 
L 5850 4032 
C 5888 4147 5952 4205 6093 4218 
L 6298 4237 
L 6298 4416 
L 5626 4416 
C 5562 4416 5562 4416 4954 4416 
L 4954 4237 
L 5210 4218 
C 5434 4199 5504 4167 5510 4063 
C 5510 4044 5510 4025 5504 4005 
L 4659 872 
L 3610 3826 
C 3469 4211 3450 4262 3398 4480 
L 3194 4480 
C 3059 4082 2950 3795 2618 2935 
L 1824 917 
L 1184 3795 
C 1165 3872 1158 3942 1158 4006 
C 1158 4147 1222 4205 1395 4218 
L 1664 4237 
L 1664 4416 
L 858 4416 
C 813 4416 544 4416 51 4416 
L 51 4237 
L 230 4218 
C 416 4199 493 4128 550 3897 
L 1312 597 
C 1395 231 1395 225 1459 -64 
L 1779 -64 
C 1837 141 1888 295 2010 597 
L 3123 3429 
L 3923 1256 
C 4134 687 4154 635 4378 -64 
L 4698 -64 
z
" transform="scale(0.015625)"/>
      </defs>
      <use xlink:href="#URWPalladioL-Roma-70" transform="scale(0.996264)"/>
      <use xlink:href="#URWPalladioL-Roma-6f" transform="translate(59.874394 0) scale(0.996264)"/>
      <use xlink:href="#URWPalladioL-Roma-77" transform="translate(114.269974 0) scale(0.996264)"/>
      <use xlink:href="#URWPalladioL-Roma-65" transform="translate(197.358067 0) scale(0.996264)"/>
      <use xlink:href="#URWPalladioL-Roma-72" transform="translate(245.078362 0) scale(0.996264)"/>
      <use xlink:href="#URWPalladioL-Roma-5b" transform="translate(309.336859 0) scale(0.996264)"/>
      <use xlink:href="#URWPalladioL-Roma-57" transform="translate(342.512088 0) scale(0.996264)"/>
      <use xlink:href="#URWPalladioL-Roma-5d" transform="translate(442.138489 0) scale(0.996264)"/>
     </g>
    </g>
   </g>
   <g id="line2d_27">
    <path d="M 60.061344 261.28074 
L 59.845574 261.357154 
L 60.075853 261.258295 
L 59.928068 261.363409 
L 59.780283 261.498485 
L 59.91501 261.616503 
L 59.737793 261.504287 
L 59.563684 261.580097 
L 59.950246 261.445128 
L 59.926617 262.15354 
L 59.948588 262.43511 
L 59.70608 262.695809 
L 60.199802 262.265668 
L 60.024243 262.138494 
L 59.944028 261.219292 
L 59.969315 261.487175 
L 59.562233 261.595265 
L 59.737171 261.742717 
L 59.330088 261.499231 
L 59.575913 260.573275 
L 59.593531 261.536251 
L 59.848683 261.986559 
L 60.041032 262.632885 
L 60.321678 260.459201 
L 60.468147 261.82671 
L 60.284991 262.366163 
L 60.494957 261.444187 
L 60.116893 261.793083 
L 60.324372 262.698185 
L 60.211409 262.485844 
L 59.848683 262.03893 
L 60.382616 261.816228 
L 59.410095 261.523252 
L 59.553735 262.156516 
L 59.626487 261.882999 
L 60.219907 262.156514 
L 60.107359 262.440278 
L 59.691571 262.701556 
L 59.774894 262.572806 
L 59.590629 262.420332 
L 60.07461 262.612661 
L 60.050773 262.898366 
L 60.14446 261.984801 
L 60.002894 262.5498 
L 59.900087 262.742864 
L 60.203118 262.23646 
L 60.29722 262.376525 
L 59.926203 262.597426 
L 60.1171 262.075835 
L 60.234074 262.347584 
L 59.736756 262.680377 
L 59.892905 262.607109 
L 59.687218 262.45603 
L 59.544822 262.715356 
L 59.932141 262.779175 
L 60.303853 262.671715 
L 59.806192 262.597774 
L 59.520364 262.833289 
L 60.031217 262.769098 
L 60.247889 262.441572 
L 60.090912 262.675181 
L 59.714164 263.059832 
L 59.780491 262.265197 
L 60.247889 262.421705 
L 60.136584 262.382722 
L 59.794792 261.859549 
L 60.207264 262.275798 
L 59.646386 262.474329 
L 59.952526 262.487198 
L 60.481277 262.134463 
L 59.740902 262.798208 
L 60.225296 262.648928 
L 60.000821 262.788504 
L 59.83376 262.296753 
L 59.916876 262.414677 
L 60.046006 261.50626 
L 59.875628 261.710145 
L 59.593739 261.343906 
L 59.719345 261.557884 
L 59.945479 261.532021 
L 60.027766 261.302026 
L 60.194548 261.463017 
L 59.67872 261.791754 
L 60.043519 261.493379 
L 59.939468 260.411217 
L 59.763909 261.405181 
L 60.127879 261.879549 
L 60.213067 262.332539 
L 60.130366 262.556762 
L 59.979399 262.419222 
L 60.078755 262.469349 
L 60.025828 261.993868 
L 60.227991 261.304995 
L 59.800181 261.413769 
L 60.020304 261.408674 
L 59.365739 261.374327 
L 59.776552 261.597101 
L 60.023206 261.896842 
L 59.536117 262.278698 
L 59.403256 262.133675 
L 59.875421 261.851866 
L 59.823396 262.139349 
L 59.314336 262.389397 
L 59.688876 262.55862 
L 59.794792 262.784027 
L 59.861534 262.736266 
L 59.404292 262.474096 
L 59.495284 262.333603 
L 60.129744 262.268354 
L 60.163115 262.178845 
L 60.468012 262.04661 
L 60.286649 262.010313 
L 60.150886 261.614215 
L 59.860912 261.319306 
L 60.030668 261.386582 
L 59.633327 261.271666 
L 59.810752 261.513339 
L 59.854901 261.810786 
L 59.480361 261.466103 
L 59.503368 261.456809 
L 60.262813 261.480853 
L 59.724527 262.268766 
L 59.862363 262.168065 
L 59.636022 261.913475 
L 60.169955 261.647942 
L 59.868789 262.848548 
L 59.588629 262.817619 
L 59.355376 262.420286 
L 59.588764 262.409039 
L 59.421703 260.93457 
L 59.946723 261.465296 
L 59.980715 262.71463 
L 60.146326 260.727392 
L 60.494543 262.503914 
L 60.440652 261.087746 
L 60.506979 261.657863 
L 60.282504 261.850839 
L 60.507528 261.693018 
L 60.63383 262.24297 
L 60.536619 261.572164 
L 60.734978 262.056945 
L 60.081657 261.269712 
L 59.945894 261.764768 
L 60.272482 261.568239 
L 60.634659 262.047919 
L 60.564601 261.444185 
L 60.583877 262.271938 
L 60.57911 261.674035 
L 59.988177 261.892425 
L 60.207056 261.698536 
L 60.156689 260.872491 
L 61.149937 261.258773 
L 60.608957 260.705211 
L 60.961941 260.699729 
L 60.928436 260.959938 
L 60.782651 259.950806 
L 60.873022 260.60142 
L 61.898396 260.244681 
L 62.13365 259.66178 
L 62.055301 259.926259 
L 62.43834 259.762248 
L 62.174275 259.639734 
L 62.396264 259.580265 
L 62.87071 259.594976 
L 63.395937 259.257365 
L 63.737107 258.887266 
L 64.223781 258.834169 
L 64.279465 259.272108 
L 64.978252 258.41043 
L 64.868812 258.39531 
L 64.666307 258.012941 
L 65.065306 257.697015 
L 65.731893 258.200666 
L 65.810656 257.960177 
L 66.226859 258.225079 
L 66.631661 257.313657 
L 66.981194 257.425827 
L 67.242077 256.920616 
L 67.497643 257.166071 
L 67.891253 257.071889 
L 68.080078 256.732738 
L 68.114278 256.141026 
L 68.558804 256.10499 
L 69.132191 256.296541 
L 69.30319 256.060796 
L 69.72416 255.85876 
L 69.952781 255.574406 
L 70.095177 255.687025 
L 70.62628 255.333388 
L 71.18522 255.53614 
L 71.416536 254.580239 
L 71.437471 255.267101 
L 72.00809 254.730153 
L 71.997105 254.528771 
L 72.301588 255.116874 
L 73.068494 254.43159 
L 73.148087 254.60861 
L 73.425209 254.148657 
L 73.397642 253.585356 
L 73.515373 253.55257 
L 73.991891 254.203148 
L 74.243519 253.749378 
L 75.120488 253.504352 
L 75.365898 252.800699 
L 75.535653 253.558235 
L 75.985434 252.872617 
L 76.663835 252.678377 
L 76.85494 252.429111 
L 77.292906 252.290909 
L 77.438411 251.897515 
L 78.17547 251.997154 
L 78.50752 251.631018 
L 78.497571 251.861933 
L 78.977613 251.101805 
L 79.521495 251.175655 
L 79.473408 250.89047 
L 79.826807 251.805197 
L 80.172951 251.823619 
L 80.191398 251.19841 
L 80.404681 250.909566 
L 80.860265 249.603753 
L 81.240609 249.816666 
L 81.44643 247.894986 
L 81.626622 249.299801 
L 83.586856 249.300075 
L 84.080309 248.288384 
L 83.894521 248.493174 
L 83.948204 247.969132 
L 84.700602 248.357832 
L 85.031615 247.241714 
L 85.327807 248.137298 
L 85.598504 247.032915 
L 86.038128 246.897168 
L 86.362509 247.04331 
L 86.828322 247.650369 
L 87.207764 246.984687 
L 87.8387 246.468958 
L 88.112714 245.806613 
L 88.965846 245.880432 
L 89.084613 245.573576 
L 88.840653 245.091323 
L 90.177144 245.220187 
L 90.435197 244.521424 
L 90.631069 244.523965 
L 91.092871 244.996587 
L 91.522339 243.490912 
L 92.141046 243.970119 
L 92.854549 243.608721 
L 92.94008 242.954214 
L 93.110665 243.090787 
L 94.196148 242.897556 
L 94.618776 241.069057 
L 95.254065 241.863709 
L 95.403094 241.63337 
L 95.853496 239.691208 
L 96.199433 237.307507 
L 97.148324 236.131185 
L 97.945078 242.21357 
L 98.813548 239.826656 
L 99.267681 240.444867 
L 99.658181 238.760251 
L 99.787239 240.078555 
L 100.431721 238.950982 
L 100.53287 240.975447 
L 100.919846 238.111234 
L 101.502488 237.371438 
L 101.965948 235.344887 
L 102.213224 237.851717 
L 103.009149 236.677087 
L 103.899589 237.239436 
L 104.193294 237.223024 
L 104.735725 234.294651 
L 105.843045 236.912096 
L 106.6514 235.674832 
L 107.163088 235.446821 
L 107.868087 233.97022 
L 108.417084 233.734697 
L 109.154765 234.673053 
L 109.571589 231.303436 
L 109.899908 231.729344 
L 110.549291 233.956542 
L 110.828072 233.524525 
L 111.288631 230.057029 
L 112.004755 230.71874 
L 112.725026 232.532625 
L 112.942454 231.007328 
L 113.348086 232.127117 
L 114.029182 235.055648 
L 114.911953 229.214048 
L 115.374792 229.63518 
L 115.877634 228.471457 
L 116.177349 229.669937 
L 116.803451 229.459742 
L 117.68857 225.118727 
L 118.559594 229.449507 
L 119.903271 228.128635 
L 120.182674 227.620122 
L 120.495033 226.40503 
L 120.852163 226.858952 
L 121.228362 227.711356 
L 121.60456 225.701027 
L 122.192524 223.301772 
L 123.560172 224.255946 
L 124.68241 224.059434 
L 125.404686 224.180136 
L 125.699841 225.010878 
L 126.185687 223.217169 
L 126.704422 223.546161 
L 127.304542 223.548605 
L 128.344633 220.28892 
L 128.689533 220.83152 
L 129.558003 221.235314 
L 130.373204 220.057267 
L 130.82257 219.806145 
L 131.189234 220.507207 
L 131.616629 219.737194 
L 132.879331 218.915131 
L 133.235838 218.99466 
L 133.590481 217.060395 
L 134.257068 216.937937 
L 135.109785 217.94645 
L 135.80995 217.081989 
L 136.279628 214.658486 
L 137.340861 216.671294 
L 138.434221 216.40706 
L 139.311811 214.281829 
L 140.011354 213.866173 
L 140.78607 213.759886 
L 141.360903 211.923465 
L 142.920003 211.311943 
L 143.910763 211.631268 
L 144.040516 210.755659 
L 145.112112 208.080915 
L 145.410998 210.611315 
L 145.829481 208.352488 
L 147.061713 206.83004 
L 148.002588 208.770518 
L 149.343778 204.835383 
L 149.746508 212.837563 
L 151.605116 213.996786 
L 151.611749 212.155114 
L 151.96121 209.445993 
L 152.041009 203.724827 
L 152.646866 205.205916 
L 153.589746 205.462513 
L 154.920225 205.373467 
L 155.26865 205.208333 
L 155.753322 204.61187 
L 156.165516 201.22715 
L 156.749194 206.492911 
L 157.210789 201.675541 
L 157.637976 203.330297 
L 158.560752 200.933516 
L 159.203018 201.433365 
L 159.981187 202.299272 
L 160.651297 198.702412 
L 160.919093 199.984993 
L 161.704447 201.637253 
L 162.044995 198.865712 
L 163.18126 200.294313 
L 163.450714 196.46454 
L 163.722862 197.856964 
L 164.745335 199.278922 
L 165.525092 195.31656 
L 166.39066 197.186196 
L 167.138705 197.276367 
L 167.986655 195.080785 
L 168.192476 196.524639 
L 168.848492 193.074067 
L 169.728777 195.979634 
L 169.947034 194.362183 
L 170.943184 193.384379 
L 171.826577 192.77711 
L 172.541458 193.480842 
L 173.294478 190.031533 
L 173.728505 193.743557 
L 175.281595 190.974963 
L 175.483132 190.988621 
L 176.031712 190.310003 
L 176.867226 189.779759 
L 177.272028 189.341355 
L 177.70274 188.454735 
L 178.786772 188.995353 
L 179.247538 186.98423 
L 179.843031 186.468183 
L 180.470651 185.441126 
L 181.433844 187.086733 
L 182.357655 180.066529 
L 183.034191 185.555918 
L 184.068479 184.07414 
L 184.810927 185.212379 
L 185.156657 184.18149 
L 185.580528 184.07187 
L 186.116119 183.178988 
L 187.116207 183.462774 
L 187.454889 181.853046 
L 187.736365 183.601625 
L 188.071731 182.495705 
L 189.85054 179.263444 
L 191.280164 181.054829 
L 191.760552 178.153243 
L 191.998016 180.632094 
L 192.726094 176.722117 
L 193.410023 178.61864 
L 193.661651 176.758266 
L 194.888701 175.093833 
L 197.421151 173.961256 
L 198.265163 175.158003 
L 198.693802 171.136529 
L 198.876616 170.889475 
L 200.166262 172.190977 
L 201.357455 167.596577 
L 201.965176 175.979308 
L 203.164314 172.571864 
L 203.518059 172.53631 
L 204.422386 170.482591 
L 205.989881 168.856842 
L 206.703001 171.189465 
L 208.25381 167.78637 
L 208.348119 165.570718 
L 207.989746 166.531229 
L 209.244156 167.824821 
L 209.811045 156.281302 
L 210.399283 165.112435 
L 212.406852 164.543656 
L 213.071642 163.04979 
L 213.199114 162.0367 
L 214.222416 162.330793 
L 214.366056 161.345306 
L 214.520059 158.294869 
L 216.03045 161.668295 
L 217.090025 153.746002 
L 217.551342 168.308078 
L 218.941863 155.573039 
L 219.678853 160.933238 
L 220.712104 156.718504 
L 221.535596 156.202459 
L 221.923194 158.603094 
L 222.696319 153.168938 
L 223.078529 152.395604 
L 223.507582 154.47683 
L 224.481761 156.460769 
L 225.135289 155.509064 
L 225.605797 155.515239 
L 225.93681 154.530806 
L 227.166418 153.038305 
L 227.879157 153.346994 
L 228.025076 149.806641 
L 228.941011 153.368168 
L 230.075826 150.346083 
L 230.538872 151.906186 
L 231.355731 146.588505 
L 232.040213 151.179902 
L 233.009969 144.866992 
L 233.939377 144.527157 
L 235.643775 153.566152 
L 236.45483 151.604653 
L 235.362714 143.987409 
L 235.00061 152.047556 
L 235.708651 139.19168 
L 236.656576 142.909717 
L 238.656267 144.78173 
L 239.466908 142.569913 
L 240.059017 144.209834 
L 241.430396 141.397075 
L 241.649482 143.496578 
L 242.38364 138.335511 
L 243.509542 136.359083 
L 243.843871 139.540754 
L 244.795597 138.272416 
L 245.784145 139.021185 
L 246.775875 139.093599 
L 247.382213 133.925768 
L 247.910549 136.208087 
L 248.44614 130.187553 
L 249.603133 133.691567 
L 251.624517 131.200998 
L 251.909241 133.48034 
L 252.337673 128.216444 
L 252.989543 132.499854 
L 254.509609 133.607458 
L 255.42727 133.778259 
L 255.72968 130.601847 
L 255.721596 131.891386 
L 256.633179 130.299764 
L 257.226806 128.41192 
L 258.206513 129.657555 
L 259.747234 125.809064 
L 260.284897 126.629221 
L 261.624497 124.849219 
L 263.059027 125.859763 
L 263.757393 125.080066 
L 264.926548 123.526912 
L 265.306685 124.634364 
L 267.560561 121.87578 
L 268.057185 119.907348 
L 268.833419 118.992152 
L 269.5939 122.066396 
L 270.313548 119.939112 
L 271.258709 119.816789 
L 272.303634 117.63614 
L 273.183022 116.490279 
L 273.470509 117.001187 
L 274.684294 116.88731 
L 275.359379 116.179309 
L 276.375841 116.132847 
L 276.989574 115.089976 
L 277.802495 115.120706 
L 278.257871 113.182962 
L 278.992651 113.453022 
L 280.187367 112.685873 
L 280.567504 112.034129 
L 281.021429 110.782803 
L 282.386109 110.297595 
L 283.408302 108.867706 
L 283.899195 108.719214 
L 284.873373 108.76621 
L 285.600556 106.674867 
L 286.366975 107.946159 
L 287.530259 105.23028 
L 288.682619 105.20372 
L 289.370555 104.869638 
L 289.608918 103.297797 
L 290.403878 103.802948 
L 292.141575 103.154036 
L 292.960299 102.500443 
L 293.584261 102.346672 
L 294.283939 100.231222 
L 295.093543 99.974599 
L 295.824384 98.620422 
L 296.346088 100.099852 
L 298.358285 98.846758 
L 298.709819 97.927873 
L 299.802971 96.441365 
L 299.964229 90.875374 
L 300.95644 95.915114 
L 302.994412 95.042984 
L 303.32328 95.232069 
L 303.914627 93.828909 
L 304.329244 93.24223 
L 305.549382 90.620829 
L 306.185499 91.07371 
L 308.112093 90.292157 
L 308.771633 77.494409 
L 310.519765 91.934715 
L 312.979048 92.320953 
L 312.819656 84.017548 
L 312.80183 84.026288 
L 313.577235 86.618278 
L 314.854031 79.805156 
L 315.460167 81.022532 
L 317.554786 82.329072 
L 318.604204 81.62216 
L 319.186504 82.83916 
L 319.858615 82.620619 
L 319.972614 82.405307 
L 320.375966 82.661326 
L 319.997207 83.257898 
L 320.342667 82.065194 
L 320.598576 82.933724 
L 320.466958 82.664135 
L 320.484369 83.321923 
L 320.359798 82.353864 
L 320.178435 83.253947 
L 320.075836 82.5255 
L 320.253261 82.237122 
L 319.987538 83.064385 
L 320.501572 82.980044 
L 320.634361 83.532055 
L 320.781804 82.561503 
L 320.03065 83.114093 
L 320.292228 82.526146 
L 320.357518 83.129501 
L 320.39462 82.535436 
L 320.44478 82.893566 
L 320.28829 82.716179 
L 320.394206 83.13019 
L 320.358969 82.166231 
L 320.246493 82.836845 
L 320.136774 82.120384 
L 319.997487 82.766822 
L 320.186726 82.85868 
L 320.464678 82.263672 
L 320.587383 83.261204 
L 320.208075 82.209657 
L 320.406227 82.595956 
L 320.419493 83.520352 
L 320.323039 82.254272 
L 320.214501 82.958717 
L 320.17173 82.754804 
L 319.923698 83.656807 
L 319.533612 82.502866 
L 320.441464 83.227863 
L 319.944425 82.394851 
L 319.890949 83.205528 
L 319.935927 82.320146 
L 320.254297 83.095187 
L 320.341144 82.362435 
L 320.128068 82.972283 
L 320.155635 82.328887 
L 319.974065 83.077362 
L 320.016556 83.012517 
L 320.219682 83.219062 
L 320.379282 82.123947 
L 320.395998 83.087619 
L 320.581372 82.806551 
L 320.097941 83.027223 
L 320.2715 82.892041 
L 319.959971 82.539265 
L 319.591648 83.209119 
L 320.425846 83.121953 
L 320.369747 83.269818 
L 320.340729 82.318527 
L 320.645834 83.062441 
L 319.926185 81.904604 
L 320.21761 82.368224 
L 320.559609 82.709227 
L 320.287253 82.589064 
L 320.289533 83.657005 
L 320.149625 82.327779 
L 320.263002 82.997788 
L 320.397522 82.828912 
L 320.159159 83.270791 
L 319.790008 82.265782 
L 319.883902 82.830132 
L 320.389646 82.530793 
L 320.566241 83.191665 
L 320.369955 83.512937 
L 319.892607 83.584914 
L 319.9608 83.187062 
L 319.88784 83.299461 
L 320.210977 82.685066 
L 319.970334 83.47457 
L 320.070861 82.336448 
L 320.020494 82.664631 
L 319.650099 83.340107 
L 320.094283 83.180172 
L 320.011581 82.457207 
L 320.217195 82.525607 
L 320.019043 84.191964 
L 319.794982 83.082553 
L 319.795189 82.254598 
L 319.574652 82.605064 
L 320.475042 82.257168 
L 320.617023 83.344724 
L 320.040599 83.552422 
L 320.577849 82.286239 
L 320.071068 82.001631 
L 319.944425 82.984638 
L 320.09905 82.3406 
L 320.224035 82.460188 
L 320.397522 82.914263 
L 320.291119 82.864211 
L 319.822269 82.645817 
L 319.729691 83.287307 
L 319.879476 82.625801 
L 319.808662 83.164358 
L 320.245799 83.11763 
L 320.333475 82.662936 
L 320.049585 83.14258 
L 320.041428 82.71573 
L 320.27005 82.458155 
L 319.908774 82.691567 
L 319.884109 82.99037 
L 319.944011 82.196312 
L 319.929781 82.856912 
L 320.281035 83.398119 
L 320.239995 82.864423 
L 320.129105 83.551835 
L 320.018214 82.985642 
L 320.304664 83.220634 
L 319.842033 82.968261 
L 319.850603 83.002546 
L 320.128275 83.262138 
L 320.391304 82.849542 
L 319.915822 83.006587 
L 319.71995 82.047256 
L 319.836229 82.800297 
L 320.261137 83.674034 
L 319.943803 83.288936 
L 319.734531 82.775342 
L 320.108999 83.205298 
L 320.49494 83.3119 
L 320.430893 82.886173 
L 320.246628 83.328637 
L 319.962116 82.621329 
L 320.124337 82.771708 
L 319.714975 83.029022 
L 319.970127 82.4793 
L 319.784411 82.636563 
L 319.788971 83.619345 
L 320.13097 82.748031 
L 320.39918 82.639836 
L 320.043501 83.435405 
L 319.839546 82.492114 
L 320.092832 82.94854 
L 321.047112 83.101369 
L 320.124617 83.309283 
L 320.059254 82.883066 
L 319.682226 83.72631 
L 319.432463 82.872139 
L 319.948778 83.203838 
L 320.368369 82.422933 
L 320.408093 83.201089 
L 320.384878 82.927718 
L 320.209319 82.927941 
L 319.967432 83.094936 
L 319.991269 82.588724 
L 320.360213 83.643818 
L 319.74448 82.477226 
L 319.74448 82.477226 
" clip-path="url(#p88e6e68436)" style="fill: none; stroke: #e0e0e0; stroke-width: 1.5; stroke-linecap: square"/>
   </g>
   <g id="line2d_28">
    <path d="M 59.886932 261.718996 
L 59.873178 261.834052 
L 59.923899 261.574087 
L 59.988914 261.78366 
L 60.064974 261.800614 
L 59.999116 261.845861 
L 59.888369 262.094538 
L 59.87625 262.388574 
L 59.997233 262.477146 
L 59.981936 262.494589 
L 59.909777 262.635527 
L 59.990899 262.322444 
L 59.930998 262.007315 
L 59.93641 261.504816 
L 59.962429 261.432456 
L 59.997873 261.61799 
L 59.884946 261.804326 
L 59.793936 261.678001 
L 59.72935 261.794318 
L 59.719387 262.268804 
L 59.781513 262.253331 
L 59.880175 262.172404 
L 59.866826 261.833141 
L 59.984524 261.666993 
L 59.889663 261.665016 
L 59.829057 261.668921 
L 59.904651 261.774868 
L 59.94003 262.062176 
L 59.847357 262.170532 
L 60.355163 261.665538 
L 60.387719 261.753573 
L 60.413683 261.728195 
L 60.369954 261.788439 
L 60.341535 261.723584 
L 60.436147 261.495024 
L 60.59262 261.259281 
L 61.29669 260.44077 
L 62.335856 259.75764 
L 63.352308 259.216233 
L 63.78617 258.931379 
L 66.238498 257.686375 
L 66.991292 257.267966 
L 67.838509 256.845276 
L 70.904132 255.319975 
L 71.496285 255.077024 
L 72.567827 254.537655 
L 74.662352 253.526789 
L 77.337557 252.188463 
L 78.274634 251.889359 
L 78.850928 251.564653 
L 80.645794 250.38186 
L 84.584898 247.990517 
L 85.011049 247.895448 
L 87.370008 246.527187 
L 88.582425 245.812162 
L 89.911527 245.116139 
L 91.632502 243.989114 
L 92.940472 243.098645 
L 93.789499 242.011783 
L 94.2771 241.857757 
L 94.791812 241.513095 
L 95.308168 241.310025 
L 96.27149 240.727356 
L 98.222389 239.628602 
L 99.176145 238.979525 
L 99.683215 238.649106 
L 100.219621 238.485655 
L 100.752545 238.480022 
L 101.258372 238.357587 
L 102.780656 237.438915 
L 103.280984 237.218019 
L 106.063468 235.212892 
L 106.635691 235.120336 
L 107.210014 234.831856 
L 108.871106 233.643113 
L 110.429428 233.034131 
L 112.061548 231.849385 
L 113.088811 231.230846 
L 113.629943 230.818533 
L 114.207256 230.666543 
L 115.454495 229.884389 
L 116.658082 229.383604 
L 117.802445 228.708432 
L 119.027473 227.400096 
L 122.292404 225.633056 
L 122.893461 225.528219 
L 123.476457 225.134825 
L 124.606339 224.159604 
L 125.845273 223.361511 
L 126.484887 222.834497 
L 129.489364 221.082248 
L 130.059846 220.544052 
L 131.299015 219.766326 
L 132.571352 218.643646 
L 133.820746 218.107507 
L 136.277911 216.507413 
L 138.178254 214.995561 
L 139.518503 214.221468 
L 140.185325 213.563765 
L 142.145206 212.127585 
L 142.855988 211.600866 
L 143.583292 210.829421 
L 144.32031 210.638817 
L 145.913223 210.505744 
L 146.658232 210.218151 
L 148.082961 209.236382 
L 150.276783 208.059411 
L 150.986197 207.828142 
L 151.703165 207.202531 
L 152.431146 207.078559 
L 154.364575 206.11212 
L 155.553414 204.572006 
L 156.15605 203.675159 
L 156.753243 203.044426 
L 157.397472 202.905254 
L 159.232147 201.544099 
L 159.795761 201.054007 
L 161.019201 200.304438 
L 161.661965 199.68399 
L 162.323826 199.390712 
L 163.013738 198.840745 
L 163.655853 198.54682 
L 164.948724 197.568224 
L 165.56844 197.278875 
L 166.236713 196.838834 
L 166.911521 196.248158 
L 167.611286 195.889167 
L 168.2855 195.204981 
L 168.970686 195.023583 
L 171.856001 193.184563 
L 173.885581 191.711873 
L 174.57885 191.305884 
L 175.954709 190.07705 
L 176.654086 189.657207 
L 177.356158 188.809835 
L 178.055673 188.281507 
L 178.77394 187.884347 
L 180.844265 186.401587 
L 182.878682 185.005833 
L 183.54759 184.682292 
L 185.517545 183.302865 
L 186.23818 183.010446 
L 186.926627 182.41488 
L 187.569317 182.452584 
L 188.215444 181.863664 
L 188.838214 181.499964 
L 191.474028 179.116866 
L 192.161024 178.483431 
L 192.881709 178.037095 
L 194.332531 176.43234 
L 195.043322 175.911924 
L 195.810449 175.134133 
L 197.283034 174.423673 
L 198.051037 173.883954 
L 198.799464 173.52929 
L 200.355504 172.460125 
L 201.143124 172.199834 
L 201.960393 171.743543 
L 204.176352 170.169682 
L 204.917502 169.179334 
L 207.282665 167.981257 
L 208.031594 167.05175 
L 209.492 165.622945 
L 210.196504 164.749126 
L 210.970375 164.161506 
L 211.710385 163.154117 
L 212.433608 162.962024 
L 213.146144 162.147802 
L 213.901527 161.838637 
L 214.749684 161.184455 
L 215.569113 160.409631 
L 216.37659 160.564417 
L 218.603567 158.386783 
L 221.593701 156.920664 
L 222.336099 156.345331 
L 223.055374 156.318731 
L 223.753623 155.085302 
L 224.420233 154.93831 
L 225.113365 154.2325 
L 225.768482 153.911679 
L 226.423158 153.270748 
L 228.509259 151.697843 
L 229.318339 151.637131 
L 230.116543 151.31339 
L 230.798372 150.54528 
L 231.424693 150.314101 
L 232.076149 149.291492 
L 232.708826 148.616253 
L 236.428968 145.79499 
L 237.164162 145.244791 
L 237.928783 144.256736 
L 239.374792 143.484671 
L 240.738886 141.680936 
L 241.540186 141.01016 
L 242.400849 139.954195 
L 244.113118 138.739377 
L 244.977668 137.833995 
L 245.807157 137.228023 
L 246.625734 136.161797 
L 248.148576 134.797239 
L 248.956974 134.482035 
L 249.751489 134.30998 
L 252.692274 131.995111 
L 253.413894 131.710564 
L 254.166333 131.106887 
L 254.919739 130.814988 
L 257.041841 129.412675 
L 257.803156 129.203583 
L 260.208096 127.439688 
L 260.956943 126.725666 
L 261.745668 126.143928 
L 263.38139 124.591151 
L 264.205863 124.168116 
L 265.790752 123.034344 
L 266.558184 122.634859 
L 273.885486 117.190199 
L 274.642416 116.769781 
L 277.665999 114.12279 
L 281.6173 110.998957 
L 285.692978 107.509458 
L 291.285699 103.161039 
L 292.85578 102.082529 
L 294.34244 101.011545 
L 295.048685 100.078594 
L 297.433599 98.453693 
L 298.976399 97.214804 
L 300.512777 95.814701 
L 302.829885 94.016684 
L 303.603963 92.543203 
L 304.414729 92.0824 
L 305.366011 91.708606 
L 306.23379 90.880351 
L 307.08963 90.423745 
L 307.931016 89.803956 
L 309.530783 87.840799 
L 311.391791 86.299472 
L 315.822217 83.665028 
L 316.59362 83.969747 
L 317.26554 83.369681 
L 317.764734 82.725893 
L 318.77958 82.568023 
L 319.21966 82.343735 
L 319.876569 82.641702 
L 320.14869 82.731721 
L 320.342023 82.812288 
L 320.33867 82.793689 
L 320.339661 82.864643 
L 320.333701 82.635606 
L 320.270114 82.742079 
L 320.076384 82.872621 
L 320.188259 82.847709 
L 320.237024 82.913522 
L 320.259317 82.740709 
L 320.275309 82.782434 
L 320.313144 82.786546 
L 320.238365 82.700155 
L 320.265904 82.830143 
L 320.169799 83.012329 
L 320.127101 82.978534 
L 319.944729 82.991295 
L 320.09303 82.713901 
L 320.092151 82.912879 
L 320.125218 82.916631 
L 320.066108 82.929313 
L 320.085564 82.972978 
L 320.205611 83.010719 
L 320.016593 82.924159 
L 320.129943 82.971789 
" clip-path="url(#p88e6e68436)" style="fill: none; stroke: #1f77b4; stroke-width: 1.5; stroke-linecap: square"/>
   </g>
   <g id="line2d_29">
    <path d="M 73.832191 275.769876 
L 103.079957 256.638563 
L 142.812772 229.217016 
L 173.716072 207.170456 
L 205.171216 183.939576 
L 247.663254 151.234142 
L 279.118399 125.452421 
L 310.573543 99.124092 
L 353.065581 62.319091 
L 383.968881 33.849876 
" clip-path="url(#p88e6e68436)" style="fill: none; stroke: #ff7f0e; stroke-width: 1.5; stroke-linecap: square"/>
   </g>
   <g id="patch_3">
    <path d="M 43.081609 287.865876 
L 43.081609 21.753876 
" style="fill: none; stroke: #000000; stroke-width: 0.8; stroke-linejoin: miter; stroke-linecap: square"/>
   </g>
   <g id="patch_4">
    <path d="M 400.201609 287.865876 
L 400.201609 21.753876 
" style="fill: none; stroke: #000000; stroke-width: 0.8; stroke-linejoin: miter; stroke-linecap: square"/>
   </g>
   <g id="patch_5">
    <path d="M 43.081609 287.865876 
L 400.201609 287.865876 
" style="fill: none; stroke: #000000; stroke-width: 0.8; stroke-linejoin: miter; stroke-linecap: square"/>
   </g>
   <g id="patch_6">
    <path d="M 43.081609 21.753876 
L 400.201609 21.753876 
" style="fill: none; stroke: #000000; stroke-width: 0.8; stroke-linejoin: miter; stroke-linecap: square"/>
   </g>
   <g id="text_16">
    <!-- Power vs. Thrust at 35 MPH -->
    <g transform="translate(146.623625 15.753876) scale(0.12 -0.12)">
     <defs>
      <path id="URWPalladioL-Roma-50" d="M 1382 4116 
C 1606 4166 1792 4192 2010 4192 
C 2701 4192 3072 3875 3072 3273 
C 3072 2703 2682 2304 2125 2304 
C 1990 2304 1894 2317 1728 2367 
L 1792 2137 
C 1946 2105 2035 2099 2163 2099 
C 3040 2099 3712 2692 3712 3459 
C 3712 4071 3213 4448 2400 4448 
C 2368 4448 2304 4448 2221 4423 
C 1984 4423 1498 4423 1312 4423 
C 1171 4423 1171 4423 147 4423 
L 147 4224 
L 435 4224 
C 723 4224 774 4140 774 3663 
L 774 766 
C 774 256 742 205 448 205 
L 141 205 
L 141 0 
C 518 0 742 0 1075 0 
C 1408 0 1638 0 2016 0 
L 2016 205 
L 1709 205 
C 1414 205 1382 256 1382 764 
L 1382 4116 
z
" transform="scale(0.015625)"/>
      <path id="URWPalladioL-Roma-76" d="M 3450 2752 
L 3450 2932 
C 3066 2932 2950 2932 2848 2932 
C 2746 2932 2630 2932 2246 2932 
L 2246 2752 
L 2509 2752 
C 2611 2752 2662 2694 2662 2591 
C 2662 2489 2618 2317 2541 2124 
L 2272 1445 
C 2195 1259 2118 1080 1875 549 
L 1114 2393 
C 1075 2482 1056 2566 1056 2636 
C 1056 2707 1114 2752 1216 2752 
L 1530 2752 
L 1530 2932 
C 902 2932 902 2932 781 2932 
C 659 2932 352 2932 38 2932 
L 38 2752 
L 256 2752 
C 352 2739 384 2701 454 2541 
L 1555 -32 
L 1875 -32 
C 1914 77 1978 243 1978 256 
C 2048 447 2131 664 2138 664 
L 2893 2324 
C 3034 2625 3123 2739 3251 2752 
L 3450 2752 
z
" transform="scale(0.015625)"/>
      <path id="URWPalladioL-Roma-2e" d="M 794 744 
C 602 744 429 564 429 372 
C 429 179 602 0 787 0 
C 992 0 1171 173 1171 372 
C 1171 564 992 744 794 744 
z
" transform="scale(0.015625)"/>
      <path id="URWPalladioL-Roma-54" d="M 1632 4114 
C 1651 3896 1658 3749 1658 3473 
L 1658 763 
C 1658 256 1626 205 1331 205 
L 1024 205 
L 1024 0 
C 1402 0 1626 0 1958 0 
C 2291 0 2522 0 2899 0 
L 2899 205 
L 2592 205 
C 2298 205 2266 256 2266 763 
L 2266 3473 
C 2266 3762 2272 3903 2291 4114 
L 3283 4114 
C 3462 4114 3533 4057 3539 3904 
L 3565 3400 
L 3763 3400 
C 3763 3810 3776 4056 3808 4416 
C 3347 4416 3136 4416 2957 4416 
C 2707 4416 2522 4416 2426 4416 
L 1414 4416 
C 1350 4416 1005 4416 550 4416 
L 115 4416 
C 147 4056 160 3810 160 3400 
L 358 3400 
L 384 3904 
C 390 4057 461 4114 640 4114 
L 1632 4114 
z
" transform="scale(0.015625)"/>
      <path id="URWPalladioL-Roma-61" d="M 2074 538 
L 2042 -1 
C 2458 -1 2458 -1 2541 -1 
C 2573 -1 2733 -1 3014 -1 
L 3014 192 
L 2765 192 
C 2611 192 2586 244 2586 558 
L 2586 1731 
C 2586 2668 2317 3008 1574 3008 
C 1299 3008 1043 2937 800 2791 
L 461 2585 
L 461 2171 
L 627 2126 
L 710 2323 
C 845 2623 909 2668 1203 2668 
C 1805 2668 2054 2431 2074 1852 
L 1440 1736 
C 570 1577 205 1277 205 722 
C 205 224 506 -64 1011 -64 
C 1126 -64 1235 -45 1280 -13 
L 2074 538 
z
M 2074 806 
C 1888 544 1485 302 1235 302 
C 979 302 755 538 755 812 
C 755 1048 883 1271 1075 1392 
C 1235 1488 1587 1577 2074 1648 
L 2074 806 
z
" transform="scale(0.015625)"/>
      <path id="URWPalladioL-Roma-4d" d="M 4685 783 
C 4685 276 4659 231 4358 205 
L 4141 186 
L 4141 0 
C 4435 0 4627 0 4960 0 
C 5318 0 5549 0 5926 0 
L 5926 205 
L 5619 205 
C 5325 205 5293 256 5293 766 
L 5293 3663 
C 5293 4166 5325 4224 5619 4224 
L 5888 4256 
L 5888 4436 
C 5402 4436 5402 4436 5293 4436 
C 5197 4436 5197 4436 4685 4436 
L 3008 884 
L 1318 4436 
C 806 4436 806 4436 710 4436 
C 614 4436 614 4436 102 4436 
L 102 4237 
L 384 4237 
C 678 4237 710 4178 710 3674 
L 710 768 
C 710 263 678 205 384 205 
L 102 205 
L 102 0 
C 736 0 736 0 845 0 
C 941 0 941 0 1613 0 
L 1613 205 
L 1331 205 
C 1037 205 1005 262 1005 766 
L 1005 3718 
L 2790 -64 
L 2918 -64 
C 2963 32 3002 134 3040 230 
C 3142 480 3219 658 3264 748 
L 4403 3167 
C 4493 3353 4570 3500 4685 3718 
L 4685 783 
z
" transform="scale(0.015625)"/>
      <path id="URWPalladioL-Roma-48" d="M 3942 773 
C 3942 257 3910 205 3616 205 
L 3309 205 
L 3309 0 
C 3686 0 3910 0 4243 0 
C 4576 0 4806 0 5184 0 
L 5184 205 
L 4877 205 
C 4582 205 4550 256 4550 766 
L 4550 3663 
C 4550 4172 4582 4224 4877 4224 
L 5184 4224 
L 5184 4423 
C 4717 4423 4576 4423 4243 4423 
C 3923 4423 3770 4423 3309 4423 
L 3309 4224 
L 3616 4224 
C 3910 4224 3942 4172 3942 3668 
L 3942 2529 
C 3808 2529 3674 2529 3411 2529 
L 1914 2529 
C 1651 2529 1510 2529 1382 2529 
L 1382 3668 
C 1382 4172 1414 4224 1709 4224 
L 2016 4224 
L 2016 4423 
C 1549 4423 1408 4423 1075 4423 
C 755 4423 602 4423 141 4423 
L 141 4224 
L 448 4224 
C 742 4224 774 4172 774 3663 
L 774 766 
C 774 256 742 205 448 205 
L 141 205 
L 141 0 
C 518 0 742 0 1075 0 
C 1408 0 1638 0 2016 0 
L 2016 205 
L 1709 205 
C 1414 205 1382 257 1382 773 
L 1382 2227 
C 1555 2240 1658 2240 1914 2240 
L 3411 2240 
C 3667 2240 3770 2240 3942 2227 
L 3942 773 
z
" transform="scale(0.015625)"/>
     </defs>
     <use xlink:href="#URWPalladioL-Roma-50" transform="scale(0.996264)"/>
     <use xlink:href="#URWPalladioL-Roma-6f" transform="translate(60.173595 0) scale(0.996264)"/>
     <use xlink:href="#URWPalladioL-Roma-77" transform="translate(114.569175 0) scale(0.996264)"/>
     <use xlink:href="#URWPalladioL-Roma-65" transform="translate(197.657269 0) scale(0.996264)"/>
     <use xlink:href="#URWPalladioL-Roma-72" transform="translate(245.377564 0) scale(0.996264)"/>
     <use xlink:href="#URWPalladioL-Roma-76" transform="translate(309.63606 0) scale(0.996264)"/>
     <use xlink:href="#URWPalladioL-Roma-73" transform="translate(365.923973 0) scale(0.996264)"/>
     <use xlink:href="#URWPalladioL-Roma-2e" transform="translate(408.16544 0) scale(0.996264)"/>
     <use xlink:href="#URWPalladioL-Roma-54" transform="translate(463.956072 0) scale(0.996264)"/>
     <use xlink:href="#URWPalladioL-Roma-68" transform="translate(525.025904 0) scale(0.996264)"/>
     <use xlink:href="#URWPalladioL-Roma-72" transform="translate(583.007965 0) scale(0.996264)"/>
     <use xlink:href="#URWPalladioL-Roma-75" transform="translate(621.563287 0) scale(0.996264)"/>
     <use xlink:href="#URWPalladioL-Roma-73" transform="translate(681.637022 0) scale(0.996264)"/>
     <use xlink:href="#URWPalladioL-Roma-74" transform="translate(723.878489 0) scale(0.996264)"/>
     <use xlink:href="#URWPalladioL-Roma-61" transform="translate(781.262177 0) scale(0.996264)"/>
     <use xlink:href="#URWPalladioL-Roma-74" transform="translate(831.075377 0) scale(0.996264)"/>
     <use xlink:href="#URWPalladioL-Roma-33" transform="translate(888.459065 0) scale(0.996264)"/>
     <use xlink:href="#URWPalladioL-Roma-35" transform="translate(938.272266 0) scale(0.996264)"/>
     <use xlink:href="#URWPalladioL-Roma-4d" transform="translate(1012.992066 0) scale(0.996264)"/>
     <use xlink:href="#URWPalladioL-Roma-50" transform="translate(1107.238268 0) scale(0.996264)"/>
     <use xlink:href="#URWPalladioL-Roma-48" transform="translate(1167.411863 0) scale(0.996264)"/>
    </g>
   </g>
   <g id="legend_1">
    <g id="patch_7">
     <path d="M 50.081609 59.629172 
L 140.083173 59.629172 
Q 142.083173 59.629172 142.083173 57.629172 
L 142.083173 28.753876 
Q 142.083173 26.753876 140.083173 26.753876 
L 50.081609 26.753876 
Q 48.081609 26.753876 48.081609 28.753876 
L 48.081609 57.629172 
Q 48.081609 59.629172 50.081609 59.629172 
z
" style="fill: #ffffff; opacity: 0.8; stroke: #cccccc; stroke-linejoin: miter"/>
    </g>
    <g id="line2d_30">
     <path d="M 52.081609 34.382113 
L 62.081609 34.382113 
L 72.081609 34.382113 
" style="fill: none; stroke: #1f77b4; stroke-width: 1.5; stroke-linecap: square"/>
    </g>
    <g id="text_17">
     <!-- experimental -->
     <g transform="translate(80.081609 37.882113) scale(0.1 -0.1)">
      <defs>
       <path id="URWPalladioL-Roma-78" d="M 1843 1630 
L 2752 2694 
C 2790 2739 2861 2765 2970 2765 
L 3059 2765 
L 3059 2944 
L 2534 2944 
L 1741 1822 
L 1254 2566 
C 1158 2707 1088 2791 870 3009 
L 128 2880 
L 160 2708 
L 294 2694 
C 410 2694 550 2605 614 2515 
L 1382 1398 
L 429 269 
C 384 212 301 173 237 173 
L 128 173 
L 128 0 
L 678 0 
C 723 71 736 96 813 212 
C 915 391 1018 551 1062 603 
L 1536 1231 
L 2221 208 
L 2227 196 
C 2285 107 2336 44 2387 0 
C 2720 0 2720 0 2778 0 
C 2842 0 2842 0 3174 0 
L 3174 173 
L 3014 192 
C 2938 199 2861 250 2790 346 
L 1843 1630 
z
" transform="scale(0.015625)"/>
       <path id="URWPalladioL-Roma-69" d="M 1203 2993 
L 1146 3019 
C 819 2884 486 2793 147 2755 
L 147 2576 
L 384 2576 
C 640 2576 666 2531 666 2105 
L 666 651 
C 666 244 646 199 429 199 
L 134 199 
L 134 0 
C 774 0 774 0 934 0 
C 1094 0 1094 0 1734 0 
L 1734 199 
L 1440 199 
C 1222 199 1203 244 1203 651 
L 1203 2993 
z
M 909 4416 
C 717 4416 550 4249 550 4056 
C 550 3870 717 3704 902 3704 
C 1088 3704 1261 3870 1261 4056 
C 1261 4236 1088 4416 909 4416 
z
" transform="scale(0.015625)"/>
       <path id="URWPalladioL-Roma-6d" d="M 115 2565 
L 352 2565 
C 608 2565 634 2520 634 2094 
L 634 643 
C 634 237 614 192 397 192 
L 102 192 
L 102 -7 
C 717 -7 736 -7 915 -7 
C 1094 -7 1261 -7 1677 -7 
L 1677 179 
L 1408 205 
C 1190 205 1171 250 1171 654 
L 1171 2014 
C 1171 2302 1594 2616 1978 2616 
C 2323 2616 2560 2287 2560 1798 
L 2560 643 
C 2560 237 2541 192 2323 192 
L 2029 192 
L 2029 -7 
C 2669 -7 2669 -7 2829 -7 
C 2989 -7 2989 -7 3629 -7 
L 3629 192 
L 3334 192 
C 3117 192 3098 237 3098 643 
L 3098 2011 
C 3098 2300 3520 2616 3904 2616 
C 4250 2616 4486 2291 4486 1806 
L 4486 -7 
C 4877 -7 4883 -7 4992 -7 
C 5075 -7 5075 -7 5562 -7 
L 5562 192 
L 5261 192 
C 5043 192 5024 237 5024 643 
L 5024 1970 
C 5024 2608 4653 3008 4064 3008 
C 3840 3008 3654 2950 3539 2847 
L 3053 2412 
C 2848 2834 2586 3008 2144 3008 
C 1907 3008 1728 2950 1613 2847 
L 1171 2437 
L 1171 2982 
L 1114 3008 
C 787 2873 454 2783 115 2745 
L 115 2565 
z
" transform="scale(0.015625)"/>
       <path id="URWPalladioL-Roma-6e" d="M 2624 -7 
C 3014 -7 3021 -7 3130 -7 
C 3219 -7 3219 -7 3661 -7 
L 3661 179 
L 3398 205 
C 3181 205 3162 244 3162 654 
L 3162 1892 
C 3162 2642 2810 3008 2093 3008 
C 1856 3008 1722 2963 1587 2847 
L 1101 2424 
L 1101 2982 
L 1043 3008 
C 717 2873 384 2783 45 2745 
L 45 2565 
L 282 2565 
C 538 2565 563 2520 563 2094 
L 563 643 
C 563 237 544 192 326 192 
L 38 192 
L 38 -7 
C 474 -7 646 -7 832 -7 
C 1018 -7 1190 -7 1626 -7 
L 1626 192 
L 1338 192 
C 1120 192 1101 237 1101 643 
L 1101 2011 
C 1101 2300 1523 2616 1914 2616 
C 2342 2616 2624 2297 2624 1806 
L 2624 -7 
z
" transform="scale(0.015625)"/>
       <path id="URWPalladioL-Roma-6c" d="M 147 4256 
L 506 4256 
C 621 4256 666 4185 666 3992 
L 666 651 
C 666 244 646 199 429 199 
L 134 199 
L 134 0 
C 774 0 774 0 934 0 
C 1094 0 1094 0 1734 0 
L 1734 199 
L 1440 199 
C 1222 199 1203 244 1203 650 
L 1203 4621 
L 1146 4673 
C 864 4564 653 4512 147 4435 
L 147 4256 
z
" transform="scale(0.015625)"/>
      </defs>
      <use xlink:href="#URWPalladioL-Roma-65" transform="scale(0.996264)"/>
      <use xlink:href="#URWPalladioL-Roma-78" transform="translate(47.720295 0) scale(0.996264)"/>
      <use xlink:href="#URWPalladioL-Roma-70" transform="translate(99.126642 0) scale(0.996264)"/>
      <use xlink:href="#URWPalladioL-Roma-65" transform="translate(159.001036 0) scale(0.996264)"/>
      <use xlink:href="#URWPalladioL-Roma-72" transform="translate(206.721331 0) scale(0.996264)"/>
      <use xlink:href="#URWPalladioL-Roma-69" transform="translate(246.073228 0) scale(0.996264)"/>
      <use xlink:href="#URWPalladioL-Roma-6d" transform="translate(275.063589 0) scale(0.996264)"/>
      <use xlink:href="#URWPalladioL-Roma-65" transform="translate(363.033263 0) scale(0.996264)"/>
      <use xlink:href="#URWPalladioL-Roma-6e" transform="translate(410.753558 0) scale(0.996264)"/>
      <use xlink:href="#URWPalladioL-Roma-74" transform="translate(468.735619 0) scale(0.996264)"/>
      <use xlink:href="#URWPalladioL-Roma-61" transform="translate(501.212707 0) scale(0.996264)"/>
      <use xlink:href="#URWPalladioL-Roma-6c" transform="translate(551.025907 0) scale(0.996264)"/>
     </g>
    </g>
    <g id="line2d_31">
     <path d="M 52.081609 49.319761 
L 62.081609 49.319761 
L 72.081609 49.319761 
" style="fill: none; stroke: #ff7f0e; stroke-width: 1.5; stroke-linecap: square"/>
    </g>
    <g id="text_18">
     <!-- MotoCalc -->
     <g transform="translate(80.081609 52.819761) scale(0.1 -0.1)">
      <defs>
       <path id="URWPalladioL-Roma-43" d="M 4288 539 
L 4230 603 
C 3834 346 3392 218 2906 218 
C 1658 218 826 1051 826 2313 
C 826 3493 1555 4274 2656 4274 
C 3283 4274 3930 4018 3930 3769 
L 3930 3307 
L 4128 3307 
C 4134 3627 4160 3857 4250 4280 
C 3706 4460 3238 4544 2771 4544 
C 2214 4544 1683 4409 1254 4159 
C 525 3730 141 3057 141 2192 
C 141 807 1152 -128 2656 -128 
C 3187 -128 3667 -13 4109 218 
L 4288 539 
z
" transform="scale(0.015625)"/>
       <path id="URWPalladioL-Roma-63" d="M 2554 1994 
C 2554 2289 2586 2552 2643 2783 
C 2387 2937 2163 3008 1901 3008 
C 1594 3008 1235 2886 851 2642 
C 403 2360 166 1911 166 1347 
C 166 481 774 -128 1632 -128 
C 1965 -128 2445 -6 2509 90 
L 2643 295 
L 2579 391 
C 2342 263 2138 205 1907 205 
C 1197 205 730 757 730 1603 
C 730 2289 1050 2674 1626 2674 
C 1907 2674 2214 2546 2330 2386 
L 2374 1994 
L 2554 1994 
z
" transform="scale(0.015625)"/>
      </defs>
      <use xlink:href="#URWPalladioL-Roma-4d" transform="scale(0.996264)"/>
      <use xlink:href="#URWPalladioL-Roma-6f" transform="translate(94.246201 0) scale(0.996264)"/>
      <use xlink:href="#URWPalladioL-Roma-74" transform="translate(148.641782 0) scale(0.996264)"/>
      <use xlink:href="#URWPalladioL-Roma-6f" transform="translate(181.118869 0) scale(0.996264)"/>
      <use xlink:href="#URWPalladioL-Roma-43" transform="translate(235.51445 0) scale(0.996264)"/>
      <use xlink:href="#URWPalladioL-Roma-61" transform="translate(306.149243 0) scale(0.996264)"/>
      <use xlink:href="#URWPalladioL-Roma-6c" transform="translate(355.962443 0) scale(0.996264)"/>
      <use xlink:href="#URWPalladioL-Roma-63" transform="translate(384.952805 0) scale(0.996264)"/>
     </g>
    </g>
   </g>
  </g>
 </g>
 <defs>
  <clipPath id="p88e6e68436">
   <rect x="43.081609" y="21.753876" width="357.12" height="266.112"/>
  </clipPath>
 </defs>
</svg>
