<?xml version="1.0" encoding="utf-8" standalone="no"?>
<!DOCTYPE svg PUBLIC "-//W3C//DTD SVG 1.1//EN"
  "http://www.w3.org/Graphics/SVG/1.1/DTD/svg11.dtd">
<svg xmlns:xlink="http://www.w3.org/1999/xlink" width="407.401609pt" height="325.941172pt" viewBox="0 0 407.401609 325.941172" xmlns="http://www.w3.org/2000/svg" version="1.1">
 <metadata>
  <rdf:RDF xmlns:dc="http://purl.org/dc/elements/1.1/" xmlns:cc="http://creativecommons.org/ns#" xmlns:rdf="http://www.w3.org/1999/02/22-rdf-syntax-ns#">
   <cc:Work>
    <dc:type rdf:resource="http://purl.org/dc/dcmitype/StillImage"/>
    <dc:date>2025-03-07T10:33:48.663228</dc:date>
    <dc:format>image/svg+xml</dc:format>
    <dc:creator>
     <cc:Agent>
      <dc:title>Matplotlib v3.10.0, https://matplotlib.org/</dc:title>
     </cc:Agent>
    </dc:creator>
   </cc:Work>
  </rdf:RDF>
 </metadata>
 <defs>
  <style type="text/css">*{stroke-linejoin: round; stroke-linecap: butt}</style>
 </defs>
 <g id="figure_1">
  <g id="patch_1">
   <path d="M 0 325.941172 
L 407.401609 325.941172 
L 407.401609 0 
L 0 0 
z
" style="fill: #ffffff"/>
  </g>
  <g id="axes_1">
   <g id="patch_2">
    <path d="M 43.081609 287.865876 
L 400.201609 287.865876 
L 400.201609 21.753876 
L 43.081609 21.753876 
z
" style="fill: #ffffff"/>
   </g>
   <g id="matplotlib.axis_1">
    <g id="xtick_1">
     <g id="line2d_1">
      <path d="M 59.498184 287.865876 
L 59.498184 21.753876 
" clip-path="url(#pdd306ce397)" style="fill: none; stroke: #b0b0b0; stroke-width: 0.8; stroke-linecap: square"/>
     </g>
     <g id="line2d_2">
      <defs>
       <path id="m23e2c3cd77" d="M 0 0 
L 0 3.5 
" style="stroke: #000000; stroke-width: 0.8"/>
      </defs>
      <g>
       <use xlink:href="#m23e2c3cd77" x="59.498184" y="287.865876" style="stroke: #000000; stroke-width: 0.8"/>
      </g>
     </g>
     <g id="text_1">
      <!-- $\mathdefault{0}$ -->
      <g transform="translate(57.007524 301.994113) scale(0.1 -0.1)">
       <defs>
        <path id="URWPalladioL-Roma-30" d="M 1683 4416 
C 691 4416 186 3628 186 2077 
C 186 1326 320 680 544 366 
C 768 51 1126 -128 1523 -128 
C 2490 -128 2976 705 2976 2346 
C 2976 3749 2560 4416 1683 4416 
z
M 1568 4192 
C 2189 4192 2438 3564 2438 2025 
C 2438 661 2195 96 1606 96 
C 986 96 723 744 723 2308 
C 723 3660 960 4192 1568 4192 
z
" transform="scale(0.015625)"/>
       </defs>
       <use xlink:href="#URWPalladioL-Roma-30" transform="scale(0.996264)"/>
      </g>
     </g>
    </g>
    <g id="xtick_2">
     <g id="line2d_3">
      <path d="M 117.908751 287.865876 
L 117.908751 21.753876 
" clip-path="url(#pdd306ce397)" style="fill: none; stroke: #b0b0b0; stroke-width: 0.8; stroke-linecap: square"/>
     </g>
     <g id="line2d_4">
      <g>
       <use xlink:href="#m23e2c3cd77" x="117.908751" y="287.865876" style="stroke: #000000; stroke-width: 0.8"/>
      </g>
     </g>
     <g id="text_2">
      <!-- $\mathdefault{20}$ -->
      <g transform="translate(112.92743 301.994113) scale(0.1 -0.1)">
       <defs>
        <path id="URWPalladioL-Roma-32" d="M 102 160 
L 102 0 
C 1299 0 1299 0 1530 0 
C 1760 0 1760 0 2995 0 
C 2982 125 2982 186 2982 269 
C 2982 348 2982 407 2995 539 
C 2259 539 1965 539 781 539 
L 1946 1761 
C 2566 2414 2758 2763 2758 3238 
C 2758 3966 2259 4416 1446 4416 
C 986 4416 672 4288 358 3969 
L 250 3099 
L 435 3099 
L 518 3393 
C 621 3763 851 3923 1280 3923 
C 1830 3923 2182 3577 2182 3035 
C 2182 2555 1914 2083 1190 1316 
L 102 160 
z
" transform="scale(0.015625)"/>
       </defs>
       <use xlink:href="#URWPalladioL-Roma-32" transform="scale(0.996264)"/>
       <use xlink:href="#URWPalladioL-Roma-30" transform="translate(49.8132 0) scale(0.996264)"/>
      </g>
     </g>
    </g>
    <g id="xtick_3">
     <g id="line2d_5">
      <path d="M 176.319317 287.865876 
L 176.319317 21.753876 
" clip-path="url(#pdd306ce397)" style="fill: none; stroke: #b0b0b0; stroke-width: 0.8; stroke-linecap: square"/>
     </g>
     <g id="line2d_6">
      <g>
       <use xlink:href="#m23e2c3cd77" x="176.319317" y="287.865876" style="stroke: #000000; stroke-width: 0.8"/>
      </g>
     </g>
     <g id="text_3">
      <!-- $\mathdefault{40}$ -->
      <g transform="translate(171.337997 301.994113) scale(0.1 -0.1)">
       <defs>
        <path id="URWPalladioL-Roma-34" d="M 1792 1152 
L 1792 673 
C 1792 289 1722 199 1408 199 
L 1011 199 
L 1011 0 
C 1862 0 1862 0 2016 0 
C 2170 0 2170 0 3021 0 
L 3021 199 
L 2714 199 
C 2400 199 2330 282 2330 669 
L 2330 1152 
C 2707 1152 2842 1152 3021 1133 
L 3021 1588 
C 2720 1563 2598 1563 2502 1563 
L 2483 1563 
L 2330 1563 
L 2330 2457 
C 2330 3600 2342 4152 2374 4416 
L 2298 4448 
L 1824 4275 
L 13 1299 
L 83 1152 
L 1792 1152 
z
M 1792 1563 
L 416 1563 
L 1792 3826 
L 1792 1563 
z
" transform="scale(0.015625)"/>
       </defs>
       <use xlink:href="#URWPalladioL-Roma-34" transform="scale(0.996264)"/>
       <use xlink:href="#URWPalladioL-Roma-30" transform="translate(49.8132 0) scale(0.996264)"/>
      </g>
     </g>
    </g>
    <g id="xtick_4">
     <g id="line2d_7">
      <path d="M 234.729884 287.865876 
L 234.729884 21.753876 
" clip-path="url(#pdd306ce397)" style="fill: none; stroke: #b0b0b0; stroke-width: 0.8; stroke-linecap: square"/>
     </g>
     <g id="line2d_8">
      <g>
       <use xlink:href="#m23e2c3cd77" x="234.729884" y="287.865876" style="stroke: #000000; stroke-width: 0.8"/>
      </g>
     </g>
     <g id="text_4">
      <!-- $\mathdefault{60}$ -->
      <g transform="translate(229.748564 301.994113) scale(0.1 -0.1)">
       <defs>
        <path id="URWPalladioL-Roma-36" d="M 2662 4310 
L 2426 4419 
C 1811 4214 1549 4086 1222 3804 
C 563 3246 205 2464 205 1585 
C 205 526 717 -128 1542 -128 
C 2374 -128 2995 532 2995 1405 
C 2995 2143 2554 2624 1875 2624 
C 1555 2624 1363 2540 986 2239 
C 915 2181 909 2175 838 2124 
C 973 3284 1510 3913 2662 4259 
L 2662 4310 
z
M 1632 2239 
C 2118 2239 2445 1816 2445 1181 
C 2445 513 2118 83 1626 83 
C 1082 83 787 551 787 1412 
C 787 1636 813 1758 883 1867 
C 1024 2085 1325 2239 1632 2239 
z
" transform="scale(0.015625)"/>
       </defs>
       <use xlink:href="#URWPalladioL-Roma-36" transform="scale(0.996264)"/>
       <use xlink:href="#URWPalladioL-Roma-30" transform="translate(49.8132 0) scale(0.996264)"/>
      </g>
     </g>
    </g>
    <g id="xtick_5">
     <g id="line2d_9">
      <path d="M 293.14045 287.865876 
L 293.14045 21.753876 
" clip-path="url(#pdd306ce397)" style="fill: none; stroke: #b0b0b0; stroke-width: 0.8; stroke-linecap: square"/>
     </g>
     <g id="line2d_10">
      <g>
       <use xlink:href="#m23e2c3cd77" x="293.14045" y="287.865876" style="stroke: #000000; stroke-width: 0.8"/>
      </g>
     </g>
     <g id="text_5">
      <!-- $\mathdefault{80}$ -->
      <g transform="translate(288.15913 301.994113) scale(0.1 -0.1)">
       <defs>
        <path id="URWPalladioL-Roma-38" d="M 1075 2211 
C 813 2090 704 2019 563 1884 
C 320 1641 192 1352 192 1019 
C 192 359 723 -128 1446 -128 
C 2278 -128 2970 526 2970 1320 
C 2970 1833 2733 2109 2003 2442 
C 2586 2840 2790 3109 2790 3493 
C 2790 4044 2336 4416 1658 4416 
C 896 4416 339 3929 339 3257 
C 339 2821 512 2577 1075 2211 
z
M 1818 1891 
C 2221 1711 2464 1397 2464 1052 
C 2464 513 2061 90 1542 90 
C 998 90 646 475 646 1071 
C 646 1538 832 1833 1306 2122 
L 1818 1891 
z
M 1427 2712 
C 1024 2910 819 3167 819 3487 
C 819 3910 1126 4198 1581 4198 
C 2048 4198 2355 3891 2355 3422 
C 2355 3058 2195 2808 1779 2538 
L 1427 2712 
z
" transform="scale(0.015625)"/>
       </defs>
       <use xlink:href="#URWPalladioL-Roma-38" transform="scale(0.996264)"/>
       <use xlink:href="#URWPalladioL-Roma-30" transform="translate(49.8132 0) scale(0.996264)"/>
      </g>
     </g>
    </g>
    <g id="xtick_6">
     <g id="line2d_11">
      <path d="M 351.551017 287.865876 
L 351.551017 21.753876 
" clip-path="url(#pdd306ce397)" style="fill: none; stroke: #b0b0b0; stroke-width: 0.8; stroke-linecap: square"/>
     </g>
     <g id="line2d_12">
      <g>
       <use xlink:href="#m23e2c3cd77" x="351.551017" y="287.865876" style="stroke: #000000; stroke-width: 0.8"/>
      </g>
     </g>
     <g id="text_6">
      <!-- $\mathdefault{100}$ -->
      <g transform="translate(344.079037 301.994113) scale(0.1 -0.1)">
       <defs>
        <path id="URWPalladioL-Roma-31" d="M 429 3584 
L 493 3584 
L 1318 3956 
C 1325 3962 1331 3962 1338 3962 
C 1376 3962 1389 3905 1389 3751 
L 1389 613 
C 1389 276 1318 205 973 205 
L 614 205 
L 614 0 
C 1600 0 1600 0 1670 0 
C 1754 0 1894 0 2112 0 
C 2189 0 2413 0 2675 0 
L 2675 205 
L 2342 205 
C 1990 205 1926 276 1926 612 
L 1926 4443 
L 1837 4475 
C 1421 4257 966 4065 384 3860 
L 429 3584 
z
" transform="scale(0.015625)"/>
       </defs>
       <use xlink:href="#URWPalladioL-Roma-31" transform="scale(0.996264)"/>
       <use xlink:href="#URWPalladioL-Roma-30" transform="translate(49.8132 0) scale(0.996264)"/>
       <use xlink:href="#URWPalladioL-Roma-30" transform="translate(99.626401 0) scale(0.996264)"/>
      </g>
     </g>
    </g>
    <g id="text_7">
     <!-- thrust [oz] -->
     <g transform="translate(198.678009 315.931761) scale(0.1 -0.1)">
      <defs>
       <path id="URWPalladioL-Roma-74" d="M 627 2476 
L 627 619 
C 627 142 838 -64 1331 -64 
C 1478 -64 1632 -32 1670 13 
L 1978 353 
L 1894 463 
C 1734 372 1638 340 1517 340 
C 1267 340 1165 470 1165 788 
L 1165 2489 
L 1984 2489 
L 2042 2816 
L 1165 2816 
L 1165 3056 
C 1165 3321 1184 3547 1235 3951 
L 1158 4021 
C 1005 3925 813 3842 614 3778 
C 634 3585 640 3463 640 3271 
L 640 2822 
L 141 2598 
L 141 2476 
L 627 2476 
z
" transform="scale(0.015625)"/>
       <path id="URWPalladioL-Roma-68" d="M 45 4248 
L 403 4248 
C 518 4248 563 4177 563 3984 
L 563 643 
C 563 237 544 192 326 192 
L 38 192 
L 38 -7 
C 474 -7 646 -7 832 -7 
C 1018 -7 1190 -7 1626 -7 
L 1626 192 
L 1338 192 
C 1120 192 1101 237 1101 643 
L 1101 2011 
C 1101 2300 1523 2616 1914 2616 
C 2342 2616 2624 2297 2624 1806 
L 2624 -7 
C 3014 -7 3021 -7 3130 -7 
C 3219 -7 3219 -7 3661 -7 
L 3661 179 
L 3398 205 
C 3181 205 3162 244 3162 654 
L 3162 1892 
C 3162 2642 2810 3008 2093 3008 
C 1856 3008 1722 2963 1587 2847 
L 1101 2424 
L 1101 4613 
L 1043 4665 
C 762 4556 550 4504 45 4427 
L 45 4248 
z
" transform="scale(0.015625)"/>
       <path id="URWPalladioL-Roma-72" d="M 147 2565 
L 384 2565 
C 640 2565 666 2520 666 2094 
L 666 643 
C 666 237 646 192 429 192 
L 134 192 
L 134 -7 
C 595 -7 762 -7 922 -7 
C 1050 -7 1050 -7 1837 -7 
L 1837 192 
L 1504 192 
C 1216 192 1203 211 1203 638 
L 1203 1751 
C 1203 2139 1459 2463 1773 2463 
C 1965 2463 2099 2373 2202 2169 
L 2336 2169 
L 2394 2937 
C 2323 2982 2208 3008 2093 3008 
C 1901 3008 1696 2905 1562 2745 
L 1203 2322 
L 1203 2982 
L 1146 3008 
C 819 2873 486 2783 147 2745 
L 147 2565 
z
" transform="scale(0.015625)"/>
       <path id="URWPalladioL-Roma-75" d="M 3219 3009 
L 3162 3035 
C 2835 2900 2502 2810 2163 2772 
L 2163 2592 
L 2400 2592 
C 2656 2592 2682 2547 2682 2121 
L 2682 1070 
C 2682 928 2592 747 2445 599 
C 2266 418 2061 327 1811 327 
C 1587 327 1408 398 1306 521 
C 1216 624 1171 824 1171 1107 
L 1171 3009 
L 1114 3035 
C 787 2900 454 2810 115 2772 
L 115 2592 
L 352 2592 
C 608 2592 634 2547 634 2122 
L 634 1039 
C 634 587 672 387 787 227 
C 928 33 1171 -64 1536 -64 
C 1824 -64 2080 26 2253 186 
L 2682 585 
C 2682 401 2675 298 2656 0 
C 3085 0 3091 0 3187 0 
C 3277 0 3277 0 3718 0 
L 3718 186 
L 3456 212 
C 3238 212 3219 251 3219 664 
L 3219 3009 
z
" transform="scale(0.015625)"/>
       <path id="URWPalladioL-Roma-73" d="M 262 917 
C 262 475 243 282 192 26 
C 525 -83 774 -128 1069 -128 
C 1907 -128 2502 321 2502 949 
C 2502 1148 2445 1295 2323 1424 
C 2157 1584 1946 1661 1382 1770 
C 858 1873 685 2001 685 2296 
C 685 2616 909 2796 1299 2796 
C 1728 2796 2054 2572 2054 2270 
L 2054 2123 
L 2234 2123 
C 2240 2495 2246 2648 2266 2847 
C 1926 2963 1696 3008 1434 3008 
C 691 3008 237 2655 237 2078 
C 237 1770 378 1552 672 1417 
C 845 1340 1184 1238 1619 1141 
C 1907 1077 2029 943 2029 699 
C 2029 353 1709 109 1254 109 
C 787 109 454 333 454 654 
L 454 917 
L 262 917 
z
" transform="scale(0.015625)"/>
       <path id="URWPalladioL-Roma-5b" d="M 563 -1152 
C 1018 -1152 1030 -1152 1184 -1152 
C 1338 -1152 1370 -1152 1805 -1152 
L 1843 -1120 
L 1843 -953 
L 1818 -921 
L 1574 -921 
C 1402 -921 1261 -882 1184 -818 
C 1126 -760 1107 -671 1107 -459 
C 1107 -453 1107 -318 1101 -125 
L 1101 112 
L 1101 3409 
L 1101 3646 
C 1107 3826 1107 3967 1107 3973 
C 1107 4185 1126 4281 1184 4339 
C 1261 4403 1402 4441 1574 4441 
L 1818 4441 
L 1843 4473 
L 1843 4640 
L 1805 4672 
C 1357 4672 1338 4672 1184 4672 
C 1037 4672 1005 4672 563 4672 
L 506 4595 
C 544 4435 557 4223 557 3730 
C 557 3633 557 3556 563 3492 
L 563 3409 
L 563 112 
L 563 28 
C 557 -74 557 -81 557 -190 
L 557 -260 
C 557 -696 544 -876 506 -1075 
L 563 -1152 
z
" transform="scale(0.015625)"/>
       <path id="URWPalladioL-Roma-6f" d="M 1786 3008 
C 851 3008 205 2347 205 1392 
C 205 487 774 -128 1600 -128 
C 2586 -128 3290 558 3290 1520 
C 3290 2386 2662 3008 1786 3008 
z
M 1670 2796 
C 2259 2796 2694 2155 2694 1283 
C 2694 545 2368 83 1850 83 
C 1222 83 800 699 800 1610 
C 800 2379 1107 2796 1670 2796 
z
" transform="scale(0.015625)"/>
       <path id="URWPalladioL-Roma-7a" d="M 2912 2764 
L 2912 2944 
C 2464 2944 2272 2944 2029 2944 
L 442 2944 
C 429 2624 422 2549 384 2115 
L 576 2115 
L 653 2547 
C 678 2681 794 2713 1267 2713 
L 2182 2713 
C 2048 2503 1939 2357 1766 2141 
L 678 794 
C 525 609 435 501 102 127 
L 141 0 
C 806 0 845 0 1120 0 
L 2886 0 
C 2886 145 2899 297 2944 602 
L 2982 899 
L 2790 899 
L 2675 397 
C 2650 282 2381 237 1766 237 
L 902 237 
L 2912 2764 
z
" transform="scale(0.015625)"/>
       <path id="URWPalladioL-Roma-5d" d="M 1568 4672 
C 1114 4672 1094 4672 947 4672 
C 794 4672 762 4672 326 4672 
L 288 4640 
L 288 4473 
L 314 4441 
L 557 4441 
C 730 4441 864 4403 941 4339 
C 1005 4281 1024 4191 1024 3973 
C 1024 3954 1024 3826 1030 3646 
L 1030 3409 
L 1030 112 
L 1030 -125 
C 1024 -311 1024 -427 1024 -446 
C 1024 -664 1005 -760 941 -818 
C 864 -882 730 -921 557 -921 
L 314 -921 
L 288 -953 
L 288 -1120 
L 326 -1152 
C 774 -1152 787 -1152 947 -1152 
C 1094 -1152 1126 -1152 1568 -1152 
L 1626 -1075 
C 1587 -921 1581 -722 1574 -228 
C 1574 -138 1574 -55 1568 28 
L 1568 112 
L 1568 3409 
L 1568 3492 
C 1574 3563 1574 3646 1574 3736 
C 1574 4230 1587 4441 1626 4595 
L 1568 4672 
z
" transform="scale(0.015625)"/>
      </defs>
      <use xlink:href="#URWPalladioL-Roma-74" transform="scale(0.996264)"/>
      <use xlink:href="#URWPalladioL-Roma-68" transform="translate(32.477088 0) scale(0.996264)"/>
      <use xlink:href="#URWPalladioL-Roma-72" transform="translate(90.459149 0) scale(0.996264)"/>
      <use xlink:href="#URWPalladioL-Roma-75" transform="translate(129.014471 0) scale(0.996264)"/>
      <use xlink:href="#URWPalladioL-Roma-73" transform="translate(189.088206 0) scale(0.996264)"/>
      <use xlink:href="#URWPalladioL-Roma-74" transform="translate(231.329673 0) scale(0.996264)"/>
      <use xlink:href="#URWPalladioL-Roma-5b" transform="translate(288.713361 0) scale(0.996264)"/>
      <use xlink:href="#URWPalladioL-Roma-6f" transform="translate(321.88859 0) scale(0.996264)"/>
      <use xlink:href="#URWPalladioL-Roma-7a" transform="translate(376.284171 0) scale(0.996264)"/>
      <use xlink:href="#URWPalladioL-Roma-5d" transform="translate(426.097371 0) scale(0.996264)"/>
     </g>
    </g>
   </g>
   <g id="matplotlib.axis_2">
    <g id="ytick_1">
     <g id="line2d_13">
      <path d="M 43.081609 275.944358 
L 400.201609 275.944358 
" clip-path="url(#pdd306ce397)" style="fill: none; stroke: #b0b0b0; stroke-width: 0.8; stroke-linecap: square"/>
     </g>
     <g id="line2d_14">
      <defs>
       <path id="m9e9040542e" d="M 0 0 
L -3.5 0 
" style="stroke: #000000; stroke-width: 0.8"/>
      </defs>
      <g>
       <use xlink:href="#m9e9040542e" x="43.081609" y="275.944358" style="stroke: #000000; stroke-width: 0.8"/>
      </g>
     </g>
     <g id="text_8">
      <!-- $\mathdefault{0}$ -->
      <g transform="translate(31.100288 279.508476) scale(0.1 -0.1)">
       <use xlink:href="#URWPalladioL-Roma-30" transform="scale(0.996264)"/>
      </g>
     </g>
    </g>
    <g id="ytick_2">
     <g id="line2d_15">
      <path d="M 43.081609 243.793696 
L 400.201609 243.793696 
" clip-path="url(#pdd306ce397)" style="fill: none; stroke: #b0b0b0; stroke-width: 0.8; stroke-linecap: square"/>
     </g>
     <g id="line2d_16">
      <g>
       <use xlink:href="#m9e9040542e" x="43.081609" y="243.793696" style="stroke: #000000; stroke-width: 0.8"/>
      </g>
     </g>
     <g id="text_9">
      <!-- $\mathdefault{100}$ -->
      <g transform="translate(21.137648 247.357815) scale(0.1 -0.1)">
       <use xlink:href="#URWPalladioL-Roma-31" transform="scale(0.996264)"/>
       <use xlink:href="#URWPalladioL-Roma-30" transform="translate(49.8132 0) scale(0.996264)"/>
       <use xlink:href="#URWPalladioL-Roma-30" transform="translate(99.626401 0) scale(0.996264)"/>
      </g>
     </g>
    </g>
    <g id="ytick_3">
     <g id="line2d_17">
      <path d="M 43.081609 211.643034 
L 400.201609 211.643034 
" clip-path="url(#pdd306ce397)" style="fill: none; stroke: #b0b0b0; stroke-width: 0.8; stroke-linecap: square"/>
     </g>
     <g id="line2d_18">
      <g>
       <use xlink:href="#m9e9040542e" x="43.081609" y="211.643034" style="stroke: #000000; stroke-width: 0.8"/>
      </g>
     </g>
     <g id="text_10">
      <!-- $\mathdefault{200}$ -->
      <g transform="translate(21.137648 215.207153) scale(0.1 -0.1)">
       <use xlink:href="#URWPalladioL-Roma-32" transform="scale(0.996264)"/>
       <use xlink:href="#URWPalladioL-Roma-30" transform="translate(49.8132 0) scale(0.996264)"/>
       <use xlink:href="#URWPalladioL-Roma-30" transform="translate(99.626401 0) scale(0.996264)"/>
      </g>
     </g>
    </g>
    <g id="ytick_4">
     <g id="line2d_19">
      <path d="M 43.081609 179.492373 
L 400.201609 179.492373 
" clip-path="url(#pdd306ce397)" style="fill: none; stroke: #b0b0b0; stroke-width: 0.8; stroke-linecap: square"/>
     </g>
     <g id="line2d_20">
      <g>
       <use xlink:href="#m9e9040542e" x="43.081609" y="179.492373" style="stroke: #000000; stroke-width: 0.8"/>
      </g>
     </g>
     <g id="text_11">
      <!-- $\mathdefault{300}$ -->
      <g transform="translate(21.137648 183.056491) scale(0.1 -0.1)">
       <defs>
        <path id="URWPalladioL-Roma-33" d="M 275 3197 
L 474 3197 
L 589 3554 
C 659 3770 1062 3987 1395 3987 
C 1811 3987 2150 3649 2150 3248 
C 2150 2770 1773 2368 1318 2368 
C 1267 2368 1197 2368 1114 2381 
L 1018 2381 
L 941 2047 
L 986 2008 
C 1229 2118 1350 2150 1523 2150 
C 2054 2150 2362 1809 2362 1222 
C 2362 566 1971 135 1376 135 
C 1082 135 819 231 627 411 
C 474 553 390 701 269 1049 
L 96 985 
C 230 593 282 361 320 39 
C 659 -77 941 -128 1178 -128 
C 1690 -128 2278 161 2630 593 
C 2848 857 2957 1140 2957 1442 
C 2957 1751 2829 2022 2598 2182 
C 2438 2298 2291 2350 1971 2407 
C 2483 2803 2675 3096 2675 3472 
C 2675 4040 2202 4416 1491 4416 
C 1056 4416 768 4295 461 3989 
L 275 3197 
z
" transform="scale(0.015625)"/>
       </defs>
       <use xlink:href="#URWPalladioL-Roma-33" transform="scale(0.996264)"/>
       <use xlink:href="#URWPalladioL-Roma-30" transform="translate(49.8132 0) scale(0.996264)"/>
       <use xlink:href="#URWPalladioL-Roma-30" transform="translate(99.626401 0) scale(0.996264)"/>
      </g>
     </g>
    </g>
    <g id="ytick_5">
     <g id="line2d_21">
      <path d="M 43.081609 147.341711 
L 400.201609 147.341711 
" clip-path="url(#pdd306ce397)" style="fill: none; stroke: #b0b0b0; stroke-width: 0.8; stroke-linecap: square"/>
     </g>
     <g id="line2d_22">
      <g>
       <use xlink:href="#m9e9040542e" x="43.081609" y="147.341711" style="stroke: #000000; stroke-width: 0.8"/>
      </g>
     </g>
     <g id="text_12">
      <!-- $\mathdefault{400}$ -->
      <g transform="translate(21.137648 150.90583) scale(0.1 -0.1)">
       <use xlink:href="#URWPalladioL-Roma-34" transform="scale(0.996264)"/>
       <use xlink:href="#URWPalladioL-Roma-30" transform="translate(49.8132 0) scale(0.996264)"/>
       <use xlink:href="#URWPalladioL-Roma-30" transform="translate(99.626401 0) scale(0.996264)"/>
      </g>
     </g>
    </g>
    <g id="ytick_6">
     <g id="line2d_23">
      <path d="M 43.081609 115.19105 
L 400.201609 115.19105 
" clip-path="url(#pdd306ce397)" style="fill: none; stroke: #b0b0b0; stroke-width: 0.8; stroke-linecap: square"/>
     </g>
     <g id="line2d_24">
      <g>
       <use xlink:href="#m9e9040542e" x="43.081609" y="115.19105" style="stroke: #000000; stroke-width: 0.8"/>
      </g>
     </g>
     <g id="text_13">
      <!-- $\mathdefault{500}$ -->
      <g transform="translate(21.137648 118.755168) scale(0.1 -0.1)">
       <defs>
        <path id="URWPalladioL-Roma-35" d="M 813 3877 
C 1638 3877 1997 3877 2765 3877 
L 2797 3907 
C 2784 4016 2784 4064 2784 4144 
C 2784 4229 2784 4277 2797 4386 
L 2765 4416 
C 2285 4416 1997 4416 1651 4416 
C 1299 4416 1018 4416 538 4416 
L 506 4403 
C 512 4011 518 3729 518 3523 
C 518 2977 499 2360 480 2077 
L 608 2038 
C 909 2341 1082 2432 1395 2432 
C 2010 2432 2394 1993 2394 1296 
C 2394 580 1984 160 1286 160 
C 941 160 621 277 531 444 
L 237 973 
L 83 883 
C 230 516 307 310 397 27 
C 576 -71 832 -128 1107 -128 
C 1536 -128 1990 59 2342 368 
C 2733 716 2938 1154 2938 1630 
C 2938 2359 2419 2874 1690 2874 
C 1382 2874 1152 2791 755 2554 
L 813 3877 
z
" transform="scale(0.015625)"/>
       </defs>
       <use xlink:href="#URWPalladioL-Roma-35" transform="scale(0.996264)"/>
       <use xlink:href="#URWPalladioL-Roma-30" transform="translate(49.8132 0) scale(0.996264)"/>
       <use xlink:href="#URWPalladioL-Roma-30" transform="translate(99.626401 0) scale(0.996264)"/>
      </g>
     </g>
    </g>
    <g id="ytick_7">
     <g id="line2d_25">
      <path d="M 43.081609 83.040388 
L 400.201609 83.040388 
" clip-path="url(#pdd306ce397)" style="fill: none; stroke: #b0b0b0; stroke-width: 0.8; stroke-linecap: square"/>
     </g>
     <g id="line2d_26">
      <g>
       <use xlink:href="#m9e9040542e" x="43.081609" y="83.040388" style="stroke: #000000; stroke-width: 0.8"/>
      </g>
     </g>
     <g id="text_14">
      <!-- $\mathdefault{600}$ -->
      <g transform="translate(21.137648 86.604507) scale(0.1 -0.1)">
       <use xlink:href="#URWPalladioL-Roma-36" transform="scale(0.996264)"/>
       <use xlink:href="#URWPalladioL-Roma-30" transform="translate(49.8132 0) scale(0.996264)"/>
       <use xlink:href="#URWPalladioL-Roma-30" transform="translate(99.626401 0) scale(0.996264)"/>
      </g>
     </g>
    </g>
    <g id="ytick_8">
     <g id="line2d_27">
      <path d="M 43.081609 50.889726 
L 400.201609 50.889726 
" clip-path="url(#pdd306ce397)" style="fill: none; stroke: #b0b0b0; stroke-width: 0.8; stroke-linecap: square"/>
     </g>
     <g id="line2d_28">
      <g>
       <use xlink:href="#m9e9040542e" x="43.081609" y="50.889726" style="stroke: #000000; stroke-width: 0.8"/>
      </g>
     </g>
     <g id="text_15">
      <!-- $\mathdefault{700}$ -->
      <g transform="translate(21.137648 54.453845) scale(0.1 -0.1)">
       <defs>
        <path id="URWPalladioL-Roma-37" d="M 358 32 
L 416 -51 
C 666 -32 666 -32 710 -32 
C 755 -32 755 -32 1005 -51 
C 1274 649 1587 1317 2010 2087 
L 3181 4199 
L 3181 4372 
C 2490 4372 2266 4372 1747 4372 
C 1280 4372 966 4372 346 4372 
L 282 4359 
C 301 3750 301 3750 301 3685 
C 301 3614 301 3614 282 3031 
L 474 3031 
L 518 3390 
C 570 3789 614 3840 909 3840 
L 2618 3840 
C 2362 3313 2163 2941 1920 2549 
L 358 32 
z
" transform="scale(0.015625)"/>
       </defs>
       <use xlink:href="#URWPalladioL-Roma-37" transform="scale(0.996264)"/>
       <use xlink:href="#URWPalladioL-Roma-30" transform="translate(49.8132 0) scale(0.996264)"/>
       <use xlink:href="#URWPalladioL-Roma-30" transform="translate(99.626401 0) scale(0.996264)"/>
      </g>
     </g>
    </g>
    <g id="text_16">
     <!-- power [W] -->
     <g transform="translate(14.328237 178.575537) rotate(-90) scale(0.1 -0.1)">
      <defs>
       <path id="URWPalladioL-Roma-70" d="M 64 2565 
L 301 2565 
C 557 2565 582 2520 582 2095 
L 582 -1142 
C 582 -1548 563 -1593 346 -1593 
L 51 -1593 
L 51 -1792 
C 691 -1792 691 -1792 851 -1792 
C 1011 -1792 1011 -1792 1651 -1792 
L 1651 -1593 
L 1357 -1593 
C 1139 -1593 1120 -1547 1120 -1138 
L 1120 89 
C 1312 -26 1517 -71 1805 -71 
C 1990 -71 2157 -32 2259 32 
L 2989 505 
C 3245 672 3546 1330 3546 1740 
C 3546 2451 2957 3008 2214 3008 
C 1978 3008 1747 2943 1645 2847 
L 1120 2367 
L 1120 2982 
L 1062 3008 
C 736 2873 403 2783 64 2745 
L 64 2565 
z
M 1120 1964 
C 1120 2053 1152 2124 1235 2233 
C 1421 2469 1683 2591 2003 2591 
C 2605 2591 2989 2169 2989 1504 
C 2989 787 2560 256 1984 256 
C 1632 256 1370 372 1120 633 
L 1120 1964 
z
" transform="scale(0.015625)"/>
       <path id="URWPalladioL-Roma-77" d="M 2643 3008 
C 2118 1788 2022 1571 1626 677 
L 1088 2444 
C 1069 2502 1062 2553 1062 2604 
C 1062 2700 1146 2752 1306 2752 
L 1562 2752 
L 1562 2932 
C 928 2932 928 2932 800 2932 
C 672 2932 672 2932 38 2932 
L 38 2765 
L 218 2752 
C 397 2739 480 2612 640 2114 
L 1293 -32 
L 1594 -32 
L 2221 1437 
C 2253 1514 2323 1667 2426 1884 
L 2554 2152 
L 3424 -32 
L 3718 -32 
C 3763 102 3814 249 3866 389 
C 3994 767 4134 1162 4160 1201 
L 4595 2196 
C 4787 2625 4864 2733 5005 2752 
L 5171 2765 
L 5171 2932 
C 4646 2932 4646 2932 4544 2932 
C 4442 2932 4442 2932 3917 2932 
L 3917 2752 
L 4134 2752 
C 4294 2752 4384 2675 4384 2559 
C 4384 2489 4371 2412 4339 2329 
L 4019 1433 
C 3968 1292 3917 1163 3712 638 
L 2976 2490 
C 2886 2707 2842 2835 2790 3008 
L 2643 3008 
z
" transform="scale(0.015625)"/>
       <path id="URWPalladioL-Roma-65" d="M 2797 447 
L 2714 511 
C 2304 269 2157 212 1882 212 
C 1466 212 1120 398 941 711 
C 819 921 774 1101 762 1472 
L 1696 1472 
C 2138 1472 2413 1472 2854 1544 
C 2861 1634 2867 1693 2867 1771 
C 2867 2520 2394 3008 1677 3008 
C 1440 3008 1165 2924 902 2770 
C 378 2469 166 2071 166 1404 
C 166 1000 262 654 435 410 
C 691 71 1120 -128 1600 -128 
C 1837 -128 2074 -77 2336 37 
C 2509 108 2643 191 2669 230 
L 2797 447 
z
M 2298 1690 
C 1965 1690 1811 1690 1581 1690 
C 1286 1690 1120 1690 774 1722 
C 774 2027 800 2169 883 2337 
C 1018 2622 1293 2796 1600 2796 
C 1811 2796 1978 2711 2093 2534 
C 2234 2319 2278 2129 2298 1690 
z
" transform="scale(0.015625)"/>
       <path id="URWPalladioL-Roma-57" d="M 4698 -64 
C 4723 32 4742 122 4749 154 
C 4768 218 4819 411 4870 584 
L 5850 4032 
C 5888 4147 5952 4205 6093 4218 
L 6298 4237 
L 6298 4416 
L 5626 4416 
C 5562 4416 5562 4416 4954 4416 
L 4954 4237 
L 5210 4218 
C 5434 4199 5504 4167 5510 4063 
C 5510 4044 5510 4025 5504 4005 
L 4659 872 
L 3610 3826 
C 3469 4211 3450 4262 3398 4480 
L 3194 4480 
C 3059 4082 2950 3795 2618 2935 
L 1824 917 
L 1184 3795 
C 1165 3872 1158 3942 1158 4006 
C 1158 4147 1222 4205 1395 4218 
L 1664 4237 
L 1664 4416 
L 858 4416 
C 813 4416 544 4416 51 4416 
L 51 4237 
L 230 4218 
C 416 4199 493 4128 550 3897 
L 1312 597 
C 1395 231 1395 225 1459 -64 
L 1779 -64 
C 1837 141 1888 295 2010 597 
L 3123 3429 
L 3923 1256 
C 4134 687 4154 635 4378 -64 
L 4698 -64 
z
" transform="scale(0.015625)"/>
      </defs>
      <use xlink:href="#URWPalladioL-Roma-70" transform="scale(0.996264)"/>
      <use xlink:href="#URWPalladioL-Roma-6f" transform="translate(59.874394 0) scale(0.996264)"/>
      <use xlink:href="#URWPalladioL-Roma-77" transform="translate(114.269974 0) scale(0.996264)"/>
      <use xlink:href="#URWPalladioL-Roma-65" transform="translate(197.358067 0) scale(0.996264)"/>
      <use xlink:href="#URWPalladioL-Roma-72" transform="translate(245.078362 0) scale(0.996264)"/>
      <use xlink:href="#URWPalladioL-Roma-5b" transform="translate(309.336859 0) scale(0.996264)"/>
      <use xlink:href="#URWPalladioL-Roma-57" transform="translate(342.512088 0) scale(0.996264)"/>
      <use xlink:href="#URWPalladioL-Roma-5d" transform="translate(442.138489 0) scale(0.996264)"/>
     </g>
    </g>
   </g>
   <g id="line2d_29">
    <path d="M 59.401834 275.690794 
L 59.495222 275.735768 
L 59.366002 275.625368 
L 59.414487 275.769876 
L 59.43149 269.328794 
L 59.353864 273.606476 
L 60.415231 274.159494 
L 60.482474 273.450959 
L 60.435086 273.839007 
L 60.811558 274.44483 
L 60.678388 274.356663 
L 60.734223 274.682003 
L 60.795433 274.500169 
L 60.907102 274.40653 
L 61.689553 274.442533 
L 61.686043 274.430321 
L 61.481792 274.503739 
L 61.607063 274.289338 
L 61.448445 274.48893 
L 61.65467 274.448706 
L 61.384164 274.392405 
L 61.609915 274.497609 
L 61.4317 274.355631 
L 61.690212 274.399468 
L 61.368148 274.412079 
L 61.765462 274.399574 
L 61.620007 274.399524 
L 61.420143 274.527989 
L 61.628344 274.399656 
L 61.32076 274.448663 
L 61.718513 274.264981 
L 61.55068 274.418013 
L 61.790911 274.44884 
L 61.4287 274.415611 
L 61.580078 274.448895 
L 61.641397 274.28677 
L 61.505705 274.344659 
L 61.792228 274.448403 
L 61.447677 274.436596 
L 61.71588 274.436451 
L 61.338531 274.277079 
L 61.913989 274.399624 
L 61.756467 274.460875 
L 61.601359 274.214795 
L 61.540807 274.264819 
L 61.833253 274.185302 
L 61.724436 274.020309 
L 62.056372 274.018523 
L 61.847952 274.005124 
L 62.360226 273.710797 
L 62.029607 273.718013 
L 62.137327 273.664839 
L 62.535957 273.556257 
L 62.19722 273.520591 
L 62.725948 273.475195 
L 62.347721 273.517851 
L 62.852975 273.439034 
L 62.540784 273.367265 
L 63.108124 273.254797 
L 63.487009 273.364662 
L 63.543612 273.242717 
L 63.414172 273.36491 
L 63.940706 273.307232 
L 63.919097 273.400982 
L 63.845491 273.481559 
L 63.686654 273.463021 
L 64.662497 273.297881 
L 64.44574 273.371037 
L 65.542248 273.377328 
L 64.221963 273.390599 
L 65.368272 273.39038 
L 65.736188 273.203772 
L 65.791913 273.322357 
L 65.163582 273.216199 
L 64.921596 273.414088 
L 64.696283 273.339634 
L 64.301163 273.243427 
L 64.512215 273.279218 
L 64.698038 273.126681 
L 65.23196 273.102655 
L 66.789037 272.574896 
L 66.641755 272.561834 
L 66.469277 272.517145 
L 66.167507 271.774393 
L 65.761637 272.447323 
L 64.325625 272.33177 
L 65.071658 272.246231 
L 66.230143 272.259587 
L 67.388628 272.116851 
L 70.177394 272.014128 
L 70.055962 272.043613 
L 65.058056 271.976903 
L 70.541361 271.950602 
L 69.145497 271.954906 
L 68.757726 272.137885 
L 67.66791 271.970639 
L 69.145716 271.946916 
L 68.907021 272.002741 
L 69.398782 271.865058 
L 68.533291 271.894493 
L 68.941026 272.021382 
L 69.450886 271.798251 
L 69.145277 272.002011 
L 69.563762 271.954427 
L 69.413042 271.805455 
L 69.688156 271.947813 
L 69.501346 271.959032 
L 69.105019 271.91489 
L 70.094064 272.057729 
L 69.378598 271.79009 
L 70.090735 271.88315 
L 69.819022 271.844501 
L 70.055814 271.624629 
L 69.660074 271.750118 
L 70.278203 271.50795 
L 69.673457 271.619312 
L 70.376051 271.406752 
L 70.376051 271.299808 
L 69.968535 271.278435 
L 70.663341 271.251305 
L 70.315938 271.159678 
L 70.751316 270.969366 
L 70.731791 271.030401 
L 70.860791 271.104612 
L 70.780276 270.867856 
L 71.094622 271.007373 
L 71.265784 270.816548 
L 70.310454 270.848287 
L 71.474423 270.747179 
L 71.76705 270.678272 
L 71.738677 270.689908 
L 71.738677 270.564331 
L 72.145096 270.408521 
L 72.354393 270.329001 
L 72.329125 270.268997 
L 72.84407 270.347172 
L 73.086276 269.983548 
L 73.358209 269.99222 
L 73.576611 269.731733 
L 73.709341 269.924542 
L 73.836987 269.740881 
L 74.272952 269.669786 
L 74.295368 269.596958 
L 74.53249 269.587139 
L 75.532905 269.164334 
L 75.711926 268.632475 
L 75.865938 268.964631 
L 76.18482 268.989079 
L 76.041449 268.842166 
L 77.307945 268.55458 
L 77.005884 268.681237 
L 77.00731 268.470532 
L 78.048383 268.340288 
L 77.817953 268.290151 
L 77.934997 268.11785 
L 78.865098 267.993165 
L 78.54468 267.901079 
L 79.313201 267.516512 
L 79.498475 267.835573 
L 80.041173 267.980212 
L 79.951623 267.85626 
L 80.730345 267.912186 
L 80.719963 267.852275 
L 81.288143 267.807825 
L 80.601674 268.046564 
L 81.309972 267.86865 
L 80.790787 267.953659 
L 81.363722 267.940926 
L 81.552287 267.820302 
L 80.9369 267.788713 
L 81.450929 267.93636 
L 81.203568 267.759219 
L 81.203568 267.838367 
L 81.196328 267.857414 
L 81.986239 267.861689 
L 81.630719 267.78339 
L 81.409465 267.912505 
L 82.199924 267.847018 
L 81.519598 267.824142 
L 82.008178 267.626708 
L 81.531994 267.719779 
L 82.150452 267.356347 
L 82.150452 267.481537 
L 82.016844 267.344099 
L 82.646162 267.103386 
L 82.098237 267.016587 
L 82.357923 267.110127 
L 83.060479 267.041014 
L 82.763096 267.015963 
L 82.363188 266.75953 
L 83.476331 266.670304 
L 82.877069 266.519687 
L 83.143775 266.48487 
L 83.703728 266.509174 
L 84.029411 266.359853 
L 83.763402 266.438605 
L 83.545877 266.253165 
L 83.683983 266.265851 
L 84.843894 265.902757 
L 84.793654 265.917428 
L 84.845062 265.350496 
L 84.98189 265.614281 
L 85.743609 265.61561 
L 86.200926 265.379124 
L 86.335082 265.431379 
L 86.440609 265.091635 
L 86.685592 265.011391 
L 87.042613 265.059131 
L 87.522965 264.712162 
L 87.760674 264.857925 
L 88.056191 264.231715 
L 88.235651 264.565774 
L 88.920585 264.422102 
L 89.214566 263.967845 
L 89.531364 263.872435 
L 89.63338 264.032105 
L 89.972775 263.853652 
L 90.36987 263.745072 
L 90.917685 263.554085 
L 90.97341 263.381989 
L 91.192799 263.483196 
L 91.565541 263.237371 
L 91.716481 263.26882 
L 92.02582 262.944628 
L 92.137854 263.001621 
L 92.875295 262.682173 
L 93.180465 262.786196 
L 93.24716 262.302319 
L 93.594672 262.485526 
L 93.926828 262.270605 
L 94.33533 262.178205 
L 94.619549 261.945786 
L 94.834112 262.317814 
L 94.951704 261.737159 
L 95.356587 261.792695 
L 95.427889 261.154126 
L 95.852078 262.052478 
L 96.169644 261.781004 
L 96.53383 261.724062 
L 96.633945 261.67927 
L 96.756071 262.04733 
L 96.820133 261.770364 
L 96.913812 261.740042 
L 97.057293 261.890961 
L 97.129581 261.878398 
L 97.149875 262.039401 
L 97.186074 261.639059 
L 97.245858 261.826229 
L 97.321108 261.70592 
L 97.452961 261.797142 
L 97.432777 261.897053 
L 97.560352 261.49547 
L 97.463821 261.793951 
L 97.721164 262.055435 
L 97.502214 261.69557 
L 97.588873 261.698783 
L 97.530844 261.759232 
L 97.644707 261.436654 
L 97.835027 261.49239 
L 97.67948 261.387704 
L 97.883074 261.283739 
L 97.915105 261.111165 
L 98.127254 260.964639 
L 98.172448 261.035562 
L 98.363756 260.660756 
L 98.452608 260.928058 
L 98.747029 260.670299 
L 98.668268 260.346144 
L 99.40399 260.311627 
L 99.481908 260.019453 
L 100.001057 260.234077 
L 100.237778 259.559144 
L 100.328167 259.599585 
L 100.56039 259.598753 
L 100.854811 259.739585 
L 101.324633 259.385206 
L 101.485335 259.278909 
L 101.886269 258.857216 
L 102.774247 258.846704 
L 103.155984 258.554841 
L 103.345537 258.524417 
L 103.555273 258.140644 
L 103.842124 258.225293 
L 104.523402 257.800448 
L 104.671635 257.467765 
L 104.931501 258.000235 
L 105.157472 257.952314 
L 105.538807 257.449591 
L 105.714721 257.516242 
L 106.270982 257.268622 
L 106.594691 256.565275 
L 106.615753 256.786319 
L 106.872109 256.600823 
L 107.127333 256.804013 
L 107.408625 256.613692 
L 107.661801 255.640314 
L 107.803307 256.72742 
L 108.274774 256.497295 
L 108.391709 256.565793 
L 108.621848 255.993906 
L 110.268254 255.404918 
L 110.69716 254.886727 
L 110.936404 255.155492 
L 111.188483 255.188855 
L 111.428531 254.801789 
L 111.593146 255.003023 
L 111.875829 254.969321 
L 112.082494 254.784392 
L 112.163668 255.163229 
L 112.273325 255.058221 
L 112.467412 254.457642 
L 112.47531 254.877094 
L 113.007658 254.869776 
L 113.042943 254.673691 
L 113.053072 255.078912 
L 113.110881 254.795676 
L 113.162437 254.921703 
L 113.239443 254.82864 
L 113.350673 254.030577 
L 113.379413 254.307568 
L 113.684913 255.250283 
L 113.615805 254.771262 
L 113.75051 254.543291 
L 113.721441 254.538528 
L 113.738224 252.589787 
L 113.8081 254.199161 
L 114.217919 253.882516 
L 114.53735 253.944836 
L 114.790159 254.101301 
L 114.873015 253.986675 
L 114.960551 253.606599 
L 115.431361 253.467142 
L 115.648666 252.846104 
L 115.807541 252.787907 
L 116.002321 252.968664 
L 116.417004 252.463835 
L 116.597415 252.860396 
L 116.914651 252.424526 
L 117.169948 252.47379 
L 117.481882 252.120525 
L 117.721236 252.233624 
L 117.905194 251.845371 
L 118.314245 251.633439 
L 118.539558 251.775942 
L 118.755217 251.680412 
L 118.998081 251.359116 
L 119.109312 251.5365 
L 119.288114 251.033387 
L 119.506955 250.840425 
L 119.792745 250.377619 
L 120.281399 251.162855 
L 120.76592 250.495393 
L 121.043338 250.44228 
L 121.259546 250.686931 
L 121.492647 250.778737 
L 121.597954 250.320353 
L 121.936032 250.277261 
L 122.078123 250.013842 
L 122.343987 249.769479 
L 122.532881 249.81235 
L 122.742946 248.893449 
L 122.882916 249.515078 
L 123.244799 249.186724 
L 123.62171 249.497305 
L 123.874227 248.760607 
L 124.173364 248.979165 
L 124.565303 249.484997 
L 124.849741 248.203335 
L 124.935083 248.47952 
L 125.505715 247.883372 
L 126.075907 247.391301 
L 126.221362 248.272413 
L 126.373618 247.205778 
L 126.67824 246.099809 
L 126.986263 247.996272 
L 127.379408 246.138987 
L 127.636533 247.602602 
L 128.200802 247.162977 
L 128.374375 245.744881 
L 128.752127 246.29021 
L 129.482474 246.064546 
L 129.628148 245.451777 
L 129.836678 245.427298 
L 130.261086 245.696394 
L 130.520404 245.181635 
L 130.861116 246.709782 
L 131.287279 245.47473 
L 131.427469 244.495656 
L 131.65706 245.812468 
L 132.063807 244.888554 
L 132.401886 244.830129 
L 132.67221 244.399642 
L 132.782417 243.856951 
L 133.166458 241.031216 
L 133.774129 244.896372 
L 135.339837 244.537771 
L 135.440866 244.377033 
L 135.396878 244.141892 
L 135.457101 243.608117 
L 135.616341 243.455179 
L 135.942719 242.155646 
L 136.189532 243.645108 
L 136.709557 242.561881 
L 136.851539 242.992422 
L 137.186875 241.553878 
L 137.651651 242.164721 
L 138.038618 240.982333 
L 138.295559 241.839291 
L 138.708778 240.75754 
L 138.829443 241.227364 
L 139.219517 240.592627 
L 139.498141 241.186666 
L 139.892749 241.106144 
L 140.362644 238.646642 
L 140.590809 240.329697 
L 141.282763 241.136095 
L 141.882683 238.897153 
L 142.074977 239.610499 
L 142.476021 239.888728 
L 142.775926 240.79959 
L 142.948914 239.978304 
L 143.112798 237.851787 
L 143.569895 239.136964 
L 144.342365 238.203072 
L 144.741873 238.193311 
L 144.998119 238.501383 
L 145.449184 237.680841 
L 145.743823 236.877625 
L 146.157592 239.054358 
L 146.34846 237.576175 
L 146.7951 235.197764 
L 147.013429 235.24353 
L 147.261156 236.345618 
L 147.651852 236.213255 
L 147.978742 236.658001 
L 148.329106 236.765523 
L 148.721594 235.512492 
L 149.115178 236.995567 
L 149.460497 234.68646 
L 149.750419 236.673097 
L 150.04846 236.555344 
L 150.259841 235.513438 
L 150.35385 235.569107 
L 150.65178 235.993562 
L 150.833434 235.200695 
L 150.865026 237.049114 
L 150.699351 235.882388 
L 150.838371 236.825682 
L 150.780123 235.070951 
L 150.78846 237.249101 
L 150.918119 236.844561 
L 151.034358 237.164042 
L 151.289545 235.673068 
L 151.234259 238.254894 
L 151.046023 233.042875 
L 150.997208 238.275194 
L 151.222302 233.461306 
L 151.229651 237.794738 
L 151.0073 233.734913 
L 151.093082 237.843385 
L 151.144967 236.340493 
L 151.180508 235.030296 
L 151.257843 239.190783 
L 151.502901 233.874203 
L 151.781854 235.039705 
L 152.47644 233.914865 
L 152.871231 232.737558 
L 153.035554 235.24681 
L 153.844991 232.391778 
L 154.45928 227.768637 
L 155.494907 232.562715 
L 156.635512 232.77284 
L 156.62754 233.780529 
L 156.746742 233.245248 
L 156.730837 233.317265 
L 156.868942 231.527088 
L 157.282381 230.901379 
L 157.679914 233.139417 
L 158.257237 232.012862 
L 158.579959 230.242496 
L 159.017495 230.077417 
L 159.315681 229.665719 
L 159.583226 234.192879 
L 159.906605 234.224002 
L 160.373137 228.913313 
L 160.795242 228.886246 
L 161.044907 230.043154 
L 161.422695 228.965779 
L 161.737299 226.465538 
L 162.252864 227.190937 
L 163.092357 229.267228 
L 163.994375 227.247082 
L 163.93536 228.454795 
L 164.066958 227.318795 
L 164.715398 230.185693 
L 165.148911 227.376905 
L 165.435982 226.296118 
L 165.671826 225.94737 
L 166.270758 225.780577 
L 166.649534 225.452199 
L 166.919602 226.3183 
L 167.365107 225.846866 
L 168.059329 223.052227 
L 168.498656 223.306547 
L 168.957179 222.835552 
L 169.66449 224.079886 
L 170.057526 225.822964 
L 170.413485 223.859619 
L 171.060464 222.844404 
L 171.526447 219.6301 
L 172.066583 224.01837 
L 173.137312 223.735814 
L 173.318857 223.518451 
L 173.334324 222.803371 
L 173.810508 221.004347 
L 174.229761 221.018115 
L 174.701264 220.502627 
L 175.128379 219.065263 
L 175.69199 220.032596 
L 176.341821 219.057322 
L 176.798041 220.431417 
L 177.073594 220.602752 
L 177.360007 219.216453 
L 177.598521 220.332756 
L 178.58376 217.322142 
L 178.923265 219.494649 
L 179.253336 220.389718 
L 179.529986 220.139737 
L 179.822651 219.701304 
L 179.888029 216.363379 
L 179.997065 222.063066 
L 180.48378 220.302237 
L 180.563748 219.479711 
L 180.11038 218.49048 
L 180.099849 221.05933 
L 180.085918 219.269184 
L 179.969203 219.694206 
L 179.811243 214.760621 
L 179.878705 220.176922 
L 180.45142 222.327063 
L 180.441438 218.846046 
L 179.863567 220.92912 
L 179.863567 217.968463 
L 179.738296 218.25954 
L 179.856547 220.067082 
L 180.206692 217.846412 
L 180.121788 220.799016 
L 180.094694 215.491079 
L 180.067599 216.342306 
L 180.557385 220.553025 
L 181.086591 221.318322 
L 180.581079 219.822886 
L 180.570768 220.288023 
L 180.482354 215.826095 
L 180.480561 220.430902 
L 181.163009 220.830719 
L 180.440012 218.420391 
L 180.231373 218.732984 
L 180.322749 218.762387 
L 180.757359 216.177111 
L 180.974664 218.16711 
L 181.359473 215.803503 
L 181.513703 217.353384 
L 181.799129 216.087966 
L 182.209825 212.368555 
L 182.427679 216.099988 
L 183.407471 217.707299 
L 183.997008 215.914677 
L 184.373332 215.807219 
L 184.708669 214.32213 
L 185.192384 215.240795 
L 185.759872 214.913264 
L 186.375259 212.782278 
L 187.160782 214.198467 
L 187.807651 213.727008 
L 188.116442 212.349299 
L 188.630471 211.698604 
L 188.938274 212.166004 
L 189.490877 212.525726 
L 189.84852 210.311843 
L 190.275012 211.325266 
L 190.684064 210.110418 
L 190.949815 210.249612 
L 191.571383 210.755588 
L 192.230648 209.597995 
L 192.731333 210.206787 
L 193.09197 211.528984 
L 193.439154 209.120138 
L 193.488955 209.918382 
L 193.998009 207.712048 
L 194.640529 207.946233 
L 194.797063 207.355046 
L 195.387001 207.981505 
L 195.77883 207.540593 
L 196.189966 208.160642 
L 196.87055 200.43523 
L 197.800063 211.066979 
L 199.164555 207.136968 
L 199.113547 207.446129 
L 198.889221 205.079107 
L 199.186165 206.438282 
L 199.677596 205.6443 
L 199.990665 203.516511 
L 200.369731 205.897574 
L 200.751068 204.548822 
L 201.344845 204.772812 
L 201.717955 203.140232 
L 202.409212 200.631965 
L 202.850952 202.991727 
L 203.563528 205.33537 
L 204.324919 201.634447 
L 204.673748 203.337438 
L 204.916392 201.883522 
L 205.392138 202.361284 
L 205.868761 202.324363 
L 206.114915 202.706661 
L 206.336937 200.576254 
L 207.150981 201.127165 
L 207.4533 200.354681 
L 208.103679 197.937894 
L 208.492656 199.085567 
L 208.953154 197.859113 
L 209.437785 200.056709 
L 209.632712 196.248357 
L 209.999531 197.904334 
L 210.590675 197.847206 
L 211.71329 197.103811 
L 212.018899 198.520814 
L 212.265164 197.40564 
L 212.37771 198.635307 
L 212.521301 197.003178 
L 212.702845 197.44354 
L 212.96699 198.981022 
L 212.909729 196.325619 
L 212.97101 198.845935 
L 212.707891 198.524191 
L 212.544117 199.654282 
L 212.523752 197.342254 
L 212.750672 198.3745 
L 212.789943 198.156787 
L 212.997156 197.826168 
L 212.960776 196.115814 
L 213.25055 193.393406 
L 214.123061 200.750353 
L 214.347606 198.424411 
L 214.021265 199.695039 
L 213.144915 198.928388 
L 212.887461 198.346723 
L 212.735534 196.861474 
L 212.789213 199.551114 
L 212.927829 196.730492 
L 212.948232 198.033749 
L 212.967867 199.403738 
L 212.961615 197.472121 
L 213.042899 198.197501 
L 212.806616 198.550949 
L 213.014049 198.479678 
L 213.238374 199.195092 
L 213.09621 199.288056 
L 213.118698 196.715573 
L 213.293331 197.955091 
L 213.370227 197.073185 
L 213.373847 198.93558 
L 213.47685 196.607517 
L 213.238155 197.422261 
L 213.330737 199.558015 
L 213.245834 199.280144 
L 213.069445 198.300381 
L 212.946258 196.767022 
L 213.385694 198.196341 
L 213.415641 198.062884 
L 213.497034 195.790805 
L 213.681212 195.176193 
L 214.181858 194.616534 
L 215.064241 194.583107 
L 215.397603 194.052844 
L 215.742812 190.779284 
L 216.166233 192.751156 
L 217.457778 195.892431 
L 218.244617 194.837566 
L 218.093168 193.239057 
L 218.493734 193.295585 
L 218.803731 194.446473 
L 219.072263 190.717083 
L 219.346061 191.263335 
L 219.746008 192.632032 
L 220.245118 190.208563 
L 220.782183 191.113915 
L 221.285901 191.586478 
L 221.625625 191.29379 
L 221.682008 189.766062 
L 222.116909 190.119456 
L 222.915195 189.203193 
L 223.396392 189.893117 
L 223.794397 188.562213 
L 224.047572 187.191879 
L 225.099357 187.517809 
L 225.719648 185.167736 
L 226.166653 187.176438 
L 227.082384 190.55311 
L 227.278408 188.636274 
L 226.73769 188.3346 
L 226.44089 190.769781 
L 226.265707 186.778338 
L 226.083834 189.294011 
L 226.111148 188.207109 
L 226.047415 185.772638 
L 226.521406 190.344068 
L 227.210617 187.346587 
L 226.781491 191.722109 
L 226.37255 188.248241 
L 226.083285 187.898828 
L 226.17137 189.755641 
L 226.172028 187.003448 
L 226.129609 188.773598 
L 226.313315 188.776944 
L 226.214919 188.235508 
L 226.04566 185.777651 
L 226.243001 189.527605 
L 226.450433 190.012313 
L 226.208666 188.750794 
L 226.230166 189.105308 
L 226.115097 189.282524 
L 225.824187 188.254061 
L 226.384287 187.881197 
L 226.597753 190.591203 
L 226.434857 186.115631 
L 226.039078 187.15112 
L 226.403813 185.721224 
L 226.694471 189.135671 
L 226.946472 182.383772 
L 227.35571 189.578035 
L 227.439879 187.995398 
L 227.003404 187.48534 
L 226.887457 189.415652 
L 226.852793 188.152005 
L 226.777323 188.107648 
L 226.628467 189.076758 
L 226.44078 188.433398 
L 226.590184 188.362551 
L 226.391417 189.3254 
L 226.444948 189.820325 
L 226.173783 187.105604 
L 226.069793 188.173693 
L 226.542028 188.339543 
L 226.7318 187.010005 
L 226.780724 185.746494 
L 227.475749 184.994847 
L 227.711153 184.946363 
L 228.152016 183.705286 
L 228.574121 184.474671 
L 229.314121 182.593754 
L 229.894186 185.429175 
L 230.705597 183.214556 
L 230.979362 184.262836 
L 231.532881 182.434923 
L 232.174189 182.05253 
L 232.867568 182.423809 
L 233.472973 180.818158 
L 233.914165 182.047888 
L 234.551052 181.573992 
L 234.694719 179.437767 
L 235.045774 176.906642 
L 235.622988 180.523265 
L 236.296512 178.737425 
L 236.574479 177.412886 
L 236.899175 179.361747 
L 237.484944 177.205073 
L 238.042412 177.411495 
L 238.516984 176.060915 
L 239.558578 175.794932 
L 240.123977 175.199468 
L 240.628353 176.130185 
L 241.61272 173.684085 
L 242.624104 175.687467 
L 242.835409 175.308667 
L 242.98207 174.547341 
L 243.190633 177.339174 
L 243.889464 172.930394 
L 244.427922 174.89144 
L 244.433659 174.819628 
L 244.359177 175.395194 
L 244.101833 174.910972 
L 244.146589 174.523984 
L 243.956597 174.38098 
L 244.490152 175.483084 
L 244.424006 176.197153 
L 243.936776 173.89312 
L 243.688723 175.636972 
L 243.795895 175.176087 
L 244.044276 174.739942 
L 244.145053 174.170982 
L 244.231931 174.959863 
L 244.104576 173.094016 
L 244.034371 175.57017 
L 244.026363 175.111747 
L 244.436731 176.089261 
L 244.311679 173.394797 
L 244.203301 173.756679 
L 244.343929 176.497998 
L 244.183446 176.102941 
L 244.172696 176.793029 
L 243.926761 176.000315 
L 243.81915 173.998806 
L 244.04172 177.267223 
L 244.222058 169.648847 
L 244.12092 177.105832 
L 244.790935 175.885343 
L 244.710342 174.57041 
L 244.333289 174.491247 
L 244.385942 173.985752 
L 244.562002 175.932804 
L 244.87167 174.178595 
L 244.671148 172.7535 
L 244.531617 174.123392 
L 244.496295 171.018112 
L 244.766912 174.257995 
L 245.319334 175.155107 
L 245.255601 175.609775 
L 244.948566 176.562981 
L 244.956212 174.596409 
L 244.860701 174.905813 
L 244.836348 174.858983 
L 244.694403 172.557715 
L 244.266079 173.135269 
L 244.63824 174.170172 
L 244.745631 173.520921 
L 244.853022 171.01512 
L 245.009337 170.884165 
L 245.715112 170.973505 
L 246.540893 170.848661 
L 246.929431 171.639713 
L 247.357131 171.331837 
L 247.806001 168.393281 
L 248.070804 169.372729 
L 248.192784 169.397119 
L 248.844261 171.513687 
L 249.159084 171.384255 
L 248.878299 171.574219 
L 248.970958 164.677273 
L 249.284904 172.429621 
L 249.769612 171.295156 
L 249.441438 170.720616 
L 249.316606 169.806408 
L 249.036884 171.70332 
L 249.173893 170.833195 
L 249.065295 166.967381 
L 248.635731 172.13852 
L 249.286001 171.731912 
L 249.293098 171.970974 
L 249.120033 171.889971 
L 249.013849 171.169517 
L 248.824516 168.582163 
L 248.974468 168.580666 
L 249.456686 170.779366 
L 249.440528 172.520043 
L 249.34743 171.704443 
L 249.345236 170.032206 
L 249.198684 170.4978 
L 249.297771 172.232765 
L 249.345236 169.399722 
L 249.002769 167.12361 
L 249.929031 171.017016 
L 249.892832 171.467793 
L 249.666202 170.568553 
L 249.691432 169.181526 
L 249.708215 171.850705 
L 249.676294 171.485702 
L 249.283917 172.929384 
L 249.01681 170.364579 
L 248.882544 170.427882 
L 248.789523 169.620606 
L 249.427869 170.514839 
L 249.343591 170.038246 
L 249.377782 171.196995 
L 249.240697 170.027694 
L 249.251634 171.478815 
L 249.462609 169.937682 
L 249.495408 170.831756 
L 249.628248 169.719849 
L 249.5666 171.639699 
L 249.27207 169.356954 
L 249.412588 167.644789 
L 249.51625 170.170352 
L 250.348942 168.36741 
L 250.726291 168.384587 
L 250.966961 167.020241 
L 251.183279 168.431455 
L 251.496018 168.079953 
L 251.989534 165.449963 
L 252.029463 167.01288 
L 252.275947 165.699849 
L 253.254533 165.472669 
L 254.004296 165.728021 
L 254.364971 162.715255 
L 254.73903 164.131672 
L 255.379976 164.236024 
L 256.250841 161.983187 
L 256.629288 162.775271 
L 257.305445 162.016099 
L 257.948146 161.799687 
L 258.058576 163.482423 
L 258.350506 162.396321 
L 258.804093 162.091283 
L 259.057159 163.65463 
L 259.132848 162.754904 
L 259.170802 163.454842 
L 259.275012 163.176225 
L 259.093358 155.731288 
L 259.187366 164.776458 
L 260.348923 162.837511 
L 259.888644 163.471258 
L 259.543325 162.627091 
L 259.470708 162.861173 
L 259.316916 161.430187 
L 259.345327 162.464082 
L 259.429901 163.79881 
L 259.176726 164.056354 
L 259.345656 162.319985 
L 259.33677 160.791154 
L 259.43385 162.440362 
L 259.843889 161.443247 
L 259.655324 164.68212 
L 259.601167 162.620575 
L 259.365181 162.861627 
L 259.309785 163.35782 
L 259.127363 162.83471 
L 259.174313 162.177136 
L 259.353554 161.408937 
L 259.460835 162.894212 
L 259.143818 163.021037 
L 259.175739 162.830141 
L 259.183198 160.521251 
L 259.113981 163.693001 
L 259.2364 163.240685 
L 259.337648 158.97126 
L 259.195155 162.829686 
L 259.738143 162.504537 
L 259.979252 163.14399 
L 259.333809 162.23211 
L 259.594772 162.704268 
L 259.769516 161.8369 
L 259.773903 162.284306 
L 259.813942 163.635122 
L 259.560218 162.052702 
L 259.461054 162.504886 
L 259.705564 161.13409 
L 259.857162 163.633051 
L 259.676604 159.547075 
L 259.694485 160.171195 
L 260.133373 161.940978 
L 260.567873 162.199453 
L 260.91012 159.081239 
L 261.210025 160.040789 
L 261.210135 159.686842 
L 261.404185 156.969524 
L 262.000814 159.759133 
L 262.80323 156.731031 
L 263.32859 156.935054 
L 264.056052 156.467039 
L 264.867902 156.380474 
L 265.285839 156.082361 
L 266.09725 155.8402 
L 266.422275 156.757377 
L 266.705726 155.363643 
L 267.045231 152.397911 
L 267.766473 153.936639 
L 268.051459 153.669807 
L 268.565598 152.362477 
L 268.690869 154.460075 
L 269.131403 153.084169 
L 269.426701 154.733551 
L 269.503706 154.678623 
L 269.478915 152.585427 
L 269.389076 154.308638 
L 269.61146 152.667924 
L 269.731213 154.526411 
L 269.919339 153.762297 
L 269.764889 153.731542 
L 269.687006 154.178926 
L 269.687522 153.899372 
L 269.972103 154.914496 
L 269.867344 155.486522 
L 269.727045 154.946393 
L 269.263585 154.912019 
L 269.47354 155.361854 
L 269.484729 153.248741 
L 269.565135 154.958412 
L 269.68196 153.981213 
L 269.627661 154.926641 
L 269.593985 152.485774 
L 269.43427 155.141706 
L 269.615485 153.274382 
L 269.382933 154.006261 
L 269.65944 154.800075 
L 269.827086 154.241897 
L 269.898936 153.148498 
L 269.821492 155.337089 
L 270.136974 154.401517 
L 269.860872 154.766365 
L 269.78255 147.105018 
L 269.846283 158.249032 
L 270.440169 155.186416 
L 270.543721 153.280199 
L 270.23877 153.452356 
L 270.184691 153.268437 
L 270.191492 154.811943 
L 270.168346 152.873309 
L 269.91561 153.108973 
L 269.965411 151.79035 
L 270.162203 152.18338 
L 270.346194 149.113588 
L 271.042503 151.503407 
L 271.64319 152.006339 
L 271.789742 153.80804 
L 272.232942 148.099661 
L 272.435953 150.613546 
L 272.696511 149.379987 
L 272.980148 150.331108 
L 273.448764 150.686939 
L 274.041334 149.549532 
L 274.734824 146.24289 
L 275.092099 148.876048 
L 275.416356 146.127587 
L 275.960661 148.159127 
L 276.235775 147.500018 
L 276.383972 146.323051 
L 276.862241 148.200533 
L 277.130993 146.485673 
L 277.503735 145.132725 
L 277.685828 148.445742 
L 277.876368 146.687605 
L 277.638473 147.547198 
L 277.424645 143.962631 
L 278.149946 148.493852 
L 277.760091 146.282232 
L 277.849822 149.017131 
L 277.579315 147.976356 
L 277.558253 146.215762 
L 277.310234 147.414196 
L 277.335134 145.815477 
L 277.429691 147.611383 
L 277.54147 145.926966 
L 277.846421 147.68823 
L 278.109798 147.814976 
L 278.142816 147.322984 
L 277.781668 146.422736 
L 277.876587 145.937984 
L 277.991766 147.100017 
L 278.137551 146.693862 
L 278.267758 145.755408 
L 278.020726 147.353567 
L 278.11616 146.685089 
L 277.738701 146.738638 
L 277.793439 146.361549 
L 278.040032 147.808729 
L 278.190533 145.37556 
L 278.111772 145.728758 
L 278.598926 143.484245 
L 279.188864 145.85032 
L 279.859646 143.588668 
L 280.051831 145.254605 
L 280.244784 138.379785 
L 280.460224 147.06629 
L 280.852712 148.005421 
L 281.376175 142.003411 
L 281.831846 139.422234 
L 282.07822 140.360383 
L 282.671449 140.442837 
L 283.574422 138.85044 
L 284.584962 137.427696 
L 285.272966 138.143476 
L 285.662601 138.260454 
L 286.532513 137.844411 
L 287.137446 138.22015 
L 287.434608 137.129287 
L 287.605293 137.578664 
L 288.200716 135.20866 
L 288.618652 136.482135 
L 289.31258 134.079108 
L 289.671391 136.965955 
L 289.769897 135.908785 
L 290.047863 135.789094 
L 290.005082 137.749853 
L 289.93422 134.25005 
L 290.211385 135.440497 
L 290.418302 137.863924 
L 290.405468 136.432183 
L 290.095032 137.14371 
L 289.871803 137.136106 
L 289.763206 135.526016 
L 290.204068 136.415939 
L 290.140775 136.827929 
L 290.38762 135.921591 
L 290.324733 137.737798 
L 290.406016 134.604993 
L 290.410952 136.178834 
L 290.069144 135.821535 
L 290.263194 137.403653 
L 290.46196 136.162838 
L 290.351059 134.808862 
L 290.666431 136.153681 
L 290.081649 137.86011 
L 290.144537 135.063214 
L 290.230176 137.627041 
L 290.127205 138.433567 
L 290.17105 137.688321 
L 289.957256 137.58177 
L 289.568059 137.05844 
L 289.702325 135.449784 
L 290.223046 135.809942 
L 290.29325 137.299008 
L 290.456147 136.703457 
L 290.67049 136.86877 
L 290.623321 135.795671 
L 290.445616 135.96904 
L 290.429897 132.843507 
L 290.552239 132.323346 
L 291.3959 133.024819 
L 292.124712 138.106622 
L 292.462022 133.697696 
L 291.656787 132.941292 
L 291.872853 134.835486 
L 292.144127 133.662154 
L 292.003499 133.499622 
L 292.35507 138.812825 
L 292.28673 134.506923 
L 291.649767 133.73846 
L 291.917279 135.632936 
L 292.293093 135.258158 
L 292.221462 135.114479 
L 291.941412 128.613952 
L 292.268664 129.339452 
L 293.707824 130.677892 
L 294.645275 125.876478 
L 295.783356 130.022791 
L 296.429787 129.722062 
L 296.791669 127.724466 
L 297.26182 128.528684 
L 298.079122 128.430001 
L 298.206291 127.443595 
L 298.513293 128.190316 
L 299.532938 125.233642 
L 299.725858 126.380135 
L 300.389104 126.30933 
L 301.072392 124.49912 
L 301.421221 125.525659 
L 302.015985 122.128312 
L 302.147838 122.406567 
L 302.799314 124.685133 
L 303.485345 126.540495 
L 303.685647 123.034483 
L 303.516059 127.474307 
L 303.590761 125.110992 
L 303.324313 123.11214 
L 303.184013 125.546731 
L 303.368081 126.782406 
L 303.322229 124.323597 
L 303.626631 123.468538 
L 303.639027 127.026577 
L 303.376857 123.920474 
L 303.617527 128.061994 
L 303.584289 124.049619 
L 303.373237 123.795037 
L 303.201235 125.206061 
L 303.081778 120.898312 
L 303.344716 123.858278 
L 303.627728 125.215195 
L 303.899003 123.573422 
L 304.031514 125.593929 
L 303.926865 123.672655 
L 303.929937 118.829108 
L 303.958128 123.746384 
L 304.460639 126.184498 
L 304.58602 124.698429 
L 304.117657 124.262111 
L 303.950998 125.036689 
L 303.562131 123.964788 
L 303.379709 125.260675 
L 303.604144 126.336745 
L 303.636942 121.70211 
L 303.723854 122.588421 
L 304.136053 122.537732 
L 304.758351 121.109747 
L 304.769539 120.737695 
L 305.549029 121.046979 
L 305.532795 119.82242 
L 305.947363 119.628127 
L 306.526957 119.59759 
L 307.009613 118.853916 
L 307.522326 119.002507 
L 308.20704 117.613986 
L 308.576305 117.410821 
L 309.005617 116.6703 
L 309.445711 116.528508 
L 309.644149 115.746558 
L 310.065958 115.367387 
L 310.823805 115.396834 
L 311.053505 114.721002 
L 311.373485 114.452603 
L 311.918009 113.780254 
L 312.696369 114.771603 
L 313.544999 113.358044 
L 314.106965 113.487324 
L 314.228726 109.472364 
L 314.570205 112.822582 
L 315.53124 112.841121 
L 315.487581 113.159481 
L 315.112426 113.992035 
L 315.147967 110.945699 
L 315.183508 114.025874 
L 315.704557 113.799872 
L 315.79714 114.498569 
L 315.762366 113.403528 
L 315.598373 114.12981 
L 315.566561 113.26329 
L 315.421984 113.275673 
L 314.905871 113.802372 
L 314.762171 114.137449 
L 315.022399 113.187461 
L 315.115168 113.615094 
L 314.942509 114.77991 
L 315.025548 113.173844 
L 315.010519 109.19599 
L 315.035969 114.039865 
L 315.705215 113.791975 
L 315.616472 112.055807 
L 315.423849 113.632824 
L 315.044415 112.912392 
L 315.124711 113.182177 
L 315.075897 114.194801 
L 315.28684 112.063512 
L 315.203692 113.728079 
L 315.156962 113.095663 
L 315.264133 111.697485 
L 314.987451 112.683273 
L 315.304501 112.662835 
L 315.754907 112.497339 
L 315.667371 113.353845 
L 315.450505 112.162184 
L 315.813155 112.578247 
L 315.857581 113.933078 
L 315.830158 112.531071 
L 315.645432 111.559645 
L 315.660679 110.594458 
L 315.915061 110.85959 
L 316.064794 111.635986 
L 316.218213 107.64267 
L 316.478014 110.349539 
L 317.058737 109.640414 
L 317.70791 108.46453 
L 318.172247 108.740954 
L 318.384506 108.446987 
L 319.395891 102.258072 
L 320.196223 102.876862 
L 321.486188 104.029527 
L 322.603362 103.771286 
L 323.143717 104.681534 
L 323.463258 103.833693 
L 323.49101 104.549224 
L 323.750877 104.688695 
L 323.933694 104.375846 
L 323.874503 105.218503 
L 323.643925 104.109337 
L 323.591162 104.924544 
L 323.986874 104.564643 
L 323.95085 103.751836 
L 323.5701 104.964907 
L 323.816913 105.295127 
L 323.937797 104.836637 
L 323.768977 104.836598 
L 323.941636 104.415609 
L 324.235508 104.846098 
L 323.970595 105.126017 
L 323.864082 104.409023 
L 323.755155 104.832045 
L 323.857281 104.829822 
L 324.24198 104.316564 
L 324.480127 105.04686 
L 324.415517 105.047624 
L 324.554609 104.627816 
L 324.397636 104.595745 
L 324.271159 104.741522 
L 324.138099 104.493278 
L 324.286406 104.995679 
L 324.204245 104.092386 
L 324.332258 105.181641 
L 324.183622 104.888868 
L 324.077438 104.447372 
L 324.142158 104.98357 
L 324.241585 104.547159 
L 324.173421 104.724188 
L 324.040361 104.781143 
L 324.010349 104.696022 
L 323.891067 103.815892 
L 323.941746 105.209069 
L 323.961271 104.478977 
L 324.093453 104.439969 
L 324.150056 104.988482 
L 324.071295 103.866276 
L 324.024675 105.028898 
L 324.037619 104.472837 
L 324.149507 104.910608 
L 324.264248 104.434704 
L 323.912633 104.460458 
L 324.033889 104.517639 
L 324.204464 104.632339 
L 324.225087 104.380663 
L 324.113089 104.649456 
L 323.995606 104.689603 
L 324.010853 104.429485 
L 323.955677 105.052698 
L 323.898197 104.9757 
L 323.818778 104.692539 
L 323.99396 104.17193 
L 324.048522 104.554224 
L 323.635478 104.941499 
L 323.987927 104.332098 
L 324.008659 104.984139 
L 323.912567 104.195652 
L 324.232327 104.707264 
L 324.348713 104.49245 
L 324.267977 104.352745 
L 324.134808 104.825499 
L 324.125265 104.719555 
L 324.054578 104.584787 
L 324.071514 104.896174 
L 324.01546 104.873808 
L 323.879439 104.484155 
L 323.635917 104.690753 
L 323.648971 104.643852 
L 323.889202 104.064404 
L 323.984197 104.73472 
L 324.04782 104.064363 
L 324.061422 105.028811 
L 323.734203 104.433373 
L 323.485526 104.588372 
L 323.656869 105.073248 
L 323.761408 104.508637 
L 323.581289 104.203082 
L 323.752632 104.909815 
L 323.813184 104.862631 
L 323.966208 104.119685 
L 323.856732 105.074405 
L 324.012389 104.54923 
L 323.842911 104.26811 
L 323.720162 104.878957 
L 323.400841 104.800791 
L 323.51646 104.415095 
L 323.565603 105.007266 
L 323.388227 105.09198 
L 323.202075 104.61521 
L 323.316925 104.683099 
L 323.38702 104.422121 
L 323.314951 105.058046 
L 323.543006 104.333096 
L 323.360913 104.548062 
L 323.363107 105.240369 
L 323.437041 104.496373 
L 323.564616 104.749236 
L 323.551781 104.365826 
L 323.452069 105.157495 
L 323.354002 104.399316 
L 323.18211 104.47286 
L 323.028757 104.247663 
L 323.196809 104.435777 
L 323.277808 105.13315 
L 323.207779 104.088517 
L 323.490352 105.480691 
L 323.55233 104.795918 
L 323.371838 104.685648 
L 323.496385 104.191583 
L 323.696688 104.653219 
L 323.614088 105.008073 
L 323.547393 104.650045 
L 323.834135 104.554503 
L 323.475324 104.696756 
L 323.602789 105.06831 
L 323.363984 104.382467 
L 323.148873 104.413918 
L 323.392614 105.374133 
L 323.220394 104.527661 
L 322.988126 105.889129 
L 322.736202 104.008866 
L 323.252271 105.078974 
L 323.061995 104.67604 
L 323.240139 104.652921 
L 323.406107 104.927922 
L 323.629116 103.870372 
L 323.348846 104.779529 
L 323.202843 104.313846 
L 323.21447 104.555886 
L 323.220833 104.897002 
L 323.553756 104.805922 
L 323.649409 105.417875 
L 323.612223 104.304028 
L 323.300251 104.924141 
L 323.210807 105.068188 
L 323.120243 104.372433 
L 323.358828 104.377309 
L 323.1657 104.681189 
L 323.148324 104.233549 
L 323.16774 105.16305 
L 323.377477 104.392051 
L 323.477518 104.908179 
L 323.579534 104.875387 
L 323.271073 104.564298 
L 323.193628 104.723833 
L 323.312976 105.217819 
L 323.152449 104.190012 
L 323.016362 104.678443 
L 323.20756 104.84767 
L 323.318022 104.387222 
L 323.094355 104.651398 
L 322.715579 104.125876 
L 322.708888 105.256202 
L 323.031609 104.931546 
L 323.293889 104.435338 
L 323.103021 104.771138 
L 323.464355 104.410325 
L 323.352027 104.564586 
L 323.298431 104.915482 
L 323.080204 104.356842 
L 323.275131 104.78241 
L 323.264162 104.163328 
L 323.227195 104.725492 
L 322.782822 104.762735 
L 322.782603 105.503622 
L 322.700222 104.31768 
L 322.098657 104.411343 
L 322.885167 105.23741 
L 323.010724 104.191496 
L 322.635173 104.326839 
L 322.84458 104.555548 
L 322.986591 104.912588 
L 322.82659 104.417041 
L 322.806406 104.689126 
L 322.827248 103.796336 
L 322.756824 105.610498 
L 322.623436 104.95135 
L 322.851052 104.545296 
L 322.931019 105.090034 
L 322.66863 105.174835 
L 322.709107 104.575386 
L 322.722709 105.275728 
L 322.962392 104.78158 
L 322.855988 105.246181 
L 322.874856 104.360581 
L 322.773608 104.982515 
L 322.522517 104.623614 
L 322.564091 105.271782 
L 322.889445 104.388625 
L 322.590089 104.954034 
L 322.369756 104.278508 
L 322.522188 105.324472 
L 322.777447 104.546738 
L 322.728304 105.528885 
L 322.812396 105.087953 
L 322.609614 104.345537 
L 322.549063 105.416993 
L 322.522626 104.129089 
L 322.376623 105.453483 
L 322.753424 104.303133 
L 323.449217 104.222987 
L 323.077681 105.396811 
L 322.693048 103.849664 
L 322.533969 104.731641 
L 322.531512 104.647531 
L 322.702196 104.898598 
L 322.752151 104.262695 
L 322.651627 104.959297 
L 322.815994 104.852208 
L 323.141743 104.317658 
L 323.129786 105.044463 
L 323.107628 104.29284 
L 323.080753 104.699974 
L 322.918953 104.630592 
L 322.868055 104.350301 
L 322.498757 105.017847 
L 322.512863 103.997074 
L 322.672908 104.824952 
L 322.794011 104.497595 
L 322.695615 104.956152 
L 322.653821 104.335205 
L 322.288648 104.840175 
L 322.555425 104.646037 
L 322.552727 104.962602 
L 322.393625 104.388905 
L 322.292377 105.389142 
L 322.373332 105.018776 
L 322.583222 104.365761 
L 322.554657 104.827018 
L 322.354245 105.033923 
L 322.217017 104.93933 
L 322.294571 104.302529 
L 322.279762 104.377151 
L 322.386276 105.609613 
L 322.368001 104.0793 
L 322.839973 104.615785 
L 322.552792 105.367192 
L 322.477761 104.111466 
L 322.505185 105.157554 
L 322.656783 103.998123 
L 322.395051 104.912556 
L 322.340314 104.751339 
L 322.396368 104.140319 
L 322.443317 104.998654 
L 322.49992 104.17253 
L 322.935188 104.691257 
L 322.648446 104.58022 
L 322.461746 105.230225 
L 322.517251 104.380708 
L 322.672798 105.203043 
L 322.615538 104.322517 
L 322.667686 104.695157 
L 322.33077 104.385526 
L 322.604415 104.072983 
L 322.432567 105.238591 
L 322.64566 104.280804 
L 322.658538 104.978555 
L 322.577474 104.237818 
L 322.211489 104.902403 
L 322.510231 104.058952 
L 322.50705 104.610374 
L 322.319143 105.066039 
L 322.367847 104.171839 
L 322.281298 104.758749 
L 322.222392 104.731748 
L 322.263308 104.404475 
L 322.466682 105.530975 
L 322.461088 104.184012 
L 322.164583 105.215031 
L 322.250693 103.779917 
L 322.262826 104.960521 
L 322.540068 104.199147 
L 322.461856 104.696551 
L 322.499371 105.512064 
L 322.459881 104.597932 
L 322.351174 104.925263 
L 322.291434 104.735167 
L 321.997079 105.159946 
L 322.217785 105.535059 
L 322.174236 104.896761 
L 321.824201 105.094399 
L 322.228645 104.207856 
L 322.311793 104.989153 
L 322.320459 104.03204 
L 321.90724 104.673047 
L 321.950569 104.308882 
L 322.133978 104.084922 
L 322.242137 104.980523 
L 322.528221 105.163513 
L 322.482368 105.06021 
L 322.159866 104.620224 
L 321.937625 105.403937 
L 322.29863 104.657548 
L 322.43147 105.207598 
L 322.211203 104.457809 
L 322.175114 104.582028 
L 322.15482 105.369972 
L 322.210326 104.267383 
L 322.225244 104.899855 
L 322.367847 104.834302 
L 322.223204 104.18863 
L 322.432567 105.130208 
L 322.33461 104.528792 
L 322.20177 105.177033 
L 322.209119 104.13622 
L 322.212739 104.359295 
L 322.062457 105.006919 
L 322.255081 104.743791 
L 322.038983 105.379019 
L 321.892979 105.006505 
L 321.620893 105.424794 
L 321.435882 104.489639 
L 321.577497 105.405661 
L 321.730851 104.771322 
L 322.015947 105.04205 
L 322.516154 105.001245 
L 322.283711 104.778049 
L 322.063664 105.52024 
L 322.106116 104.125255 
L 322.496629 104.842457 
L 322.876062 104.441179 
L 322.881723 104.541489 
L 322.506282 104.5025 
L 322.516703 104.338223 
L 322.424121 105.009847 
L 322.746074 104.489074 
L 322.570343 105.725329 
L 322.594038 104.430498 
L 322.421927 105.113078 
L 322.290513 104.336167 
L 322.088565 104.561502 
L 322.130534 105.516222 
L 322.15855 104.725413 
L 322.252887 105.324431 
L 322.486471 103.856768 
L 322.465037 105.154273 
L 322.399659 104.702702 
L 322.582849 105.123604 
L 322.339875 104.4366 
L 321.844165 104.781546 
L 322.268025 103.974593 
L 322.333337 104.17865 
L 322.003771 104.836866 
L 322.069039 104.132756 
L 322.314536 105.411097 
L 322.341959 104.082454 
L 322.246679 105.136021 
L 321.923913 104.865472 
L 322.090978 105.243398 
L 322.304334 105.132251 
L 322.175223 104.091561 
L 322.257385 105.200681 
L 322.488402 104.515065 
L 322.624533 105.02338 
L 322.277459 105.53765 
L 322.347005 104.362745 
L 322.440575 104.880281 
L 322.167655 104.569212 
L 321.904936 104.751271 
L 322.035187 105.527675 
L 322.343166 104.545992 
L 322.281956 104.828955 
L 321.865226 104.805503 
L 322.177198 105.077254 
L 322.189923 104.132456 
L 322.222502 105.12996 
L 322.472715 104.365438 
L 322.078188 104.538119 
L 322.427082 104.524574 
L 322.540068 104.876454 
L 322.433006 105.205077 
L 322.329783 104.629753 
L 322.370699 105.367582 
L 322.665339 104.416929 
L 322.382437 105.105194 
L 322.089552 104.900852 
L 322.010462 105.116043 
L 322.103264 104.329397 
L 321.955944 104.651977 
L 321.81005 105.310037 
L 321.826833 104.285714 
L 322.010133 105.61386 
L 322.079131 104.926108 
L 322.046508 105.098173 
L 321.802701 104.496272 
L 321.919087 104.680917 
L 322.232703 104.945492 
L 321.977773 104.057405 
L 322.246964 105.465277 
L 322.156795 103.972953 
L 321.877797 104.328541 
L 322.031085 104.543801 
L 322.083892 105.483296 
L 322.002784 104.918256 
L 322.151859 104.412453 
L 322.389128 104.782226 
L 322.454396 104.184178 
L 322.454396 104.184178 
" clip-path="url(#pdd306ce397)" style="fill: none; stroke: #e0e0e0; stroke-width: 1.5; stroke-linecap: square"/>
   </g>
   <g id="line2d_30">
    <path d="M 59.420871 275.683964 
L 59.392494 275.698656 
L 59.439456 275.696304 
L 59.419791 275.699794 
L 59.47478 274.788665 
L 59.794796 274.344277 
L 60.495372 273.760322 
L 60.72475 274.252993 
L 61.291991 274.404648 
L 61.451789 274.399252 
L 61.60152 274.407137 
L 61.602568 274.378211 
L 61.687569 274.35911 
L 61.693782 274.292582 
L 61.745941 274.183277 
L 62.50729 273.516572 
L 62.967971 273.362443 
L 63.733544 273.362792 
L 64.472503 273.373242 
L 64.472182 273.361038 
L 64.517961 273.376273 
L 65.144108 273.347071 
L 65.026149 273.276161 
L 65.352042 273.061284 
L 66.197505 272.691116 
L 66.165377 272.644962 
L 66.065084 272.506999 
L 66.400399 272.401718 
L 66.676566 272.297963 
L 66.581073 272.258168 
L 66.46759 272.219184 
L 66.641888 272.178679 
L 68.566122 271.981856 
L 69.755453 271.838107 
L 70.185494 271.448374 
L 70.729299 271.053538 
L 72.065355 270.467953 
L 77.854491 268.278468 
L 79.796045 267.890354 
L 80.706437 267.896591 
L 81.705289 267.863867 
L 81.888077 267.718864 
L 82.469412 267.134323 
L 82.819941 266.902862 
L 84.99769 265.785804 
L 86.29097 265.242495 
L 86.875433 265.049251 
L 89.861579 263.930908 
L 94.543977 262.069858 
L 95.642512 261.816072 
L 97.589789 261.641676 
L 98.285858 260.927338 
L 99.479233 260.199126 
L 102.571029 258.758991 
L 106.70255 256.929463 
L 111.323695 255.044161 
L 113.279347 254.796547 
L 113.648172 254.933779 
L 113.652736 254.861146 
L 113.739319 254.491909 
L 114.32794 253.973337 
L 115.403347 253.350838 
L 119.958021 250.98201 
L 120.910283 250.543612 
L 121.392179 250.266188 
L 123.523521 249.206544 
L 125.00969 248.277448 
L 125.259121 248.198085 
L 125.768441 247.868319 
L 126.313857 247.648347 
L 126.827954 247.271464 
L 128.657426 246.304696 
L 128.936285 246.345361 
L 130.275342 245.654767 
L 130.805181 245.467745 
L 131.057881 245.310856 
L 131.328651 244.964567 
L 133.357668 244.33023 
L 133.974393 243.98456 
L 135.919 242.982218 
L 136.260941 243.03609 
L 138.269888 241.481068 
L 138.620545 241.381494 
L 139.679196 240.630594 
L 141.021926 240.095807 
L 141.700329 239.794743 
L 144.378628 238.458825 
L 145.68725 237.404377 
L 146.035004 237.33196 
L 146.378451 237.090328 
L 146.709838 237.001234 
L 147.38495 236.665446 
L 148.649298 236.099929 
L 148.948296 235.941564 
L 149.472882 236.118382 
L 150.532191 236.119126 
L 150.620035 236.289336 
L 150.688681 236.182527 
L 150.825024 236.216284 
L 150.894851 236.4028 
L 150.927504 236.225178 
L 150.956758 236.369741 
L 150.970601 236.117554 
L 150.981915 236.307263 
L 151.104066 235.759328 
L 151.111891 235.970323 
L 151.129098 236.121172 
L 151.153414 235.84273 
L 151.202469 235.975852 
L 151.466445 235.419378 
L 151.601662 235.520171 
L 152.374476 234.130039 
L 153.397322 233.657287 
L 154.118571 233.03624 
L 154.83476 232.606244 
L 155.182843 232.364223 
L 155.888808 232.264213 
L 156.631936 231.670373 
L 156.996649 231.488636 
L 157.362553 231.742892 
L 157.725708 232.17325 
L 158.93446 231.136394 
L 159.268224 230.679612 
L 159.627152 230.390535 
L 160.022733 230.279224 
L 160.887229 229.723296 
L 161.274544 229.410359 
L 162.431298 229.180897 
L 163.20583 228.102671 
L 165.571721 226.777764 
L 166.262994 226.086283 
L 166.644936 225.794622 
L 167.044307 225.6949 
L 168.239269 224.603644 
L 168.6453 224.159243 
L 170.401658 223.53108 
L 171.21673 223.045351 
L 172.041599 222.722816 
L 172.854846 222.201644 
L 173.273799 221.750601 
L 174.543317 221.088986 
L 174.948122 221.135829 
L 176.492249 219.912362 
L 177.286333 219.721623 
L 177.663551 219.411307 
L 178.373631 219.597801 
L 179.544541 219.507959 
L 179.692056 219.136483 
L 179.800061 219.247112 
L 179.924572 219.580774 
L 180.025783 219.537534 
L 180.066465 219.573494 
L 180.030625 219.178906 
L 180.080982 219.579538 
L 180.031385 219.332808 
L 180.02982 218.766466 
L 180.069032 218.823721 
L 180.154056 219.260901 
L 180.208837 219.101363 
L 180.252698 218.866818 
L 180.408723 219.14628 
L 180.44762 219.0365 
L 180.656947 218.737665 
L 180.753354 218.80507 
L 181.223239 217.490507 
L 181.457549 217.496412 
L 182.602313 216.230558 
L 184.196436 215.046077 
L 184.626315 214.907644 
L 185.52192 214.281414 
L 185.970483 214.267911 
L 186.441363 214.029627 
L 186.870766 213.536596 
L 189.428099 211.678298 
L 189.87588 211.594745 
L 190.752971 211.039443 
L 191.600601 210.344908 
L 192.860819 209.444029 
L 193.283582 209.300616 
L 193.723285 208.574613 
L 194.197685 208.638384 
L 195.697352 207.982065 
L 197.363501 206.642325 
L 198.195651 206.294866 
L 198.63217 206.122717 
L 199.940325 204.994796 
L 200.386524 205.321472 
L 201.154934 204.365061 
L 201.922124 203.805029 
L 203.230313 203.153737 
L 203.653397 202.95772 
L 205.346263 201.758547 
L 205.751826 201.655454 
L 209.344903 198.694659 
L 209.747621 198.565263 
L 210.49459 198.056426 
L 211.968642 197.699823 
L 212.162736 197.926885 
L 212.475017 197.924566 
L 212.669527 198.020493 
L 212.798012 197.592677 
L 213.177423 198.113945 
L 213.216774 198.614681 
L 213.191243 197.98993 
L 213.068891 198.514682 
L 213.007221 198.487549 
L 213.015953 198.161997 
L 213.058507 198.30027 
L 213.158941 198.108453 
L 213.207126 198.187578 
L 213.241848 198.333885 
L 213.273791 198.023683 
L 213.293587 198.113504 
L 213.450275 197.331327 
L 213.711312 196.807817 
L 214.064565 195.833706 
L 217.812928 192.960334 
L 218.700189 192.540639 
L 219.119149 192.254854 
L 219.544089 192.210865 
L 219.99402 191.974335 
L 222.434876 189.527968 
L 222.889582 189.255508 
L 224.58826 188.77236 
L 224.897599 188.47133 
L 225.457336 188.31237 
L 225.666151 188.083667 
L 225.874485 188.11373 
L 226.102233 188.032688 
L 226.490323 188.722518 
L 226.331051 188.529731 
L 226.343234 188.751909 
L 226.316147 188.68114 
L 226.22962 188.746922 
L 226.218446 188.428073 
L 226.209583 188.437918 
L 226.302043 187.868226 
L 226.38938 188.121585 
L 226.469172 188.019438 
L 226.628492 187.799961 
L 226.743014 187.727999 
L 226.683232 188.545143 
L 226.641638 188.373941 
L 226.591712 188.097751 
L 226.788256 187.249287 
L 227.317313 186.374607 
L 229.789211 183.809311 
L 231.255197 182.924439 
L 231.744172 182.388457 
L 232.242237 182.176322 
L 233.708086 181.043953 
L 235.142645 179.720985 
L 238.101065 177.120392 
L 238.629691 176.870372 
L 239.149 176.76384 
L 239.639605 176.365445 
L 240.099213 176.272228 
L 241.538112 175.49113 
L 242.76274 175.103543 
L 243.555718 174.861093 
L 243.879246 175.029316 
L 244.023645 174.93158 
L 244.0779 174.973496 
L 244.130775 174.797656 
L 244.147595 175.023886 
L 244.166687 175.312912 
L 244.16872 174.92347 
L 244.243702 174.976164 
L 244.278553 174.993669 
L 244.313736 174.839042 
L 244.408147 174.105623 
L 244.471331 174.122903 
L 244.556505 173.982095 
L 244.630549 174.185186 
L 244.678983 174.646128 
L 244.74772 174.432769 
L 245.027093 173.536839 
L 245.307114 173.107403 
L 245.68529 172.146953 
L 246.166632 171.574192 
L 246.454814 171.342543 
L 246.733741 171.276977 
L 247.047399 170.71311 
L 248.285154 170.357205 
L 248.682139 170.404829 
L 248.82453 170.09334 
L 248.90977 170.147119 
L 249.15174 170.709101 
L 249.140741 170.49935 
L 249.147152 170.29978 
L 249.195237 170.894248 
L 249.219707 170.55992 
L 249.384141 170.258088 
L 249.443054 170.475991 
L 249.478325 170.812994 
L 249.390525 170.407932 
L 249.417603 170.789374 
L 249.268811 170.577399 
L 249.466064 170.175615 
L 249.664189 169.78692 
L 251.705345 166.91107 
L 253.399396 165.37382 
L 254.303418 164.601217 
L 256.109326 163.347808 
L 257.625064 162.909461 
L 257.915353 162.349436 
L 259.424299 162.473817 
L 259.443511 162.394447 
L 259.463709 162.504142 
L 259.465296 162.496642 
L 259.476763 163.007673 
L 259.37637 162.828197 
L 259.390428 162.92851 
L 259.376653 162.314525 
L 259.416333 162.291843 
L 259.444357 162.350201 
L 259.467897 162.399595 
L 259.514678 162.313355 
L 259.549503 162.354211 
L 259.643526 162.332046 
L 259.673414 162.631582 
L 259.721206 162.114457 
L 259.803477 162.11228 
L 260.188966 161.133466 
L 260.351672 160.980562 
L 261.095945 159.837968 
L 262.114072 158.558226 
L 262.990635 158.083513 
L 263.428791 157.645024 
L 263.860615 156.991588 
L 264.773801 156.223883 
L 265.264165 155.735592 
L 265.749944 155.568295 
L 266.225317 155.123297 
L 267.441038 154.695834 
L 268.358628 154.077031 
L 268.83403 153.789773 
L 269.037975 153.680966 
L 269.339152 153.801034 
L 269.448223 153.816339 
L 269.661438 154.402426 
L 269.586867 154.441069 
L 269.632844 154.344007 
L 269.5772 154.396229 
L 269.649605 154.118078 
L 269.720227 154.234584 
L 269.734721 153.711024 
L 269.799843 154.012864 
L 269.863159 154.065825 
L 270.070455 153.629029 
L 270.188386 153.006286 
L 270.417392 152.782719 
L 270.580751 152.849028 
L 271.066247 151.756295 
L 271.537356 151.324007 
L 272.11092 150.464455 
L 273.20598 149.536459 
L 273.598618 149.428888 
L 275.010123 148.143857 
L 276.015993 147.63425 
L 276.281052 147.185963 
L 276.533576 146.984547 
L 277.00478 147.001381 
L 277.182647 146.82846 
L 277.563102 147.099705 
L 277.638813 147.112573 
L 277.685214 146.980255 
L 277.706061 147.247565 
L 277.726969 147.300545 
L 277.734011 147.031609 
L 277.875312 146.748591 
L 277.922306 146.881475 
L 277.973028 146.73242 
L 278.028995 146.565885 
L 278.13134 146.178992 
L 278.526045 145.737447 
L 278.666527 145.183175 
L 279.001491 145.314024 
L 280.876331 142.657292 
L 282.314232 141.269627 
L 283.317784 140.454059 
L 283.821348 139.942329 
L 284.345644 139.764803 
L 285.379407 138.206075 
L 285.9085 137.677788 
L 286.431137 137.514036 
L 287.435676 136.907014 
L 287.864387 136.833641 
L 288.550232 136.441599 
L 289.125476 136.321016 
L 289.768644 136.159468 
L 290.158728 136.492059 
L 290.182605 136.413119 
L 290.293996 136.188085 
L 290.234917 136.476486 
L 290.354211 136.229929 
L 290.346454 136.21132 
L 290.237235 136.673797 
L 290.174512 136.586487 
L 290.177978 136.653433 
L 290.164766 136.922376 
L 290.280087 136.60698 
L 290.508418 135.69914 
L 290.635195 135.852252 
L 290.97822 135.257736 
L 291.204769 134.80169 
L 291.317074 134.931293 
L 292.193687 133.895863 
L 292.361724 133.08052 
L 293.570447 131.804612 
L 293.975489 131.466637 
L 294.36557 130.708689 
L 295.781365 129.122638 
L 296.821392 127.94376 
L 298.040294 127.415185 
L 298.594172 126.845213 
L 299.094343 126.613886 
L 299.562073 126.258042 
L 301.276434 125.441713 
L 301.929017 124.97671 
L 302.469877 124.92396 
L 302.729929 124.729854 
L 303.100221 124.739094 
L 303.236462 124.642719 
L 303.438995 125.147835 
L 303.464222 124.987884 
L 303.431928 125.132656 
L 303.483924 124.453941 
L 303.555622 124.600475 
L 303.700777 123.890046 
L 303.861265 123.964795 
L 303.885325 123.882043 
L 303.922482 124.338099 
L 303.957496 123.468484 
L 304.013675 123.27282 
L 304.121614 123.420678 
L 304.885988 121.619108 
L 305.542089 120.672398 
L 305.902187 120.027968 
L 307.55897 118.302225 
L 309.321081 116.636133 
L 310.717038 115.529613 
L 311.164131 114.89427 
L 312.484135 114.036142 
L 313.251698 113.69939 
L 313.588129 113.6077 
L 313.876406 113.310958 
L 315.314395 113.123579 
L 315.290148 113.634064 
L 315.271236 113.602032 
L 315.15379 113.190018 
L 315.130718 113.251293 
L 315.309245 112.872738 
L 315.356414 112.930448 
L 315.441412 112.711364 
L 315.847104 111.645612 
L 316.394958 110.83288 
L 317.175805 108.902262 
L 318.002592 107.65804 
L 320.034831 105.862845 
L 320.537009 105.665913 
L 322.245434 104.428099 
L 322.618925 104.169276 
L 322.94554 104.152727 
L 323.970481 104.690857 
L 324.288705 104.702491 
L 324.052442 104.582221 
L 324.071607 104.552418 
L 323.967841 104.652274 
L 323.954796 104.606436 
L 323.757649 104.665301 
L 323.622015 104.695805 
L 323.506594 104.661285 
L 323.340303 104.597392 
L 323.495395 104.717819 
L 323.510672 104.789912 
L 323.412686 104.754139 
L 323.255838 104.842613 
L 323.165172 104.856884 
L 323.19427 104.781008 
L 323.193783 104.659677 
L 323.28231 104.750558 
L 323.332048 104.610801 
L 323.240545 104.687062 
L 323.117059 104.647748 
L 323.065961 104.671047 
L 323.182311 104.616327 
L 323.035232 104.644124 
L 322.756372 104.619474 
L 322.815223 104.67599 
L 322.756308 104.974856 
L 322.626697 104.883505 
L 322.715775 104.631221 
L 322.845118 104.671167 
L 322.853895 104.62042 
L 322.708072 104.647142 
L 322.586979 104.644494 
L 322.391028 104.813541 
L 322.529005 104.542032 
L 322.498729 104.609465 
L 322.438689 104.587768 
L 322.435099 104.664119 
L 322.416677 104.6453 
L 322.269042 104.833651 
L 322.364751 104.580444 
L 322.235719 104.770884 
L 322.255388 104.829009 
L 322.111615 104.805323 
L 322.000111 104.982386 
L 322.26546 104.746683 
L 322.465214 104.783859 
L 322.499585 104.657169 
L 322.358099 104.818481 
L 322.326229 104.784182 
L 322.273782 104.615581 
L 322.204986 104.717406 
L 322.177811 104.648603 
L 322.264133 104.922103 
L 322.153358 104.838884 
L 322.000177 104.850917 
L 322.011227 104.826951 
L 322.09684 104.686357 
L 322.006101 104.844165 
L 322.09684 104.686357 
" clip-path="url(#pdd306ce397)" style="fill: none; stroke: #1f77b4; stroke-width: 1.5; stroke-linecap: square"/>
   </g>
   <g id="line2d_31">
    <path d="M 63.586924 274.529728 
L 76.437248 271.21821 
L 96.880947 264.337969 
L 124.625966 252.474375 
L 158.504094 234.437853 
L 197.639174 209.296036 
L 241.447099 176.502361 
L 288.467605 135.799624 
L 337.240428 87.50933 
L 383.968881 33.849876 
" clip-path="url(#pdd306ce397)" style="fill: none; stroke: #ff7f0e; stroke-width: 1.5; stroke-linecap: square"/>
   </g>
   <g id="patch_3">
    <path d="M 43.081609 287.865876 
L 43.081609 21.753876 
" style="fill: none; stroke: #000000; stroke-width: 0.8; stroke-linejoin: miter; stroke-linecap: square"/>
   </g>
   <g id="patch_4">
    <path d="M 400.201609 287.865876 
L 400.201609 21.753876 
" style="fill: none; stroke: #000000; stroke-width: 0.8; stroke-linejoin: miter; stroke-linecap: square"/>
   </g>
   <g id="patch_5">
    <path d="M 43.081609 287.865876 
L 400.201609 287.865876 
" style="fill: none; stroke: #000000; stroke-width: 0.8; stroke-linejoin: miter; stroke-linecap: square"/>
   </g>
   <g id="patch_6">
    <path d="M 43.081609 21.753876 
L 400.201609 21.753876 
" style="fill: none; stroke: #000000; stroke-width: 0.8; stroke-linejoin: miter; stroke-linecap: square"/>
   </g>
   <g id="text_17">
    <!-- Power vs. Thrust at 0 MPH -->
    <g transform="translate(149.612417 15.753876) scale(0.12 -0.12)">
     <defs>
      <path id="URWPalladioL-Roma-50" d="M 1382 4116 
C 1606 4166 1792 4192 2010 4192 
C 2701 4192 3072 3875 3072 3273 
C 3072 2703 2682 2304 2125 2304 
C 1990 2304 1894 2317 1728 2367 
L 1792 2137 
C 1946 2105 2035 2099 2163 2099 
C 3040 2099 3712 2692 3712 3459 
C 3712 4071 3213 4448 2400 4448 
C 2368 4448 2304 4448 2221 4423 
C 1984 4423 1498 4423 1312 4423 
C 1171 4423 1171 4423 147 4423 
L 147 4224 
L 435 4224 
C 723 4224 774 4140 774 3663 
L 774 766 
C 774 256 742 205 448 205 
L 141 205 
L 141 0 
C 518 0 742 0 1075 0 
C 1408 0 1638 0 2016 0 
L 2016 205 
L 1709 205 
C 1414 205 1382 256 1382 764 
L 1382 4116 
z
" transform="scale(0.015625)"/>
      <path id="URWPalladioL-Roma-76" d="M 3450 2752 
L 3450 2932 
C 3066 2932 2950 2932 2848 2932 
C 2746 2932 2630 2932 2246 2932 
L 2246 2752 
L 2509 2752 
C 2611 2752 2662 2694 2662 2591 
C 2662 2489 2618 2317 2541 2124 
L 2272 1445 
C 2195 1259 2118 1080 1875 549 
L 1114 2393 
C 1075 2482 1056 2566 1056 2636 
C 1056 2707 1114 2752 1216 2752 
L 1530 2752 
L 1530 2932 
C 902 2932 902 2932 781 2932 
C 659 2932 352 2932 38 2932 
L 38 2752 
L 256 2752 
C 352 2739 384 2701 454 2541 
L 1555 -32 
L 1875 -32 
C 1914 77 1978 243 1978 256 
C 2048 447 2131 664 2138 664 
L 2893 2324 
C 3034 2625 3123 2739 3251 2752 
L 3450 2752 
z
" transform="scale(0.015625)"/>
      <path id="URWPalladioL-Roma-2e" d="M 794 744 
C 602 744 429 564 429 372 
C 429 179 602 0 787 0 
C 992 0 1171 173 1171 372 
C 1171 564 992 744 794 744 
z
" transform="scale(0.015625)"/>
      <path id="URWPalladioL-Roma-54" d="M 1632 4114 
C 1651 3896 1658 3749 1658 3473 
L 1658 763 
C 1658 256 1626 205 1331 205 
L 1024 205 
L 1024 0 
C 1402 0 1626 0 1958 0 
C 2291 0 2522 0 2899 0 
L 2899 205 
L 2592 205 
C 2298 205 2266 256 2266 763 
L 2266 3473 
C 2266 3762 2272 3903 2291 4114 
L 3283 4114 
C 3462 4114 3533 4057 3539 3904 
L 3565 3400 
L 3763 3400 
C 3763 3810 3776 4056 3808 4416 
C 3347 4416 3136 4416 2957 4416 
C 2707 4416 2522 4416 2426 4416 
L 1414 4416 
C 1350 4416 1005 4416 550 4416 
L 115 4416 
C 147 4056 160 3810 160 3400 
L 358 3400 
L 384 3904 
C 390 4057 461 4114 640 4114 
L 1632 4114 
z
" transform="scale(0.015625)"/>
      <path id="URWPalladioL-Roma-61" d="M 2074 538 
L 2042 -1 
C 2458 -1 2458 -1 2541 -1 
C 2573 -1 2733 -1 3014 -1 
L 3014 192 
L 2765 192 
C 2611 192 2586 244 2586 558 
L 2586 1731 
C 2586 2668 2317 3008 1574 3008 
C 1299 3008 1043 2937 800 2791 
L 461 2585 
L 461 2171 
L 627 2126 
L 710 2323 
C 845 2623 909 2668 1203 2668 
C 1805 2668 2054 2431 2074 1852 
L 1440 1736 
C 570 1577 205 1277 205 722 
C 205 224 506 -64 1011 -64 
C 1126 -64 1235 -45 1280 -13 
L 2074 538 
z
M 2074 806 
C 1888 544 1485 302 1235 302 
C 979 302 755 538 755 812 
C 755 1048 883 1271 1075 1392 
C 1235 1488 1587 1577 2074 1648 
L 2074 806 
z
" transform="scale(0.015625)"/>
      <path id="URWPalladioL-Roma-4d" d="M 4685 783 
C 4685 276 4659 231 4358 205 
L 4141 186 
L 4141 0 
C 4435 0 4627 0 4960 0 
C 5318 0 5549 0 5926 0 
L 5926 205 
L 5619 205 
C 5325 205 5293 256 5293 766 
L 5293 3663 
C 5293 4166 5325 4224 5619 4224 
L 5888 4256 
L 5888 4436 
C 5402 4436 5402 4436 5293 4436 
C 5197 4436 5197 4436 4685 4436 
L 3008 884 
L 1318 4436 
C 806 4436 806 4436 710 4436 
C 614 4436 614 4436 102 4436 
L 102 4237 
L 384 4237 
C 678 4237 710 4178 710 3674 
L 710 768 
C 710 263 678 205 384 205 
L 102 205 
L 102 0 
C 736 0 736 0 845 0 
C 941 0 941 0 1613 0 
L 1613 205 
L 1331 205 
C 1037 205 1005 262 1005 766 
L 1005 3718 
L 2790 -64 
L 2918 -64 
C 2963 32 3002 134 3040 230 
C 3142 480 3219 658 3264 748 
L 4403 3167 
C 4493 3353 4570 3500 4685 3718 
L 4685 783 
z
" transform="scale(0.015625)"/>
      <path id="URWPalladioL-Roma-48" d="M 3942 773 
C 3942 257 3910 205 3616 205 
L 3309 205 
L 3309 0 
C 3686 0 3910 0 4243 0 
C 4576 0 4806 0 5184 0 
L 5184 205 
L 4877 205 
C 4582 205 4550 256 4550 766 
L 4550 3663 
C 4550 4172 4582 4224 4877 4224 
L 5184 4224 
L 5184 4423 
C 4717 4423 4576 4423 4243 4423 
C 3923 4423 3770 4423 3309 4423 
L 3309 4224 
L 3616 4224 
C 3910 4224 3942 4172 3942 3668 
L 3942 2529 
C 3808 2529 3674 2529 3411 2529 
L 1914 2529 
C 1651 2529 1510 2529 1382 2529 
L 1382 3668 
C 1382 4172 1414 4224 1709 4224 
L 2016 4224 
L 2016 4423 
C 1549 4423 1408 4423 1075 4423 
C 755 4423 602 4423 141 4423 
L 141 4224 
L 448 4224 
C 742 4224 774 4172 774 3663 
L 774 766 
C 774 256 742 205 448 205 
L 141 205 
L 141 0 
C 518 0 742 0 1075 0 
C 1408 0 1638 0 2016 0 
L 2016 205 
L 1709 205 
C 1414 205 1382 257 1382 773 
L 1382 2227 
C 1555 2240 1658 2240 1914 2240 
L 3411 2240 
C 3667 2240 3770 2240 3942 2227 
L 3942 773 
z
" transform="scale(0.015625)"/>
     </defs>
     <use xlink:href="#URWPalladioL-Roma-50" transform="scale(0.996264)"/>
     <use xlink:href="#URWPalladioL-Roma-6f" transform="translate(60.173595 0) scale(0.996264)"/>
     <use xlink:href="#URWPalladioL-Roma-77" transform="translate(114.569175 0) scale(0.996264)"/>
     <use xlink:href="#URWPalladioL-Roma-65" transform="translate(197.657269 0) scale(0.996264)"/>
     <use xlink:href="#URWPalladioL-Roma-72" transform="translate(245.377564 0) scale(0.996264)"/>
     <use xlink:href="#URWPalladioL-Roma-76" transform="translate(309.63606 0) scale(0.996264)"/>
     <use xlink:href="#URWPalladioL-Roma-73" transform="translate(365.923973 0) scale(0.996264)"/>
     <use xlink:href="#URWPalladioL-Roma-2e" transform="translate(408.16544 0) scale(0.996264)"/>
     <use xlink:href="#URWPalladioL-Roma-54" transform="translate(463.956072 0) scale(0.996264)"/>
     <use xlink:href="#URWPalladioL-Roma-68" transform="translate(525.025904 0) scale(0.996264)"/>
     <use xlink:href="#URWPalladioL-Roma-72" transform="translate(583.007965 0) scale(0.996264)"/>
     <use xlink:href="#URWPalladioL-Roma-75" transform="translate(621.563287 0) scale(0.996264)"/>
     <use xlink:href="#URWPalladioL-Roma-73" transform="translate(681.637022 0) scale(0.996264)"/>
     <use xlink:href="#URWPalladioL-Roma-74" transform="translate(723.878489 0) scale(0.996264)"/>
     <use xlink:href="#URWPalladioL-Roma-61" transform="translate(781.262177 0) scale(0.996264)"/>
     <use xlink:href="#URWPalladioL-Roma-74" transform="translate(831.075377 0) scale(0.996264)"/>
     <use xlink:href="#URWPalladioL-Roma-30" transform="translate(888.459065 0) scale(0.996264)"/>
     <use xlink:href="#URWPalladioL-Roma-4d" transform="translate(963.178866 0) scale(0.996264)"/>
     <use xlink:href="#URWPalladioL-Roma-50" transform="translate(1057.425067 0) scale(0.996264)"/>
     <use xlink:href="#URWPalladioL-Roma-48" transform="translate(1117.598663 0) scale(0.996264)"/>
    </g>
   </g>
   <g id="legend_1">
    <g id="patch_7">
     <path d="M 50.081609 59.629172 
L 140.083173 59.629172 
Q 142.083173 59.629172 142.083173 57.629172 
L 142.083173 28.753876 
Q 142.083173 26.753876 140.083173 26.753876 
L 50.081609 26.753876 
Q 48.081609 26.753876 48.081609 28.753876 
L 48.081609 57.629172 
Q 48.081609 59.629172 50.081609 59.629172 
z
" style="fill: #ffffff; opacity: 0.8; stroke: #cccccc; stroke-linejoin: miter"/>
    </g>
    <g id="line2d_32">
     <path d="M 52.081609 34.382113 
L 62.081609 34.382113 
L 72.081609 34.382113 
" style="fill: none; stroke: #1f77b4; stroke-width: 1.5; stroke-linecap: square"/>
    </g>
    <g id="text_18">
     <!-- experimental -->
     <g transform="translate(80.081609 37.882113) scale(0.1 -0.1)">
      <defs>
       <path id="URWPalladioL-Roma-78" d="M 1843 1630 
L 2752 2694 
C 2790 2739 2861 2765 2970 2765 
L 3059 2765 
L 3059 2944 
L 2534 2944 
L 1741 1822 
L 1254 2566 
C 1158 2707 1088 2791 870 3009 
L 128 2880 
L 160 2708 
L 294 2694 
C 410 2694 550 2605 614 2515 
L 1382 1398 
L 429 269 
C 384 212 301 173 237 173 
L 128 173 
L 128 0 
L 678 0 
C 723 71 736 96 813 212 
C 915 391 1018 551 1062 603 
L 1536 1231 
L 2221 208 
L 2227 196 
C 2285 107 2336 44 2387 0 
C 2720 0 2720 0 2778 0 
C 2842 0 2842 0 3174 0 
L 3174 173 
L 3014 192 
C 2938 199 2861 250 2790 346 
L 1843 1630 
z
" transform="scale(0.015625)"/>
       <path id="URWPalladioL-Roma-69" d="M 1203 2993 
L 1146 3019 
C 819 2884 486 2793 147 2755 
L 147 2576 
L 384 2576 
C 640 2576 666 2531 666 2105 
L 666 651 
C 666 244 646 199 429 199 
L 134 199 
L 134 0 
C 774 0 774 0 934 0 
C 1094 0 1094 0 1734 0 
L 1734 199 
L 1440 199 
C 1222 199 1203 244 1203 651 
L 1203 2993 
z
M 909 4416 
C 717 4416 550 4249 550 4056 
C 550 3870 717 3704 902 3704 
C 1088 3704 1261 3870 1261 4056 
C 1261 4236 1088 4416 909 4416 
z
" transform="scale(0.015625)"/>
       <path id="URWPalladioL-Roma-6d" d="M 115 2565 
L 352 2565 
C 608 2565 634 2520 634 2094 
L 634 643 
C 634 237 614 192 397 192 
L 102 192 
L 102 -7 
C 717 -7 736 -7 915 -7 
C 1094 -7 1261 -7 1677 -7 
L 1677 179 
L 1408 205 
C 1190 205 1171 250 1171 654 
L 1171 2014 
C 1171 2302 1594 2616 1978 2616 
C 2323 2616 2560 2287 2560 1798 
L 2560 643 
C 2560 237 2541 192 2323 192 
L 2029 192 
L 2029 -7 
C 2669 -7 2669 -7 2829 -7 
C 2989 -7 2989 -7 3629 -7 
L 3629 192 
L 3334 192 
C 3117 192 3098 237 3098 643 
L 3098 2011 
C 3098 2300 3520 2616 3904 2616 
C 4250 2616 4486 2291 4486 1806 
L 4486 -7 
C 4877 -7 4883 -7 4992 -7 
C 5075 -7 5075 -7 5562 -7 
L 5562 192 
L 5261 192 
C 5043 192 5024 237 5024 643 
L 5024 1970 
C 5024 2608 4653 3008 4064 3008 
C 3840 3008 3654 2950 3539 2847 
L 3053 2412 
C 2848 2834 2586 3008 2144 3008 
C 1907 3008 1728 2950 1613 2847 
L 1171 2437 
L 1171 2982 
L 1114 3008 
C 787 2873 454 2783 115 2745 
L 115 2565 
z
" transform="scale(0.015625)"/>
       <path id="URWPalladioL-Roma-6e" d="M 2624 -7 
C 3014 -7 3021 -7 3130 -7 
C 3219 -7 3219 -7 3661 -7 
L 3661 179 
L 3398 205 
C 3181 205 3162 244 3162 654 
L 3162 1892 
C 3162 2642 2810 3008 2093 3008 
C 1856 3008 1722 2963 1587 2847 
L 1101 2424 
L 1101 2982 
L 1043 3008 
C 717 2873 384 2783 45 2745 
L 45 2565 
L 282 2565 
C 538 2565 563 2520 563 2094 
L 563 643 
C 563 237 544 192 326 192 
L 38 192 
L 38 -7 
C 474 -7 646 -7 832 -7 
C 1018 -7 1190 -7 1626 -7 
L 1626 192 
L 1338 192 
C 1120 192 1101 237 1101 643 
L 1101 2011 
C 1101 2300 1523 2616 1914 2616 
C 2342 2616 2624 2297 2624 1806 
L 2624 -7 
z
" transform="scale(0.015625)"/>
       <path id="URWPalladioL-Roma-6c" d="M 147 4256 
L 506 4256 
C 621 4256 666 4185 666 3992 
L 666 651 
C 666 244 646 199 429 199 
L 134 199 
L 134 0 
C 774 0 774 0 934 0 
C 1094 0 1094 0 1734 0 
L 1734 199 
L 1440 199 
C 1222 199 1203 244 1203 650 
L 1203 4621 
L 1146 4673 
C 864 4564 653 4512 147 4435 
L 147 4256 
z
" transform="scale(0.015625)"/>
      </defs>
      <use xlink:href="#URWPalladioL-Roma-65" transform="scale(0.996264)"/>
      <use xlink:href="#URWPalladioL-Roma-78" transform="translate(47.720295 0) scale(0.996264)"/>
      <use xlink:href="#URWPalladioL-Roma-70" transform="translate(99.126642 0) scale(0.996264)"/>
      <use xlink:href="#URWPalladioL-Roma-65" transform="translate(159.001036 0) scale(0.996264)"/>
      <use xlink:href="#URWPalladioL-Roma-72" transform="translate(206.721331 0) scale(0.996264)"/>
      <use xlink:href="#URWPalladioL-Roma-69" transform="translate(246.073228 0) scale(0.996264)"/>
      <use xlink:href="#URWPalladioL-Roma-6d" transform="translate(275.063589 0) scale(0.996264)"/>
      <use xlink:href="#URWPalladioL-Roma-65" transform="translate(363.033263 0) scale(0.996264)"/>
      <use xlink:href="#URWPalladioL-Roma-6e" transform="translate(410.753558 0) scale(0.996264)"/>
      <use xlink:href="#URWPalladioL-Roma-74" transform="translate(468.735619 0) scale(0.996264)"/>
      <use xlink:href="#URWPalladioL-Roma-61" transform="translate(501.212707 0) scale(0.996264)"/>
      <use xlink:href="#URWPalladioL-Roma-6c" transform="translate(551.025907 0) scale(0.996264)"/>
     </g>
    </g>
    <g id="line2d_33">
     <path d="M 52.081609 49.319761 
L 62.081609 49.319761 
L 72.081609 49.319761 
" style="fill: none; stroke: #ff7f0e; stroke-width: 1.5; stroke-linecap: square"/>
    </g>
    <g id="text_19">
     <!-- MotoCalc -->
     <g transform="translate(80.081609 52.819761) scale(0.1 -0.1)">
      <defs>
       <path id="URWPalladioL-Roma-43" d="M 4288 539 
L 4230 603 
C 3834 346 3392 218 2906 218 
C 1658 218 826 1051 826 2313 
C 826 3493 1555 4274 2656 4274 
C 3283 4274 3930 4018 3930 3769 
L 3930 3307 
L 4128 3307 
C 4134 3627 4160 3857 4250 4280 
C 3706 4460 3238 4544 2771 4544 
C 2214 4544 1683 4409 1254 4159 
C 525 3730 141 3057 141 2192 
C 141 807 1152 -128 2656 -128 
C 3187 -128 3667 -13 4109 218 
L 4288 539 
z
" transform="scale(0.015625)"/>
       <path id="URWPalladioL-Roma-63" d="M 2554 1994 
C 2554 2289 2586 2552 2643 2783 
C 2387 2937 2163 3008 1901 3008 
C 1594 3008 1235 2886 851 2642 
C 403 2360 166 1911 166 1347 
C 166 481 774 -128 1632 -128 
C 1965 -128 2445 -6 2509 90 
L 2643 295 
L 2579 391 
C 2342 263 2138 205 1907 205 
C 1197 205 730 757 730 1603 
C 730 2289 1050 2674 1626 2674 
C 1907 2674 2214 2546 2330 2386 
L 2374 1994 
L 2554 1994 
z
" transform="scale(0.015625)"/>
      </defs>
      <use xlink:href="#URWPalladioL-Roma-4d" transform="scale(0.996264)"/>
      <use xlink:href="#URWPalladioL-Roma-6f" transform="translate(94.246201 0) scale(0.996264)"/>
      <use xlink:href="#URWPalladioL-Roma-74" transform="translate(148.641782 0) scale(0.996264)"/>
      <use xlink:href="#URWPalladioL-Roma-6f" transform="translate(181.118869 0) scale(0.996264)"/>
      <use xlink:href="#URWPalladioL-Roma-43" transform="translate(235.51445 0) scale(0.996264)"/>
      <use xlink:href="#URWPalladioL-Roma-61" transform="translate(306.149243 0) scale(0.996264)"/>
      <use xlink:href="#URWPalladioL-Roma-6c" transform="translate(355.962443 0) scale(0.996264)"/>
      <use xlink:href="#URWPalladioL-Roma-63" transform="translate(384.952805 0) scale(0.996264)"/>
     </g>
    </g>
   </g>
  </g>
 </g>
 <defs>
  <clipPath id="pdd306ce397">
   <rect x="43.081609" y="21.753876" width="357.12" height="266.112"/>
  </clipPath>
 </defs>
</svg>
